<svg id="Layer_1" data-name="Layer 1" xmlns="http://www.w3.org/2000/svg" viewBox="0 0 100 100"><defs><style>.cls-1{fill:#005236;}.cls-2{fill:#0caf4c;}</style></defs><path class="cls-1" d="M52.32,38.54,89.39,75.61a16.36,16.36,0,0,1,4.79,11.58V100L57.11,62.93a16.38,16.38,0,0,1-4.79-11.58Z"/><path class="cls-2" d="M73.31,12.81V0L89.39,16.08a16.36,16.36,0,0,1,4.79,11.57V40.47L78.11,24.39A16.37,16.37,0,0,1,73.31,12.81Z"/><path class="cls-2" d="M94.18,57.11V72.46L49.42,27.7a2.59,2.59,0,0,0-1.58.5l-42,42V57.81a28.54,28.54,0,0,1,8.36-20.19L50.35,1.45,85.82,36.92A28.58,28.58,0,0,1,94.18,57.11Z"/></svg>