<svg xmlns="http://www.w3.org/2000/svg" width="322.849" height="130.91" viewBox="0 0 322.849 130.91">
  <g id="Logo_-_GPC-01" data-name="Logo - GPC-01" transform="translate(-129.054 -203.07)">
    <path id="Path_15573" data-name="Path 15573" d="M323.736,213.279c0,4.1-3.928,9.208-3.928,9.208s-3.928-5.1-3.928-9.208,3.928-10.209,3.928-10.209S323.736,209.193,323.736,213.279Z" transform="translate(-150.532 0)" fill="#006837"/>
    <path id="Path_15574" data-name="Path 15574" d="M255.649,280.122c-2.7-.367-1.972,1.224-1.972,1.224,0,.715,2.815,1.177,2.753,2.671a13.063,13.063,0,0,0,.571,5.409c.715,1.591-1.764,2.137-2.162,1.166s-1.925-2.378-2-3.33-.777-2.766-2.018-1.923-.175,1.622.54,2.1.7.907-.445,1.686-3.149,2.7-3.038,3.992a7.866,7.866,0,0,0,3.643,5.756c.987.542.478,2.137.239,2.164-.334,0-6.489-1.943-6.935-6.871-.635,3.085.334,9.925,8.971,10.8,0,0-.573-2.815.635-3.961s5.455-3.753,6.022-8.548S258.353,280.5,255.649,280.122Zm-1.255,16.412c-.447.478-2.768-.27-3.419-1.828s.237-1.989.985-2.2c0,0,.175.239,1.257,1.36S254.838,296.056,254.394,296.534Z" transform="translate(-93.148 -62.039)" fill="#8cc63f"/>
    <path id="Path_15575" data-name="Path 15575" d="M312.353,369l-.738,17.873s-2.588-5.886-4.618-7S311.945,371.644,312.353,369Z" transform="translate(-143.077 -133.695)" fill="#8cc63f"/>
    <path id="Path_15576" data-name="Path 15576" d="M271.552,394.14c-.668,2.99-4.882,4.357-4.882,4.357,7.314,3.8-1.067,8.779-3.9,7.872s-1.877-4.214-1-3.054c2.959,3.2,6.378-2.941,1.305-3.149s-11.5,11.881-11.5,11.881-6.43-12.072-11.5-11.881-1.653,6.347,1.3,3.149c.876-1.166,1.846,2.137-1,3.054s-11.213-4.08-3.913-7.872c0,0-4.2-1.36-4.857-4.357,0,0-2.689,9.383,5.634,15.219s13.247,8.016,12.993,19.291-.3,33.908-.3,33.908l1.655-1.48,1.653,1.48s-.064-22.648-.3-33.908,4.662-13.453,12.993-19.291S271.552,394.14,271.552,394.14Zm-30.759,15.172s3.5-1.83,3.85-3.108c0,0,5.692,7.157,5.692,10.306C250.336,416.516,245.009,410.536,240.793,409.312Zm12.023,7.2c0-3.149,5.694-10.306,5.694-10.306.35,1.272,3.848,3.108,3.848,3.108C258.145,410.536,252.816,416.516,252.816,416.516Z" transform="translate(-82.301 -153.951)" fill="#006837"/>
    <path id="Path_15577" data-name="Path 15577" d="M175.178,454.321s-13.4-2.706-18.407-15.971C152.847,443.358,145,457.163,145,464.879s3.378,11.091,7.034,11.091,6.37-3.477,6.209-8.548-2.842-5.785-4.519-5.785a2.44,2.44,0,0,0-2.638,2.689c0,1.675,1.065,1.98,1.776,1.98s2.792-1.725,2.792.762-6.8,4.214-6.8-3.1,4.87-15.392,9.339-15.392,6.343,6.5,10.353,6.5A26.358,26.358,0,0,0,175.178,454.321Z" transform="translate(-12.848 -189.572)" fill="#8cc63f"/>
    <path id="Path_15578" data-name="Path 15578" d="M214.73,549.83s7.716.557,11.462,3.551,8.019-2.03,8.019-2.03a9.825,9.825,0,0,1-8.983,6.7c-.153,2.081-.3,5.888-2.64,7.359a15.067,15.067,0,0,0-1.319-8.779A19.486,19.486,0,0,0,214.73,549.83Z" transform="translate(-69.032 -279.395)" fill="#8cc63f"/>
    <path id="Path_15579" data-name="Path 15579" d="M226.14,674.6s4.274-2.438,9-5.008,8.087-5.618,8.274-9.34c0,0,1.675,7.986-2.86,10.016,2.3,1.894,2.1,5.684,2.1,5.684s-3.044-4.4-6.766-4.06S227.426,674.531,226.14,674.6Z" transform="translate(-78.225 -368.364)" fill="#006837"/>
    <path id="Path_15580" data-name="Path 15580" d="M253.86,759.621s-2.4,2.5-2.4,4.534a8.655,8.655,0,0,0,1.15,3.924s-2.436-.971-3.079-2.976-4.4-2.4-4.4-2.4a4.666,4.666,0,0,1,4.872-.971C250,761.719,251.964,759.351,253.86,759.621Z" transform="translate(-93.526 -448.413)" fill="#8cc63f"/>
    <path id="Path_15581" data-name="Path 15581" d="M161.789,638.917c.163,1.207-5.6-.509-5.086,2.537s3.258,3.248,4.408,3.248,4.569-1.049,4.365-4.635-3.99-4.332-8.221-4.365-10.254-3.924-9.713-8.831,1.793-8.9,6.605-8.763c0,0-.136,2.572,1.523,2.673s2.3-2.436-.3-3.384-9.379.511-9.42,9.542c0,7.207,3.858,9.034,3.858,9.034s-7.005,1.36-7.005-4.093-1.014-13.671,2.842-16.954,16.216-9.338,15.847-18.677c0,0-2.539,4.567-6.5,4.2,2.605,1.387,2.842,4.534.457,5.853.084-.777-.255-3.992-3.2-3.992s-3.823,3.755-1.591,5.989c0,0-3.755,3.755-5.616,4.431-.981.068-2.065-2.137-1.659-3.722s5.008-3.079,5.008-8.354-1.15-5.752-1.15-5.752-3.755,3.926-4.907,5.051-1.455,5.414.272,8.019a28.8,28.8,0,0,1-.542,4.3c-.3.709-5.177-.641-4.907-3.108s2.64-1.319,2.438-4.274-3.182-2.807-3.926-1.589a15.622,15.622,0,0,0-1.185,4.2s-3.485-2.741-2.976-4.874,4.194-3.145,4.194-3.145-5.717-4.662-5.346-10.76c-1.183,6.36-1.894,8.559-.641,13.4s7.382,9.745,8.8,11.641,1.554,8.8,1.523,12.859-2.166,11.031,8.662,11.336C159.349,638.037,161.486,636.683,161.789,638.917Z" transform="translate(0 -310.722)" fill="#006837"/>
    <path id="Path_15582" data-name="Path 15582" d="M361.526,294.164c-.445,4.929-6.6,6.871-6.939,6.871-.239-.033-.748-1.622.239-2.164a7.815,7.815,0,0,0,3.641-5.756c.1-1.288-1.892-3.213-3.036-3.992s-1.146-1.208-.445-1.686,1.8-1.255.54-2.1-1.956.985-2.02,1.923-1.589,2.331-2,3.324-2.879.429-2.164-1.166a13.038,13.038,0,0,0,.573-5.408c-.064-1.5,2.733-1.951,2.733-2.665,0,0,.748-1.591-1.956-1.224s-5.375,7.522-4.8,12.324,4.8,7.411,6.022,8.548.635,3.961.635,3.961C361.192,304.089,362.163,297.249,361.526,294.164Zm-9.574,2.37c-.445-.478.1-1.554,1.177-2.671a18.326,18.326,0,0,0,1.255-1.36c.748.206,1.622.635.987,2.2S352.382,297.012,351.952,296.534Z" transform="translate(-174.645 -62.039)" fill="#8cc63f"/>
    <path id="Path_15583" data-name="Path 15583" d="M336.1,369l.734,17.873s2.59-5.886,4.62-7S336.506,371.644,336.1,369Z" transform="translate(-166.824 -133.695)" fill="#8cc63f"/>
    <path id="Path_15584" data-name="Path 15584" d="M371.84,454.321s13.4-2.706,18.409-15.971c3.924,5.008,11.775,18.813,11.775,26.529s-3.384,11.091-7.035,11.091-6.366-3.477-6.217-8.548,2.842-5.785,4.517-5.785a2.443,2.443,0,0,1,2.64,2.689c0,1.675-1.067,1.98-1.778,1.98s-2.792-1.725-2.792.762,6.8,4.214,6.8-3.1-4.866-15.392-9.333-15.392-6.345,6.5-10.354,6.5A26.359,26.359,0,0,1,371.84,454.321Z" transform="translate(-195.621 -189.572)" fill="#8cc63f"/>
    <path id="Path_15585" data-name="Path 15585" d="M376.611,549.83s-7.714.557-11.472,3.551-8.019-2.03-8.019-2.03a9.829,9.829,0,0,0,8.985,6.7c.152,2.081.3,5.888,2.638,7.359a15.059,15.059,0,0,1,1.321-8.779A19.493,19.493,0,0,1,376.611,549.83Z" transform="translate(-183.76 -279.395)" fill="#8cc63f"/>
    <path id="Path_15586" data-name="Path 15586" d="M373.1,674.6s-4.262-2.438-9-5.008-8.087-5.618-8.274-9.34c0,0-1.675,7.986,2.86,10.016-2.292,1.894-2.1,5.684-2.1,5.684s3.046-4.4,6.768-4.06S371.822,674.531,373.1,674.6Z" transform="translate(-182.474 -368.364)" fill="#006837"/>
    <path id="Path_15587" data-name="Path 15587" d="M382.12,759.621s2.4,2.5,2.4,4.534a8.646,8.646,0,0,1-1.152,3.924s2.436-.971,3.079-2.976,4.4-2.4,4.4-2.4a4.668,4.668,0,0,0-4.872-.971C385.982,761.719,384.014,759.351,382.12,759.621Z" transform="translate(-203.903 -448.413)" fill="#8cc63f"/>
    <path id="Path_15588" data-name="Path 15588" d="M359.294,638.917c-.165,1.206,5.6-.509,5.086,2.537s-3.258,3.248-4.41,3.248-4.567-1.049-4.365-4.635,3.994-4.332,8.229-4.365,10.253-3.924,9.713-8.831-1.793-8.9-6.605-8.763c0,0,.136,2.572-1.521,2.673s-2.3-2.436.3-3.384,9.377.511,9.4,9.542c0,7.207-3.856,9.034-3.856,9.034s6.994,1.36,6.994-4.093,1.016-13.671-2.842-16.954-16.208-9.339-15.835-18.677c0,0,2.537,4.567,6.5,4.2-2.605,1.387-2.842,4.534-.456,5.853-.086-.777.253-3.992,3.2-3.992s3.823,3.755,1.589,5.989c0,0,3.757,3.755,5.618,4.431.971.068,2.063-2.137,1.657-3.722s-5.008-3.079-5.008-8.353,1.152-5.752,1.152-5.752,3.755,3.926,4.905,5.051,1.455,5.414-.27,8.02a28.794,28.794,0,0,0,.542,4.3c.3.709,5.175-.641,4.905-3.108s-2.638-1.319-2.436-4.274,3.18-2.807,3.924-1.589a15.621,15.621,0,0,1,1.185,4.2s3.485-2.741,2.978-4.874-4.2-3.145-4.2-3.145,5.719-4.662,5.346-10.76c1.185,6.36,1.894,8.559.643,13.4s-7.382,9.745-8.8,11.641-1.554,8.8-1.521,12.859,2.174,11.017-8.66,11.322C361.73,638.037,359.6,636.682,359.294,638.917Z" transform="translate(-182.532 -310.722)" fill="#006837"/>
    <path id="Path_15589" data-name="Path 15589" d="M327.9,756.88s-4.062,2.867-3.6,6.294,2.257,3.856,2.257,3.856a4.635,4.635,0,0,0,1.748-3.579C328.405,760.991,326.841,759.215,327.9,756.88Z" transform="translate(-157.287 -446.222)" fill="#006837"/>
    <path id="Path_15590" data-name="Path 15590" d="M335.084,816.925s-1.218-3.808.431-5.888,4.34-3.044,4.8-4.517c0,0,.888,1.142-.229,3.1s-4.822,3.044-4.9,3.959a8.089,8.089,0,0,0,.28,3.2C335.77,817.179,335.084,816.925,335.084,816.925Z" transform="translate(-165.656 -486.218)" fill="#006837"/>
    <path id="Path_15591" data-name="Path 15591" d="M301.075,805.671s-1.818-3.172-2.976-3.375-3.691-1.117-4.458-2.436c0,0,.938,4.035,2.207,5.152S300.263,806.331,301.075,805.671Z" transform="translate(-132.612 -480.852)" fill="#006837"/>
    <path id="Path_15592" data-name="Path 15592" d="M612.493,445.99c0,1.539-.033,1.607-.431,1.846a15.959,15.959,0,0,1-7.038,1.539c-2.526,0-7.237-.34-10.922-3.66a13.547,13.547,0,0,1-3.951-9.752c0-5.473,2.59-9.341,5.544-11.256a15.9,15.9,0,0,1,8.832-2.156,27.714,27.714,0,0,1,5.078.583,16.169,16.169,0,0,0,2.689.344c.332.035.389.171.389.307a44.857,44.857,0,0,0-.231,4.857c0,.546-.066.717-.3.717-.167,0-.194-.2-.233-.513a5.379,5.379,0,0,0-.7-2.257c-.83-1.3-3.518-2.772-7.8-2.772a10.4,10.4,0,0,0-7.106,2.257c-1.919,1.576-3.279,4.692-3.279,8.693a14.177,14.177,0,0,0,3.518,9.478,11.882,11.882,0,0,0,8.7,3.66,8.7,8.7,0,0,0,3.786-.719,1.245,1.245,0,0,0,.663-1.195v-5.828c0-2.77-.165-3.149-1.494-3.524a6.047,6.047,0,0,0-1.129-.1c-.132,0-.264-.068-.264-.206,0-.206.165-.274.53-.274,1.494,0,3.584.1,3.751.1s2.257-.1,3.254-.1c.365,0,.53.068.53.274,0,.138-.132.206-.266.206a4.826,4.826,0,0,0-.829.1c-.9.171-1.166.754-1.228,1.943-.066,1.1-.066,2.121-.066,3.561Z" transform="translate(-371.52 -176.842)" fill="#006837"/>
    <path id="Path_15593" data-name="Path 15593" d="M731.486,453.338c0-4.517,0-5.339-.066-6.261s-.3-1.438-1.329-1.644a5.245,5.245,0,0,0-.8-.068c-.233,0-.365-.068-.365-.206s.1-.239.4-.239c1.428,0,3.452.1,3.52.1.3,0,2.555-.1,3.483-.1a9.14,9.14,0,0,1,5.44,1.3,5.245,5.245,0,0,1,1.991,4.175c0,1.881-.9,4.274-3.518,6.467,2.424,3.079,4.416,5.612,6.108,7.425a5.569,5.569,0,0,0,3.518,2.088c.233.033.931.068,1.031.068.264,0,.363.1.363.239,0,.171-.132.239-.6.239h-2.331a7.272,7.272,0,0,1-3.021-.41c-1.395-.616-2.391-2.156-4.116-4.447-1.3-1.644-2.623-3.5-3.188-4.21a.47.47,0,0,0-.389-.206l-3.419-.033c-.132,0-.165.033-.165.171v.478c0,2.737,0,5.236.165,6.467.1.822.194,1.505,1.3,1.643.33.033.7.068.971.068.3,0,.431.1.431.194,0,.171-.132.274-.464.274-1.727,0-3.584-.1-3.718-.1-.531,0-1.991.1-2.887.1-.332,0-.466-.068-.466-.274,0-.1.194-.194.4-.194a2.778,2.778,0,0,0,.73-.068c.565-.1.764-.48.863-1.3.167-1.23.134-4.039.134-6.605Zm2.557,2.43a.435.435,0,0,0,.165.41,8.306,8.306,0,0,0,2.955.443,3.8,3.8,0,0,0,2.224-.513c.995-.649,1.659-2.155,1.659-4.344,0-3.73-1.925-5.783-4.88-5.783a8.644,8.644,0,0,0-1.925.171.31.31,0,0,0-.194.309Z" transform="translate(-483.339 -194.866)" fill="#006837"/>
    <path id="Path_15594" data-name="Path 15594" d="M846.857,456.839c-.165,0-.266.1-.332.274l-1.461,4.274a8.852,8.852,0,0,0-.563,2.43c0,.616.365.89,1.1.89h.231c.3,0,.388.1.388.239,0,.171-.264.239-.5.239-.73,0-2.257-.1-2.623-.1-.332,0-1.793.1-3.186.1-.365,0-.53-.068-.53-.239,0-.136.13-.239.388-.239a4.443,4.443,0,0,0,.664-.035c1.428-.136,1.991-1.267,2.557-2.7l6.638-18.034c.367-.991.466-1.166.7-1.166.167,0,.3.136.664,1.094.464,1.131,4.979,13.071,6.739,17.348,1.1,2.7,2.059,3.149,2.526,3.32a3.081,3.081,0,0,0,1.129.171c.231,0,.389.068.389.239s-.132.239-.5.239c-.33,0-2.821,0-5.051-.068-.631-.035-.83-.068-.83-.239a.282.282,0,0,1,.233-.239c.132-.068.33-.239.132-.754L853.134,457a.3.3,0,0,0-.266-.171Zm5.634-1.195c.134,0,.134-.1.1-.208l-2.621-7.561c-.167-.478-.194-.478-.367,0l-2.479,7.567c-.066.14,0,.208.066.208Z" transform="translate(-572.332 -193.134)" fill="#006837"/>
    <path id="Path_15595" data-name="Path 15595" d="M963.713,444.183c0-1.061.1-1.4.365-1.4.233,0,.8.684,1.028.923.3.344,4.915,5.2,9.562,10.1,2.589,2.6,5.909,6.125,6.774,6.947l-.367-14.238c-.033-1.848-.233-2.463-1.127-2.7a8.1,8.1,0,0,0-1.3-.138c-.332,0-.389-.136-.389-.272,0-.171.264-.206.6-.206,1.428,0,2.823.1,3.122.1.33,0,1.36-.1,2.656-.1.363,0,.462.035.462.206,0,.136-.1.239-.3.272s-.464.035-.829.1c-.764.171-1,.515-1,2.568l-.066,17.175c0,1.711-.066,1.882-.3,1.882s-.565-.239-2.193-1.814c-.132-.068-4.746-4.791-7.635-7.7l-7.611-8.142.433,13.377c.064,2.36.262,3.252,1.092,3.458a5.641,5.641,0,0,0,1.36.136c.264,0,.389.1.389.239,0,.171-.167.239-.531.239-1.793,0-2.99-.1-3.223-.1s-1.459.1-2.887.1c-.3,0-.5-.033-.5-.239,0-.136.132-.239.464-.239a3.245,3.245,0,0,0,1.03-.136c.73-.241.9-1.166.9-3.664C963.713,444.6,963.746,449.869,963.713,444.183Z" transform="translate(-670.575 -193.142)" fill="#006837"/>
    <path id="Path_15596" data-name="Path 15596" d="M1103.053,453.311c0-4.517,0-5.371-.064-6.261-.068-.925-.332-1.4-1.3-1.609a7.79,7.79,0,0,0-.972-.07c-.163,0-.332-.1-.332-.2,0-.206.194-.274.5-.274,1.36,0,3.45.1,3.55.1.233,0,1.96-.1,3.817-.1,2.914,0,8.367-.307,11.885,3.353a10.271,10.271,0,0,1,2.823,7.357,11.9,11.9,0,0,1-3.155,8.177c-1.294,1.335-3.817,3.353-8.863,3.353-1.261,0-2.888-.068-4.149-.171-1.261-.068-2.29-.171-2.391-.171-.066,0-.5,0-1.129.035-.629,0-1.426.068-1.925.068-.3,0-.462-.068-.462-.239,0-.1.1-.239.363-.239a2.952,2.952,0,0,0,.764-.1c.565-.1.763-.822.865-1.573a56.368,56.368,0,0,0,.163-6.366Zm2.72,2.914c0,3.079.031,5.748.031,6.261a5.633,5.633,0,0,0,.332,2.292c.365.583,1.428,1.3,4.88,1.3a9.428,9.428,0,0,0,6.9-2.669c1.461-1.505,2.158-4.08,2.158-6.811a10.178,10.178,0,0,0-2.854-7.355c-2.823-2.914-6.077-3.25-9.362-3.25a5.646,5.646,0,0,0-1.694.239.56.56,0,0,0-.365.583c-.031.991-.031,3.9-.031,5.952Z" transform="translate(-782.636 -194.84)" fill="#006837"/>
    <path id="Path_15597" data-name="Path 15597" d="M596.066,598.4c0-4.872,0-5.746-.062-6.747-.06-1.063-.3-1.554-1.3-1.779a5.508,5.508,0,0,0-1.03-.093c-.12,0-.243-.062-.243-.194,0-.194.152-.251.486-.251,1.36,0,3.18.093,3.421.093.666,0,2.422-.093,3.817-.093,3.784,0,5.148,1.311,5.634,1.781a5.774,5.774,0,0,1,1.515,4.08c0,4.085-3.159,7.089-7.458,7.089a4.376,4.376,0,0,1-.637-.031c-.151,0-.332-.064-.332-.221,0-.249.181-.28.818-.28a5.073,5.073,0,0,0,5.245-5.34,6.575,6.575,0,0,0-1.7-4.56,5.148,5.148,0,0,0-4.15-1.554,3.63,3.63,0,0,0-1.3.194c-.183.062-.243.282-.243.594v12.835c0,3,0,5.465.152,6.778.091.905.272,1.591,1.181,1.717a12.912,12.912,0,0,0,1.36.126c.183,0,.243.093.243.194,0,.155-.151.249-.484.249-1.667,0-3.575-.093-3.726-.093-.091,0-2,.093-2.914.093-.334,0-.486-.062-.486-.249,0-.093.06-.194.243-.194a4.549,4.549,0,0,0,.907-.126c.606-.126.758-.812.88-1.717.151-1.313.151-3.779.151-6.778Z" transform="translate(-374.163 -311.23)" fill="#006837"/>
    <path id="Path_15598" data-name="Path 15598" d="M705.445,618.948c0,3.812.7,5.439,1.848,6.5a5.657,5.657,0,0,0,4,1.436,5.048,5.048,0,0,0,4.149-1.811c1.21-1.436,1.482-3.812,1.482-6.528v-3.3c0-4.091,0-4.81-.06-5.653-.06-.905-.151-1.374-1.121-1.531a6.778,6.778,0,0,0-.847-.062c-.183,0-.3-.093-.3-.194,0-.194.151-.251.424-.251,1.3,0,2.817.1,2.937.1.151,0,1.455-.1,2.3-.1.3,0,.426.062.426.219,0,.124-.122.218-.3.218a4.04,4.04,0,0,0-.546.031c-.847.093-.971.657-1.03,1.554-.031.843-.031,1.554-.031,5.653V618c0,2.811-.3,6.184-2.452,8.089a7.7,7.7,0,0,1-5.542,1.873,8.25,8.25,0,0,1-5.663-1.873c-1.3-1.251-2.242-3.124-2.242-6.994v-3.868c0-4.123,0-4.841-.091-5.684-.029-.843-.181-1.375-1.121-1.5a5.772,5.772,0,0,0-.777-.062c-.212,0-.332-.093-.332-.194,0-.194.12-.251.455-.251,1.3,0,2.937.1,3.149.1.243,0,2.028-.1,2.846-.1.334,0,.423.062.423.22s-.212.218-.363.218a5.884,5.884,0,0,0-.666.062c-.727.093-.847.625-.907,1.5-.031.843-.031,1.554-.031,5.684Z" transform="translate(-460.472 -325.894)" fill="#006837"/>
    <path id="Path_15599" data-name="Path 15599" d="M839.323,615.231c0-4.123,0-4.872-.062-5.715s-.272-1.311-1.21-1.5a4.932,4.932,0,0,0-.727-.062c-.212,0-.334-.062-.334-.194s.091-.22.363-.22c1.3,0,3.151.1,3.211.1.272,0,2.331-.1,3.18-.1a8.356,8.356,0,0,1,4.965,1.187,4.777,4.777,0,0,1,1.818,3.81c0,1.719-.818,3.9-3.211,5.9,2.211,2.811,4.029,5.123,5.573,6.778a5.041,5.041,0,0,0,3.209,1.906c.212.031.849.064.938.064.243,0,.334.094.334.218,0,.156-.122.218-.546.218H854.7a6.635,6.635,0,0,1-2.757-.373c-1.271-.563-2.18-1.97-3.755-4.06-1.181-1.5-2.391-3.186-2.914-3.843a.432.432,0,0,0-.363-.194l-3.12-.031c-.12,0-.151.031-.151.157v.437c0,2.5,0,4.779.151,5.9.092.748.181,1.371,1.181,1.5.3.031.635.064.878.064s.389.093.389.194c0,.156-.123.249-.426.249-1.573,0-3.27-.093-3.392-.093-.484,0-1.816.093-2.634.093-.3,0-.424-.062-.424-.249,0-.093.181-.194.363-.194a2.47,2.47,0,0,0,.667-.064c.515-.093.7-.437.787-1.187.152-1.125.122-3.691.122-6.022Zm2.331,2.216a.388.388,0,0,0,.151.375,7.508,7.508,0,0,0,2.695.406,3.469,3.469,0,0,0,2.03-.468c.909-.583,1.513-1.966,1.513-3.967,0-3.4-1.749-5.276-4.451-5.276a7.923,7.923,0,0,0-1.749.155.282.282,0,0,0-.183.282Z" transform="translate(-570.406 -325.894)" fill="#006837"/>
    <path id="Path_15600" data-name="Path 15600" d="M940.2,610.211c-.424-1.375-.635-1.842-1.484-2.094a5.045,5.045,0,0,0-1.09-.124c-.152,0-.363-.062-.363-.249,0-.126.152-.194.455-.194,1.574,0,2.967.1,3.27.1.212,0,1.554-.1,2.968-.1.363,0,.426.126.426.219,0,.194-.185.249-.426.249a2.94,2.94,0,0,0-.971.124c-.272.1-.3.346-.3.656a21.02,21.02,0,0,0,.515,2.407c.388,1.684,3,10.961,3.452,12.46L952.252,609c.422-1.187.583-1.342.727-1.342.212,0,.364.373.727,1.374l5.36,14.679c.726-2.562,3.271-10.49,4.08-13.585a4.5,4.5,0,0,0,.243-1.313c0-.468-.154-.812-1.455-.812-.272,0-.388-.124-.388-.249s.122-.194.455-.194c1.121,0,2.331.1,2.543.1s1.667-.1,2.485-.1c.243,0,.363.1.363.194,0,.155-.152.249-.388.249a5.489,5.489,0,0,0-.777.093c-.909.22-1.21,1.531-1.7,2.936-1.181,3.374-3.885,11.745-4.785,14.337-.777,2.186-1,2.623-1.243,2.623-.3,0-.484-.437-.876-1.593l-5.21-14.242c-.971,2.436-4.632,11.868-5.542,14.242-.453,1.218-.665,1.593-.938,1.593-.3,0-.453-.406-1.059-2.372Z" transform="translate(-651.197 -325.902)" fill="#006837"/>
    <path id="Path_15601" data-name="Path 15601" d="M1098.719,618.487c-.151,0-.243.093-.3.249l-1.333,3.9a8.085,8.085,0,0,0-.515,2.219c0,.562.334.814,1,.814h.212c.274,0,.363.093.363.218,0,.155-.241.218-.453.218-.666,0-2.059-.093-2.391-.093s-1.638.093-2.914.093c-.334,0-.484-.062-.484-.218,0-.124.12-.218.363-.218a3.976,3.976,0,0,0,.606-.033c1.3-.124,1.816-1.156,2.331-2.467l6.055-16.458c.334-.905.425-1.063.635-1.063.153,0,.274.126.606,1,.426,1.032,4.544,11.932,6.149,15.835,1,2.469,1.878,2.873,2.3,3.031a2.786,2.786,0,0,0,1.029.157c.212,0,.363.062.363.218s-.12.218-.453.218-2.576,0-4.6-.062c-.583-.031-.758-.062-.758-.218a.258.258,0,0,1,.212-.219c.12-.062.3-.219.12-.688l-2.391-6.277a.27.27,0,0,0-.243-.155Zm5.148-1.094c.121,0,.121-.093.089-.194l-2.391-6.9c-.151-.437-.181-.437-.332,0l-2.271,6.9c-.062.124,0,.194.06.194Z" transform="translate(-775.795 -324.371)" fill="#006837"/>
    <path id="Path_15602" data-name="Path 15602" d="M1229.861,616.706c1.391-1.28,4.692-4.528,6.055-6.057,1.455-1.655,1.575-1.812,1.575-2.154,0-.219-.121-.377-.484-.5-.214-.062-.334-.124-.334-.249,0-.093.06-.194.3-.194.181,0,1.09.1,2.059.1.907,0,2.574-.1,2.967-.1.426,0,.486.062.486.194s-.091.218-.334.249a5.2,5.2,0,0,0-1.484.313c-.727.251-1.119.583-2.694,2.061-2.211,2.061-4.845,4.717-6.178,5.964,1.634,1.748,6.543,6.747,7.812,7.934,2.123,2,3.151,2.56,4.361,2.842.334.062.194.031.7.1.272.031.426.093.426.249,0,.124-.154.194-.486.194h-1.97c-2.36,0-2.966-.28-4.177-1.154a88.861,88.861,0,0,1-8.6-9.028v2.469c0,2.4-.031,4.591.12,5.715.121.905.243,1.247,1.028,1.436a6.9,6.9,0,0,0,1.152.126c.272.031.332.093.332.218s-.12.218-.423.218c-1.554,0-3.3-.093-3.452-.093-.089,0-1.879.093-2.72.093-.272,0-.484-.062-.484-.218,0-.124.121-.218.389-.218a3.576,3.576,0,0,0,.727-.1c.514-.126.606-.75.7-1.5.15-1.125.15-3.343.15-5.684v-4.693c0-4.122,0-4.872-.058-5.715s-.243-1.311-.878-1.438c-.3-.062-.517-.062-.7-.093-.212-.031-.333-.093-.333-.218,0-.157.121-.219.455-.219.938,0,2.665.1,2.755.1.12,0,1.879-.1,2.72-.1.3,0,.455.062.455.219,0,.124-.092.194-.334.218-.181.031-.334.031-.544.062-.88.124-.971.595-1.03,1.5-.06.843-.029,1.554-.029,5.684Z" transform="translate(-883.368 -325.902)" fill="#006837"/>
    <path id="Path_15603" data-name="Path 15603" d="M1351.551,618.487a.322.322,0,0,0-.3.249l-1.333,3.9a8.085,8.085,0,0,0-.515,2.219c0,.562.334.814,1,.814h.218c.274,0,.363.093.363.218,0,.155-.241.218-.453.218-.666,0-2.059-.093-2.392-.093s-1.637.093-2.914.093c-.334,0-.484-.062-.484-.218,0-.124.121-.218.363-.218a3.928,3.928,0,0,0,.606-.033c1.3-.124,1.816-1.156,2.331-2.467l6.057-16.458c.332-.905.424-1.063.635-1.063.152,0,.272.126.6,1,.425,1.032,4.546,11.932,6.148,15.835,1,2.469,1.878,2.873,2.3,3.031a2.789,2.789,0,0,0,1.03.157c.212,0,.363.062.363.218s-.121.218-.453.218-2.576,0-4.6-.062c-.583-.031-.758-.062-.758-.218a.258.258,0,0,1,.212-.219c.121-.062.3-.219.121-.688l-2.392-6.277a.268.268,0,0,0-.243-.155Zm5.148-1.094c.123,0,.123-.093.091-.194l-2.393-6.9c-.151-.437-.181-.437-.332,0l-2.271,6.9c-.06.124,0,.194.06.194Z" transform="translate(-979.516 -324.371)" fill="#006837"/>
    <path id="Path_15604" data-name="Path 15604" d="M1478.641,615.231c0-4.123,0-4.872-.058-5.715s-.274-1.311-1.212-1.5a4.89,4.89,0,0,0-.726-.062c-.214,0-.334-.062-.334-.194s.091-.22.363-.22c1.3,0,3.149.1,3.211.1.272,0,2.332-.1,3.18-.1a8.36,8.36,0,0,1,4.966,1.187,4.784,4.784,0,0,1,1.818,3.818c0,1.719-.818,3.9-3.211,5.9,2.211,2.811,4.027,5.123,5.572,6.778a5.043,5.043,0,0,0,3.211,1.906c.212.031.849.064.938.064.243,0,.332.093.332.218,0,.155-.121.217-.544.217h-2.121a6.63,6.63,0,0,1-2.755-.373c-1.273-.563-2.18-1.97-3.755-4.06-1.181-1.5-2.392-3.186-2.914-3.843a.427.427,0,0,0-.363-.194l-3.118-.031c-.121,0-.152.031-.152.157v.437c0,2.5,0,4.779.152,5.9.089.748.181,1.372,1.181,1.5.3.031.635.064.878.064s.388.093.388.194c0,.155-.121.249-.424.249-1.573,0-3.27-.093-3.392-.093-.484,0-1.817.093-2.635.093-.3,0-.425-.062-.425-.249,0-.093.194-.194.363-.194a2.473,2.473,0,0,0,.668-.064c.515-.093.7-.437.777-1.187.152-1.125.121-3.691.121-6.022Zm2.331,2.216a.388.388,0,0,0,.152.375,7.507,7.507,0,0,0,2.695.406,3.476,3.476,0,0,0,2.03-.468c.907-.583,1.513-1.966,1.513-3.967,0-3.4-1.749-5.276-4.453-5.276a7.923,7.923,0,0,0-1.748.155.282.282,0,0,0-.181.282Z" transform="translate(-1085.526 -325.894)" fill="#006837"/>
    <path id="Path_15605" data-name="Path 15605" d="M1595.583,618.305c0,2.4.029,4.622.149,5.778.091.748.151,1.185.909,1.374a5.88,5.88,0,0,0,1.181.126c.241,0,.363.093.363.194,0,.156-.091.249-.388.249-1.555,0-3.33-.093-3.453-.093s-1.908.093-2.7.093c-.332,0-.453-.062-.453-.218,0-.093.089-.218.332-.218a4.532,4.532,0,0,0,.668-.033c.583-.093.665-.468.777-1.529.122-1.125.122-3.375.122-5.715V607.162c-1,0-2.6,0-3.815.031-1.943.031-2.364.344-2.786,1a4.852,4.852,0,0,0-.455.971c-.091.218-.152.249-.272.249s-.154-.124-.154-.28c-.029-.194.426-2.248.606-3.091.091-.375.183-.5.274-.5.211,0,.777.281,1.333.344,1.059.124,1.908.157,1.943.157h9.933a12.659,12.659,0,0,0,2.18-.157,3.639,3.639,0,0,1,.583-.124c.121,0,.183.155.183.282,0,.874-.062,2.935-.062,3.184,0,.282-.121.377-.21.377-.153,0-.214-.126-.214-.377a3.735,3.735,0,0,0-.029-.437c-.121-1.249-.515-1.554-3.575-1.593-1.15,0-2.09-.031-2.966-.031Z" transform="translate(-1173.595 -324.283)" fill="#006837"/>
    <path id="Path_15606" data-name="Path 15606" d="M1692.521,618.487c-.153,0-.243.093-.3.249l-1.333,3.9a8.087,8.087,0,0,0-.515,2.219c0,.562.333.814,1,.814h.213c.272,0,.363.093.363.218,0,.155-.243.218-.455.218-.667,0-2.061-.093-2.393-.093-.3,0-1.634.093-2.914.093-.332,0-.484-.062-.484-.218,0-.124.121-.218.363-.218a3.911,3.911,0,0,0,.6-.033c1.3-.124,1.818-1.156,2.331-2.467l6.057-16.458c.333-.905.424-1.063.637-1.063.15,0,.272.126.606,1,.421,1.032,4.54,11.932,6.147,15.835,1,2.469,1.876,2.873,2.3,3.031a2.785,2.785,0,0,0,1.029.157c.212,0,.363.062.363.218s-.122.218-.455.218c-.3,0-2.574,0-4.6-.062-.583-.031-.756-.062-.756-.218a.263.263,0,0,1,.212-.219c.12-.062.3-.219.12-.688l-2.391-6.277a.272.272,0,0,0-.243-.155Zm5.148-1.094c.121,0,.121-.093.091-.194l-2.393-6.9c-.152-.437-.183-.437-.334,0l-2.271,6.9c-.061.124,0,.194.06.194Z" transform="translate(-1254.239 -324.371)" fill="#006837"/>
    <path id="Path_15607" data-name="Path 15607" d="M588.578,762.8a8.188,8.188,0,0,1-2.578-6.32,8.417,8.417,0,0,1,2.43-5.723c1.3-1.288,3.246-2.2,6.469-2.2a20.4,20.4,0,0,1,3.174.272,20.559,20.559,0,0,0,2.115.274c.194,0,.218.124.218.247,0,.194-.074.422-.12,1.214-.025.7-.025,1.981-.049,2.281-.023.346-.072.47-.194.47-.169,0-.194-.149-.194-.47a2.952,2.952,0,0,0-.938-2.156,7.017,7.017,0,0,0-4.256-1.265c-2.669,0-3.9.777-4.618,1.438-1.564,1.463-1.923,3.246-1.923,5.426a7.643,7.643,0,0,0,7.479,7.732c1.636,0,2.836-.175,3.68-1.018a3.45,3.45,0,0,0,.793-1.783c.049-.249.12-.371.264-.371s.12.173.12.348a24.517,24.517,0,0,1-.462,2.749c-.146.389-.218.472-.554.62a11.291,11.291,0,0,1-3.8.5C592.45,765.051,590.285,764.307,588.578,762.8Z" transform="translate(-368.176 -439.51)" fill="#8cc63f"/>
    <path id="Path_15608" data-name="Path 15608" d="M708.256,756.176c0-3.271,0-3.866-.049-4.536s-.194-1.039-.7-1.138c-.241-.049-.408-.049-.552-.074s-.266-.074-.266-.175.1-.173.361-.173c.746,0,2.117.074,2.189.074s1.49-.074,2.164-.074c.241,0,.361.051.361.173s-.074.149-.266.175c-.144.025-.264.025-.433.051-.7.1-.777.47-.816,1.187-.049.67-.025,1.24-.025,4.511v3.717c0,1.908-.023,3.643.1,4.532.1.721.194.993.816,1.14a5.286,5.286,0,0,0,.915.1c.216.025.264.076.264.173s-.1.175-.336.175c-1.226,0-2.621-.076-2.741-.076-.072,0-1.492.076-2.164.076-.218,0-.389-.051-.389-.175s.1-.173.315-.173a2.756,2.756,0,0,0,.583-.074c.408-.1.48-.594.552-1.189.121-.892.121-2.652.121-4.509Z" transform="translate(-465.42 -440.743)" fill="#8cc63f"/>
    <path id="Path_15609" data-name="Path 15609" d="M784.2,758.563c0,1.907.023,3.666.12,4.583.072.594.12.942.721,1.09a4.541,4.541,0,0,0,.938.1c.194,0,.287.076.287.148,0,.125-.072.194-.313.194-1.226,0-2.644-.076-2.741-.076s-1.515.076-2.137.076c-.264,0-.359-.051-.359-.175,0-.072.072-.173.264-.173a3.979,3.979,0,0,0,.528-.023c.457-.076.53-.371.625-1.216.1-.89.1-2.675.1-4.532v-8.841c-.794,0-2.069,0-3.031.025-1.539.025-1.877.274-2.213.794a4.049,4.049,0,0,0-.362.766c-.072.175-.12.194-.216.194s-.12-.1-.12-.223.336-1.784.482-2.454c.072-.3.144-.388.216-.388.169,0,.625.223,1.059.272.841.1,1.513.124,1.538.124h7.887a9.9,9.9,0,0,0,1.733-.124,2.7,2.7,0,0,1,.456-.1c.1,0,.144.122.144.221,0,.7-.049,2.331-.049,2.525s-.1.3-.167.3c-.121,0-.169-.1-.169-.3a2.683,2.683,0,0,0-.025-.346c-.095-.991-.408-1.24-2.836-1.265-.915,0-1.659-.025-2.357-.025Z" transform="translate(-521.499 -439.414)" fill="#8cc63f"/>
    <path id="Path_15610" data-name="Path 15610" d="M890.149,760.577a3.855,3.855,0,0,0-.529-2.279c-.144-.272-2.933-4.956-3.679-6.022a6.578,6.578,0,0,0-1.226-1.511,1.876,1.876,0,0,0-1.131-.371c-.144,0-.264-.074-.264-.194,0-.075.1-.15.29-.15.388,0,2.211.074,2.259.074.144,0,.938-.074,1.828-.074.241,0,.313.074.313.15s-.072.148-.264.194c-.338.074-.388.194-.388.389a1.959,1.959,0,0,0,.311.816c.313.62,3.487,5.873,3.848,6.492.389-.866,3.077-5.4,3.415-6.022.457-.818.554-1.041.554-1.313,0-.321-.29-.321-.554-.371-.194-.025-.264-.1-.264-.194s.047-.15.288-.15c.583,0,1.082.074,1.467.074.315,0,1.708-.074,2.118-.074.216,0,.288.074.288.15,0,.124-.121.194-.288.194a2.031,2.031,0,0,0-1.2.322,3.787,3.787,0,0,0-.89,1.014,63.65,63.65,0,0,0-4.08,6.889,4.841,4.841,0,0,0-.239,1.957v1.811c0,.173,0,1.09.047,1.981.049.594.1,1.016.841,1.166a4.456,4.456,0,0,0,.892.1c.194,0,.264.076.264.148,0,.124-.072.194-.29.194-1.2,0-2.693-.076-2.764-.076s-1.492.076-2.164.076c-.241,0-.338-.076-.338-.194,0-.072.072-.148.241-.148a2.457,2.457,0,0,0,.6-.074c.408-.074.583-.594.624-1.189.072-.892.072-1.783.072-1.981Z" transform="translate(-607.736 -440.711)" fill="#8cc63f"/>
  </g>
</svg>
