<svg xmlns="http://www.w3.org/2000/svg" width="320.25" height="189.533" viewBox="0 0 320.25 189.533">
  <g id="Logo_-_GVC-01" data-name="Logo - GVC-01" transform="translate(-0.41 -37.41)">
    <path id="Path_15611" data-name="Path 15611" d="M320.376,176.355a5.384,5.384,0,0,1-.794,2.229,6.617,6.617,0,0,1-4.748,2.837,16.266,16.266,0,0,1,.811,3.476q0,11.85,0,23.712a26.279,26.279,0,0,1-1.013,7.184,7.768,7.768,0,0,1-.527,1.727,11.168,11.168,0,0,1-.886,1.946c-.594.823-1.216,1.621-1.824,2.432a14.481,14.481,0,0,1-3.822,3.087c-.721.49-1.591.669-2.349,1.084-2.25.965-4.732.829-7.124.874-2.7,0-5.395.012-8.09-.1a18.677,18.677,0,0,1-2.649-.594,15.622,15.622,0,0,1-5.431-3.1,23.925,23.925,0,0,1-2.985-3.506,8.244,8.244,0,0,1-1.078-2.513,12.742,12.742,0,0,1-4.805-.691,20.636,20.636,0,0,1-2.087-1.512,6.845,6.845,0,0,1-2.868,1.753,11.6,11.6,0,0,1-2.622.456q-6.5-.016-12.993,0a25.8,25.8,0,0,1-2.837-.513c-1.763.34-3.508.782-5.269,1.167a10.162,10.162,0,0,1-3.51-.188c-1.109-.288-2.229-.513-3.344-.768a9.975,9.975,0,0,1-4.114-2.015,6.307,6.307,0,0,1-2.892,1.854,12.036,12.036,0,0,1-2.55.464H214.982c-1.2.053-2.357-.839-3.53-.338-1.084.32-2.193.529-3.3.76a10.2,10.2,0,0,1-5.237-.075c-1.048-.087-2.055-.586-3.117-.389-2.306.061-4.613,0-6.917.03a10.723,10.723,0,0,1-2.744-.456,6.816,6.816,0,0,1-2.574-1.563c-.908.375-1.53,1.279-2.511,1.5a11.826,11.826,0,0,1-3.3.537c-2.3-.057-4.6.105-6.891-.113-1.824.2-3.648.075-5.472.109a13.9,13.9,0,0,1-3.457-.2c-.64-.17-1.3-.268-1.923-.5a10.176,10.176,0,0,1-1.9-1.445,6.583,6.583,0,0,1-1.8.912,7.906,7.906,0,0,0-1.654.6c-1.263.379-2.57.6-3.851.861-2.487.012-4.992.156-7.476-.057a18.2,18.2,0,0,1-4.588-1.111c-.5-.213-1.05-.257-1.538-.482a31.221,31.221,0,0,1-3.445-2,34.692,34.692,0,0,1-3.543-2.951,19.366,19.366,0,0,0-1.915-2.134c-1.271-1.131-1.559-2.874-2.466-4.256a55.105,55.105,0,0,1-2.2-8.542c-.14-1.824-.026-3.648-.059-5.484.559-3.243,1.013-6.55,2.432-9.554a13.067,13.067,0,0,1-1.475-2.069,18.9,18.9,0,0,1-.661-2.949q0-.192,0-.383h-.191a13.6,13.6,0,0,1-.632,3.376,7.582,7.582,0,0,1-2.592,2.91,7.286,7.286,0,0,1-2.837.967,23.027,23.027,0,0,1-3.682.122h-17.2a11.637,11.637,0,0,1-3.5-.936,43.8,43.8,0,0,1-7.03,1.863,3.156,3.156,0,0,1-1.236.12,21.186,21.186,0,0,0-2.779.026c-1.889-.371-3.759-.837-5.634-1.277a12.885,12.885,0,0,1-3.828-1.67,14.09,14.09,0,0,1-3.279-2.614A7.037,7.037,0,0,1,69.8,182.17a13.16,13.16,0,0,1-3.324.608c-3.17-.022-6.339.016-9.509-.018a17.493,17.493,0,0,1-2.9-.677,8.36,8.36,0,0,1-2.582-2.169,10.409,10.409,0,0,0-1.621.537c-.835.454-1.81.537-2.635,1a68.855,68.855,0,0,1-6.753,1.581c-1.013.024-1.978.438-3,.446a21.48,21.48,0,0,0-2.229.371,28.839,28.839,0,0,0-4.205,0,14.245,14.245,0,0,0-2.659-.405,53.5,53.5,0,0,1-7.334-1.575,36.026,36.026,0,0,1-4.992-1.891,31.757,31.757,0,0,1-8.473-6.532A32.017,32.017,0,0,1,3.1,166.38c-.47-.811-.62-1.743-1.074-2.556-.507-1.96-1.159-3.885-1.5-5.885-.077-.983-.061-1.972-.12-2.955v-4.635c.061-1.054.03-2.11.132-3.158.361-1.984,1.013-3.9,1.477-5.851.405-.835.715-1.715,1.143-2.539a33.385,33.385,0,0,1,3.445-5.472,16.693,16.693,0,0,1,2-2.264,20.673,20.673,0,0,1,1.885-1.767c1.058-.833,2.085-1.706,3.19-2.479a27.808,27.808,0,0,1,9.059-3.713c1.528-.361,3.04-1.046,4.645-.839a31.651,31.651,0,0,1,8.291-.219c.888-.039,1.755.178,2.635.2,1.271-.178,2.462.405,3.7.59a12.632,12.632,0,0,1,4.12,1.135,19.779,19.779,0,0,1,4.438,2.041,34.372,34.372,0,0,1,4.349,3.35c.553.663,1.261,1.18,1.775,1.877.975,1.279,1.844,2.635,2.724,3.978,2.229.036,4.444,0,6.668.014.961,0,1.856.49,2.809.495a17.749,17.749,0,0,1,3.308-.871,24.935,24.935,0,0,1,4-.051c2.116-.1,4.1.726,6.116,1.242,1.824-.365,3.648-.869,5.484-1.2,1.167-.089,2.343.047,3.508-.093,2.258-.148,4.513.122,6.773.077a33.828,33.828,0,0,1,8.273,2.173c.292-.217.584-.428.88-.638a4.751,4.751,0,0,1-1.048-2.027,10.57,10.57,0,0,1-6.7-.3,6.17,6.17,0,0,1-3.137-3.786c-.42-.31-1.013-.263-1.449-.545a7.51,7.51,0,0,1-3.565-4.07,26.951,26.951,0,0,1-2.86-.661,6.173,6.173,0,0,1-2.487-2.169c-.632-.717-.62-1.713-.916-2.574-1.186-.415-2.432-.632-3.648-.955a4.706,4.706,0,0,1-1.419-.829,7.758,7.758,0,0,1-1.869-2.391c-.951-.89-2.27-1.325-3.117-2.337a4.846,4.846,0,0,1-1.052-1.824,13.443,13.443,0,0,1-.5-2.612c-.03-.292.073-.608-.051-.88a17.072,17.072,0,0,1-1.763-5.134,5.523,5.523,0,0,1,.247-2.912,5.194,5.194,0,0,1,2.46-3.457c1.216-.867,2.762-.977,4.175-1.34a5.842,5.842,0,0,1,.849-1.733,6.8,6.8,0,0,1,2.452-2.077c.174-.746.32-1.5.529-2.229a6.69,6.69,0,0,1,3.04-3.062c.709-.259,1.463-.367,2.193-.557.294-1.273.572-2.552.88-3.822a4.316,4.316,0,0,1,.9-1.569,11.033,11.033,0,0,1,2.1-1.747c.288-.906.405-1.86.691-2.766.292-.788.914-1.392,1.269-2.148a6.745,6.745,0,0,1,3.064-3.054c.691-.2,1.4-.345,2.1-.517,1.167-.316,2.323.2,3.46.415.762.12,1.244.8,1.929,1.078.705-.107,1.39-.318,2.087-.472.229-1.03.578-2.027.847-3.04a6.36,6.36,0,0,1,2.949-2.935,15.844,15.844,0,0,1,3.707-.679c.446-.59.886-1.184,1.374-1.741a7.352,7.352,0,0,1,.963-2.452c.693-.93,1.265-1.958,2.041-2.823a5.621,5.621,0,0,1,2.323-1.356,7.412,7.412,0,0,1,3.083-.405c.647.144,1.293.3,1.937.456.758.142,1.252.8,1.925,1.115.458.14.936.2,1.4.32a4.888,4.888,0,0,1,1.03-2.248,15.359,15.359,0,0,0-.576-1.7,8.17,8.17,0,0,1-.422-3.662,8.3,8.3,0,0,1,1.1-3.2,5.9,5.9,0,0,1,3.18-3.557,32.3,32.3,0,0,1,3.476-.738,3.85,3.85,0,0,0,.64-.977,5.593,5.593,0,0,1,3.214-3.666c1.3-.284,2.635-.841,3.976-.462a6.694,6.694,0,0,1,2.983,1.09c.971.574,1.419,1.666,2.294,2.353a8.971,8.971,0,0,1,3.8-2.525,7.921,7.921,0,0,1,1.638-.608,6.12,6.12,0,0,1,2.88-.322,21.263,21.263,0,0,1,2.274.588,6.891,6.891,0,0,1,1.994,1.636,6.554,6.554,0,0,1,2.132-1.7,25.024,25.024,0,0,1,2.937-.667,16.185,16.185,0,0,1,2.813.543,4.141,4.141,0,0,1,1.595.88c.91.608,1.334,1.672,2.027,2.489a26.062,26.062,0,0,1,3.308-.811c.748.1,1.475.326,2.215.486,1.068.2,1.763,1.125,2.677,1.621.892-.138,1.745-.458,2.635-.576a23.424,23.424,0,0,1,2.9.687,8.03,8.03,0,0,1,2.229,1.642,3.875,3.875,0,0,1,1.07-.109,27.142,27.142,0,0,1,4.307,1.2,7.276,7.276,0,0,1,2.914,2.558,8.836,8.836,0,0,1,.991,2.442c.873.955,2.027,1.642,2.7,2.785a6.02,6.02,0,0,1,1.094,2.837,12.221,12.221,0,0,1,3.707-1.216c1.307-.462,2.635.144,3.907.405a6.145,6.145,0,0,1,3.014,3.04,19.6,19.6,0,0,1,.843,4.779,15.928,15.928,0,0,1,1.563,1.062,10.793,10.793,0,0,1,2.181-1.67,20.348,20.348,0,0,1,3.425-1.056c1.161-.405,2.329.182,3.47.4a7.076,7.076,0,0,1,3.541,3.766,9.226,9.226,0,0,1,.88,2.785c.8.188,1.593.373,2.389.567,1.013-.685,1.862-1.585,2.939-2.166a25.433,25.433,0,0,1,3.2-.748,18.121,18.121,0,0,1,4.116,1.013,5.329,5.329,0,0,1,4.276,4.3,4.278,4.278,0,0,1,.229,1.98,16.492,16.492,0,0,1-1.131,4.134,16.627,16.627,0,0,1-1.165,1.883c.292.608.865,1.086.975,1.785a9.774,9.774,0,0,1,.488,3.243,24.981,24.981,0,0,1-.474,2.479,4.756,4.756,0,0,0,.286,2.444,12.161,12.161,0,0,1,.2,3.358c-.028.535.389.95.5,1.457.225.878.464,1.759.608,2.655a13.082,13.082,0,0,1-.472,2.353c-.1.531-.438,1.054-.259,1.607a6.316,6.316,0,0,1,.316,2.229c-.13.847-.419,1.66-.553,2.5a26.843,26.843,0,0,1,1.609,2.385,13.094,13.094,0,0,1,1.157,3.719,9.907,9.907,0,0,1-.533,3.415,7,7,0,0,1-4.228,3.682,7.816,7.816,0,0,0-2.432.837,7.964,7.964,0,0,1-1.34,2.092c-.549.555-1.254.914-1.844,1.419a5.7,5.7,0,0,1-1.65,2.981,5.273,5.273,0,0,0-.89.76c.1.675.34,1.321.434,2-.075,2.055-.024,4.112-.045,6.169a13.482,13.482,0,0,1,4.444-.94,27.017,27.017,0,0,1,4.475-.166,44.543,44.543,0,0,1,6.283.2c1.98-.049,3.8.849,5.695,1.265a11.119,11.119,0,0,0,1.145-.33,20.267,20.267,0,0,1,.646-3.143,8.868,8.868,0,0,1,4.053-3.885c1.285-.772,2.71-1.283,3.972-2.1,1.153-.693,2.414-1.194,3.528-1.956a6.178,6.178,0,0,1,2-.811,8.2,8.2,0,0,1,3.48-.434c.778.176,1.565.33,2.331.565a7.234,7.234,0,0,1,3.257,3.415,13.135,13.135,0,0,1,.608,3.346v4.428c1.119.2,2.205.59,3.314.811a26.512,26.512,0,0,1,4.7-1.157c.811.012,1.593-.245,2.406-.221,2.7.022,5.411-.036,8.107.03,1.062.251,2.175.085,3.23.391,1.182.231,2.3.685,3.468.979a16.323,16.323,0,0,1,5.841,3.3,13.364,13.364,0,0,1,2.88,3.2c1.388,1.672,1.621,3.913,2.166,5.944a41.505,41.505,0,0,1,.349,7.255c-.038,3.1.075,6.2-.085,9.3a36.148,36.148,0,0,0,.272,3.922,6.675,6.675,0,0,0,1.419,3.316,20.929,20.929,0,0,1,.677,2.594A4.707,4.707,0,0,1,320.376,176.355Z" fill="#fff"/>
    <path id="Path_15612" data-name="Path 15612" d="M819.089,74.063c.223.288.405.916.874.744a16.433,16.433,0,0,1-.6-2.132c.235-.746.592-1.449.811-2.2-.811-.867-1.088-2.069-1.8-3.006a17.035,17.035,0,0,0-1.453,1.751,7.473,7.473,0,0,0,.624,2.931A9.954,9.954,0,0,1,819.089,74.063Z" transform="translate(-651.032 -23.968)" fill="#2d4c27"/>
    <path id="Path_15613" data-name="Path 15613" d="M703.82,75.476a2.8,2.8,0,0,0,1.265.914c-.405-.924-1.3-1.733-1.107-2.823-.01-.721.582-1.646-.12-2.195-.744-.736-1.216-1.743-2.154-2.272-.233.456-.5.894-.758,1.334-.555.853.186,1.8.424,2.635C701.765,74.248,703.117,74.552,703.82,75.476Z" transform="translate(-558.401 -25.268)" fill="#2d4c27"/>
    <path id="Path_15614" data-name="Path 15614" d="M756.907,76.828q-.014.754.036,1.5l.565.055a5.9,5.9,0,0,1,.5-2.635c.608-.766,1.567-1.182,2.15-1.982a29.485,29.485,0,0,0-.122-4.378c-.849.495-2.106.379-2.673,1.277a7.3,7.3,0,0,0-.908,3.328C756.351,74.986,757.008,75.845,756.907,76.828Z" transform="translate(-602.809 -25.499)" fill="#2d4c27"/>
    <path id="Path_15615" data-name="Path 15615" d="M858.048,90.513c.073.561.036,1.129.069,1.694l.375.067a6.282,6.282,0,0,1,.515-2.162c.529-.584,1.216-1.013,1.763-1.571-.405-1.066.1-2.173-.057-3.271-.835.105-2.049.134-2.373,1.078a5.289,5.289,0,0,0-.661,2.337A7.182,7.182,0,0,0,858.048,90.513Z" transform="translate(-683.526 -38.16)" fill="#2d4c27"/>
    <path id="Path_15616" data-name="Path 15616" d="M726.133,94.537l.533.093a13.684,13.684,0,0,1,.043-2.156c.314-.811,1.127-1.291,1.589-2.027-.047-.545-.34-1.042-.351-1.595a7.87,7.87,0,0,0-.2-1.862,4.679,4.679,0,0,0-2.027.953,13.128,13.128,0,0,0-.561,2.162,3.443,3.443,0,0,0,.569,2.264A6.807,6.807,0,0,1,726.133,94.537Z" transform="translate(-577.818 -39.532)" fill="#2d4c27"/>
    <path id="Path_15617" data-name="Path 15617" d="M788.929,94.321c0,.569-.014,1.141,0,1.713.19.022.383.047.578.075a6.039,6.039,0,0,1,.535-2.6c.608-.788,1.589-1.177,2.146-2.01-.1-1.36.063-2.722-.03-4.082l-.266-.148c-.811.284-1.824.32-2.432.983a7.44,7.44,0,0,0-1,3.648C788.412,92.746,788.986,93.478,788.929,94.321Z" transform="translate(-628.322 -39.755)" fill="#2d4c27"/>
    <path id="Path_15618" data-name="Path 15618" d="M890.38,101.135c.039.087.12.263.16.351a5.723,5.723,0,0,0,1.281-1.362c.59-.845,1.621-1.216,2.266-2.008a6.953,6.953,0,0,0,1.127-2.671c.142-.454.336-1.013.014-1.441-.438-.608-.961-1.159-1.368-1.794a9.064,9.064,0,0,0-1.171,1.259c-.529.679-.837,1.561-1.621,2a4.7,4.7,0,0,0,.158,1.915,2.569,2.569,0,0,1,.249,1.5A20.46,20.46,0,0,1,890.38,101.135Z" transform="translate(-709.604 -43.694)" fill="#2d4c27"/>
    <path id="Path_15619" data-name="Path 15619" d="M666.942,101.341a1.774,1.774,0,0,0,1.216.811,19.307,19.307,0,0,1-1.109-2.027c-.077-.823.322-1.621.237-2.432-.821-.869-1.382-2.006-2.418-2.653-.351.622-.784,1.2-1.078,1.852a13.839,13.839,0,0,0,.831,2.361C665.1,100.24,666.3,100.5,666.942,101.341Z" transform="translate(-528.936 -45.95)" fill="#2d4c27"/>
    <path id="Path_15620" data-name="Path 15620" d="M532.332,220.581c-.178-5.269.089-10.539-.024-15.8a22.747,22.747,0,0,0-.89-5.446,9.268,9.268,0,0,0-5.144-4.471c-3.36-1.419-7.077-1.419-10.66-1.38a21.285,21.285,0,0,0-9.546,1.741,14.912,14.912,0,0,0-3.312,2.325c-.055-.969.022-1.942-.036-2.908-.109-.239-.217-.549-.533-.517-2.051-.089-4.108.065-6.155-.077V183.086c.073-.452-.371-.683-.626-.969q-4.722,2.475-9.434,4.957a2.954,2.954,0,0,0-1.066.782c-.128,2.063.109,4.147-.124,6.2-1.431.107-2.866,0-4.3.075a15.811,15.811,0,0,0-.2,3.648,26.925,26.925,0,0,0-2.754-2.094,19.644,19.644,0,0,0-7.7-2.132c-2.363-.107-4.732-.089-7.093-.03-3.707.284-7.594,1.293-10.312,3.984a20.729,20.729,0,0,0-2.31,3.19c-.1-1.621-.018-3.226-.039-4.84-.038-.576.144-1.246-.29-1.715-6.159.065-12.32.026-18.479.02a2.247,2.247,0,0,0-1.05.2c-.47.711-.744,1.532-1.149,2.282-.742,1.577-1.352,3.21-2.037,4.811-1.433,3.571-2.973,7.093-4.4,10.67a24.376,24.376,0,0,1-1.277,3.2c-.671-1.773-1.216-3.593-1.976-5.33q-2.969-7.259-5.954-14.511a4.765,4.765,0,0,0-.675-1.346c-3.072-.107-6.157,0-9.233-.045-.284.028-.738-.109-.683-.464-.012-1.824,0-3.662,0-5.492a2.6,2.6,0,0,1,.717-1.569c2.758-3.308,6.412-5.658,9.8-8.259a18.781,18.781,0,0,1,2.574-1.895c2.657-1.552,5.484-2.781,8.271-4.074a12.626,12.626,0,0,1,3.851-.687,2.7,2.7,0,0,1,2.3.608,5.5,5.5,0,0,1,.474,1.708c.259,1.228-1.064,1.925-1.305,3.04.882,1.1,1.1,2.57,2.061,3.626a21.376,21.376,0,0,0,2.166-1.621,7.687,7.687,0,0,0-.13-2.762c-.316-1.455-2.027-2.015-2.314-3.5a15.419,15.419,0,0,0,4.025,1.362,2.21,2.21,0,0,1,1.455.853c.584.574-.038,1.64.649,2.154a23.48,23.48,0,0,0,2.849,1.109,10.9,10.9,0,0,0,.608-1.964,6.546,6.546,0,0,0-1.1-1.307,10.039,10.039,0,0,0-1.621-.608l-.191-.405a21.646,21.646,0,0,1-7.6-2.6,4.593,4.593,0,0,1,4.175-.458c.6.543.713,1.469,1.4,1.919a12.4,12.4,0,0,0,3.174-.132c-.156-.649-.176-1.319-.312-1.97a8.2,8.2,0,0,0-1.824-.9c-1.1-.284-2.142.43-3.243.2a32.589,32.589,0,0,0,3.914-3.263,6.468,6.468,0,0,1,1.354-1.216c1.072.14,1.9,1.107,3.026,1.088a7.611,7.611,0,0,0,3.778-.438l.057-.484c-1.119.381-2.11-.389-3.214-.342-1.084-.024-1.972-.728-2.957-1.082a10.439,10.439,0,0,1-2.118-1.261c.782-.424,1.481-.979,2.25-1.419a10.132,10.132,0,0,1,2.622-.081c.663.446,1.1,1.167,1.824,1.546.434.051.8-.33,1.232-.391a8.192,8.192,0,0,0,2.6-.92,19.623,19.623,0,0,0-1.013-2.136c-.219-.324-.657-.292-1-.328a14.43,14.43,0,0,0-1.836-.193c-1.439.219-2.31,1.763-3.851,1.676a12.243,12.243,0,0,1,1.824-3.02,7.942,7.942,0,0,1,2.325-1.5,19.09,19.09,0,0,1,4.923-1.621c1.392-.655,2.947-.2,4.408-.405a11.413,11.413,0,0,1,1.745-1.362c.928-.32,1.877.16,2.817.162.784-1.013,1.885-1.757,2.442-2.935-.7-.391-1.3-.948-2.027-1.293-.728.245-1.4.622-2.134.851.148-.379.227-.843.594-1.082.634-.417,1.5-.438,2.045-1a23.644,23.644,0,0,0,.44-3.686c-.792.016-1.585-.053-2.375,0a7.887,7.887,0,0,0-1.216,1.7,3.423,3.423,0,0,0-.16,2.669,6.649,6.649,0,0,1-.156,2.006c-.245,1.419-1.315,2.442-2.122,3.563-1.119.2-2.122-.557-3.243-.448-1.4.089-2.718.659-4.118.726a19.948,19.948,0,0,1-.028-2.6,12.881,12.881,0,0,1,1.2-1.344c.2-.3.588-.649.318-1.025a18.575,18.575,0,0,1-.723-2.892c-.146-.458-.322-.9-.48-1.352-.762.355-1.565.608-2.327.955-.014,1.277-.468,2.572-.107,3.836.28,1.028,1.088,1.824,1.277,2.89a11.555,11.555,0,0,0,.535,1.824,22.364,22.364,0,0,0-3.986,1.956,2.774,2.774,0,0,1,.448-1.927,4.7,4.7,0,0,0,.673-3.778c-.16-.5.124-1.232-.353-1.565-.628.928.036,1.988-.1,3-.083.647-.126,1.484-.764,1.834-.215-.628-.278-1.3-.472-1.929a12.505,12.505,0,0,0-1.648-3.354c-.736-.057-1.111-.794-1.388-1.384a7.817,7.817,0,0,0,.154-2.791c-1.259-.537-1.974-1.854-3.31-2.276-.33.857-1.07,1.518-1.283,2.416.385.837.875,1.621,1.291,2.432a5.255,5.255,0,0,0,2.027,1.1c.811.215,1.34.9,2.061,1.273.831.405.983,1.392,1.346,2.146a7.659,7.659,0,0,1-.243,5.557c-.693,1.471-1.3,3.18-2.8,4.015-2.112.971-4.538.474-6.7,1.265-1.259.48-2.539.906-3.749,1.5a8.81,8.81,0,0,1-2.229.934,22.413,22.413,0,0,1,1.234-2.314,13.415,13.415,0,0,0,1.084-3.243c1.646-.146,2.912,1.173,4.517,1.236a14.535,14.535,0,0,0,2.821-.424,1.272,1.272,0,0,0,.878-.405,11.361,11.361,0,0,0,.543-2.391,8.35,8.35,0,0,0-3.04-.458c-.711.085-1.3-.495-2.006-.405-.742.428-1.167,1.216-1.806,1.763a2.48,2.48,0,0,1-1.721.274c.176-1.788.608-3.553.811-5.342a11.7,11.7,0,0,1,.231-2.742,10.887,10.887,0,0,1,1.092-1.512c.811-1.188,1.9-2.132,2.746-3.283.608-.772.344-1.81.405-2.718.44-.45.918-.859,1.34-1.329a16.916,16.916,0,0,1-.405-2.288c-.142-.172-.282-.345-.417-.515-.547.253-1.236.318-1.648.786a5.085,5.085,0,0,0-.32,2.055c.17.849,1.066,1.49.851,2.432-.959.914-1.773,1.972-2.77,2.837-.284-1.036-.953-2.286-.182-3.265a6.22,6.22,0,0,0,1.165-2.387c-.359-.314-.811-.594-.944-1.076a8.31,8.31,0,0,0-1.451-2.614c-.148-.158-.292-.379-.537-.326-.541.478-1.121.9-1.7,1.325-.306.282-.8.535-.719,1.023.022.863.239,1.708.235,2.576.17,1.378,1.4,2.209,2.316,3.113.513.64.835,1.409,1.311,2.077-.17.608-.681,1.127-.788,1.785-.215,1.161-.853,2.229-.843,3.421-.057.563-.162,1.119-.221,1.682-.353-.649-.626-1.336-1.013-1.968-.671-.894-1.812-1.263-2.519-2.124-.582-.6-.855-1.465-1.593-1.9a6.528,6.528,0,0,0,1.6,2.779,9.5,9.5,0,0,1-1.676.811c-.991.268-1.865-.424-2.793-.64a10.876,10.876,0,0,1-2.049,1.334,4.768,4.768,0,0,0-1.305,1.352,11.377,11.377,0,0,1-4.734.77,15.965,15.965,0,0,1-3.605-1.275,26.252,26.252,0,0,0-3.145-.969,16.1,16.1,0,0,1,3.1-.636,7.176,7.176,0,0,0,3-1.287,2.868,2.868,0,0,0,1.332-3.093,6.394,6.394,0,0,1-1.06,1.964,6.651,6.651,0,0,1-3.076,1.621,23.659,23.659,0,0,0-3.342.685c-.292.067-.59.243-.89.14a13.325,13.325,0,0,1,1.447-2.229c.884-1.216,1.635-2.519,2.537-3.717a18.152,18.152,0,0,0,1.715-.721c.955-.559,2.2-.249,3.095-.963a17.35,17.35,0,0,0,2.022-2.138,13.642,13.642,0,0,0-.282-2.4l-.734.024-.065.146c-1.109.235-1.907,1.157-3.04,1.34a12.1,12.1,0,0,0-.608,2.432,3.918,3.918,0,0,1-1.642,1.477,13.523,13.523,0,0,0,1.39-2.88,6.061,6.061,0,0,1,.748-2.229c.405-.561.683-1.2,1.056-1.788a7.8,7.8,0,0,1,1.374-.659c1.013-.64,2.353-.345,3.344-1.076a11.243,11.243,0,0,0,2.035-2.12c.227-.823-.28-1.652-.383-2.47-1.392.261-2.432,1.317-3.79,1.652a6.645,6.645,0,0,0-.405,1.666c0,1.143-1.145,1.9-2.106,2.278a2.3,2.3,0,0,1,.176-1.07c.486-.873.863-1.8,1.323-2.685.363-.7.468-1.51.9-2.169a9.155,9.155,0,0,1,2.229-1.67,7.518,7.518,0,0,0,1.524-1.291,9.446,9.446,0,0,1,2.724-1.013c1.433-.17,2.331-1.451,3.117-2.521-.1-.653-.322-1.279-.438-1.929l-.426-.022c.107.053.219.1.332.154-1.052.038-1.824.833-2.777,1.18-.829.316-.638,1.4-.811,2.1a4.783,4.783,0,0,1-1.621,1.54,14.5,14.5,0,0,0,.523-1.409,11.643,11.643,0,0,0-.936-1.824,18.25,18.25,0,0,0-2.7,2.477c-.2.661.217,1.321.172,1.992.024.513-.405.863-.685,1.24a10.782,10.782,0,0,0,.063-4.692c.3-.468.545-.965.8-1.457.359-.717,1.038-1.216,1.338-1.978a8.346,8.346,0,0,0,.272-2.837q-.827-.709-1.692-1.366a7.128,7.128,0,0,0-.843,1.992l-.122.576-.367-.085c-.089-.48-.154-.963-.219-1.447a9.277,9.277,0,0,0-.2,2.783,4.278,4.278,0,0,1-1.4-1.854,4.411,4.411,0,0,0-1.848-2.477,20.564,20.564,0,0,0-2.3-1.236c-.845.28-1.591.788-2.432,1.068A8.951,8.951,0,0,0,406,119.208a3.728,3.728,0,0,1,1.362,1.8c1.084.44,2.274-.057,3.366.251.961.655,2.144,1.386,2.256,2.663a19.173,19.173,0,0,1,.347,5.472,19.768,19.768,0,0,1-1.548,4.554,7.845,7.845,0,0,1-.934,1.8,9.478,9.478,0,0,1-.424-4.282c.166-.507.405-.983.592-1.479.089-.249.178-.5.27-.748l-.655-.2c.154-.334.312-.669.466-1.013a4.381,4.381,0,0,0,.569-3.074c-.294-.811-.434-1.682-.784-2.471-.683-.681-1.749-.649-2.566-1.1-.511,1.419.063,3-.608,4.376.405,1.076,1.7,1.433,2.169,2.458a4.206,4.206,0,0,1,0,3.04c-.6,1.848.217,3.755.1,5.638a2.118,2.118,0,0,1-.361,1.013,27,27,0,0,0-4.584-7.764c-.608-.651-.359-1.591-.422-2.391-.188-1.232,1.109-1.836,1.579-2.817.391-.557-.241-1.1-.282-1.662a11.768,11.768,0,0,0-.742-3.01c-.586.249-1.147.549-1.733.792a3.319,3.319,0,0,1,.132-1.348,5.141,5.141,0,0,0-.105-4.039c-.272-.608-.349-1.433-1.04-1.719-.719-.215-1.459-.353-2.179-.567a6.023,6.023,0,0,0-.107,2.837,3.6,3.6,0,0,1-.174,1.633c.673,1.129,2.343,1.409,2.584,2.815.405,1.656-.517,3.352-.02,5,.33.961,1.157,1.7,1.281,2.738a12.512,12.512,0,0,0,.867,2.685c-.608-.383-1.147-1.048-1.935-.991a9.208,9.208,0,0,1-3.36-.938c0,.12-.022.359-.03.478.241.126.484.255.726.389a3.618,3.618,0,0,1-2.213.3,8.388,8.388,0,0,0-2.205-1.056c-1.216.7-2.62,1-3.824,1.739.63.7.977,1.824,1.972,2.069a8.815,8.815,0,0,1,1.862-.1c-.2.738-1.013,1.056-1.646,1.35a5.225,5.225,0,0,0-2.635.081,2.939,2.939,0,0,1-.709,1.159,10.3,10.3,0,0,0-1.688,2.164c.843.286,1.605.983,2.535.9a17.792,17.792,0,0,0,2.071-1.186,4.094,4.094,0,0,0,1.5-2.191,8.483,8.483,0,0,1,1.265-1.95c.405-.691,1.248-.869,1.8-1.4a8.014,8.014,0,0,1,2.554-1.435,9.3,9.3,0,0,0,2.3.73,8.758,8.758,0,0,1,2.229,1.948,15.337,15.337,0,0,1,1.794,2.41,5.1,5.1,0,0,1-1.9.2c-1.07-.178-1.642-1.607-2.809-1.441-1.23.533-2.655.47-3.79,1.255.405.559.7,1.2,1.084,1.771a.942.942,0,0,0,.857.43c.886.018,1.773.109,2.661.049a3.741,3.741,0,0,0,1.775-.811,6.7,6.7,0,0,1,2.487-.89,11.7,11.7,0,0,1,.705,3.413,7.035,7.035,0,0,1-1.937.667c-.772,0-1.384-.752-2.177-.644a21.242,21.242,0,0,0-2.7,1.481,5.586,5.586,0,0,0,1.419,1.419,9.262,9.262,0,0,0,1.984-.247,4.205,4.205,0,0,0,1.621-1.121,7.222,7.222,0,0,1,1.8-1.03,17.406,17.406,0,0,1-3.1,6.6c-1.046,1.544-2,3.149-3.135,4.633-.452-.574-1.06-1.244-.857-2.045a6.77,6.77,0,0,0,.17-2.387c-1.362-.691-2.027-2.229-3.395-2.91-.375.772-.92,1.453-1.255,2.246a2.949,2.949,0,0,0,.385,1.084,8.207,8.207,0,0,0,1.325,2.367c.827.859,2.148,1.036,2.874,2.017a.492.492,0,0,1,0,.667c-1.966,2.541-4.145,4.907-6.133,7.43-.914,1.123-1.735,2.318-2.622,3.464-2.5-4.935-5.044-9.866-7.906-14.612a21,21,0,0,1-2.511-6.38,3.772,3.772,0,0,1,.032-2.821A16.619,16.619,0,0,1,384.4,136c.689-.871,1.668-1.441,2.416-2.256a12.37,12.37,0,0,0,2.13-2.533,30.337,30.337,0,0,1,1.157-2.918,4.932,4.932,0,0,0-.263-3.3c-.093.569-.15,1.143-.255,1.71a26.787,26.787,0,0,0-1.735,3.445,19.7,19.7,0,0,1-2.785,3.07,18.6,18.6,0,0,0-4.029,4.7c-.053-.079-.156-.235-.2-.314a19.738,19.738,0,0,1-.906-3.956,61.736,61.736,0,0,1-.268-7.5,7.64,7.64,0,0,1,.363-2.46,4.616,4.616,0,0,1,1.682,1.717,7.071,7.071,0,0,0,.553,2.582c1.327.5,2.391,1.492,3.731,1.972a8,8,0,0,0,.44-2.8c-.545-.7-1.115-1.388-1.717-2.043a4.174,4.174,0,0,0-2.432-1.084,6.433,6.433,0,0,1-2.006-.953c.825-1.676,2.008-3.151,2.8-4.85a14.83,14.83,0,0,0,1.216-2.418c.166-1.24.263-2.485.361-3.729.16-1.481,1.852-1.838,2.562-2.973a3.994,3.994,0,0,1-.158-1.4,5.92,5.92,0,0,0-.051-2.825c-.683.251-1.39.432-2.073.677-.549.18-.717.786-.91,1.265a6.249,6.249,0,0,0-.7,2.509c-.075.916.549,1.708.488,2.62-.083,1.1.442,2.258-.146,3.285-.5.786-1.06,1.542-1.494,2.373a4.436,4.436,0,0,1-1.028-2.193,8.1,8.1,0,0,0,.44-2.837c-1.072-.758-1.5-2.092-2.468-2.961l-.405-.026c-.318.709-.841,1.293-1.216,1.968a2.685,2.685,0,0,0,.284,1.419,6.551,6.551,0,0,0,.892,2.142c.681.89,1.8,1.291,2.454,2.211.174.282.547.513.578.847a37,37,0,0,0-2.659,4.615l-.286.02a31.541,31.541,0,0,0-1.457-2.811,15.139,15.139,0,0,0-2.432-3.7,11.438,11.438,0,0,0-1.552-1.453c-.513-.318-1.046-.608-1.554-.924a7.181,7.181,0,0,1,.14-1.443c.251-1.3,1.749-1.68,2.377-2.748,0-.549-.292-1.08-.134-1.621a6.924,6.924,0,0,0-.15-2.635,11.848,11.848,0,0,0-2.489.989,17.7,17.7,0,0,0-.946,2.475,3.625,3.625,0,0,0,.278,2.691,3.877,3.877,0,0,1,.15,1.9,23.948,23.948,0,0,1-2.477-2.387c.041.334.083.671.128,1.013-.742-.243-1.666-.387-2.053-1.161a11.964,11.964,0,0,0-1.285-1.739c-.083-.784.432-1.565.182-2.331a24.934,24.934,0,0,0-2.333-2.635,9.17,9.17,0,0,0-1.092,1.99,10.7,10.7,0,0,0,1.157,2.92h-1.188c.14.651.182,1.329.375,1.968a6.233,6.233,0,0,0,1.954,1.246c.9.519,1.948.2,2.9.067a6.757,6.757,0,0,0,1.978.154c.659.764,1.419,1.443,2.057,2.217a10.026,10.026,0,0,1-1.761.03c-.831-.253-1.327-1.285-2.258-1.257a25.427,25.427,0,0,0-3.129.788c-.15.278.174.515.268.758.375.592.788,1.419,1.621,1.336,1.013,0,2.13.3,3.04-.27a6.167,6.167,0,0,1,2.777-.965,6.377,6.377,0,0,1,2.008,1.621,13.83,13.83,0,0,1,2.535,3.889c.525,1.072,1.248,2.037,1.719,3.137a11.459,11.459,0,0,1-.2,3.689c-.024,1.95-.588,3.934-.034,5.863a32.39,32.39,0,0,0,1.8,6.388c.523,1.088.041,2.331.434,3.445.152.825.788,1.635.381,2.481-1.534-.882-2.955-1.946-4.459-2.882a12.173,12.173,0,0,1-2.8-2.079c-1.038-1.216-2.728-1.38-4.1-2.027-.31-.233-.77-.446-.8-.88a7.7,7.7,0,0,1,1.048-1.163c.811-.975,2.243-.45,3.265-1.013a9.992,9.992,0,0,0,.667-1.157,8.4,8.4,0,0,0,1.4-2.412l-.138-.158c-.865-.13-1.775-.569-2.635-.282a13.663,13.663,0,0,0-2.256,1.883,7.565,7.565,0,0,0-.953,2.519,12.254,12.254,0,0,0-.888,1.7,7.3,7.3,0,0,1-2.094-1.169,8.629,8.629,0,0,1,0-2.045c.4-.794,1.184-1.352,1.449-2.215-.081-.555-.458-1.038-.442-1.621a6.211,6.211,0,0,0-.651-2.239c-.687.539-1.644.811-2.134,1.548a10.094,10.094,0,0,0-.2,3.305,24.752,24.752,0,0,1,1.013,3.243c-2.454-1.441-5.089-2.627-7.533-4.155a.405.405,0,0,1-.2-.557,2.771,2.771,0,0,1,2.3-1.244c.871-.128,2.2-.142,2.331-1.275.59-1.175,1.607-2.148,1.875-3.49-1.013-.041-1.96-.525-2.965-.472-.766.5-1.407,1.169-2.146,1.706a5.171,5.171,0,0,1,.27-2.523c.515-.784,1.463-1.248,1.824-2.14-.405-1.323-.1-2.73-.517-4.053a22.669,22.669,0,0,0-2.148.938c-.405.217-.456.715-.572,1.113a8,8,0,0,0-.458,2.616c.059.934.855,1.658.811,2.61a3.17,3.17,0,0,0,.415,1.668,5.889,5.889,0,0,0-1.013,2.175c-.156.608-.132,1.311-.608,1.767-.578.053-1.273-.32-1.242-.971a21.131,21.131,0,0,0-.825-4.112c-.507-1.514-2.211-2.154-2.8-3.6-.067-.93.034-1.865-.036-2.795-1.277-.6-1.927-2.059-3.326-2.452-.18.922-1.04,1.775-.655,2.754a8.415,8.415,0,0,0,1.763,2.659c.7.569,1.654.691,2.314,1.313.391.357.841.642,1.23,1.013a7.977,7.977,0,0,1,1.046,3.058,14.73,14.73,0,0,1,.5,2.868l-.316.294a3.832,3.832,0,0,1-1.5-1.662c-.531-.843.16-1.834-.134-2.728-.116-.565-.76-.728-1.111-1.119a8.206,8.206,0,0,0-2.164-1.759,8.917,8.917,0,0,0-.9,2.448A14.954,14.954,0,0,0,349.7,129.1c.833,1.1,2.481,1.052,3.243,2.246-.738-.1-1.473-.186-2.213-.251a9.294,9.294,0,0,1-4.025-3.243,6.941,6.941,0,0,1-1.232-3.324c-.028-1.137-1.062-2.071-.786-3.243a14.431,14.431,0,0,0,.835-2.432c-1.03-.9-1.147-2.414-2.189-3.312a10.644,10.644,0,0,0-1.7,1.9,21.488,21.488,0,0,0,.432,2.777c.342,1.265,1.719,1.8,2.243,2.959.839,1.117.878,2.554,1.216,3.863-.823-.5-1.761-1.236-1.67-2.308a5.424,5.424,0,0,0-.462-1.824c-1.364-.353-2.319-1.554-3.729-1.81.051.89-.379,1.741-.253,2.635a13.356,13.356,0,0,0,1.913,2.191c.959.8,2.308.671,3.328,1.344.539.347,1.3.371,1.67.946a11.033,11.033,0,0,0,3.911,3.385,8.145,8.145,0,0,1-1.824,1.471c-.705.079-1.419-.036-2.126.089-.764,1.117-1.907,1.939-2.517,3.17a7.866,7.866,0,0,0,1.808.831c.827.32,1.486-.495,2.244-.677-.363,1.267-1.974,1.275-2.685,2.266.018,1.281-.44,2.509-.347,3.8.932-.15,2.256.223,2.783-.811.572-1.072,1.49-2.124,1.327-3.421a4.288,4.288,0,0,1-.049-2.4,7.415,7.415,0,0,1,2.432-3.137,4.53,4.53,0,0,1,2.683.227c1.773.859,3.674,1.419,5.472,2.207.166.375-.442.436-.665.588-.811,0-1.8-.647-2.481.034a14.622,14.622,0,0,0-2.211,1.881,12.186,12.186,0,0,0,1.836,1.121,10.538,10.538,0,0,0,2.343-.79c.906-.438,1.194-1.506,1.95-2.108a.959.959,0,0,1,1.03-.067c1.915.764,3.693,1.824,5.523,2.76.012.1.036.286.047.381-1.289-.032-2.539.357-3.832.268.533.069,1.08.045,1.609.158a8.009,8.009,0,0,0-3.98.7,12.018,12.018,0,0,1-4.5.492c-.987-.156-1.6-1.042-2.4-1.546a9.728,9.728,0,0,0-2.3-.636c.476.3.969.576,1.441.886a11.331,11.331,0,0,1,1.24,1.216c.507.523,1.157.874,1.688,1.372-.892-.122-1.581-.825-2.462-.928a24.066,24.066,0,0,0-3.064,1.475,9.927,9.927,0,0,0,1.4,1.439,15.808,15.808,0,0,0,2.647-.073c1.287-.58,2.207-1.867,3.648-2.134a10.254,10.254,0,0,0,2.837-.284,33.527,33.527,0,0,1-2.752,3.7,6.187,6.187,0,0,1-2.935.549c-.946-.367-1.769-1.121-2.821-1.169-.533.176-.946.608-1.494.756a9.716,9.716,0,0,0-2.681,1.279c.126.567.768.878,1.1,1.346a2.171,2.171,0,0,0,1.609.778,15.265,15.265,0,0,0,3.111-.355c1.3-.363,1.9-1.794,3.214-2.138-.28.47-.578.93-.857,1.4l.436-.1c1.267-.517,1.96-1.769,2.689-2.837.608-.811,1.2-1.621,1.8-2.416a4.334,4.334,0,0,1,1.935-1.309,6.253,6.253,0,0,1-.166,1.467c-.268,1.133-1.563,1.494-2.13,2.432.28,1.334.091,2.7.272,4.053.9-.474,2.357-.448,2.645-1.64a7.088,7.088,0,0,0,.608-2.614c.075-1-.653-1.824-.626-2.819a4.255,4.255,0,0,1,.132-1.449c1.621-.253,3.314-.882,4.957-.391,1.512.867,2.963,1.84,4.487,2.693a23.544,23.544,0,0,1,7.638,7.3,36.266,36.266,0,0,1,3.305,6.637c1.435,3.492,2.748,7.035,3.97,10.608A39.266,39.266,0,0,1,390,173.585c.405,3,.754,6.013.94,9.033a51.72,51.72,0,0,1,.357,6.06c-2.122-1.382-4.114-2.965-6.283-4.274-1.948-.993-3.948-1.885-5.906-2.858a6.473,6.473,0,0,1-1.824-1.062c-.128-2.027.677-3.93.971-5.9a5.649,5.649,0,0,1,.363-2.181,3.408,3.408,0,0,1,2.213-1.95c.74-.063,1.467.286,2.207.124a21.788,21.788,0,0,0,2.481-2.708,13.371,13.371,0,0,0-2.041-.9,12.794,12.794,0,0,0-2.185,1.013c-1.038.551-1.032,1.968-2.027,2.57a34.342,34.342,0,0,1,1.773-4.234,14.275,14.275,0,0,0,.88-4.915c-.144-1.143-.351-2.278-.541-3.415a2.217,2.217,0,0,0-1.05-1.583,19.611,19.611,0,0,1,1,4.8,13.669,13.669,0,0,1-1.895,7.152,10.117,10.117,0,0,1-1.642,2.489c-.387-1.686.578-3.243,1.03-4.819a17.165,17.165,0,0,0,.071-3.747,15.816,15.816,0,0,0-1.175-3.012c-.227-.454-.857-.292-1.141-.675A8.758,8.758,0,0,0,374.733,157c-.193.811-.882,1.516-.709,2.379.5,1.03.93,2.25,2.027,2.795a5.084,5.084,0,0,1,2.432,1.881,12.581,12.581,0,0,1-.62,2.91,16.319,16.319,0,0,0-.642,2.063,29.136,29.136,0,0,1-1.743-3.3,44.794,44.794,0,0,0-3.624-5.067,3.364,3.364,0,0,1-.62-1.463,8.293,8.293,0,0,1,.466-2.065A2.961,2.961,0,0,1,372.791,156a9.727,9.727,0,0,0,1.469-1.433c-.6-1.486.186-3.143-.442-4.639a17.559,17.559,0,0,1-2.387.9c-.486.261-.557.861-.752,1.323a7.653,7.653,0,0,0-.738,2.576,4.87,4.87,0,0,0,.47,2.144,4.99,4.99,0,0,1,.146,2.13,7.229,7.229,0,0,1-2.5-3.224c-.663-1.013-.665-2.258-1.074-3.362-.081.853-.022,1.71-.036,2.566-.582-.363-1.277-.73-1.5-1.431a17.14,17.14,0,0,0-.8-2.1c-1.406-.17-2.545-1.244-4-1.165.024.811-.079,1.621,0,2.432a9.842,9.842,0,0,0,1.723,1.621,3.816,3.816,0,0,0,2.87.9,3.874,3.874,0,0,1,1.883.608,11.161,11.161,0,0,0,1.611,3.149c-1.275.047-1.723-1.232-2.321-2.1-.932,0-1.824-.328-2.758-.322a11.6,11.6,0,0,0,.1,1.591,6.064,6.064,0,0,0,2.1,1.289c1.121.059,2.248-.01,3.37.047a9.183,9.183,0,0,1,1.741,2.164c-.47-.255-.886-.59-1.327-.884a37.7,37.7,0,0,1-4.519-.361l.326.405a4.9,4.9,0,0,0,3.285.748,5.038,5.038,0,0,1-2.495.764c-.969-.118-1.806-.878-2.807-.79-1.048,1-2.616,1.257-3.561,2.371a19.664,19.664,0,0,0,2.126,1.652,16.081,16.081,0,0,0,2.884-.468c1.346-.355,1.917-1.781,3.109-2.379a15.074,15.074,0,0,0,1.34-1.013c.732.1,1.169.754,1.731,1.161a5.606,5.606,0,0,1,1.133.912c.391.442,0,1.023-.081,1.51-.322,1.445-1.982,1.8-2.748,2.937a2.277,2.277,0,0,1,.186,1.094,6.7,6.7,0,0,0-.024,3.087c.878-.527,2.286-.237,2.756-1.323.316-.719.671-1.419.932-2.169a5.488,5.488,0,0,0-.278-2.884.689.689,0,0,1,.17-.823,24.61,24.61,0,0,0,1.285,2.229,19.4,19.4,0,0,1,.967,3.068,14.66,14.66,0,0,1,.274,4.9,30.63,30.63,0,0,1-.669,3.958,1.568,1.568,0,0,1-.841-.259q-7.6-3.759-15.238-7.47a4.575,4.575,0,0,1-1.419-.811c-1.23-2.171-1.366-4.755-2.507-6.962a23.9,23.9,0,0,0-2.922-6.453c-.44-.588-.509-1.36-.936-1.948a9.918,9.918,0,0,1-1.431-1.4,22.138,22.138,0,0,0-3.016-3.674,18.762,18.762,0,0,1-1.984-2.262,8.9,8.9,0,0,1-2.051-3.735,17.3,17.3,0,0,1,.255-4.057,7.636,7.636,0,0,0-.432-2.635c-.152-.92.786-1.538.835-2.422-.424-1.013-.831-2.027-1.336-3.01a17.291,17.291,0,0,0-1.37,1.216,3.366,3.366,0,0,0,.387,3.457c-.118,1.463,1,2.922.2,4.325a5.575,5.575,0,0,0-.825-1.544,13.646,13.646,0,0,0-2.781-2.268,4.649,4.649,0,0,1-1.155-1.044c-1.364.02-2.511-.981-3.9-.869.059.385.138.77.2,1.155a3.283,3.283,0,0,1-1.325-1.534c-.138-.78,0-1.694-.555-2.337-1.263-.44-2.2-1.5-3.524-1.808-.077.869-.592,1.733-.385,2.6a20.128,20.128,0,0,0,1.769,2.134c.989.944,2.546.624,3.565,1.506.405.355.559.914,1,1.238a8.208,8.208,0,0,0,2.456,1.569c.9.332,1.883-.043,2.791.249.432.126.865.245,1.3.351.1.3.2.6.3.892.27.709.545,1.419.821,2.124a16.617,16.617,0,0,0-4.13-1.621,4.477,4.477,0,0,1-3.04-1.419,10.488,10.488,0,0,0-1.291-2.4,2.89,2.89,0,0,1-1.469-.29,6.2,6.2,0,0,0-2.207-.482,21.885,21.885,0,0,0,.059,2.473,15.876,15.876,0,0,0,2.25,1.7,4.632,4.632,0,0,0,2.432.442c-.644.5-1.236,1.056-1.848,1.585a13.119,13.119,0,0,1-3.364,1.336l-.1.31c1.013.071,1.958-.452,2.977-.454.928-.014,1.467-.888,2.266-1.216,1.479-.811,3.243-.306,4.714.241,1.084.446,2.375.772,3.01,1.858a32.8,32.8,0,0,0,3.445,4.661c.971,1.165,2.3,1.982,3.176,3.243a15,15,0,0,1-5.774-1.635c-.608-.312-1.457-.357-1.773-1.046-.377-.948-.282-2.079-.936-2.912-1.362-.219-2.371-1.354-3.784-1.419a16.819,16.819,0,0,0,.045,3.2A9.914,9.914,0,0,0,338,152.158a5.312,5.312,0,0,0,2.1.3c.634.186,1.236.476,1.875.661l.057.253c-.721.061-1.419.29-2.148.284a18.112,18.112,0,0,1-5.115-1.076c-1.216-.318-2.039-1.338-3.056-2-.45-.257-1.044-.047-1.457-.393-1.119-.608-.987-2.144-1.893-2.945-1.323-.13-2.491-.912-3.836-.951.087.843-.032,1.7.118,2.539a18.357,18.357,0,0,0,2.241,1.706,4.338,4.338,0,0,0,2.671.426,11.367,11.367,0,0,1,1.846.369c.94.081,1.514.924,2.229,1.419a4.3,4.3,0,0,1-2.266.44c-.707-.278-1.315-.762-2.027-1.013-.642-.215-1.113.389-1.688.543a11.493,11.493,0,0,0-2.369,1.032,10.233,10.233,0,0,0,1.621,1.893,25.622,25.622,0,0,0,2.647,0c1.127-.059,1.911-.957,2.76-1.583a8.707,8.707,0,0,0,1.921-1.086,20.705,20.705,0,0,0,3.905,1.076c.01.032.032.093.043.126a12.233,12.233,0,0,0,3.362.235c-.687,1.433-2.61,1.2-3.53,2.359a3.371,3.371,0,0,1-.292,1.488,4.814,4.814,0,0,0-.432,2.312c.859-.111,1.729-.036,2.588-.134a3.118,3.118,0,0,0,1.145-1.107,6.818,6.818,0,0,0,1.358-2.164c.091-.922-.047-1.846,0-2.77,1.364.049,2.73-.347,4.078.032a.629.629,0,0,0,.039.134,17.988,17.988,0,0,1,1.933.43,4.094,4.094,0,0,1,2.385,2.6,4.428,4.428,0,0,1-2.027.484,11.19,11.19,0,0,0-2.432-.632c-1.042.928-2.432,1.346-3.409,2.355.46.318.894.671,1.323,1.028.316.229.628.582,1.064.482,1.392-.28,3.04-.405,3.954-1.646a5.148,5.148,0,0,1,1.956-1.631,41.961,41.961,0,0,1,1.9,4.5c.649,1.733.774,3.6,1.323,5.363.2.681.405,1.358.576,2.049-2.408-.748-4.718-1.79-7.093-2.657-4.694-1.824-9.4-3.622-14.051-5.565a15,15,0,0,1-2.209-1.088c-2.377-1.494-4.975-2.612-7.3-4.2a3.745,3.745,0,0,1-1.384-1.526,29,29,0,0,1-1.423-3.836c-.243-1.354,1.358-2.26,1.013-3.648a4.3,4.3,0,0,1,.032-2.959c.357-1.4,2.012-1.7,2.777-2.815-.055-1.378.12-2.76-.018-4.14a14.68,14.68,0,0,1-2.689.764c-.282-.839-.871-1.644-.744-2.568a10.806,10.806,0,0,0,.638-2.665c-.2-.417-.626-.667-.849-1.07a5.273,5.273,0,0,0-1.889-2.2,20.483,20.483,0,0,1-1.344,2.246,7.933,7.933,0,0,0,.426,2.8,3.17,3.17,0,0,0,1.636,1.976c.811.405,1.2,1.281,1.824,1.919a25.577,25.577,0,0,0-1.216,2.837c-.28,1.184.764,2.138.608,3.305-.363-.549-.638-1.147-1-1.7a7.719,7.719,0,0,0,.316,2.246,7.831,7.831,0,0,1-2.126-2.31,8.574,8.574,0,0,0-.355-2.961,9.449,9.449,0,0,1-1.386-.827,6.238,6.238,0,0,0-2.166-1.291c-.093,1.044-.746,2.027-.543,3.091.424.742.92,1.443,1.409,2.144a3.533,3.533,0,0,0,2.3,1.2,5.975,5.975,0,0,1,1.946,1.013,3.854,3.854,0,0,0,1.153.024c.067.582.2,1.155.243,1.741.225,1.261-.926,2.166-1.04,3.38l-.383-.059c-.488-.679-1.265-1.24-1.352-2.132a9.445,9.445,0,0,0-.294-2.647,2.864,2.864,0,0,1-1.378-.7,6.309,6.309,0,0,0-2.185-1.3c-.107,1.082-.738,2.138-.446,3.243a19.091,19.091,0,0,0,1.609,2.323c.861.916,2.272.685,3.23,1.419a10.053,10.053,0,0,0,1.34.728,20.977,20.977,0,0,0,1.327,3.881,22.488,22.488,0,0,0,1.419,1.982l-.059.229a16.382,16.382,0,0,0-2.989.632c-1.133.174-2.262.389-3.4.5a10.436,10.436,0,0,1-.685-.811c-.693-.865-.191-2.041-.523-3.026-.039-.675-.811-.76-1.261-1.1a7.278,7.278,0,0,0-2.6-1.479c.1,1.048-.608,1.98-.454,3.02.405.691.894,1.336,1.329,2.012a5.242,5.242,0,0,0,2.116,1.49c-2.094.484-4.268.184-6.4.308a7.142,7.142,0,0,1-2.5-.553,2.919,2.919,0,0,1-1.9-1.034,11.6,11.6,0,0,0-1.621-2.15c-.415.1-.835.349-1.265.172a9.377,9.377,0,0,0-2.807-.128,17.455,17.455,0,0,1,.535,1.836c.126.45.221,1,.691,1.226.786.405,1.583.811,2.4,1.167,1.39.428,2.671-.679,4.053-.3.965.225,1.907.543,2.847.853a4.764,4.764,0,0,1-1.621.681c-1.3.249-2.42-.663-3.678-.811-.948,1.07-2.509,1.305-3.37,2.489.79.438,1.406,1.119,2.177,1.583a8.811,8.811,0,0,0,3.1-.328c1.068-.28,1.607-1.307,2.31-2.053.592-.405,1.167-.849,1.733-1.3,1.338-.014,2.677.057,4.017,0a19.455,19.455,0,0,1,2.418-.371c.628.016,1.257.014,1.885.028-.3.405-.638.794-.959,1.19-.6.766-.746,1.781-1.317,2.556-.839.726-2.012.916-2.819,1.7l.586.073a20.249,20.249,0,0,0,2.645-1.259,4.461,4.461,0,0,1-1.228,2.493,18.651,18.651,0,0,0-2.57,1.494c.284,1.419-.944,2.734-.405,4.157a20.371,20.371,0,0,1,2.635-.539c.74-.466,1.013-1.376,1.554-2.041a3.578,3.578,0,0,0,.387-3.054c-.178-.545.1-1.08.13-1.621a11.849,11.849,0,0,1,.01-1.915,14.487,14.487,0,0,1,.89-1.806,3.2,3.2,0,0,0,1.074,1.856,3.481,3.481,0,0,0,.78,2.432,15.408,15.408,0,0,0,1.824,1.9c.971.14,1.956,0,2.933.085-.184-.778-.385-1.55-.584-2.325a6.6,6.6,0,0,0,1.873.533,6.89,6.89,0,0,0,3.749-1.084c.7-.77.7-1.925,1.257-2.793-1.37-.492-2.837-.039-4.24-.274a16.419,16.419,0,0,0-1.621,1.937,2.8,2.8,0,0,1-1.372.811c-.146-1.19-1.5-1.327-2.4-1.674-.965-.233-1.461-1.177-1.9-1.978-.241-.276.164-.513.377-.608a12.843,12.843,0,0,1,5.758-1.467,18.256,18.256,0,0,0,3.636,1.708q13.658,5.581,27.123,11.629a5.29,5.29,0,0,1,1.84,1.354,4.863,4.863,0,0,0,1.7,1.013c.843.381,1.55,1,2.383,1.4a19,19,0,0,0,2.112.689l-.049.391a28.577,28.577,0,0,0-5.344.345c-1.621.276-3.267.367-4.886.677-1.236-.02-2.381.608-3.624.462a55.243,55.243,0,0,1-5.658-.48,5.263,5.263,0,0,1,.174-2.766c1.072-1.648.553-3.733-.2-5.395a16.628,16.628,0,0,0-2.71-1.419c-.492,1.317,0,2.772-.618,4.053.561.928,1.538,1.492,2.187,2.345a7.648,7.648,0,0,1,.46,1.925l-.245.312c-.829-.776-1.875-1.242-2.76-1.935a2.691,2.691,0,0,1-.782-1.477c-.306-.9.059-1.873-.227-2.772a5.89,5.89,0,0,0-1.382-2.027,4.292,4.292,0,0,0-1.2-1.119c-.93-.077-1.865,0-2.8-.053a12.67,12.67,0,0,0,1.119,3.395l-.308.363c-.677-.894-1.216-2.089-2.418-2.377a14.909,14.909,0,0,0-2.706-.539c-.892.371-1.563,1.119-2.45,1.506.632,1.3,2.268,1.481,3.04,2.635a5.022,5.022,0,0,0,1.759-.259,3.9,3.9,0,0,1,1.7-.4,8.606,8.606,0,0,1,2.329,1.052,8.408,8.408,0,0,0,.191-.827c1.052.276,2.262.665,2.608,1.836a12.606,12.606,0,0,0-1.735-.6c.334.308.7.582,1.06.859a22.589,22.589,0,0,0,2.45,2.195,8.566,8.566,0,0,1,2.566,1.974,22.886,22.886,0,0,1-2.983-.405,42.593,42.593,0,0,1-5.9-1.165,3.353,3.353,0,0,1-1.559-1.236,7.221,7.221,0,0,0-2.272-2.045,7.051,7.051,0,0,1-2.862-.531,8.881,8.881,0,0,0-1.931-1.706,9.614,9.614,0,0,0-3.922-.458c-1.042.387-1.552,1.542-2.521,2.073,0,.081-.014.245-.02.326a9.384,9.384,0,0,0,2.369,1.192,4.4,4.4,0,0,1,1.575.936,18.45,18.45,0,0,0,2.852-1.279,5.772,5.772,0,0,1,3.281.478c.545.549,1.064,1.129,1.621,1.662-.2.405-.683.284-1.05.324-.827.026-1.607-.375-2.432-.29-1.06-.016-1.883.732-2.756,1.216-.472.3-1.1.523-1.275,1.115-.28.916-.28,1.9-.608,2.807a7.777,7.777,0,0,0,3.137-.322,1.575,1.575,0,0,1,1.283.1,8.685,8.685,0,0,0,1.593-2.357,3.948,3.948,0,0,1,2.689-1.708c.736.405,1.2,1.248,2.067,1.433a47.161,47.161,0,0,0,5.746,1.216c1.548.345,3.147.089,4.7.389-.02.116-.061.347-.079.462a21.811,21.811,0,0,1-2.5.191c-.665.513-1.131,1.232-1.773,1.773a4.874,4.874,0,0,0,1.216.713c.626.261,1.451.251,1.788.953-.742-.219-1.5-.385-2.229-.628a9.521,9.521,0,0,0-2.073-1.216,14.016,14.016,0,0,0-3.626.282c-1.159.5-1.465,1.911-2.3,2.772a6.929,6.929,0,0,0,2.906.811c.563-.045.983.551,1.548.405a12.177,12.177,0,0,0,2.335-1.688c.782-.537,1.773-.28,2.659-.357.014.2.041.584.055.778a15.186,15.186,0,0,1,2.683-2.122c.689-.486,1.567-.259,2.351-.249l.016.336a9.933,9.933,0,0,0-4.294,2.578c.541-.138,1.044-.385,1.575-.555-.43,1.046-1.686,1.216-2.361,2.045-.756.608-.744,1.646-1.013,2.5a5.435,5.435,0,0,0-.345,1.463c.405,1,1.232,1.769,1.589,2.8,1.35-.839,1.786-2.475,3.006-3.445.142-1.356-.944-2.61-.517-3.97a7.478,7.478,0,0,1,1.139-2.175,3.841,3.841,0,0,0,2.458-.428,8.714,8.714,0,0,0,2.491-3.808c.44-1.046,1.725-1.013,2.675-1.082a42.583,42.583,0,0,1,4.256-.231c2.087-.274,4.185-.44,6.283-.715a11.116,11.116,0,0,1,5.055.547,4.721,4.721,0,0,1,1.735.422c2.446,1.232,4.911,2.432,7.367,3.648a97.1,97.1,0,0,1,10.336,5.614,15.89,15.89,0,0,1,2.554,2.533c.265.318.659.62.608,1.082.02,1.852.032,3.7,0,5.557a31.845,31.845,0,0,0-3.36-2.1,16.5,16.5,0,0,0-18.163,2.866l-.227.247v.164h-.178a14.112,14.112,0,0,0-3.648,6.722l-.286.028a10.723,10.723,0,0,0-2.837-7.951,13.363,13.363,0,0,0-7.235-3.372,39.277,39.277,0,0,0-5.695-.018,15.793,15.793,0,0,0-7.093,2.926c-.572.426-1.1.9-1.686,1.309-.034-.977,0-1.956-.014-2.931a.845.845,0,0,0-.91-.878h-8.727a.851.851,0,0,0-.867.886c-.053,10.229.045,20.469-.047,30.69-1.044-1.81-.938-3.96-1.184-5.962-.041-3.312,0-6.623.024-9.931a35.1,35.1,0,0,0-.1-6.716c-.276-1.927-.663-3.993-2.079-5.44-2.586-2.758-6.485-3.761-10.133-3.993a47.35,47.35,0,0,0-5.675-.144,21.885,21.885,0,0,0-8.536,1.893c-.2.077-.446.241-.653.077a12.65,12.65,0,0,0-4.791-1.792,25.8,25.8,0,0,0-4.256,0,8.382,8.382,0,0,0-3.695,1.666,26.277,26.277,0,0,0-2.075,2.012c-.053-.853.022-1.708-.036-2.56a.918.918,0,0,0-1.066-.691H277.92a.9.9,0,0,0-.9,1.076q.024,16.329,0,32.655c-.154.646.515,1.113,1.1,1.074h9.142c.43.028.719-.338,1.048-.557,0-5.648-.067-11.3.061-16.945.2-1.974.261-4.035,1.186-5.843a4.417,4.417,0,0,1,2.791-2.562,6.294,6.294,0,0,1,4.1.223c.13.349.193.719.324,1.068,1.433.377,2.924.444,4.376.728,1.717.263,3.427.608,5.15.8.9-.746,1.013-2.073,1.925-2.837,1.036-1.186,2.691-1.336,4.165-1.273,1.69.073,3.585-.245,5.05.8,1.129.835,1.244,2.359,1.143,3.648-3.693,1.064-7.5,1.621-11.266,2.341-3.164.732-6.6,1.463-8.954,3.879a8.917,8.917,0,0,0-2.762,6.933,9.348,9.348,0,0,0,3.648,7.64,14.3,14.3,0,0,0,8.469,2.787,17.632,17.632,0,0,0,10.324-2.728c.608-.357,1.119-.932,1.85-1.013a9.132,9.132,0,0,0,1,2.635,1.6,1.6,0,0,0,1,.274c6.358-.012,12.717,0,19.075,0,.428.02.736-.324,1.072-.535-.012-5.182,0-10.364,0-15.546a25.476,25.476,0,0,1,.563-6.931,6.277,6.277,0,0,1,3.543-3.672,8.875,8.875,0,0,1,4.136-.5A4.308,4.308,0,0,1,354,204.842c.794,1.433.584,3.113.788,4.678.057,6.459,0,12.92.026,19.379-.081.5.5.811.924.863,2.254.018,4.507,0,6.761,0,1.054-.636,2.241-1.013,3.31-1.605a4.865,4.865,0,0,0,.136-1.715c.1-2.606-.083-5.219.069-7.821a9.709,9.709,0,0,1,.717,1.927,14.548,14.548,0,0,0,4.481,6.283,2.918,2.918,0,0,0,1.751.511,14.815,14.815,0,0,1,8.09,2.379,2.821,2.821,0,0,0,1.875.693c1.151-.134,2.276-.436,3.409-.683.255-.073.513-.154.77-.235.018-.513.063-1.013.1-1.53,1.283,0,2.738.2,3.774-.744l.219-.182c.428-.377.861-.748,1.313-1.092.012.683.016,1.368,0,2.055a8.016,8.016,0,0,1,2.3.105,6.688,6.688,0,0,1,.184,1.656h.742a4.368,4.368,0,0,1,.247-1.735c2.288-.18,4.592,0,6.891-.085,0-9.815-.028-19.632.018-29.445a6.81,6.81,0,0,1,1.23,2.256c2.089,4.6,4.1,9.235,6.208,13.826,1.952,4.471,4.027,8.885,5.973,13.358a1.09,1.09,0,0,0,1.027.811h8.334a1.013,1.013,0,0,0,1-.681c3.186-7.3,6.467-14.545,9.649-21.841.644-1.621,1.53-3.129,2.027-4.8a2.686,2.686,0,0,1,.752-1.232c.085,1.453.022,2.91.039,4.365.014,7.77-.024,15.542.014,23.307-.069.734.784.715,1.3.711,2.776-.032,5.553,0,8.332,0,.419-.043,1.119.02,1.179-.551.268-1.723-.073-3.48.164-5.211.31.373.608.756.912,1.145a13.271,13.271,0,0,0,4.053,3.243,23.879,23.879,0,0,0,10.3,2.385c4.043.083,8.222-.229,11.937-1.968,3.287-1.585,6.165-4.54,6.779-8.244a11.772,11.772,0,0,0-.46-5.125,8.968,8.968,0,0,0-4.706-4.838c-3.968-1.891-8.332-2.683-12.606-3.555-.016-.034-.045-.1-.059-.134a21.38,21.38,0,0,1-3.772-.888c-.9-.316-2.027-.547-2.462-1.512-.223-.7.391-1.265.926-1.6a6.99,6.99,0,0,1,3.206-.744,11.8,11.8,0,0,1,3.445,0,5.5,5.5,0,0,1,3.768,1.658c.632.6.811,1.49,1.315,2.171a1.8,1.8,0,0,0,.989.036c2.965-.567,5.964-.957,8.931-1.5.19-.284.324-.608.507-.892a14.962,14.962,0,0,1,1.783,0c-.018,4.631,0,9.26,0,13.889.053,2.556-.164,5.166.59,7.647a6.329,6.329,0,0,0,2.785,3.893,10.782,10.782,0,0,0,5.877,1.589,25.86,25.86,0,0,0,6.08-.363,8.049,8.049,0,0,0,3.445-1.309,12.16,12.16,0,0,0,6.485,1.67c1.352,0,2.708.034,4.053-.053A17.271,17.271,0,0,0,522,226.161c.229-.138.436-.4.734-.371.375.756.592,1.583.989,2.331.235.555.932.448,1.419.492,2.574-.016,5.148-.034,7.722,0a4.089,4.089,0,0,0,1.779-.405A16.572,16.572,0,0,1,532.332,220.581ZM413.164,122.11c.336.474.89.924.811,1.567-.02.27-.053.537-.1.811a5.64,5.64,0,0,1-.709-2.377Zm-7.4,10.3a3.137,3.137,0,0,1,1.034,1.654A2.659,2.659,0,0,1,405.765,132.41Zm-28.211,27.745a8.5,8.5,0,0,1,.811,2.762A2.572,2.572,0,0,1,377.554,160.155ZM337.28,137.827a2.762,2.762,0,0,1,1.433,1.733A1.974,1.974,0,0,1,337.28,137.827Zm-19.1,24.662c-.041-.2-.079-.415-.116-.622l.46.053c.016.225.036.452.059.679Zm29.664,20.542a8.019,8.019,0,0,1-2.8-1.838,2.769,2.769,0,0,1,1.753-1.013c1.038-.01,2.055-.263,3.095-.243A16.162,16.162,0,0,1,347.843,183.032Zm-29.776,36.437c-.861,1.86-2.837,2.837-4.714,3.4a15.993,15.993,0,0,1-3.445.041,4.5,4.5,0,0,1-3.123-2.726,5.352,5.352,0,0,1-.012-1.824,3.929,3.929,0,0,1,2.381-2.108,47.487,47.487,0,0,1,6.106-1.419c1.094-.223,2.173-.537,3.281-.7C318.473,215.908,318.777,217.785,318.068,219.469Zm73.606-5.156a8.8,8.8,0,0,1-3.087,6.506,7.231,7.231,0,0,1-9.766-.849c-1.913-2.128-2.15-5.162-2.146-7.89a11.013,11.013,0,0,1,1.419-6.392,7.456,7.456,0,0,1,3.279-2.732,7.048,7.048,0,0,1,2.906-.373,7.349,7.349,0,0,1,2.566.292,7.04,7.04,0,0,1,4.09,4.173A18.863,18.863,0,0,1,391.674,214.313Zm40.509-50.644c1.182-.233,2.479-.608,3.634-.069a10.506,10.506,0,0,1,1.263.677c-.014.124-.045.369-.059.49a10.817,10.817,0,0,0-1.461-.632c-.466-.168-.811.29-1.216.43-.282-.069-.557-.146-.829-.231-.764.782-1.824,1.2-2.523,2.057a10.975,10.975,0,0,1,1.35,1.445,26.071,26.071,0,0,0,3.832-.926c.888-.334,1.161-1.419,1.99-1.81l.276.164A10.694,10.694,0,0,1,436.7,167c-.284.2-.563.582-.961.472a13.073,13.073,0,0,1-6.216,2.548c-1.107.365-2.288.061-3.409.324a12.833,12.833,0,0,1-2.5.251,15.419,15.419,0,0,0-3.689.608c-.332.091-.647-.132-.959-.193a5.31,5.31,0,0,1,.089-.6c.58-.572,1.35-.912,1.923-1.5a6.989,6.989,0,0,1,2.353-1.731C426.3,166.066,429.1,164.49,432.182,163.669Zm-30.076,17.786a3.7,3.7,0,0,1-.811.478,35.057,35.057,0,0,0-3.757-8.852c-1.157-2.136-2.393-4.23-3.528-6.378-.3-.48.049-1.013.229-1.459,1.352-2.823,3.508-5.134,5.247-7.7.9-1.334,1.585-2.809,2.61-4.053.594-.717,1.621-.5,2.432-.482a8.631,8.631,0,0,1,3.356,1.216,4.482,4.482,0,0,1,.405,2.337,17.711,17.711,0,0,0-1.234,2.365,2.981,2.981,0,0,1,.738,1.273,6.582,6.582,0,0,0,1.141,2.379c.572-.561,1.307-.938,1.824-1.546a27.468,27.468,0,0,0-.069-3.058c-.426-1.3-1.706-2.092-2.027-3.445a14.162,14.162,0,0,0,2.574.557c.547.014,1.094-.036,1.642-.012.458.649.942,1.587.488,2.357a4.139,4.139,0,0,0-.456,1.35c.521.936,1.03,1.881,1.605,2.785a4.454,4.454,0,0,0,1.457-1.554c-.124-.644-.166-1.3-.336-1.935a3.843,3.843,0,0,0-1.135-1.538,6.974,6.974,0,0,1-1.013-1.477c1.036-.316,2.027-.726,3.04-1.125.422.265.772.634,1.216.88,1.3-.2,2.821-.328,3.674-1.475.64-.922,1.745-1.319,2.432-2.2.715.519,1.621.91,2.008,1.755a4.047,4.047,0,0,1,.691,2.444c-.184,1.086-.308,2.181-.527,3.261a9.419,9.419,0,0,1-1.248,2.951,14.9,14.9,0,0,1-3.318,4.378c-3.861,3.352-8.289,5.983-12.1,9.4C406.934,177.377,404.5,179.4,402.107,181.455Zm68.321,35.466c.888.347,2.051.495,2.511,1.445a4.38,4.38,0,0,1-.014,1.419,3.894,3.894,0,0,1-2.562,1.812,15.44,15.44,0,0,1-4.6.351,6.45,6.45,0,0,1-5.342-2.3,10.953,10.953,0,0,1-1.317-2.809c-3.04.373-6.048.975-9.1,1.113.037-2.29,0-4.582.022-6.872a20.816,20.816,0,0,1,.087-3.445,3.885,3.885,0,0,1,.855,1.621,10.883,10.883,0,0,0,3.976,3.492,32.841,32.841,0,0,0,3.514,1.37C462.4,215.233,466.4,216.186,470.427,216.921Zm33.105-6.347a9.521,9.521,0,0,0-4.748,5.861,13.158,13.158,0,0,0-.255,4.517c-.811.016-1.775.026-2.284-.734a3.659,3.659,0,0,1-.375-1.646v-15.22a1.966,1.966,0,0,1,.221-1.054c1.216-.146,2.46-.01,3.693-.061-.045.608-.1,1.216-.132,1.824,3.216.608,6.471.987,9.685,1.607.671-.979.983-2.215,1.927-3a4.722,4.722,0,0,1,3.547-1.086c1.729.085,3.607-.28,5.19.608,1.269.7,1.621,2.282,1.587,3.618a1.3,1.3,0,0,1-.681.418c-4.029,1.2-8.236,1.589-12.314,2.576A20.447,20.447,0,0,0,503.533,210.574Zm18.037,6.283a4.582,4.582,0,0,1-.592,1.759,7.387,7.387,0,0,1-4.546,3.261,16.7,16.7,0,0,1-3.851,0,4.5,4.5,0,0,1-2.906-2.754,3.367,3.367,0,0,1,.249-2.229,3.806,3.806,0,0,1,2.027-1.6,19.345,19.345,0,0,1,4.943-1.332c1.6-.272,3.158-.758,4.775-.934a24.5,24.5,0,0,1-.107,3.822Z" transform="translate(-220.534 -53.334)" fill="#2d4c27"/>
    <path id="Path_15621" data-name="Path 15621" d="M938.517,108.5c.2.507.375,1.03.559,1.546a18.147,18.147,0,0,1,.571-2.647,4.777,4.777,0,0,0-.324-2.752c-.154-1.131-1.518-1.062-2.343-1.382a32.3,32.3,0,0,1-.231,3.429C937.161,107.455,938.017,107.812,938.517,108.5Z" transform="translate(-746.576 -52.512)" fill="#2d4c27"/>
    <path id="Path_15622" data-name="Path 15622" d="M912.611,111.94c.278.981-.359,1.86-.811,2.671.142.17.29.334.446.5a9.121,9.121,0,0,1,1.6-1.824,4.865,4.865,0,0,0,2.067-2.274,18,18,0,0,0,.588-2.112c.215-1.088-.825-1.824-1.392-2.6-1.386.62-1.64,2.456-2.933,3.212A6.156,6.156,0,0,0,912.611,111.94Z" transform="translate(-726.683 -54.928)" fill="#2d4c27"/>
    <path id="Path_15623" data-name="Path 15623" d="M823.686,111.267c-.215.835-1.1,1.362-1.054,2.282.551-.438,1.023-.963,1.575-1.4.721-.588,1.755-.073,2.527-.5a21.426,21.426,0,0,0,1.933-2.793,12.469,12.469,0,0,0-1.621-.507c-.811-.158-1.419.545-2.051.92A3.286,3.286,0,0,0,823.686,111.267Z" transform="translate(-655.585 -56.545)" fill="#2d4c27"/>
    <path id="Path_15624" data-name="Path 15624" d="M841.854,113.122c-.3,1.03.513,1.98.537,3a9.334,9.334,0,0,1-1.236,2.539c-.811,0-1.621-.043-2.432.026-.934.223-1.544,1.054-2.432,1.378-.436.193-.955.357-1.131.853a10.87,10.87,0,0,1,2.288-.237c.7.282,1.323.711,2,1.028.924-.608,2.089-.679,3-1.323-.049-.572-.64-.955-.93-1.431a10.184,10.184,0,0,0,1.131-1.287c.608-.89,1.68-1.281,2.343-2.12a7.079,7.079,0,0,0,1.086-2.6c.134-.446.405-1,.047-1.419-.426-.6-.9-1.157-1.321-1.757h-.17C843.471,110.7,842.971,112.174,841.854,113.122Z" transform="translate(-665.575 -57.695)" fill="#2d4c27"/>
    <path id="Path_15625" data-name="Path 15625" d="M952.615,134.042c-.028.225-.057.448-.081.671l.474-.166c.306-1.279,1.471-2.053,1.907-3.257a15.037,15.037,0,0,0,.022-2.635c-.511-.389-.948-1.1-1.621-1.135-.626.928-.886,2.043-1.419,3.022-.026.748.673,1.285.847,1.982A4.546,4.546,0,0,1,952.615,134.042Z" transform="translate(-758.653 -71.848)" fill="#2d4c27"/>
    <path id="Path_15626" data-name="Path 15626" d="M831.749,128.447c-1.216-.089-1.909,1.121-2.989,1.435-.341.2-1.056.286-.957.811a14.273,14.273,0,0,1,1.946-.231c.894-.051,1.481.94,2.377.878a16.944,16.944,0,0,0,3.089-1.283c-.46-.5-.841-1.08-1.34-1.548A13.28,13.28,0,0,0,831.749,128.447Z" transform="translate(-659.702 -72.576)" fill="#2d4c27"/>
    <path id="Path_15627" data-name="Path 15627" d="M663.979,145.2a16.074,16.074,0,0,0,2.862.043,10.167,10.167,0,0,1,2.229-.989,1.679,1.679,0,0,0,1.141-.655c-.663-.022-1.323.034-1.986.02-1.107.049-1.635-1.53-2.793-1.234a18.616,18.616,0,0,0-3.062.811C662.854,143.9,663.122,144.887,663.979,145.2Z" transform="translate(-527.804 -83.67)" fill="#2d4c27"/>
    <path id="Path_15628" data-name="Path 15628" d="M997.64,158.6c1.437-.16,2.308-1.445,3.162-2.462a9.326,9.326,0,0,0-.468-2.027,26.663,26.663,0,0,0-3.093,1.451c-.578.563-.312,1.524-.651,2.2a9.161,9.161,0,0,1-1.68,1.443l.294.28A8.1,8.1,0,0,1,997.64,158.6Z" transform="translate(-792.949 -93.049)" fill="#2d4c27"/>
    <path id="Path_15629" data-name="Path 15629" d="M972.369,166.592l.517-.045c.247-.5.436-1.025.725-1.5a8.276,8.276,0,0,0,1.216-1.727,7.649,7.649,0,0,0,.253-2.756,7.037,7.037,0,0,0-1.66-1.4c-.715.989-.9,2.229-1.591,3.243.314.685.73,1.319,1.013,2.027A7.18,7.18,0,0,1,972.369,166.592Z" transform="translate(-774.547 -97.075)" fill="#2d4c27"/>
    <path id="Path_15630" data-name="Path 15630" d="M818.69,162.833c.705.914.871,2.108,1.563,3.04a11.67,11.67,0,0,0,1.5-1.419,12,12,0,0,0-.073-2.432c-.176-1.013-1.182-1.561-1.552-2.483a2.053,2.053,0,0,0-.849-1.07,8.516,8.516,0,0,1,.239,2.543C819.253,161.64,818.927,162.225,818.69,162.833Z" transform="translate(-652.443 -96.525)" fill="#2d4c27"/>
    <path id="Path_15631" data-name="Path 15631" d="M727.311,173.009a10.115,10.115,0,0,0-2.229-.679,28.814,28.814,0,0,1-2.872,1.745,5.184,5.184,0,0,0,1.654,1.569,13.5,13.5,0,0,0,2.57-.428c.934-.328,1.419-1.283,2.252-1.763a7.4,7.4,0,0,0,1.151-.859C728.949,172.371,728.191,173.12,727.311,173.009Z" transform="translate(-575.516 -107.576)" fill="#2d4c27"/>
    <path id="Path_15632" data-name="Path 15632" d="M868.682,186.459c-.424-.7-1.086-1.228-1.459-1.96-.1-.689.043-1.394-.112-2.075a20.889,20.889,0,0,0-2.9-2.144,9.227,9.227,0,0,0-.525,2.191,8.981,8.981,0,0,0,1.327,2.051c.608.707,1.648.717,2.349,1.3A2.211,2.211,0,0,0,868.682,186.459Z" transform="translate(-688.315 -113.915)" fill="#2d4c27"/>
    <path id="Path_15633" data-name="Path 15633" d="M1086.882,192.67a2.752,2.752,0,0,0,.689,1.342c.059-.788-.091-1.577-.012-2.363.322-.642,1.354-1.147.94-1.96a21.371,21.371,0,0,0-.965-2.979c-.573.3-1.374.326-1.733.916a13.914,13.914,0,0,0-.063,2.414C1085.917,191,1086.705,191.708,1086.882,192.67Z" transform="translate(-865.349 -119.042)" fill="#2d4c27"/>
    <path id="Path_15634" data-name="Path 15634" d="M1034.559,199.961a14.252,14.252,0,0,1,.156-1.862,3.381,3.381,0,0,1,.845-1.086l.341-.347c-.608-1.1-.523-2.432-1.236-3.5a11.986,11.986,0,0,0-1.508.626,4.04,4.04,0,0,0-.32,2c-.081,1.074.677,1.929,1.1,2.852C1034.142,199.088,1034.344,199.526,1034.559,199.961Z" transform="translate(-823.185 -124.193)" fill="#2d4c27"/>
    <path id="Path_15635" data-name="Path 15635" d="M850.037,197.651c-.88-.77-1.808-1.492-2.758-2.171a3.582,3.582,0,0,0-.657,2.25,8.874,8.874,0,0,0,1.3,1.966c.626.689,1.648.723,2.347,1.309a2.491,2.491,0,0,0,1.364.655c-.448-.677-1.109-1.19-1.5-1.909C850.015,199.057,850.146,198.346,850.037,197.651Z" transform="translate(-674.682 -126.035)" fill="#2d4c27"/>
    <path id="Path_15636" data-name="Path 15636" d="M737.7,198.366c-.977.628-2.063,1.072-2.979,1.792a18.523,18.523,0,0,0,1.544,1.329,7.156,7.156,0,0,0,2.724-.3c.849-.288,1.3-1.129,2.027-1.6a3.322,3.322,0,0,0,1.255-1.056c-.825-.051-1.536.517-2.351.464C739.179,198.806,738.5,198.27,737.7,198.366Z" transform="translate(-585.491 -128.327)" fill="#2d4c27"/>
    <path id="Path_15637" data-name="Path 15637" d="M554.51,207.917a4.368,4.368,0,0,0,2.229.892c.924.148,1.575,1.084,2.572.914-.608-.77-1.536-1.234-2.053-2.079-.136-.608-.109-1.226-.29-1.824-.113-.308-.122-.748-.482-.876-1.173-.509-2.14-1.4-3.36-1.824a7.562,7.562,0,0,0-.43,2.625A14.012,14.012,0,0,0,554.51,207.917Z" transform="translate(-440.34 -132.126)" fill="#2d4c27"/>
    <path id="Path_15638" data-name="Path 15638" d="M589.076,215.785c.955.13,1.621,1.111,2.635.922a19.568,19.568,0,0,1-2.057-2.083c-.381-.871-.1-1.905-.669-2.724-1.321-.328-2.278-1.4-3.579-1.8-.038.827-.375,1.6-.446,2.432a12.277,12.277,0,0,0,1.524,2A4.022,4.022,0,0,0,589.076,215.785Z" transform="translate(-466.082 -137.692)" fill="#2d4c27"/>
    <path id="Path_15639" data-name="Path 15639" d="M1147.175,215.353c.92-.083,1.97.237,2.793-.272a5.484,5.484,0,0,1,.754-1.475,10.729,10.729,0,0,0,1.7-2.876c-.811-.261-1.5-.811-2.31-1.08a10.938,10.938,0,0,0-1.952,1.388,5.333,5.333,0,0,0-1.982,3.35c-.259,1.216-1.431,2.027-1.481,3.305C1145.667,217.08,1146.254,216.038,1147.175,215.353Z" transform="translate(-912.382 -137.333)" fill="#2d4c27"/>
    <path id="Path_15640" data-name="Path 15640" d="M982.975,217.18c-1.461.168-2.507,1.35-3.93,1.6a13.134,13.134,0,0,0-.527,2.349c-.43,1.04-1.666,1.35-2.318,2.215,1.216.118,2.075-1.013,3.273-1,1.485,0,2.495-1.177,3.37-2.213C983.782,219.373,982.833,218.167,982.975,217.18Z" transform="translate(-778.031 -143.337)" fill="#2d4c27"/>
    <path id="Path_15641" data-name="Path 15641" d="M1108.826,224.908c.507-.377,1.177-.405,1.719-.732.276-.336.2-.811.357-1.2a8.316,8.316,0,0,0,.557-2.391,12.566,12.566,0,0,0-1.838-.274c-.592.878-1.443,1.674-1.569,2.779a14.685,14.685,0,0,1-.247,2.349,2.576,2.576,0,0,0-.024,1.354A20.319,20.319,0,0,1,1108.826,224.908Z" transform="translate(-882.882 -145.832)" fill="#2d4c27"/>
    <path id="Path_15642" data-name="Path 15642" d="M1042.465,234.126a8.714,8.714,0,0,0-.515,2c.661-.454.851-1.263,1.317-1.871.567-.361,1.354-.292,1.865-.766a18.962,18.962,0,0,0,.948-3.4,7.983,7.983,0,0,0-1.607-.405c-.294.026-.424.338-.608.521a5.683,5.683,0,0,0-1.216,1.994C1042.467,232.829,1042.6,233.5,1042.465,234.126Z" transform="translate(-830.456 -153.311)" fill="#2d4c27"/>
    <path id="Path_15643" data-name="Path 15643" d="M1081.219,236.818a7.282,7.282,0,0,0,1.534-.547,15.461,15.461,0,0,0,.944-3.537c-.541-.085-1.068-.251-1.609-.3a4.566,4.566,0,0,0-1.925,3.6,5.47,5.47,0,0,1-.276,1.6l-.138.59.511-.124C1080.534,237.647,1080.684,237.022,1081.219,236.818Z" transform="translate(-860.595 -155.496)" fill="#2d4c27"/>
    <path id="Path_15644" data-name="Path 15644" d="M547.967,235.727a3.23,3.23,0,0,0,.955.957,6.531,6.531,0,0,0,2.31,1.364c.715.105,1.441-.032,2.156.051.705.166,1.53.719,2.177.116a14.482,14.482,0,0,1-1.984-.969c-1.078-.64-.922-2.166-1.86-2.937-1.325-.075-2.5-.811-3.82-.938C547.943,234.154,547.868,234.947,547.967,235.727Z" transform="translate(-436.533 -156.246)" fill="#2d4c27"/>
    <path id="Path_15645" data-name="Path 15645" d="M1056.939,252.865c-.164.7-.608,1.378-.33,2.114.405-.59.655-1.275,1.1-1.838.535-.436,1.336-.318,1.871-.77.231-.912.608-1.773.859-2.679.014-.28.213-.859-.239-.884-.543-.073-1.289-.533-1.692.047a5.676,5.676,0,0,0-1.419,2.25A15.976,15.976,0,0,0,1056.939,252.865Z" transform="translate(-842.073 -168.362)" fill="#2d4c27"/>
    <path id="Path_15646" data-name="Path 15646" d="M1116.626,248.726a5.7,5.7,0,0,0-1.216,2.175c-.191.8-.049,1.633-.2,2.432-.037.3-.065.608-.087.918.144-.168.286-.338.43-.511a7.26,7.26,0,0,1,.811-1.013c.484-.221,1.028-.306,1.5-.574a8.31,8.31,0,0,0,.42-1.384,7.589,7.589,0,0,0,.509-2.185C1118.1,248.525,1117.076,247.925,1116.626,248.726Z" transform="translate(-888.797 -168.16)" fill="#2d4c27"/>
    <path id="Path_15647" data-name="Path 15647" d="M1161.617,264.456a5.761,5.761,0,0,0-1.633,2.949,10.424,10.424,0,0,1-.185,2.059,3.168,3.168,0,0,0-.093,1.5c.405-.618.641-1.342,1.088-1.935a12.69,12.69,0,0,1,1.915-.811c-.016-1.216.75-2.282.707-3.512A6.89,6.89,0,0,0,1161.617,264.456Z" transform="translate(-924.307 -181.025)" fill="#2d4c27"/>
    <path id="Path_15648" data-name="Path 15648" d="M1131.334,275.182c-.12.594-.584,1.244-.1,1.8a17.8,17.8,0,0,1,.792-1.6c.458-.756,1.635-.515,2.108-1.252.12-1.149.641-2.211.742-3.364a12.163,12.163,0,0,1-1.8-.274,8.658,8.658,0,0,0-1.621,2.545C1131.31,273.745,1131.46,274.474,1131.334,275.182Z" transform="translate(-901.472 -185.843)" fill="#2d4c27"/>
    <path id="Path_15649" data-name="Path 15649" d="M1084.609,280.59c.73-.7.886-1.8,1.635-2.466.744-.391,1.7-.3,2.351-.9.268-1.492,1.07-2.823,1.257-4.339a4.554,4.554,0,0,0-2.523-.517,19.557,19.557,0,0,0-1.873,2.7,5.2,5.2,0,0,0-.261,2.124C1085.272,278.373,1084.291,279.386,1084.609,280.59Z" transform="translate(-864.419 -187.34)" fill="#2d4c27"/>
    <path id="Path_15650" data-name="Path 15650" d="M950.965,298.933c-.363,1.034-1.55,1.394-2.185,2.229,1.1.2,1.879-.853,2.961-.811,1.735-.067,2.918-1.52,3.889-2.787.146-.792-.345-1.587-.379-2.4-1.406.182-2.432,1.291-3.788,1.589A6.017,6.017,0,0,0,950.965,298.933Z" transform="translate(-756.168 -205.521)" fill="#2d4c27"/>
    <path id="Path_15651" data-name="Path 15651" d="M994.647,296.528a12.084,12.084,0,0,0,1.344,1.919c.79.859,2.079.8,2.971,1.49a1.685,1.685,0,0,0,1.329.456c-.529-.717-1.358-1.216-1.7-2.055-.091-.693.022-1.4-.124-2.092-1.094-.608-2.027-1.449-3.145-2.027C995.044,294.958,994.5,295.7,994.647,296.528Z" transform="translate(-792.719 -204.763)" fill="#2d4c27"/>
    <path id="Path_15652" data-name="Path 15652" d="M1134.966,303.942a15.955,15.955,0,0,1-1.919-.142c-.681,0-.985.687-1.307,1.171a3.035,3.035,0,0,0-.709,2.535,17.619,17.619,0,0,1,.105,3.139c.837-.452.608-1.713,1.445-2.152.669-.28,1.358-.517,2-.859C1134.411,306.372,1135.108,305.209,1134.966,303.942Z" transform="translate(-901.412 -212.402)" fill="#2d4c27"/>
    <path id="Path_15653" data-name="Path 15653" d="M431.946,310.4c.728,1.013,1.269,2.292,2.432,2.89.638.365,1.441.2,2.055.624a4.06,4.06,0,0,0,1.929.9c-.495-1.013-1.68-1.53-2.027-2.635a8.771,8.771,0,0,0-.316-2.789c-.405-.361-.946-.509-1.354-.863a5.456,5.456,0,0,0-2.339-1.311C432.443,308.316,431.583,309.338,431.946,310.4Z" transform="translate(-344.007 -215.129)" fill="#2d4c27"/>
    <path id="Path_15654" data-name="Path 15654" d="M759.23,320.21c-.669-.543-1.188-1.252-1.9-1.749-.16-.111-.547-.229-.608.038a5.4,5.4,0,0,0-.705,1.8,22.51,22.51,0,0,0,1.06,2.079c.608,1.013,1.927,1.125,2.677,1.984a1.7,1.7,0,0,0,1.206.592c-.405-.649-.957-1.216-1.3-1.895C759.3,322.157,760.12,320.885,759.23,320.21Z" transform="translate(-602.474 -223.992)" fill="#2d4c27"/>
    <path id="Path_15655" data-name="Path 15655" d="M1041.4,333.072c.2.257.391.638.786.586.811.01,1.641,0,2.46-.043,1.358-.2,1.948-1.692,3.194-2.12a2.344,2.344,0,0,0,1.153-.969,18.068,18.068,0,0,1-2.748.278c-.831-.306-1.419-1.246-2.351-1.254-1.07.825-2.481,1.013-3.522,1.895C1040.731,331.976,1041.049,332.533,1041.4,333.072Z" transform="translate(-829.196 -232.933)" fill="#2d4c27"/>
    <path id="Path_15656" data-name="Path 15656" d="M417.464,340.937c1.013.122,1.621,1.216,2.685,1.1-.466-.788-1.236-1.321-1.757-2.063-.308-.363-.2-.865-.239-1.3a5.1,5.1,0,0,0-.405-2.12c-1.3-.5-2.164-1.743-3.561-2.069a14.655,14.655,0,0,1-.476,2.355c-.2,1.038.758,1.725,1.19,2.56A3.364,3.364,0,0,0,417.464,340.937Z" transform="translate(-329.517 -236.864)" fill="#2d4c27"/>
    <path id="Path_15657" data-name="Path 15657" d="M1150.124,350.766l.405.286c1.117-.484,2.349-.59,3.468-1.076a7.386,7.386,0,0,0-.711-1.937,1.216,1.216,0,0,0-1.1-.586,10.691,10.691,0,0,0-2.248-.026,18.851,18.851,0,0,0-1.838,1.074c-.44.225-.892.428-1.333.644a8.2,8.2,0,0,1,1.923.276A7.184,7.184,0,0,1,1150.124,350.766Z" transform="translate(-914.032 -247.143)" fill="#2d4c27"/>
    <path id="Path_15658" data-name="Path 15658" d="M667.177,351.145a9.741,9.741,0,0,0,2.655,2.049,10.317,10.317,0,0,1,2.432.235,6.123,6.123,0,0,0,1.808.259c-.685-.758-1.978-.932-2.29-2a7.124,7.124,0,0,0-.851-2.067c-1.382-.292-2.572-1.175-4-1.291,0,.6,0,1.192-.02,1.79C666.928,350.472,666.833,350.912,667.177,351.145Z" transform="translate(-531.423 -247.907)" fill="#2d4c27"/>
    <path id="Path_15659" data-name="Path 15659" d="M980.547,358.316c.888.075,1.563-.642,2.432-.709a2.818,2.818,0,0,0,1.289-.547c-.782-.118-1.644.118-2.361-.288-.486-.353-.865-.833-1.362-1.171a18.775,18.775,0,0,0-3.265.649,6.183,6.183,0,0,0,.823,1.7A5.4,5.4,0,0,0,980.547,358.316Z" transform="translate(-778.892 -253.704)" fill="#2d4c27"/>
    <path id="Path_15660" data-name="Path 15660" d="M1125.816,379.432a13.781,13.781,0,0,0-1.907,1.169,5,5,0,0,0-2.069,1.013,26.208,26.208,0,0,1,2.71.077c.649.49,1.165,1.141,1.856,1.579.5-.047.91-.438,1.419-.49a8.327,8.327,0,0,0,2.414-.825c-.529-.811-.586-2.116-1.621-2.489A12.806,12.806,0,0,0,1125.816,379.432Z" transform="translate(-894.155 -272.651)" fill="#2d4c27"/>
    <path id="Path_15661" data-name="Path 15661" d="M418.793,390.3a3.445,3.445,0,0,0,1.9-2.46c.174-1.08,1.451-1.658,1.332-2.837a12.755,12.755,0,0,1-2.5,1.862c-.955.164-1.944-.073-2.9.126-.468.377-.691.965-1.127,1.376a4.692,4.692,0,0,0-1.372,2.158,12.972,12.972,0,0,1,2.272.671C417.326,391.424,418.013,390.638,418.793,390.3Z" transform="translate(-329.873 -277.146)" fill="#2d4c27"/>
    <path id="Path_15662" data-name="Path 15662" d="M1157.112,395.266c-.721.513-1.773.375-2.312,1.163.782.047,1.567-.057,2.353,0,.75.428,1.171,1.305,2.006,1.621,1.1-.525,2.365-.553,3.464-1.107a10.26,10.26,0,0,0-1-2.256,9.664,9.664,0,0,0-2.464-.342A3.881,3.881,0,0,0,1157.112,395.266Z" transform="translate(-920.435 -284.596)" fill="#2d4c27"/>
    <path id="Path_15663" data-name="Path 15663" d="M1128.135,412.929l.024.17a11.061,11.061,0,0,0,2.363.31,7.562,7.562,0,0,0,.2-2.558,12.611,12.611,0,0,0-1.909-1.419c-.953-.626-2.134-.231-3.192-.288-.764.047-1.555-.43-2.254.057.778.509,1.848.608,2.42,1.4a11.153,11.153,0,0,0,.811,2.057C1127.01,413.052,1127.616,412.876,1128.135,412.929Z" transform="translate(-895.375 -296.266)" fill="#2d4c27"/>
    <path id="Path_15664" data-name="Path 15664" d="M1076.307,425.418a18.155,18.155,0,0,0-.075-1.909,4.809,4.809,0,0,0-1.879-1.107c-1.026-.316-2,.326-3.04.227a3.749,3.749,0,0,0-1.283.241c.624.332,1.329.456,1.966.756.446.543.705,1.216,1.1,1.8C1074.173,425.345,1075.239,425.475,1076.307,425.418Z" transform="translate(-852.845 -306.898)" fill="#2d4c27"/>
    <path id="Path_15665" data-name="Path 15665" d="M1114.257,434.649c.124-.776.223-1.569.28-2.357a6.6,6.6,0,0,0-1.824-1.492,3.882,3.882,0,0,0-2.738-.389c-.878.077-1.749-.148-2.635-.069.519.845,1.844.726,2.229,1.686a11.774,11.774,0,0,0,.849,2.16C1111.758,433.991,1112.946,434.8,1114.257,434.649Z" transform="translate(-882.593 -313.285)" fill="#2d4c27"/>
    <path id="Path_15666" data-name="Path 15666" d="M485.023,455.932c-.529-.638-1.419-.717-2.027-1.246-.888-.758-2.142-.375-3.2-.393a5.089,5.089,0,0,0-1.4,1.729,25.918,25.918,0,0,0,2.837.9c.584-.268,1.062-.709,1.631-1.013C483.58,455.816,484.3,455.958,485.023,455.932Z" transform="translate(-381.11 -332.33)" fill="#2d4c27"/>
    <path id="Path_15667" data-name="Path 15667" d="M630.651,488.037c.588.847,1.522,1.378,2.108,2.229a6.416,6.416,0,0,0,1.358-2.635,2.428,2.428,0,0,1,.811-1.216,15.9,15.9,0,0,0-1.4-3.05c-.314-1.177.4-2.3.405-3.476-.88.415-1.013,1.437-1.492,2.175a8.532,8.532,0,0,0-1.621,2.008,4.945,4.945,0,0,0-.231,2.142A7.5,7.5,0,0,0,630.651,488.037Z" transform="translate(-502.442 -352.805)" fill="#2d4c27"/>
    <path id="Path_15668" data-name="Path 15668" d="M1076.823,494.134q4.661.016,9.341,0a.832.832,0,0,0,.908-.884v-7.73a.911.911,0,0,0-1.1-.878c-3.166.047-6.348-.077-9.5.061a.9.9,0,0,0-.529.811v7.726A.835.835,0,0,0,1076.823,494.134Z" transform="translate(-857.551 -356.583)" fill="#2d4c27"/>
    <path id="Path_15669" data-name="Path 15669" d="M79.712,509.382a1.013,1.013,0,0,0-.324-.882,5,5,0,0,0-1-.065c-7.233.024-14.468-.018-21.7.02-.689.024-.533.861-.553,1.338.067,2.531-.107,5.067.1,7.6,3.668.107,7.343.014,11.011.047a.945.945,0,0,1,.7.235q.02,2.248,0,4.5A4.692,4.692,0,0,1,66.48,523.2a20.6,20.6,0,0,1-10.186,2.716,13.654,13.654,0,0,1-9.381-3.305,13.946,13.946,0,0,1-4.307-9.373,59.57,59.57,0,0,1,.014-6.08,12.3,12.3,0,0,1,12.663-11.507,23.338,23.338,0,0,1,5.251.3l.176.13a9.382,9.382,0,0,1,6.53,5.658c.178.513.533,1.236,1.2,1.036,3.176-.545,6.354-1.1,9.537-1.6a1.139,1.139,0,0,0,1.117-.7,16.671,16.671,0,0,0-7.118-10.46,24.5,24.5,0,0,0-11.428-3.624c-2.432-.081-4.864-.075-7.3-.02-1.329,0-2.614.405-3.94.452l-.034.13a17.228,17.228,0,0,0-2.931.73,23.937,23.937,0,0,0-8.038,4.517,22.358,22.358,0,0,0-7.351,12.89,15.306,15.306,0,0,0-.567,2.448c-.069,1.9-.053,3.806-.014,5.709a14.463,14.463,0,0,0,.647,3.026,25.254,25.254,0,0,0,2.511,6.941,21.338,21.338,0,0,0,5.59,6.607A26.108,26.108,0,0,0,49.6,534.48c3.589.811,7.3.655,10.944.58a38.52,38.52,0,0,0,8.972-1.9,31.362,31.362,0,0,0,9.758-5.012.934.934,0,0,0,.43-.9Q79.71,518.309,79.712,509.382Z" transform="translate(-23.869 -357.938)" fill="#2d4c27"/>
    <path id="Path_15670" data-name="Path 15670" d="M699.627,721.729c-2.156-.02-4.315,0-6.471,0a1.906,1.906,0,0,0-1.034.44,14.934,14.934,0,0,0-2.533-5.3c-.4-.47-.835-.9-1.258-1.34-.022-.024-.047-.047-.071-.071a18.292,18.292,0,0,0-2.377-1.731l-.043-.026-.036-.022-.083-.051h0a14.862,14.862,0,0,0-7.568-2.053,2.408,2.408,0,0,1-.241,0h-.03a22.771,22.771,0,0,0-7.351,1.068c-.709.353-1.453.638-2.164.991h0c-.231.113-.458.235-.679.369a15.3,15.3,0,0,0-5.646,6.139,21.059,21.059,0,0,0-2.229,10.4c-.1,4.807,1.3,9.931,4.864,13.337l.075.014c.049.071.146.2.2.28a15.943,15.943,0,0,0,8.534,4.333,18.543,18.543,0,0,0,3.662.2,15.528,15.528,0,0,0,7.7-1.741,13.678,13.678,0,0,0,6.228-6.777,6.36,6.36,0,0,1,1.125-2.16c.13,3.168,0,6.343.059,9.525a.671.671,0,0,0,.728.7q3.222.012,6.445,0a.869.869,0,0,0,.89-.9V722.641C700.377,722.2,700.1,721.681,699.627,721.729Zm-7.375,14.841c-2.268-.811-4.6-1.433-6.891-2.128a1.826,1.826,0,0,0-.91-.136,5.807,5.807,0,0,0-.726,1.844,7.714,7.714,0,0,1-4.309,4.994,8.618,8.618,0,0,1-3.889.43,7.352,7.352,0,0,1-5.964-4.416c-1.269-3.056-1.1-6.431-1.013-9.669a12.391,12.391,0,0,1,1.589-5.4,7.4,7.4,0,0,1,5.8-3.421,9.245,9.245,0,0,1,3.506.318,6.587,6.587,0,0,1,4.11,4.155c.184.428.2,1.013.665,1.259a5.65,5.65,0,0,0,1.64-.247c1.593-.387,3.194-.74,4.8-1.092a7.783,7.783,0,0,0,1.607-.545C692.211,727.2,692.25,731.885,692.252,736.571Z" transform="translate(-525.758 -537.539)" fill="#92af19"/>
    <path id="Path_15671" data-name="Path 15671" d="M827.983,721.576c-2.582.1-5.17.053-7.754.026-.071-1.871.047-3.747-.109-5.614.018-.513.063-1.013.1-1.53a15.615,15.615,0,0,0,2.13-.039h1.062c.647.028,1.3.032,1.946.034l.176.038a8.019,8.019,0,0,1,2.3.105,6.684,6.684,0,0,1,.184,1.656C828,718.029,828.056,719.807,827.983,721.576Z" transform="translate(-653.583 -539.803)" fill="#92af19"/>
    <path id="Path_15672" data-name="Path 15672" d="M996.933,724.315a2.321,2.321,0,0,0-1.084-.355c-2.092,0-4.183.016-6.283,0a5.39,5.39,0,0,0-.312,2.578,11.285,11.285,0,0,0-3.688-2.408c-1.8-.811-3.808-.648-5.719-.543a11.146,11.146,0,0,0-7.626,5.247c-.484.748-.624,1.706-1.3,2.323a10.715,10.715,0,0,0-.853-3.154c-1.455-3.154-5.148-4.71-8.479-4.487a10.632,10.632,0,0,0-7.762,3.072c-.405-.673-.1-1.5-.247-2.229-.184-.44-.709-.393-1.1-.4-1.889.024-3.78,0-5.675.014a.667.667,0,0,0-.713.724c0,5.33.024,10.66,0,15.988-.051,1.879.118,3.77-.1,5.64a2.352,2.352,0,0,1-.365-1,41.334,41.334,0,0,1-.142-5.255c-.014-2.906.081-5.814-.016-8.715a11.03,11.03,0,0,0-.811-3.794,7.737,7.737,0,0,0-4.327-3.328c-2.635-.873-5.427-.728-8.153-.7A15.488,15.488,0,0,0,926.505,725a9.247,9.247,0,0,0-4.037-1.457A7.657,7.657,0,0,0,918.7,724a11.152,11.152,0,0,0-2.635,2.11,17.553,17.553,0,0,1-.024-1.824,2.07,2.07,0,0,0-1.074-.32c-1.7,0-3.395.016-5.091,0a1.321,1.321,0,0,0-1.471,2.126c0,1.352-.024,2.7.109,4.053-.34,5.016.093,10.054-.2,15.07a9.24,9.24,0,0,1-.18-2.3c-.018-3.579.053-7.16.016-10.741A14.9,14.9,0,0,0,907.42,728a7.3,7.3,0,0,0-5.125-3.932c-2.539-.738-5.206-.561-7.817-.525-2.385.227-4.941.766-6.7,2.519a10.393,10.393,0,0,0-2.837,4.633c-.1.349-.235.871.2,1.052a21.835,21.835,0,0,0,3.147.622,21.182,21.182,0,0,0,3.693.525,9.182,9.182,0,0,1,1.2-2.213,3.4,3.4,0,0,1,2.7-1.038c1.259,0,2.732-.1,3.7.867a2.936,2.936,0,0,1,.665,2.493,8.609,8.609,0,0,1-2.092.687c-2.854.726-5.823.985-8.6,2.01a8.03,8.03,0,0,0-3.905,2.645,8.671,8.671,0,0,0-1.674,4.625c-1.907-2.922-3.528-6.064-5.407-9.031,1.595-1.674,3.145-3.389,4.777-5.026.379-.318.515-.918,1.082-.957l-.113-.478q.59.272.608-.324a24.836,24.836,0,0,0,2.181-2.2c.316-.274.041-.655,0-.981-3.04-.012-6.08-.022-9.12,0-.985,1.216-2.134,2.306-3.135,3.516-1.23,1.465-2.6,2.8-3.79,4.307l-.338.093c.028-5.587.014-11.175,0-16.76a.672.672,0,0,0-.811-.73c-2.3.081-4.6-.1-6.891.085a4.479,4.479,0,0,0-.247,1.735q.026,16.588,0,33.18c0,.3-.028.649.259.847.533.405,1.263.174,1.887.235,1.921-.091,3.875.2,5.77-.2.105-2.659-.03-5.326.065-7.983.5-1.182,1.682-1.923,2.556-2.837,1.706,2.874,3.3,5.814,5.01,8.688a9.023,9.023,0,0,0,1.508,2.3c2.389.087,4.789.01,7.182.036.446.053.744-.328,1.062-.574a11.9,11.9,0,0,0,12.952-1.642c.669.565.385,2.027,1.437,2.2,4.376.061,8.753,0,13.129.03.434.075.959-.217.9-.709.032-3.222-.047-6.449.034-9.669.294-2.124-.069-4.317.539-6.4a5.164,5.164,0,0,1,1.366-2.541,4.089,4.089,0,0,1,3.04-.521c.835-.034.75,1.26,1.581,1.259,1.49.27,2.991.488,4.479.794a3.8,3.8,0,0,0,1.869.1c.326-.511.509-1.1.829-1.621a3.3,3.3,0,0,1,2.783-1.54,7.317,7.317,0,0,1,3.528.456,2.831,2.831,0,0,1,1.192,2.852,5.607,5.607,0,0,1-1.887.675c-2.738.713-5.575,1-8.277,1.854a8.757,8.757,0,0,0-3.851,2.179,7.817,7.817,0,0,0-.811,9.868,8.378,8.378,0,0,0,4.029,3,12.32,12.32,0,0,0,7.936-.15,16.809,16.809,0,0,0,3.648-2.094,12.792,12.792,0,0,0,.79,1.9c.2.334.636.278.979.292,4.256-.016,8.524,0,12.786,0a3.237,3.237,0,0,0,1.09-.3c.02-4.726-.032-9.452.028-14.177.16-1.64.107-3.547,1.388-4.779a4.6,4.6,0,0,1,6.2-.673c1.1.948.959,2.521,1.133,3.83.059,5.269.016,10.526.022,15.79a3.033,3.033,0,0,0,1.271.31c1.956-.016,3.911,0,5.877,0a.853.853,0,0,0,.922-.873c.049-2.387-.071-4.777.049-7.16a13.823,13.823,0,0,0,2.973,4.88h.176v.217l.115.063a9.614,9.614,0,0,0,7.343,2.756,8.352,8.352,0,0,0,3.9-.726,13.723,13.723,0,0,0,3.275-2.3,38.324,38.324,0,0,1-.087,4.37,2.951,2.951,0,0,1-2.262,2.523,8.81,8.81,0,0,1-5.287-.1c-.811-.375-.811-1.364-1.167-2.063a5.349,5.349,0,0,0-1.265-.276c-2.154-.126-4.286-.486-6.432-.669-.363-.012-.8-.067-1.032.28a6.826,6.826,0,0,0,1.305,5.407,8.968,8.968,0,0,0,5.944,3.478c2.213.539,4.5.3,6.755.355a14.137,14.137,0,0,0,6.751-1.492,7.961,7.961,0,0,0,3.3-3.293c1.143-2.09,1.331-4.517,1.55-6.842C996.944,740.774,996.9,732.551,996.933,724.315Zm-97.369,18.978a5.1,5.1,0,0,1-4.459,1.978,2.969,2.969,0,0,1-2.564-1.384,2.8,2.8,0,0,1-.3-2.27c.426-1.1,1.668-1.469,2.7-1.767,1.761-.456,3.553-.8,5.328-1.216C900.266,740.188,900.517,741.933,899.565,743.293Zm37.276.2a5.164,5.164,0,0,1-4.238,1.759,3.053,3.053,0,0,1-2.837-1.759,3.753,3.753,0,0,1-.032-2c.63-1.338,2.229-1.554,3.512-1.891,1.51-.286,2.987-.75,4.517-.938C937.7,740.289,937.927,742.158,936.841,743.5Zm51.131-2.173a5.817,5.817,0,0,1-3.158,2.432,5.107,5.107,0,0,1-3.8-.608c-1.66-1.042-2.268-3.052-2.462-4.9a12.27,12.27,0,0,1,.661-5.691,5.287,5.287,0,0,1,3.194-2.809,4.911,4.911,0,0,1,4.552,1.171,6.328,6.328,0,0,1,1.911,4.481c.093,2,.12,4.136-.9,5.928Z" transform="translate(-687.594 -539.78)" fill="#92af19"/>
    <path id="Path_15673" data-name="Path 15673" d="M946.277,110.09a4.082,4.082,0,0,1,.332,3.243c-.405.934-.091,2.008-.586,2.92a7.191,7.191,0,0,1-.553-2.31c.2.507.375,1.03.559,1.546a18.171,18.171,0,0,1,.572-2.647A4.78,4.78,0,0,0,946.277,110.09Z" transform="translate(-753.529 -57.95)" fill="#2d4c27"/>
    <path id="Path_15674" data-name="Path 15674" d="M909.48,148.284c.152-.318.308-.634.472-.944.142.17.29.334.446.5C910.094,147.982,909.788,148.13,909.48,148.284Z" transform="translate(-724.833 -87.651)" fill="#2d4c27"/>
    <path id="Path_15675" data-name="Path 15675" d="M949.28,159.44l.061.053c-.028.225-.057.448-.081.671l.474-.166a6.194,6.194,0,0,0-1.595,4.392,1.392,1.392,0,0,0,.359-.34l-.122.576-.367-.085c-.089-.48-.154-.963-.219-1.447C947.972,161.783,948.965,160.729,949.28,159.44Z" transform="translate(-755.379 -97.299)" fill="#2d4c27"/>
    <path id="Path_15676" data-name="Path 15676" d="M826.87,198.09a3.355,3.355,0,0,1,1.216.91,5.469,5.469,0,0,1,.717,2.229,2.886,2.886,0,0,1-.154,2.027c-.468.892-.835,1.824-1.273,2.736a30.378,30.378,0,0,1,1.157-2.918,4.932,4.932,0,0,0-.263-3.3c-.093.569-.15,1.143-.255,1.71a3.114,3.114,0,0,0-1.1-2.951Z" transform="translate(-658.965 -128.116)" fill="#2d4c27"/>
    <path id="Path_15677" data-name="Path 15677" d="M1039.092,213.216a3.38,3.38,0,0,1,.845-1.086c-.284.405-.608.8-.865,1.23a16.686,16.686,0,0,0,.2,2.4,2.974,2.974,0,0,1-.955-1.99c.2.436.405.874.626,1.309A12.7,12.7,0,0,1,1039.092,213.216Z" transform="translate(-827.562 -139.31)" fill="#2d4c27"/>
    <path id="Path_15678" data-name="Path 15678" d="M936.31,222.333c.154-.334.312-.669.466-1.013-.043.172-.13.515-.172.685l.926-.01c-.286.42-.555.851-.835,1.275.089-.249.178-.5.27-.748Z" transform="translate(-746.225 -146.638)" fill="#2d4c27"/>
    <path id="Path_15679" data-name="Path 15679" d="M1079,259.351a1.878,1.878,0,0,1,.3-1.261l-.138.59.511-.124c-.114.282-.225.563-.33.847Z" transform="translate(-859.997 -175.956)" fill="#2d4c27"/>
    <path id="Path_15680" data-name="Path 15680" d="M637.58,271.182a6.038,6.038,0,0,1,3.624.922,9.728,9.728,0,0,0-2.3-.636c.476.3.969.576,1.441.886A24.691,24.691,0,0,1,637.58,271.182Z" transform="translate(-508.038 -186.36)" fill="#2d4c27"/>
    <path id="Path_15681" data-name="Path 15681" d="M1113.82,274.557a3,3,0,0,1,.355-1.437c-.036.3-.065.608-.087.918.144-.168.286-.338.43-.511-.051.332-.1.665-.138,1A.438.438,0,0,1,1113.82,274.557Z" transform="translate(-887.76 -187.94)" fill="#2d4c27"/>
    <path id="Path_15682" data-name="Path 15682" d="M637.972,312.988c1.3-.363,1.9-1.794,3.214-2.138-.28.47-.578.93-.857,1.4l.436-.1a2.533,2.533,0,0,1-1.216.446c-.934.087-1.708.74-2.651.78-.811.034-1.6.083-2.4.093-.594.053-.926-.511-1.25-.906a2.171,2.171,0,0,0,1.609.778A15.268,15.268,0,0,0,637.972,312.988Z" transform="translate(-504.585 -218.023)" fill="#2d4c27"/>
    <path id="Path_15683" data-name="Path 15683" d="M1143.52,354.067c.227-.9,1.24-.944,1.984-1.127-.44.225-.892.428-1.333.644a8.2,8.2,0,0,1,1.923.276,7.293,7.293,0,0,1,1.439,1.346,18.043,18.043,0,0,0-1.621-1.305A8.486,8.486,0,0,0,1143.52,354.067Z" transform="translate(-911.441 -251.583)" fill="#2d4c27"/>
    <path id="Path_15684" data-name="Path 15684" d="M681.33,372.33a10.315,10.315,0,0,1,2.432.235,6.126,6.126,0,0,0,1.808.259c.44.055.736.466,1.137.634a5.674,5.674,0,0,0,2.732.75,5.19,5.19,0,0,1,2.592.272,37.7,37.7,0,0,1-4.519-.361l.326.405c-.9-.292-1.467-1.216-2.432-1.356-.64-.113-1.236-.375-1.861-.543A9.961,9.961,0,0,1,681.33,372.33Z" transform="translate(-542.921 -267.043)" fill="#2d4c27"/>
    <path id="Path_15685" data-name="Path 15685" d="M1047.292,406.11c.888-.334,1.161-1.419,1.99-1.81l.276.164a10.686,10.686,0,0,1-1.737,1.741c-.284.2-.563.582-.961.472-1.149-.148-2.254.361-3.4.359A26.074,26.074,0,0,0,1047.292,406.11Z" transform="translate(-831.66 -292.534)" fill="#2d4c27"/>
    <path id="Path_15686" data-name="Path 15686" d="M448.4,407.425c.32-.294.59-.776,1.04-.845l.586.073a2.635,2.635,0,0,1-1.625.772Z" transform="translate(-357.198 -294.352)" fill="#2d4c27"/>
    <path id="Path_15687" data-name="Path 15687" d="M1033.82,432.111a4.593,4.593,0,0,1,4.175-.458,4.4,4.4,0,0,0-1.8-.247,13.169,13.169,0,0,0-1.952.665c2.136,1.175,4.458,2.408,6.984,2.2.535-.026,1.07-.065,1.607-.087-.022.087-.065.261-.087.347-.241.1-.478.2-.711.308.405.288.821.563,1.2.88a10.035,10.035,0,0,0-1.621-.608l-.191-.405A21.54,21.54,0,0,1,1033.82,432.111Z" transform="translate(-823.973 -314.085)" fill="#2d4c27"/>
    <path id="Path_15688" data-name="Path 15688" d="M681.639,458.09a19,19,0,0,0,2.144.7l-.049.391a28.571,28.571,0,0,0-5.344.345,22.572,22.572,0,0,1,4.4-.608C682.417,458.629,682.026,458.362,681.639,458.09Z" transform="translate(-540.577 -335.423)" fill="#2d4c27"/>
  </g>
</svg>
