<svg xmlns="http://www.w3.org/2000/svg" width="245" height="240.047" viewBox="0 0 245 240.047">
  <g id="Logo_-_Grand_Cikarang_City_2-01" data-name="Logo - Grand Cikarang City 2-01" transform="translate(-963.368 -496.07)">
    <path id="Path_15689" data-name="Path 15689" d="M1208.114,688.515a5.256,5.256,0,0,0-2.73-3.125l-3.221-1.543a5.256,5.256,0,0,0-6.93,2.306c-.031.061-1.281,2.441-2.869,5.056-.482.794-.917,1.481-1.308,2.075l-2.06-.841a5.4,5.4,0,0,0-2.037-.4,5.11,5.11,0,0,0-2.237.512,5.189,5.189,0,0,0-2.743,3.236,22.613,22.613,0,0,1-2.681,5.232,5.27,5.27,0,0,0-1.123-.131l-31.366-.263c4.62-4.959,11.505-12.344,21.387-22.924,9.685-10.371,16.38-18.786,21.083-26.483a63.235,63.235,0,0,0,6.508-13.79,35.121,35.121,0,0,0,1.684-14.215c-.931-8.947-5.94-16.67-14.891-22.955a48.883,48.883,0,0,0-13.646-6.764,45.9,45.9,0,0,0-13.566-2.037v2.628h0v-2.628a50.078,50.078,0,0,0-14.225,2.108,55.446,55.446,0,0,0-12.137,5.256,53.433,53.433,0,0,0-6.452,4.417V530.181a5.256,5.256,0,0,0-3.592-4.986c5.694-7.75,12.779-12.546,21.147-14.292a5.256,5.256,0,0,0,.922-10.007,78.228,78.228,0,0,0-27.277-4.827,66.829,66.829,0,0,0-28.674,6.175,65.131,65.131,0,0,0-20.046,14.8,5.245,5.245,0,0,0-3.954-1.962h-.146c-.141,0-.283.005-.424.017a5.232,5.232,0,0,0-2.64.97,55.246,55.246,0,0,0-9.311,8.853H996.534a5.256,5.256,0,0,0-5.256,5.256v169.34a5.256,5.256,0,0,0,5.256,5.256h9.861c-6.417,7.1-17.3,13.307-35.751,13.307-.625,0-1.265-.007-1.9-.022h-.12a5.256,5.256,0,0,0-2.688,9.771c5.446,3.241,13.043,4.958,21.97,4.958a84.519,84.519,0,0,0,32.039-6.681,76.278,76.278,0,0,0,15.271-8.552,61.03,61.03,0,0,0,12.7-12.3,5.337,5.337,0,0,0,.331-.477h67.26c-4.02,4.215-8.045,8.363-11.944,12.382-1.515,1.561-3.081,3.175-4.6,4.741a5.256,5.256,0,0,0-.823,6.2,23.291,23.291,0,0,0,1.4,2.289,5.256,5.256,0,0,0,5.831,1.927c.487-.107,4.292-.83,18.439-.83,12.558,0,25.785.035,32.892.054,2.834.007,4.706.012,5.419.012a14.079,14.079,0,0,1,2.479.166,2.649,2.649,0,0,1,.964.323.7.7,0,0,1,.03.077,5.255,5.255,0,0,0,3.955,3.492l2.015.4a5.255,5.255,0,0,0,5.637-2.621l3.469-6.307a5.257,5.257,0,0,0,2.257.51h2.617a5.256,5.256,0,0,0,4.614-2.738l17.569-32.212A5.256,5.256,0,0,0,1208.114,688.515Zm-74.937-31.658a13.012,13.012,0,0,0,2.158-.175,10.56,10.56,0,0,0,.788,2.491c.109.238.229.471.35.7h-2.01a5.221,5.221,0,0,0-1.646-3.019Zm15.629-32.266a14.089,14.089,0,0,0-7.5,2.172,15.155,15.155,0,0,0-1.585,1.145q-.077-.083-.158-.163a10.17,10.17,0,0,0-3.689-2.379,11.99,11.99,0,0,0-4.231-.738,12.705,12.705,0,0,0-1.905.143h-2.54a25.588,25.588,0,0,1,11.931-3.265,20.881,20.881,0,0,1,10.823,3.133Q1149.387,624.591,1148.805,624.591Zm-26.25,60.051a10.906,10.906,0,0,0,2.358.415,5.248,5.248,0,0,0,4.536,4.682q-3.379,3.78-6.895,7.556Z" transform="translate(0 0)" fill="#fff"/>
    <rect id="Rectangle_487" data-name="Rectangle 487" width="120.769" height="169.345" transform="translate(996.53 530.178)" fill="#9dd032"/>
    <path id="Path_15690" data-name="Path 15690" d="M1530.36,944.2l13.15-31.668,42.064-88.027,24.4-50.723,8.789-8.32,1.48-5.636-38.336,11L1523.74,890.5Z" transform="translate(-511.287 -240.656)" fill="#9dd032"/>
    <path id="Path_15691" data-name="Path 15691" d="M1193.738,560.459s-50.992-20.935-79.974,28.179c-3.757-5.636,1.879-13.6,1.879-13.6s-22.013,14.939-28.987,54.3c-3.041-9.125,1.611-23.259,1.611-23.259s-14.135,8.234-18.25,52.78,4.117,57.432,4.117,57.432,23.438-103.591,84.625-138.3c0,0-42.583,14.313-83.375,152.437,2.505,11.809-4.473,48.666-52.065,47.592,15.924,9.483,56.538,3.221,75.145-21.291,0,0-24.333,24.6-58.688,24.333,34.084-5.1,69.6-26.122,82.3-62.8-4.473,5.01-46.338,59.039-83.375,60.295,33.549-7.325,50.63-27.374,89.995-76.4,26.48-33.029,23.617-63.336,23.617-63.336l-11.447,7.158,12.526-14.671S1154.287,568.69,1193.738,560.459Z" transform="translate(-54.701 -54.704)" fill="#37686d"/>
    <path id="Path_15692" data-name="Path 15692" d="M1798.384,885.45v169.344H1724.4a86.5,86.5,0,0,0,24.064-35.962c-2.469,2.764-16.319,20.451-34.461,35.962h-4.166c12.819-11.958,26.51-28.731,45.246-52.065,26.48-33.028,23.617-63.336,23.617-63.336l-11.451,7.158,12.526-14.671s.368-25.777,11.052-46.425Z" transform="translate(-681.085 -355.272)" fill="#0a9a31"/>
    <path id="Path_15693" data-name="Path 15693" d="M1439.967,1410.04c-2.468,0-8.66-.532-12.854-5.462-3.514-4.133-4.658-10.153-3.4-17.9,1.433-8.821,5.014-15.435,10.643-19.659a25.214,25.214,0,0,1,8.376-4.069,33.317,33.317,0,0,1,8.962-1.163,11.673,11.673,0,0,1,8.791,3.435c4.063,4.231,3.844,10.786,3.834,11.064l-.049,1.2-10.2,3.433.458-2.862c.788-4.9.1-6.92-.6-7.75a2.4,2.4,0,0,0-2.03-.775h-.056c-2.775.03-4.242.345-5.6,2.13-1.737,2.288-3.241,6.912-4.866,14.994-2.183,10.831-1.241,14-.486,14.919.429.526,1.079.613,2.372.613a2.9,2.9,0,0,0,2.19-.855,3.058,3.058,0,0,0,.5-.678l1.8-10.349-5.439-.192,1.192-7.514,21.142.387-4.531,25.682-6.4.206-1.017-1.577a38.069,38.069,0,0,1-11.65,2.7C1440.693,1410.029,1440.329,1410.04,1439.967,1410.04Z" transform="translate(-419.569 -789.887)" fill="#9dd032"/>
    <path id="Path_15694" data-name="Path 15694" d="M1474.549,1396.588l6.307-2.123s.515-12.675-10.874-12.675-23.292,5.212-26.251,23.42,8.751,21.684,15.5,21.3a36.394,36.394,0,0,0,12.418-3.153l1.287,1.995,3.989-.129,3.929-22.263-17.569-.322-.644,4.054,5.469.193-2.19,12.547a4.62,4.62,0,0,1-4.38,2.767c-3.35,0-7.078-.386-3.6-17.63s6.307-18.467,12.161-18.531S1475.063,1393.371,1474.549,1396.588Z" transform="translate(-437.856 -808.136)" fill="#fff"/>
    <path id="Path_15695" data-name="Path 15695" d="M1834,1675.411l4.529-21.361h8.719l-.059.281a5.7,5.7,0,0,1,1.759-.281,4.4,4.4,0,0,1-.107,8.789,2.938,2.938,0,0,1-2.531-1.21,3.181,3.181,0,0,1-.4-.751c-.05.04-.1.088-.159.133l-3.032,14.4Z" transform="translate(-794.37 -1056.547)" fill="#9dd032"/>
    <path id="Path_15696" data-name="Path 15696" d="M1867.588,1674.05l-.464,2.215c1.25-1.071,2.608-2.215,4.322-2.215a2.646,2.646,0,0,1-.107,5.286c-2,0-1-2.357-2.072-2.357a3.694,3.694,0,0,0-2.608,1.358l-2.857,13.571h-5.143l3.786-17.857Z" transform="translate(-816.869 -1074.795)" fill="#fff"/>
    <path id="Path_15697" data-name="Path 15697" d="M2001.784,1673.741a5.04,5.04,0,0,1-4.051-1.778,7.219,7.219,0,0,1-4.77,1.778,6.17,6.17,0,0,1-4.54-1.81,7.851,7.851,0,0,1-1.962-5.694,18.435,18.435,0,0,1,2.51-8.962c2.053-3.416,5.044-5.291,8.421-5.291a7.005,7.005,0,0,1,1.85.227l.01-.048h8.73l-3.026,14.289c-.023.1-.04.188-.054.268a5.192,5.192,0,0,0,.884-1.845l.375-1.248h5.271l-.815,2.33C2008.368,1672.4,2004.572,1673.741,2001.784,1673.741Zm3.084-6.39-6.824-9.443a5.94,5.94,0,0,0-1.577,2.37,15.305,15.305,0,0,0-1.22,5.461,4.318,4.318,0,0,0,.095,1.016,2.261,2.261,0,0,0,1.189-1.728Z" transform="translate(-933.475 -1054.663)" fill="#9dd032"/>
    <path id="Path_15698" data-name="Path 15698" d="M2024,1672.143l-2.571,12.143a4.939,4.939,0,0,0-.144,1.139c0,1,.464,1.536,1.465,1.536,1.393,0,2.357-1.571,2.891-3.358h1.5c-2.036,5.822-5.25,6.607-7.178,6.607a3.282,3.282,0,0,1-3.5-3.286,6.461,6.461,0,0,1-5.321,3.286c-2.429,0-4.75-1.5-4.75-5.75,0-4.818,2.964-12.5,9.179-12.5,2.036,0,2.891.788,2.891,1.822v.25l.393-1.893Zm-12.322,11.821c0,2.75,1.139,2.786,1.786,2.786,1.036,0,2.536-1.071,2.964-3.143l1.714-8.072a1.386,1.386,0,0,0-1.464-1.357C2013.646,1674.179,2011.682,1680.608,2011.682,1683.964Z" transform="translate(-951.659 -1072.888)" fill="#fff"/>
    <path id="Path_15699" data-name="Path 15699" d="M2209.262,1674.12a5.527,5.527,0,0,1-5.966-5.789,24.3,24.3,0,0,1,.87-5.09,31.466,31.466,0,0,0,.706-3.49,6.241,6.241,0,0,0-.591,1.373l-2.707,12.779h-8.725l4.529-21.361h8.723l-.008.04a7.24,7.24,0,0,1,1.633-.182c3.526,0,5.717,2.218,5.717,5.787a25.7,25.7,0,0,1-1.03,5.839,27.682,27.682,0,0,0-.658,2.978,6.293,6.293,0,0,0,1.036-1.927l.452-1.069h5.108l-.788,2.318a13.088,13.088,0,0,1-3.942,6.314A6.809,6.809,0,0,1,2209.262,1674.12Zm2.476-6.57-6.879-8.742" transform="translate(-1121.786 -1055.041)" fill="#9dd032"/>
    <path id="Path_15700" data-name="Path 15700" d="M2227.9,1675.67c-1.286,0-2.25,1.5-2.786,3.286l-2.429,11.464h-5.143l3.786-17.857h5.143l-.393,1.857a5.308,5.308,0,0,1,4.179-2c2.285,0,3.965,1.178,3.965,4.035,0,2.891-1.714,7.214-1.714,9.215,0,.892.356,1.5,1.429,1.5,1.572,0,2.214-1.286,3-3.143h1.5c-2,5.857-4.75,6.607-6.644,6.607-3.107,0-4.214-2-4.214-4.035,0-2.429,1.607-6.822,1.607-9.11C2229.183,1676.313,2228.754,1675.67,2227.9,1675.67Z" transform="translate(-1144.314 -1073.308)" fill="#fff"/>
    <path id="Path_15701" data-name="Path 15701" d="M2449.138,1597.9a5.39,5.39,0,0,1-4.128-1.687,7.241,7.241,0,0,1-4.657,1.687,6.171,6.171,0,0,1-4.54-1.81,7.85,7.85,0,0,1-1.962-5.694,18.426,18.426,0,0,1,2.51-8.962c2.053-3.416,5.044-5.291,8.421-5.291a6.976,6.976,0,0,1,1.845.226l1.341-6.3,8.974-1.212-4.623,21.709c-.023.111-.046.229-.065.338h.02l2.757-1.379-.216,3.066a5.606,5.606,0,0,1-1.927,4.009A5.852,5.852,0,0,1,2449.138,1597.9Zm3.079-6.556-6.815-9.252a6.094,6.094,0,0,0-1.542,2.346,15.305,15.305,0,0,0-1.219,5.461,4.324,4.324,0,0,0,.1,1.021,1.538,1.538,0,0,0,1.013-1.185Z" transform="translate(-1341.676 -978.819)" fill="#9dd032"/>
    <path id="Path_15702" data-name="Path 15702" d="M2468.814,1611.8a5.585,5.585,0,0,0-.143,1.035,1.276,1.276,0,0,0,1.465,1.429,2.292,2.292,0,0,0,1.139-.214,3.73,3.73,0,0,1-3.929,3.679,3.489,3.489,0,0,1-3.714-2.964,6.188,6.188,0,0,1-5.072,2.964c-2.428,0-4.75-1.5-4.75-5.75,0-4.818,2.965-12.5,9.179-12.5,2.036,0,2.891.788,2.891,1.822v.143l1.752-8.215,5.285-.715Zm-3.25-8.858a1.418,1.418,0,0,0-1.465-1.25c-3.036,0-5,6.429-5,9.786,0,2.75,1.143,2.786,1.786,2.786a3.157,3.157,0,0,0,2.785-2.572Z" transform="translate(-1359.888 -1000.398)" fill="#fff"/>
    <path id="Path_15703" data-name="Path 15703" d="M1633.4,1954.28c-3.241,0-5.586-.831-7.176-2.54-1.614-1.735-2.4-4.351-2.4-8a29.475,29.475,0,0,1,2.913-12.5c2.6-5.116,6.506-7.821,11.3-7.821,4.832,0,7.716,2.444,7.716,6.537a5.856,5.856,0,0,1-.87,3.337,3.942,3.942,0,0,1-3.382,1.7,4.322,4.322,0,0,1-3.358-1.538l-1.472-1.7,2-1a2.609,2.609,0,0,0,.689-1.726.852.852,0,0,0-.062-.373.885.885,0,0,0-.365-.053c-.8,0-2.266,1.418-3.571,4.532a28.729,28.729,0,0,0-2.1,10.395c0,3.546,1.051,3.82,2.534,3.82a6.9,6.9,0,0,0,5.558-2.864l.829-1.117,3.652,1.587-.623,1.577a11.862,11.862,0,0,1-5.355,6A13.729,13.729,0,0,1,1633.4,1954.28Z" transform="translate(-602.609 -1302.322)" fill="#9dd032"/>
    <path id="Path_15704" data-name="Path 15704" d="M1661.831,1964.124c-1.893,4.785-6.929,6.643-10.179,6.643-5.285,0-7.821-2.357-7.821-8.787,0-6.464,3.107-18.57,12.465-18.57,3.357,0,5.964,1.321,5.964,4.785,0,1.893-.679,3.286-2.5,3.286a2.57,2.57,0,0,1-2.036-.928,4,4,0,0,0,1.642-3.286,1.987,1.987,0,0,0-2.178-2.178c-3.929,0-7.429,9.393-7.429,16.679,0,3.286.858,5.572,4.286,5.572a8.663,8.663,0,0,0,6.965-3.572Z" transform="translate(-620.857 -1320.561)" fill="#fff"/>
    <path id="Path_15705" data-name="Path 15705" d="M1828.093,1967.663c-3.385,0-5.573-2.37-5.573-6.038a13.261,13.261,0,0,1,.323-2.679l2.724-12.859h1.489a4.55,4.55,0,0,1-1.111-3,4.591,4.591,0,1,1,9.182,0,4.537,4.537,0,0,1-1.132,3h.292l-3.023,14.278v.015c-.018.075-.031.144-.043.207a3.107,3.107,0,0,0,1.194-1.782l.374-1.248h5.277l-.815,2.33C1834.88,1966.652,1830.5,1967.663,1828.093,1967.663Zm3.079-6.435" transform="translate(-783.895 -1316.062)" fill="#9dd032"/>
    <path id="Path_15706" data-name="Path 15706" d="M1850.377,1966.087l-2.572,12.147a4.96,4.96,0,0,0-.143,1.139c0,1,.464,1.322,1.464,1.322,1.393,0,2.679-1.357,3.214-3.143h1.5c-2.036,5.822-5.572,6.607-7.5,6.607-2.142,0-3.821-1.286-3.821-4.286a11.712,11.712,0,0,1,.286-2.321l2.428-11.464Zm-1.607-7.608a2.866,2.866,0,0,1,2.857,2.857,2.836,2.836,0,0,1-2.857,2.821,2.8,2.8,0,0,1-2.821-2.821,2.836,2.836,0,0,1,2.821-2.857Z" transform="translate(-802.143 -1334.31)" fill="#fff"/>
    <path id="Path_15707" data-name="Path 15707" d="M1936.246,1969.2a6.5,6.5,0,0,1-4.529-1.515,5.569,5.569,0,0,1-1.723-4.308,10.7,10.7,0,0,1,.251-2.215l.289-1.408.005-.021a4.056,4.056,0,0,0,.094-.724,5.245,5.245,0,0,0-.589.388l-2.015,9.588H1919.3l5.883-27.609,8.974-1.212-2.19,10.266,3.563-2.8h9.733l-8.285,5.758a5.138,5.138,0,0,1,1.014.907,6.16,6.16,0,0,1,1.4,4.088,7.787,7.787,0,0,1-.186,1.741l-.387,1.762a.312.312,0,0,1-.011.054,8.894,8.894,0,0,0,.9-1.776l.452-1.07h5.106l-.788,2.315C1942.721,1966.573,1939.952,1969.2,1936.246,1969.2Zm-5.641-10.73" transform="translate(-872.198 -1317.595)" fill="#9dd032"/>
    <path id="Path_15708" data-name="Path 15708" d="M1962.211,1970.887l-7.142,4.964a6.662,6.662,0,0,1,1.178-.143c2.643,0,3.928,1.893,3.928,4.179a6.052,6.052,0,0,1-.143,1.357l-.392,1.786a5.843,5.843,0,0,0-.175,1.139c0,.715.286,1.322,1.393,1.322,1.572,0,2.214-1.286,3-3.143h1.5c-2.036,6-4.928,6.607-6.57,6.607-2.928,0-4.5-1.465-4.5-4.071a8.985,8.985,0,0,1,.214-1.857l.286-1.394a5.921,5.921,0,0,0,.144-1.321c0-1.036-.357-1.714-1.286-1.714a4.492,4.492,0,0,0-2.643,1.321l-1.858,8.822H1944l5.179-24.286,5.286-.715-2.679,12.572,6.893-5.431Z" transform="translate(-894.734 -1339.11)" fill="#fff"/>
    <path id="Path_15709" data-name="Path 15709" d="M2164.634,2045.021a5.045,5.045,0,0,1-4.052-1.778,7.217,7.217,0,0,1-4.769,1.778,6.173,6.173,0,0,1-4.54-1.81,7.851,7.851,0,0,1-1.962-5.694,18.435,18.435,0,0,1,2.51-8.962c2.053-3.416,5.044-5.291,8.421-5.291a7.007,7.007,0,0,1,1.85.227l.01-.048h8.73l-3.023,14.278v.015c-.023.1-.041.189-.054.269a5.212,5.212,0,0,0,.884-1.845l.375-1.248h5.271l-.814,2.33C2171.218,2043.671,2167.422,2045.021,2164.634,2045.021Zm3.084-6.39-6.824-9.443a5.931,5.931,0,0,0-1.577,2.371,15.32,15.32,0,0,0-1.219,5.461,4.3,4.3,0,0,0,.095,1.016,2.262,2.262,0,0,0,1.188-1.728Z" transform="translate(-1082.06 -1393.421)" fill="#9dd032"/>
    <path id="Path_15710" data-name="Path 15710" d="M2186.89,2043.469l-2.568,12.147a4.96,4.96,0,0,0-.143,1.139c0,1,.464,1.536,1.465,1.536,1.393,0,2.357-1.572,2.891-3.357h1.5c-2.036,5.821-5.25,6.607-7.178,6.607a3.282,3.282,0,0,1-3.5-3.286,6.463,6.463,0,0,1-5.322,3.286c-2.429,0-4.75-1.5-4.75-5.75,0-4.822,2.964-12.5,9.179-12.5,2.036,0,2.891.788,2.891,1.821v.25l.393-1.893Zm-12.322,11.825c0,2.75,1.139,2.785,1.786,2.785,1.035,0,2.536-1.071,2.964-3.143l1.714-8.072a1.386,1.386,0,0,0-1.464-1.357c-3.036,0-5,6.428-5,9.782Z" transform="translate(-1100.281 -1411.692)" fill="#fff"/>
    <path id="Path_15711" data-name="Path 15711" d="M2355.7,2046.691l4.529-21.361h8.724l-.059.281a5.694,5.694,0,0,1,1.758-.281,4.4,4.4,0,0,1-.107,8.789,2.94,2.94,0,0,1-2.531-1.211,3.164,3.164,0,0,1-.392-.753c-.05.041-.1.087-.159.134l-3.031,14.4Z" transform="translate(-1270.371 -1395.305)" fill="#9dd032"/>
    <path id="Path_15712" data-name="Path 15712" d="M2389.318,2045.33l-.464,2.214c1.25-1.071,2.607-2.214,4.321-2.214a2.646,2.646,0,0,1-.107,5.286c-2,0-1-2.357-2.072-2.357a3.692,3.692,0,0,0-2.607,1.357l-2.857,13.571h-5.143l3.786-17.857Z" transform="translate(-1292.899 -1413.553)" fill="#fff"/>
    <path id="Path_15713" data-name="Path 15713" d="M2523.513,2045.021a5.045,5.045,0,0,1-4.051-1.778,7.216,7.216,0,0,1-4.77,1.778,6.171,6.171,0,0,1-4.539-1.81,7.848,7.848,0,0,1-1.962-5.694,18.434,18.434,0,0,1,2.509-8.962c2.053-3.416,5.044-5.291,8.42-5.291a7,7,0,0,1,1.85.227l.01-.048h8.73l-3.023,14.278v.015c-.023.1-.041.189-.054.269a5.215,5.215,0,0,0,.884-1.845l.374-1.248h5.272l-.815,2.33C2530.1,2043.671,2526.306,2045.021,2523.513,2045.021Zm3.085-6.39-6.824-9.444a5.945,5.945,0,0,0-1.577,2.371,15.31,15.31,0,0,0-1.219,5.461,4.331,4.331,0,0,0,.094,1.016,2.258,2.258,0,0,0,1.188-1.728Z" transform="translate(-1409.504 -1393.421)" fill="#9dd032"/>
    <path id="Path_15714" data-name="Path 15714" d="M2545.743,2043.469l-2.572,12.147a4.973,4.973,0,0,0-.143,1.139c0,1,.464,1.536,1.465,1.536,1.393,0,2.357-1.572,2.891-3.357h1.5c-2.036,5.821-5.251,6.607-7.183,6.607a3.276,3.276,0,0,1-3.5-3.286,6.465,6.465,0,0,1-5.322,3.286c-2.428,0-4.75-1.5-4.75-5.75,0-4.822,2.964-12.5,9.178-12.5,2.036,0,2.891.788,2.891,1.821v.25l.393-1.893Zm-12.322,11.825c0,2.75,1.139,2.785,1.786,2.785,1.036,0,2.536-1.071,2.964-3.143l1.714-8.072a1.386,1.386,0,0,0-1.465-1.357c-3.032,0-5,6.428-5,9.782Z" transform="translate(-1427.698 -1411.692)" fill="#fff"/>
    <path id="Path_15715" data-name="Path 15715" d="M2731.042,2045.39a5.527,5.527,0,0,1-5.966-5.79,24.357,24.357,0,0,1,.869-5.09,30.723,30.723,0,0,0,.707-3.49,6.2,6.2,0,0,0-.59,1.374l-2.708,12.779h-8.725l4.529-21.361h8.723l-.008.04a7.187,7.187,0,0,1,1.633-.182c3.526,0,5.716,2.217,5.716,5.787a25.627,25.627,0,0,1-1.029,5.839,27.822,27.822,0,0,0-.658,2.978,6.263,6.263,0,0,0,1.036-1.927l.453-1.069h5.11l-.788,2.318a13.089,13.089,0,0,1-3.942,6.314A6.83,6.83,0,0,1,2731.042,2045.39Zm2.477-6.57" transform="translate(-1597.861 -1393.789)" fill="#9dd032"/>
    <path id="Path_15716" data-name="Path 15716" d="M2749.636,2046.95c-1.286,0-2.25,1.5-2.786,3.286l-2.427,11.464h-5.144l3.786-17.857h5.143l-.393,1.857a5.309,5.309,0,0,1,4.179-2c2.285,0,3.963,1.178,3.963,4.036,0,2.891-1.714,7.214-1.714,9.214,0,.894.357,1.5,1.429,1.5,1.571,0,2.214-1.286,3-3.143h1.5c-2,5.857-4.75,6.607-6.643,6.607-3.107,0-4.214-2-4.214-4.036,0-2.429,1.606-6.822,1.606-9.11C2750.921,2047.593,2750.493,2046.95,2749.636,2046.95Z" transform="translate(-1620.352 -1412.066)" fill="#fff"/>
    <path id="Path_15717" data-name="Path 15717" d="M2964.1,2053.754a6.218,6.218,0,0,1-4.069-1.484,5.377,5.377,0,0,1-1.9-4.126,2.59,2.59,0,0,0-.572-4.913,7.851,7.851,0,0,1-1.962-5.693,18.43,18.43,0,0,1,2.51-8.962c2.053-3.416,5.043-5.291,8.421-5.291a7.079,7.079,0,0,1,1.817.216l.008-.037h8.76l-4.8,22.827C2970.953,2052.784,2966.584,2053.754,2964.1,2053.754Zm3.057-24.526a6.066,6.066,0,0,0-1.549,2.352,15.3,15.3,0,0,0-1.219,5.461,4.288,4.288,0,0,0,.094,1.023,1.62,1.62,0,0,0,1.083-1.286Z" transform="translate(-1817.723 -1393.439)" fill="#9dd032"/>
    <path id="Path_15718" data-name="Path 15718" d="M2988.009,2043.506h5.178l-4.356,20.714c-1.072,5.108-4.144,6.072-6.5,6.072a4.014,4.014,0,0,1-4.214-3.854c0-3.322,2.786-4.357,6.179-5.357l.322-1.5a5.767,5.767,0,0,1-4.286,2c-2.429,0-4.75-1.5-4.75-5.75,0-4.822,2.964-12.5,9.179-12.5,2.035,0,2.891.788,2.891,1.893Zm-6.5,23.608c.751,0,1.644-.679,2.107-2.786l.429-2.107c-2.25.75-3.964,1.786-3.964,3.714A1.446,1.446,0,0,0,2981.509,2067.113Zm-.642-11.786c0,2.75,1.139,2.786,1.785,2.786a3.237,3.237,0,0,0,2.857-2.679l1.821-8.643a1.391,1.391,0,0,0-1.464-1.25C2982.831,2045.541,2980.867,2051.973,2980.867,2055.327Z" transform="translate(-1835.953 -1411.728)" fill="#fff"/>
    <path id="Path_15719" data-name="Path 15719" d="M2460.7,2365.159a3.359,3.359,0,0,0-3.579-3.719c-4.5,0-6.542,4.555-6.542,8.387,0,2.74,1.342,5.144,4.53,5.144a4.863,4.863,0,0,0,4.7-3.97h4.39c-1.79,5.564-4.809,7.661-9.143,7.661-5.591,0-8.863-3.216-8.863-8.836,0-6.458,4.166-12.078,10.9-12.078,4.614,0,8.108,2.54,8,7.409Z" transform="translate(-1352.935 -1698.607)" fill="#006837"/>
    <path id="Path_15720" data-name="Path 15720" d="M2672.756,2368.678h4l-3.075,14.453h-4Zm4.446-2.237h-4l.726-3.271h4Z" transform="translate(-1556.848 -1703.552)" fill="#006837"/>
    <path id="Path_15721" data-name="Path 15721" d="M2773.1,2380.248h2.852l-.613,2.656h-2.823l-1.482,7.183a6.371,6.371,0,0,0-.112.671c0,1.033.755,1.062,1.342,1.062a12.325,12.325,0,0,0,1.426-.088l-.671,3.076a24.478,24.478,0,0,1-2.488.139c-1.846,0-3.831-.587-3.775-2.936a6.97,6.97,0,0,1,.2-1.37l1.621-7.745h-2.6l.613-2.656h2.543l.894-4.39h3.97Z" transform="translate(-1644.704 -1715.122)" fill="#006837"/>
    <path id="Path_15722" data-name="Path 15722" d="M2875.015,2442.546c-1.37,2.489-2.628,3.048-5.62,3.048-.7,0-1.426-.112-2.125-.139l.671-3.3c.532,0,1.091.168,1.622.168,1.873,0,2.1-1.2,2.628-1.958l-2.572-14.315h4.082l1.258,10.345h.056l5-10.345h4.194Z" transform="translate(-1737.131 -1760.924)" fill="#006837"/>
    <path id="Path_15723" data-name="Path 15723" d="M2564.4,1765.688l3.132,2.444s21.835-22.482,43.615-1.226-22.634,65.006-56.652,100.163a18.452,18.452,0,0,0,1.051,1.745s2.639-1.074,20.016-1.074,35.76.068,38.311.068,7.112.134,8.454,4.16l2.015.4,17.706-32.2-3.288-1.342s-5.3,17.713-24.217,17.713-43.544-.134-43.544-.134.5-2.382,24.356-26.234,47.538-51.556,24.869-74.224S2568.883,1761.2,2564.4,1765.688Z" transform="translate(-1451.748 -1141.519)" fill="#006837"/>
    <path id="Path_15724" data-name="Path 15724" d="M2730.89,1664.273s27.911-27.134,54.572-3.28-12.526,62.322-12.526,62.322l-35.425,37.394h33.278s14.671,1.073,20.039-6.262l-43.3-.358s6.8-7.335,29.52-31.668,41.509-51.083,15.208-69.555S2736.794,1652.823,2730.89,1664.273Z" transform="translate(-1612.696 -1048.305)" fill="#006837"/>
    <path id="Path_15725" data-name="Path 15725" d="M3451.4,2724.4l1.611,3.221h2.616l17.578-32.2-3.221-1.543s-5.822,11.146-8.923,12.815C3457.908,2712.992,3451.4,2724.4,3451.4,2724.4Z" transform="translate(-2270.094 -2005.284)" fill="#006837"/>
  </g>
</svg>
