<svg xmlns="http://www.w3.org/2000/svg" width="264" height="208.84" viewBox="0 0 264 208.84">
  <g id="Logo_-_Villa_Kencana_Cikarang-01" data-name="Logo - Villa Kencana Cikarang-01" transform="translate(-136.791 -84.011)">
    <path id="Path_15726" data-name="Path 15726" d="M219.9,84.984a2.462,2.462,0,0,1,4.24.561,69.588,69.588,0,0,0,4.45,11.808,121.908,121.908,0,0,1,4.7,14.113,47.25,47.25,0,0,1-.209,19.344,15.989,15.989,0,0,1-2.462,6.394,47.965,47.965,0,0,1-10.378,9.7,2.347,2.347,0,0,1-3.543-1.895c-4.83,11.68-9.547,23.407-14.337,35.105-.674,1.8-1.558,3.522-2.325,5.287-.561,1.29-.956,2.8-2.264,3.554a3.565,3.565,0,0,1,.078,1.872c-3.557,8.635-7.126,17.266-10.646,25.915-.715,1.125-2.238,1.061-3.412,1.067s-2.688-.119-3.223-1.346q-13.616-31.359-27.273-62.7c-1.912-4.293-3.656-8.669-5.8-12.875a7.589,7.589,0,0,0-4.139-3.534,27.026,27.026,0,0,0-4.883-.907,2.125,2.125,0,0,1-1.633-2.116,10.393,10.393,0,0,1,.241-3.778,2.461,2.461,0,0,1,2.523-1.218h32.864a2.438,2.438,0,0,1,2.526,2.59c0,1.5.343,3.607-1.311,4.394-2.3.532-4.851.389-6.952,1.619-.95.666-.808,1.979-.651,2.985a49.164,49.164,0,0,0,3.429,9.4c5.949,13.567,11.794,27.18,17.757,40.737,2.267-5.522,4.618-10.986,6.824-16.519,3.883-9.692,7.556-19.472,11.239-29.234a20.227,20.227,0,0,1,1.607-3.851c.721-1.2-.183-2.392-.805-3.363a33.641,33.641,0,0,1-3.842-14.877,22.862,22.862,0,0,1,1.163-6.472c2.261-5.813,5.786-10.983,9.274-16.1,2.592-3.752,5.38-7.521,6.623-11.977C219.742,87.5,219.233,86.112,219.9,84.984Zm1.918,1.343a10.414,10.414,0,0,1-.785,4.906c-1.8,4.755-5.028,8.736-7.8,12.93a87.406,87.406,0,0,0-6.461,10.931,16.821,16.821,0,0,0-1.994,7.283,29.038,29.038,0,0,0,2.677,13.023c.706,1.77,2.325,3.252,2.142,5.3.041,1.163-.7,2.1-1.163,3.11q-2.988,8.053-6.051,16.08c-4.31,11.439-8.937,22.756-13.706,34,2.616-2.165,5.025-4.537,7.583-6.757.947-.715,1.2-1.93,1.7-2.944,2.308-4.97,4.234-10.1,6.336-15.162,5-12.3,9.969-24.616,15.153-36.84a105.216,105.216,0,0,0,3.592-14.778,80.737,80.737,0,0,1,.064,13.122,65.822,65.822,0,0,1-4.083,14.241,49.379,49.379,0,0,0,8.222-7.155,12.838,12.838,0,0,0,2.659-4.144,43.741,43.741,0,0,0,1.918-9.992,35.631,35.631,0,0,0-.445-8.684,21.674,21.674,0,0,0-.729-4.046A96.863,96.863,0,0,0,225.7,96.778a83.682,83.682,0,0,1-3.886-10.445ZM139.1,131.764v2.357a22.61,22.61,0,0,1,4.264.747,9.985,9.985,0,0,1,6.426,5.231c2.325,4.65,4.237,9.5,6.368,14.241q13.325,30.592,26.645,61.183h2.267c3.488-8.358,6.894-16.746,10.332-25.125-2.659,2.351-5.281,4.749-7.893,7.152-.776-1.529-1.407-3.124-2.1-4.688q-9.7-22.294-19.385-44.588a29.731,29.731,0,0,1-2.462-8.19,4.49,4.49,0,0,1,2.572-4.54,21.957,21.957,0,0,1,6.487-1.412v-2.354Z" transform="translate(0 0)" fill="#fcfbfb"/>
    <path id="Path_15727" data-name="Path 15727" d="M442.553,292.836a2.687,2.687,0,0,1,3.06.93,2.86,2.86,0,0,1,.064,2.441c-3.488,4.165-7.022,8.312-10.884,12.14a62.344,62.344,0,0,1-9.8,7.609,17.792,17.792,0,0,1-8.649,2.534c-.692-.046-1.34.276-2.034.253a16.7,16.7,0,0,0-2.034-.311c-1.9-.25-3.528-1.38-5.406-1.7-2.063-.343-2.185-3.749-.25-4.359a31.782,31.782,0,0,0,6.539-1.549,22.3,22.3,0,0,1,2.116-.828c-2.433.453-4.9.581-7.35.872a2.379,2.379,0,0,1-2.116-3.9c1.4-1.965,2.967-3.807,4.5-5.67a13.706,13.706,0,0,1,3.583-3.081,18.151,18.151,0,0,1,8.556-2.95,33.335,33.335,0,0,0,4.668-.154c1.276-.145,2.566.017,3.845-.1,2.366-.416,4.778-.52,7.141-.965C439.591,293.65,441.071,293.229,442.553,292.836Zm-15.165,4.609c-1.848.134-3.711-.073-5.548.209a18.088,18.088,0,0,0-7.963,3.421,54.814,54.814,0,0,0-6.2,7.362,51,51,0,0,0,12.788-2.122c2.651-.822,5.292-1.677,7.908-2.616a65.592,65.592,0,0,1-7.76,5.862c-3.892,2.587-8.292,4.65-13.02,4.941,2.223.331,4.141,1.834,6.437,1.767a20.681,20.681,0,0,0,6.853-1,28.152,28.152,0,0,0,7.388-4.484c5.882-4.5,10.628-10.242,15.4-15.854A54.588,54.588,0,0,1,427.388,297.446Z" transform="translate(-190.429 -148.046)" fill="#fcfbfb"/>
    <path id="Path_15728" data-name="Path 15728" d="M841.762,335.409c.677-1.322.962-3.284,2.682-3.647,1.308-.122,2.993-.416,3.99.663a22.3,22.3,0,0,1,1.418,2.988q8.05,18.385,16.078,36.773c1.622,3.627,3.121,7.306,4.822,10.9a26.088,26.088,0,0,0,1.834,3.043,6.057,6.057,0,0,0,3.88,2.1c1.023.047,2.325-.017,2.93,1a5.547,5.547,0,0,1,.244,3.546,2.226,2.226,0,0,1-2.348,1.555q-11.474.041-22.96,0a2.232,2.232,0,0,1-2.453-1.689c-.148-1.107-.6-2.342.064-3.368a2.819,2.819,0,0,1,2.662-1.017,4.667,4.667,0,0,0,3.075-.924c-.552-3.488-2.415-6.6-3.682-9.881-.36-.6-.468-1.453-1.023-1.886-6.577-.035-13.154,0-19.731-.023-1.334,3.307-3.1,6.437-4.266,9.812-.119.695-.82,1.782.108,2.191a10.05,10.05,0,0,0,3.74.709,2.3,2.3,0,0,1,2.325,1.27,6.52,6.52,0,0,1,.067,3.3,2.281,2.281,0,0,1-2.406,1.491c-6.1,0-12.206.029-18.31,0a2.2,2.2,0,0,1-2.345-1.854c-.137-1.311-.291-3.066,1.02-3.857,1.7-.692,4.019-.453,5.144-2.174,2.122-3.026,3.45-6.5,5-9.82Q832.517,356,841.762,335.409Zm3.15-1.276c-6.042,13.66-12.177,27.249-18.252,40.883-1.561,3.363-2.906,6.824-4.682,10.094a13.847,13.847,0,0,1-3.13,4.147,13.248,13.248,0,0,1-4.476,1.424c0,.462-.02.927-.026,1.392,6.243.041,12.5,0,18.725.017,0-.477-.017-.95-.023-1.421a18.875,18.875,0,0,1-4.592-.785,3.131,3.131,0,0,1-2.209-3.241,22.6,22.6,0,0,1,2.084-5.961c1.142-2.517,2.244-5.051,3.4-7.556h22.977c1.561,3.621,3.264,7.187,4.63,10.887.451,1.488,1.192,3.272.212,4.708-1.244,1.744-3.627,1.8-5.566,1.968,0,.468.023.939.041,1.412H877.48c-.017-.477-.032-.947-.041-1.418-2.406-.131-4.976-.872-6.522-2.842-2.034-2.563-3.2-5.647-4.519-8.606q-9.861-22.556-19.713-45.111Q845.793,334.113,844.912,334.134Z" transform="translate(-479.022 -175.655)" fill="#fcfbfb"/>
    <path id="Path_15729" data-name="Path 15729" d="M530.772,339.949a2.3,2.3,0,0,1,2.433-1.712h31.42a2.645,2.645,0,0,1,2.177,1.1,3.2,3.2,0,0,1,2.136-.674c10.381,0,20.763-.017,31.144,0a2.4,2.4,0,0,1,2.4,1.924c.241,1.258.311,2.944-.9,3.737-1.221.68-2.691.195-3.984.628-1.668.073-3.583,0-4.894,1.218a8.089,8.089,0,0,0-.747,3.3c-.032,12.692,0,25.386-.017,38.072a12.791,12.791,0,0,0,.471,3.572,8.094,8.094,0,0,0,4.159,1.3c1.084-.055,2.124.355,3.214.291a2.553,2.553,0,0,1,2.575,1.282,4.832,4.832,0,0,1-.049,3.351,2.522,2.522,0,0,1-2.546,1.218h-31.1A2.566,2.566,0,0,1,566.4,397.5a3.822,3.822,0,0,1-2.081.625q-15.4.017-30.83,0c-1.11.029-2.473-.456-2.706-1.683-.186-1.162-.326-2.592.494-3.563.956-.971,2.433-.546,3.639-.724,1.346-.308,2.778.029,4.069-.509.686-.317,1.625-.543,1.814-1.4a28.473,28.473,0,0,0,.514-3.537c-.017-12.6.032-25.209-.023-37.811a12.721,12.721,0,0,0-.625-3.06c-1.866-1.453-4.359-1.34-6.58-1.535-1.081,0-2.456.029-3.078-1.035A5.637,5.637,0,0,1,530.772,339.949Zm2.287.674c0,.477,0,.953.023,1.43a21.079,21.079,0,0,1,5.923.453c1.453.4,3.034.933,3.874,2.267a11.565,11.565,0,0,1,.706,4.734v36.038a20.062,20.062,0,0,1-.349,4.9,3.838,3.838,0,0,1-1.677,2.587c-2.514,1.63-5.632,1.407-8.5,1.433v1.375h31.626v-1.369c-3,.049-6.225.02-8.829-1.686a3.5,3.5,0,0,1-1.505-2.592,58.747,58.747,0,0,1-.291-8.428v-27.3a49.222,49.222,0,0,1,.328-7.908,4.3,4.3,0,0,1,1.671-2.97c2.511-1.758,5.722-1.511,8.632-1.54v-1.4c-10.541-.038-21.091-.006-31.629-.015Zm35.48.494v1.372c2.994.029,6.275-.038,8.847,1.744,1.6,1.09,1.587,3.235,1.665,4.97q.026,19.449,0,38.892c-.1,1.921-.215,4.359-2.078,5.452-2.5,1.6-5.6,1.369-8.428,1.4v1.392H600.15c0-.459.02-.918.035-1.372a21.464,21.464,0,0,1-6.507-.631,6.7,6.7,0,0,1-3.2-1.851c-.956-1.555-.747-3.461-.936-5.2-.038-12.206-.015-24.413,0-36.619.195-2.069-.017-4.493,1.453-6.15,2.465-2.267,6.068-1.912,9.169-2.02v-1.36C589.63,341.094,579.086,341.117,568.539,341.117Zm-4.234,3.2c-1.38-.044-2.738.262-4.121.218-1.119.27-2.462.474-3.159,1.5-.718,2.148-.517,4.441-.543,6.667v35.2a6.9,6.9,0,0,0,.6,2.834,8.449,8.449,0,0,0,4.941,1.319c1.578.436,3.691-.381,4.763,1.232,1.247-.872,2.825-.366,4.208-.773,1.453-.116,3.055.02,4.359-.782,1.4-.692,1.145-2.531,1.407-3.833q.041-19.051,0-38.1a10.746,10.746,0,0,0-.581-3.406c-1.744-1.584-4.232-1.186-6.359-1.625-1.177-.026-2.633.108-3.368-1.032a3.88,3.88,0,0,1-2.148.575Z" transform="translate(-279.383 -180.34)" fill="#fcfbfb"/>
    <path id="Path_15730" data-name="Path 15730" d="M893.871,387.605a7.265,7.265,0,0,1,1.006-1.915c3.316,7.571,6.664,15.127,9.977,22.7-6.786.032-13.572,0-20.344,0Q889.178,398,893.871,387.605Zm.913,3.83c-2.232,4.915-4.426,9.835-6.684,14.744,4.388,0,8.777.015,13.165-.015C899.076,401.268,896.932,396.353,894.784,391.436Z" transform="translate(-530.41 -214.002)" fill="#fcfbfb"/>
    <path id="Path_15731" data-name="Path 15731" d="M397.353,386.908a8.571,8.571,0,0,1,2.819-.23c9.783-.038,19.568.02,29.353,0a2.533,2.533,0,0,1,2.752,1.869c.151,1.1.267,2.447-.555,3.325-.959.913-2.389.651-3.592.77-1.962.34-4.2-.128-5.917,1.09a4.275,4.275,0,0,0-.5,2.308c-.017,9.117,0,18.234,0,27.354a2.745,2.745,0,0,0,.5,1.848,11.362,11.362,0,0,0,4.708.9c1.407.334,2.906-.02,4.278.468,1.349.665,1.3,2.444,1.067,3.711a2.24,2.24,0,0,1-2.435,1.651q-15.694.02-31.42,0a2.2,2.2,0,0,1-2.372-1.744c-.186-1.229-.233-2.906,1.052-3.578,1.256-.514,2.651-.139,3.95-.465a10.439,10.439,0,0,0,5.071-.927,7.284,7.284,0,0,0,.442-2.438V396.373a7.557,7.557,0,0,0-.343-2.56c-1.689-1.058-3.813-.872-5.717-1.078-1.192-.241-2.552.139-3.61-.6-.991-.657-.968-1.988-.91-3.037A2.412,2.412,0,0,1,397.353,386.908Zm.979,2.235v1.163c3.005,0,6.164-.052,8.934,1.282,1.337.634,1.558,2.261,1.572,3.581q.017,14.116,0,28.232c0,1.453-.291,3.255-1.726,4-2.706,1.378-5.839,1.113-8.78,1.163v1.163q15.8,0,31.606,0c0-.389.015-.776.023-1.163-2.889.017-5.882.041-8.594-1.1a2.672,2.672,0,0,1-1.691-1.779,33.427,33.427,0,0,1-.355-5.813c.122-1.453-.073-2.906,0-4.359.253-3-.192-6.007.035-9.009.142-1.648-.026-3.3-.02-4.941.259-2.749-.357-5.563.4-8.263a2.924,2.924,0,0,1,1.482-1.816c2.7-1.375,5.813-1.128,8.754-1.163,0-.4-.029-.793-.038-1.189C419.4,389.166,408.864,389.128,398.332,389.143Z" transform="translate(-183.836 -214.694)" fill="#fcfbfb"/>
    <path id="Path_15732" data-name="Path 15732" d="M545.507,551.321a4.267,4.267,0,0,1,3.174.291c.933.668.889,1.918.974,2.941.291,1.54.055,3.121.372,4.665-.087,2.456.616,4.941.029,7.376-.648,1.52-2.706,1.546-4.025,1.014-1.549-.956-1.36-3.026-2.293-4.418a8.737,8.737,0,0,0-4.787-4.993c-3.258-1.075-7.2-.532-9.637,2.034a17.948,17.948,0,0,0-2.3,4.089,37.527,37.527,0,0,0-1.052,5.069c-.067,1.665-.061,3.336,0,5,.384,2.616.953,5.336,2.636,7.452a9.74,9.74,0,0,0,5.714,3.31c2.467.291,5.138.212,7.266-1.25a16.286,16.286,0,0,0,3.406-3.313c.581-.68.921-1.584,1.744-2.034a3.537,3.537,0,0,1,3.717.616,2.78,2.78,0,0,1,.471,3.083,23.641,23.641,0,0,1-5.522,6.655,15.156,15.156,0,0,1-9.341,3.357c-2.133-.073-4.307.218-6.394-.352-6.766-1.369-12.058-7.19-13.66-13.773-.872-2.735-.529-5.629-.581-8.451a22.029,22.029,0,0,1,4.127-10.7,18.8,18.8,0,0,1,15.941-7.641,16.878,16.878,0,0,1,8.393,1.936C544.2,552.5,544.574,551.551,545.507,551.321Zm.857,2.247c-.352.927-.741,2.1-1.854,2.325a5.574,5.574,0,0,1-2.465-.82,17.053,17.053,0,0,0-16.191,1.235,18.116,18.116,0,0,0-7.684,11.335,21.021,21.021,0,0,0,.805,11.956,15.974,15.974,0,0,0,10.108,9.69,19.147,19.147,0,0,0,10.843-.078c4.008-1.319,7.019-4.65,8.925-8.3-.291-.151-.581-.291-.872-.442a22.516,22.516,0,0,1-4.888,5.263,12.555,12.555,0,0,1-9.376,1.674,11.59,11.59,0,0,1-8.013-5.6,20.223,20.223,0,0,1-2.218-9.5c.093-4.47.7-9.23,3.461-12.913,3.647-4.941,11.689-5.577,16.115-1.354,2.162,1.985,3.235,4.8,4.136,7.519l.872.148q-.453-6.065-.788-12.131c-.323,0-.613-.006-.933-.009Z" transform="translate(-268.572 -331.377)" fill="#fcfbfb"/>
    <path id="Path_15733" data-name="Path 15733" d="M648.223,552a3.376,3.376,0,0,1,3.519-.581c.974.4,1.285,1.474,1.721,2.325,3.456,8.446,7.016,16.857,10.463,25.285.808,1.744,1.372,3.589,2.3,5.278.4.654.7,1.494,1.535,1.694a8.067,8.067,0,0,0,3.168.4c.66-.1,1.322-.23,1.982-.357a27.962,27.962,0,0,0,.325-6.138c-.015-6.667.032-13.334-.032-20a4.677,4.677,0,0,0-3.726-1.938,2.591,2.591,0,0,1-2.677-1.215,6.544,6.544,0,0,1-.07-3.511,2.178,2.178,0,0,1,2.183-1.407c2.906-.015,5.813,0,8.719,0a2.606,2.606,0,0,1,2.209.79q8.513,10.672,17.072,21.312v-14.1a20.37,20.37,0,0,0-.27-2.2c-1.122-.291-2.3-.311-3.4-.651-1.267-.625-1.357-2.293-1.058-3.488a2.248,2.248,0,0,1,2.3-1.648c3.778-.023,7.556,0,11.314,0a3.172,3.172,0,0,1,2.188.564,3.244,3.244,0,0,1,.721,3.1,1.962,1.962,0,0,1-1.712,1.662,24.436,24.436,0,0,0-2.79.482,4.02,4.02,0,0,0-.265,1.331c-.023,10.271,0,20.539,0,30.807a2.255,2.255,0,0,1-1.343,2.3c-1.351.363-3.127.39-4.04-.872-3.886-4.824-7.763-9.655-11.7-14.438-2.11-2.767-4.438-5.359-6.525-8.138,0,5.409-.023,10.82,0,16.232a3.315,3.315,0,0,0,.241,1.189c1.107.334,2.3.264,3.4.619,1.962.979,1.546,4.72-.82,4.868-3.679.192-7.382.032-11.07.087-1.162.084-2.325-.317-3.467-.023-4.359.046-8.719.017-13.078.014a2.409,2.409,0,0,1-2.372-1.2,3.86,3.86,0,0,1,.238-3.386c.631-.872,1.819-.793,2.776-.913-.366-2.072-1.453-3.909-2.162-5.862-3.415-.064-6.827-.02-10.242-.023a42.722,42.722,0,0,0-2.311,5.786c1.128.273,2.592,0,3.36,1.087.979,1.468.581,4.217-1.482,4.452-3.578.145-7.167.032-10.753.061a2.571,2.571,0,0,1-2.674-1.453c-.372-1.218-.27-2.851.9-3.61.808-.337,1.7-.427,2.523-.732,2.217-3.528,3.415-7.556,5.17-11.335,2.741-6.554,5.522-13.078,8.306-19.623C647.3,553.928,647.453,552.774,648.223,552Zm1.688,1.6q-6.291,14.948-12.634,29.877a14.845,14.845,0,0,1-2.345,4.025c-.721.744-1.808.817-2.741,1.119-.038.177-.116.532-.154.709,3.662.023,7.324,0,10.986,0l-.145-.715c-1.162-.215-2.566-.131-3.418-1.1-.712-.727-.43-1.851-.2-2.72.828-2.395,1.941-4.679,2.889-7.024h13.4c.831,2.011,1.709,4.008,2.465,6.051.346,1.058.843,2.238.439,3.345-.581,1.261-2.148,1.334-3.345,1.433,0,.18-.023.544-.032.724,4.583,0,9.169.017,13.753,0,.14-1.075-1.087-.709-1.744-1.011-1.938-.541-2.857-2.5-3.636-4.176-4.243-10.172-8.428-20.385-12.689-30.557Zm18.873.663v1.273a7.025,7.025,0,0,1,5.522,2.119c.474.581,1.334,1.038,1.224,1.895v24.7c-.038,1.229-.055,2.677-1.07,3.543-1.02.91-2.491.793-3.761.872v.648c4.031.017,8.062,0,12.1,0-.026-.16-.076-.48-.1-.636-1.433-.113-3.2,0-4.15-1.293-.642-1.011-.535-2.29-.68-3.435-.023-7.382,0-14.764,0-22.149q11.369,14.037,22.707,28.092h.979c0-9.928-.017-19.856,0-29.784.1-1.4-.049-3.034.968-4.147,1.041-1.061,2.616-.965,3.982-.991,0-.183-.02-.549-.026-.735H694.355c0,.186-.02.555-.029.738,1.529,0,3.453-.02,4.359,1.453a12.379,12.379,0,0,1,.581,4.54c0,6.528.026,13.055,0,19.585-6.69-8.213-13.293-16.511-19.934-24.779a7.246,7.246,0,0,0-1.349-1.5c-3.063-.044-6.132,0-9.2-.015Z" transform="translate(-349.668 -331.395)" fill="#fcfbfb"/>
    <path id="Path_15734" data-name="Path 15734" d="M906.881,552.667c.971-2.1,4.592-2.1,5.377.172,4.3,10.259,8.51,20.562,12.808,30.821.52.872.872,2.063,1.973,2.351.936.273,2.145.122,2.732,1.081.822,1.476.581,4.185-1.482,4.423-4.45.148-8.911.029-13.369.064a2.634,2.634,0,0,1-2.531-1.067,3.894,3.894,0,0,1,.1-3.456c.631-.956,1.895-.872,2.906-.994a50.841,50.841,0,0,0-2.215-5.882H902.943a44.019,44.019,0,0,0-2.3,5.786c1.107.291,2.557-.023,3.336,1.02a3.8,3.8,0,0,1,.276,3.2,2.409,2.409,0,0,1-2.4,1.372c-3.586,0-7.173.058-10.753-.032-2.491-.047-2.953-3.74-1.154-4.987.788-.357,1.674-.43,2.488-.735a32.861,32.861,0,0,0,3.115-6.353Q901.187,566.047,906.881,552.667Zm2.188.9c-3.833,9.152-7.731,18.28-11.59,27.421a27.391,27.391,0,0,1-3.124,6.2c-.706.965-1.971,1.064-3.023,1.4-.029.174-.09.52-.119.695q5.5.029,11.012,0l-.041-.541c-1.081-.526-2.546-.186-3.441-1.162-1.133-1.1-.27-2.77.122-4.019.828-1.956,1.63-3.924,2.511-5.853,4.444.041,8.887.017,13.331,0q1.273,2.864,2.4,5.813c.378,1.163.962,2.456.5,3.679-.622,1.232-2.148,1.177-3.3,1.453-.02.16-.067.479-.09.639q6.873.017,13.753,0c-.017-.183-.055-.546-.073-.727a4.872,4.872,0,0,1-3.575-1.572,19.978,19.978,0,0,1-2.54-4.941q-5.888-14.241-11.8-28.482C909.677,553.553,909.371,553.559,909.069,553.571Z" transform="translate(-533.492 -331.348)" fill="#fcfbfb"/>
    <path id="Path_15735" data-name="Path 15735" d="M142.315,555.108a2.273,2.273,0,0,1,2.325-1.63q7.266-.017,14.514,0A2.3,2.3,0,0,1,161.52,555c.349,1.244.291,3.028-1.072,3.639-1.052.314-2.186.27-3.22.671-.459.073-.331.651-.381.977-.017,2.389-.038,4.778,0,7.17,1.79-1.848,3.778-3.488,5.522-5.365a28.022,28.022,0,0,0,2.633-3.06c-.9-.235-2.017-.366-2.433-1.334a3.781,3.781,0,0,1,.215-3.29,2.406,2.406,0,0,1,2.13-.933h11.945a2.446,2.446,0,0,1,2.421,1.162,4.851,4.851,0,0,1,.026,3.261,2.307,2.307,0,0,1-2.148,1.2,6.438,6.438,0,0,0-3.737,1.863c-3.674,3.45-7.077,7.176-10.707,10.666,3.944,3.874,7.827,7.815,11.756,11.706,1.819,1.569,3.551,3.424,5.906,4.176a6.537,6.537,0,0,0,3.592.349c.433-.111,1.145-.174,1.067-.791.038-7.655,0-15.307.017-22.96a38.385,38.385,0,0,0-.137-4.839c-1.163-.291-2.372-.291-3.517-.622-1.392-.677-1.43-2.552-.965-3.828a2.416,2.416,0,0,1,2.494-1.337h25.9a3.235,3.235,0,0,1,2.072.66,3.055,3.055,0,0,1,1.994-.66c2.988,0,5.978-.02,8.966,0a2.357,2.357,0,0,1,1.988,1.008c5.577,7.086,11.32,14.049,16.883,21.143-.076-3.566,0-7.135-.032-10.7a29.651,29.651,0,0,0-.27-5.679c-1.125-.291-2.325-.291-3.421-.663-1.264-.631-1.331-2.3-1.035-3.488a2.227,2.227,0,0,1,2.229-1.63c3.97-.02,7.943,0,11.916,0a2.28,2.28,0,0,1,2.311,1.593c.325,1.221.238,2.93-1.055,3.557-1.136.357-2.372.273-3.488.721a9.654,9.654,0,0,0-.174,1.831v30.243a2.327,2.327,0,0,1-1.192,2.223,5.1,5.1,0,0,1-2.854.131c-.924-.221-1.453-1.087-2-1.776q-8.574-10.626-17.188-21.216c-.122-.183-.238-.366-.355-.549-.02,4.737-.017,9.474-.017,14.209a13.336,13.336,0,0,0,.18,3.246c1.163.291,2.418.256,3.566.651,1.886,1.084,1.386,4.746-.991,4.842-4.159.134-8.335.067-12.5.035-2.366-.032-2.95-3.52-1.215-4.766,1.064-.6,2.418-.34,3.488-.84a8.848,8.848,0,0,0,.4-2.325c0-7.876-.014-15.752,0-23.628A4.729,4.729,0,0,0,214,559.625c-.729-.058-1.468-.032-2.191-.154a20.633,20.633,0,0,0,.163,3.47,2.379,2.379,0,0,1-1.107,2.616,5.921,5.921,0,0,1-2.255.291,7.575,7.575,0,0,1,.154,1.7c-.026,3.682.017,7.365-.02,11.044a2.127,2.127,0,0,1-1.677,2.174c-1.107.18-2.467.267-3.331-.581-1.081-.939-.712-2.534-1.238-3.749a4.051,4.051,0,0,0-1.494-.41c-2.034-.029-4.069.017-6.1-.02,0,3.54-.017,7.077,0,10.617,2.906.6,5.859,0,8.783,0,2.087-.215,3.307-2.1,4.3-3.732.564-.927.9-2.087,1.851-2.7a5.392,5.392,0,0,1,3.31-.139,2.325,2.325,0,0,1,1.279,3.043c-.7,2.078-1.369,4.168-2.142,6.222-.4,1.037-.474,2.244-1.258,3.1a2.616,2.616,0,0,1-2.18.808H165.83a2.539,2.539,0,0,1-2.47-1.113,4.194,4.194,0,0,1,.02-3.246,2.549,2.549,0,0,1,2.078-1.11c-2.133-2.034-4.237-4.133-6.342-6.216a21.519,21.519,0,0,1-2.238-2.159c0,2.694-.108,5.388.029,8.08,1.131.552,2.421.445,3.6.817,2.052,1.049,1.439,4.993-1.078,4.941-4.839.058-9.681.02-14.531.02a2.467,2.467,0,0,1-2.473-1.351c-.419-1.189-.337-2.869.886-3.543,1.133-.468,2.444-.259,3.56-.764.369-1.1.113-2.325.4-3.444.038-6.493,0-12.982.017-19.472.067-1.744-.247-3.488-.291-5.231-1.131-.535-2.43-.424-3.6-.808C142.091,557.983,142.016,556.317,142.315,555.108Zm2.191.782c0,.183-.017.549-.02.732a6.16,6.16,0,0,1,3.816.843c1.279.82,1.067,2.54,1.163,3.854.049,7.809.015,15.615.02,23.425-.078,1.407.064,2.944-.663,4.205-.977,1.4-2.854,1.258-4.359,1.375,0,.157.026.474.032.631,4.941.02,9.881,0,14.822,0,0-.163.02-.488.029-.651-1.421-.029-3.011-.108-4.1-1.162-.886-.837-.645-2.177-.834-3.27-.052-4.069-.023-8.138,0-12.206q6.423,6.257,12.767,12.587a2.157,2.157,0,0,1,.41,3.127,2.765,2.765,0,0,1-2.235.872c-.015.18-.041.538-.055.718,5.522,0,11.073.017,16.609,0,.291-.759-.6-.727-1.026-.872-3.171-.581-5.627-2.857-7.914-4.967q-6.8-6.751-13.6-13.488c2.7-2.735,5.461-5.417,8.109-8.2,2.255-2.116,4.205-4.676,7.025-6.086a6.632,6.632,0,0,1,2.842-.7l-.07-.773c-4.246.029-8.489,0-12.732,0,0,.177.041.532.055.709a6.978,6.978,0,0,1,2.235.363,1.651,1.651,0,0,1,.791,1.915c-.384,1.706-1.784,2.874-2.871,4.15-3.3,3.435-6.859,6.6-10.343,9.844-.017-3.894-.029-7.792,0-11.683.163-1.183-.038-2.616.91-3.5a5.707,5.707,0,0,1,4.037-1.052c-.029-.259-.061-.512-.1-.764C154.341,555.916,149.424,555.867,144.507,555.89Zm38.037,0c0,.186,0,.558-.02.741,1.482.035,3.3-.1,4.319,1.2a8.13,8.13,0,0,1,.636,3.636v24.413c-.067,1.142,0,2.476-.872,3.351-1.116.991-2.691,1.026-4.1,1.087,0,.16.038.477.049.636h26.68q1.494-4.394,2.976-8.794h-1.1a24.239,24.239,0,0,1-2.508,4.043,6.452,6.452,0,0,1-4.7,2.732,65.743,65.743,0,0,1-9.922.026,1.9,1.9,0,0,1-1.532-2.2c-.02-4.388,0-8.78,0-13.168h7.943a5.1,5.1,0,0,1,3.906,1.354c.872.994.706,2.43,1.122,3.607l.907.163c.038-4.034,0-8.071.015-12.1h-.924c-.209,1.4-.308,2.973-1.375,4.028-.872.9-2.2.918-3.36,1.043-2.749.07-5.5.017-8.254.029V557.805c3.525,0,7.051-.047,10.576.041a5.367,5.367,0,0,1,3.508,1.014c1.386,1.142,1.686,3.052,1.994,4.72.36,0,.724,0,1.087.023-.047-2.546-.328-5.077-.325-7.62a16.706,16.706,0,0,0-2.749-.1Zm30.013,0v1.27a7.379,7.379,0,0,1,6.777,3.662c.041,8.254.015,16.508.015,24.759-.113,1.264-.035,2.761-.982,3.743-1.017,1-2.546.872-3.857,1-.026.157-.073.477-.1.634,4.031.017,8.059,0,12.09,0V590.3c-1.537-.067-3.514,0-4.359-1.566a12.411,12.411,0,0,1-.471-4.3c.015-6.975-.02-13.95.015-20.925Q233,577.516,244.323,591.524l.971.026q.022-14.887,0-29.775c.1-1.392-.038-3.014.962-4.127s2.616-1,3.99-1.029l-.035-.738H238.1v.735c1.232.041,2.59-.067,3.65.692a3.3,3.3,0,0,1,1.194,2.7c.154,2.517.073,5.039.093,7.556,0,4.862.023,9.727,0,14.59-7.086-8.719-14.075-17.516-21.111-26.273-3.136,0-6.251.009-9.367.009ZM194.9,560.058c.015,3.133-.023,6.266,0,9.4a32.478,32.478,0,0,0,5.1-.177,6.625,6.625,0,0,0,2.43-.32c.773-1.049.311-2.511,1.078-3.575.555-1,1.811-1.04,2.816-1.058-.442-1.163-.442-2.505-1.192-3.522-1.136-.872-2.636-.384-3.935-.683-2.11-.142-4.2-.006-6.3-.07Z" transform="translate(-3.816 -333.02)" fill="#fcfbfb"/>
    <path id="Path_15736" data-name="Path 15736" d="M681.3,588.08c2.034,4.65,3.918,9.335,5.911,13.988q-5.938.017-11.872,0C677.3,597.395,679.359,592.762,681.3,588.08Zm-.023,6.269c-.834,1.8-1.567,3.653-2.374,5.47,1.578-.017,3.162,0,4.743-.015C682.844,597.99,682.216,596.1,681.278,594.349Z" transform="translate(-382.031 -357.572)" fill="#fcfbfb"/>
    <path id="Path_15737" data-name="Path 15737" d="M940.427,588.69a4.391,4.391,0,0,1,.872,1.662c1.683,4.069,3.406,8.091,5.083,12.148q-5.938.017-11.872,0C936.5,597.9,938.495,593.308,940.427,588.69Zm-2.343,11.558h4.76c-.773-1.854-1.569-3.7-2.325-5.563C939.689,596.517,938.913,598.394,938.085,600.248Z" transform="translate(-565.879 -358.005)" fill="#fcfbfb"/>
    <path id="Path_15738" data-name="Path 15738" d="M260.454,703.421a14.6,14.6,0,0,1,7.94-4.141c1.261-.061,2.523,0,3.778-.029a12.567,12.567,0,0,1,4.214.953,3.346,3.346,0,0,1,4.612-.119,5.121,5.121,0,0,1,1.912-.331q10.463.026,20.925,0a3.409,3.409,0,0,1,2.4.756,3.054,3.054,0,0,1,2.247-.753h8.155a2.481,2.481,0,0,1,2.325,1.113,3.1,3.1,0,0,1-.413,3.368c-.729.75-1.907.477-2.746,1.014-2.11,1.328-3.615,3.363-5.394,5.066-.8.886-1.758,1.651-2.485,2.6,1.941,2.084,3.912,4.147,5.964,6.132a25.809,25.809,0,0,0,4.083,3.717,3.754,3.754,0,0,0,2.714.793c1.238-2.177,2-4.58,3.075-6.839,2.217-5.423,4.56-10.8,6.818-16.2.671-1.453,2.671-1.471,3.976-.977,1.084.634,1.369,1.956,1.837,3.031,1.825,4.461,3.694,8.9,5.522,13.369a73.308,73.308,0,0,0,3.307,7.5,17.889,17.889,0,0,0,1.764.424c.378-.1.759-.189,1.142-.291.047-6.228.076-12.462-.017-18.69a3.994,3.994,0,0,1-2.639-.581,3.072,3.072,0,0,1-.541-3.36,2.508,2.508,0,0,1,2.5-1.2H358.5a12.34,12.34,0,0,1,4.854.872c2.226,1.2,4.3,3.168,4.763,5.754.11,1.9.267,3.955-.79,5.641a8.664,8.664,0,0,1-3.665,3.412c.642,1.258,1.6,2.325,2.325,3.52a19.656,19.656,0,0,0,3.374,4.171c.616.291,1.453.683,2.09.328.942-1.247,1.273-2.8,1.988-4.171q3.854-9.184,7.745-18.362c.622-2.252,4.418-2.281,5.231-.163q4.124,10.009,8.268,20.01a10.9,10.9,0,0,0,1.363,2.706,4.493,4.493,0,0,0,2.79.125c.233-5.737.035-11.494.1-17.24-.514-.494-.994-1.186-1.782-1.18a3.052,3.052,0,0,1-2.665-1.081,3.8,3.8,0,0,1-.16-3.159,2.36,2.36,0,0,1,2.2-1.186c2.034-.023,4.1,0,6.144,0a2.671,2.671,0,0,1,2.2.962c1.744,2.116,3.519,4.22,5.176,6.394,1.776,2.212,3.644,4.359,5.324,6.635-.052-2.959,0-5.917-.047-8.873-.9-.026-1.97.055-2.656-.651a3.161,3.161,0,0,1-.462-3.3,2.423,2.423,0,0,1,2.351-1.183h7.847a2.618,2.618,0,0,1,2.441,1.058,2.93,2.93,0,0,1-.648,3.592,4.253,4.253,0,0,1-2.464.488c-.081,7.286,0,14.572-.041,21.858a2.367,2.367,0,0,1-.991,2.034,3.556,3.556,0,0,1-3.985-.427q-5.74-7.1-11.523-14.183c.032,3.13-.02,6.26.017,9.387a9.725,9.725,0,0,1,2.438.8,2.66,2.66,0,0,1-.343,4.147,10.116,10.116,0,0,1-3.488.291c-2.217-.032-4.441.081-6.652-.076-3.406.145-6.83.1-10.239.029-2.363,0-2.886-3.505-1.162-4.7a4.012,4.012,0,0,1,1.2-.436c-.355-.886-.761-1.744-1.061-2.653-2.087-.044-4.173,0-6.26-.017-.387.872-.715,1.744-1.058,2.616a2.547,2.547,0,0,1,2.034,1.293,4.112,4.112,0,0,1-.055,3.022,2.422,2.422,0,0,1-2.325,1.107H365.135a3.029,3.029,0,0,1-2.723-1.276c-2-2.906-4.124-5.734-6.1-8.664,0,1.511-.026,3.023,0,4.534a21.824,21.824,0,0,1,2.357.581c1.895,1.043,1.287,4.65-1.058,4.592-6.684.119-13.383,0-20.074.052-1.026-.023-2.276.081-3.02-.77-1.183-1.453-.514-4.24,1.575-4.4-.227-.936-.715-1.776-1.026-2.68h-6.219c-.389.854-.732,1.744-1.075,2.616,2.107.084,2.993,2.741,1.907,4.342a3.04,3.04,0,0,1-2.616.9c-6.01,0-12.023.017-18.034,0-1.052.035-2.43-.485-2.447-1.715a2.306,2.306,0,0,1-2.473,1.709c-3.674,0-7.353.067-11.023-.052-2.816.142-5.638.038-8.457.064a10.542,10.542,0,0,1-3.488-.291,2.661,2.661,0,0,1-.738-3.717c.674-.994,2.017-.889,3.043-1.224q.035-9.338,0-18.679c-.6-.023-1.206-.049-1.8-.1a22.67,22.67,0,0,1,.2,5.432c-.291,2.412-4.377,2.508-5.051.291-.651-1.895-1.488-4.043-3.427-4.941a5.63,5.63,0,0,0-6.589,1.543,12.134,12.134,0,0,0-1.755,5.685c-.029,2.218-.186,4.563.837,6.609a5.641,5.641,0,0,0,4.537,3.54,11.2,11.2,0,0,0,3.133-.157c1.8-.622,3.008-2.188,4.171-3.613a3.257,3.257,0,0,1,3.557-.642c1.453.625,1.674,2.659.843,3.874a14.867,14.867,0,0,1-6.06,5.844,11.624,11.624,0,0,1-4.731.979,19.992,19.992,0,0,1-5.118-.328c-3.572-.756-6.408-3.458-8.239-6.507C254.787,716.383,255.621,708.307,260.454,703.421Zm.994,2.421a14.385,14.385,0,0,0-1.956,14.186,11.024,11.024,0,0,0,7.19,6.568,13,13,0,0,0,7.774-.273,11.728,11.728,0,0,0,5.734-5.432l-.479-.4c-1.369,1.567-2.651,3.363-4.63,4.2a9.1,9.1,0,0,1-9.326-1.386,9.287,9.287,0,0,1-2.764-4.964,21.264,21.264,0,0,1-.093-7.623,10.887,10.887,0,0,1,3.049-6.176,7.95,7.95,0,0,1,10.143-.038,11.85,11.85,0,0,1,2.985,5.231l.561.247c-.052-2.837-.357-5.661-.517-8.492l-.607.049c-.334.532-.634,1.3-1.378,1.308a25.415,25.415,0,0,1-3.043-.93A12.2,12.2,0,0,0,261.448,705.842Zm71.291-4.3q-4.516,10.727-9.056,21.454c-.506.985-.95,2.2-2.034,2.691-1.471.782-3.162.134-4.5-.619-2.421-1.494-4.258-3.7-6.263-5.682-2.151-2.1-4.168-4.336-6.362-6.394,1.939-2.156,4.069-4.139,6.031-6.272,1.491-1.52,2.988-3.2,5.008-3.993.514-.253,1.334-.058,1.561-.718-3.04-.047-6.083-.052-9.123,0,.07.1.212.308.291.413.77.073,1.828.067,2.034,1.023,0,1.244-.985,2.154-1.744,3.037-2.351,2.575-4.993,4.859-7.521,7.266,0-2.927-.078-5.856.041-8.777a2.227,2.227,0,0,1,1.36-2.267c.66-.445,1.8.195,2.145-.683-3.45-.038-6.908-.081-10.355.017l-.25.387a4.776,4.776,0,0,1,2.752.6c.834.526.779,1.622.817,2.488v17.438c-.047.872,0,1.953-.756,2.572a4.819,4.819,0,0,1-2.688.616l.029.418h10.323v-.418c-1.119-.02-2.479-.163-3.116-1.221a7.519,7.519,0,0,1-.314-2.531q-.017-4,0-8c2.956,2.866,5.813,5.842,8.719,8.742.5.529,1.186,1.34.683,2.087-.305.712-1.163.814-1.825.916l.038.427c6.362-.017,12.727.044,19.086-.032l.273-.386a5.335,5.335,0,0,1-2.514-.741,1.78,1.78,0,0,1-.218-1.93c.555-1.706,1.363-3.313,2.034-4.981h9.361c.721,1.976,1.825,3.848,2.122,5.952.073,1.276-1.4,1.59-2.383,1.674v.442c3.2,0,6.411.044,9.617-.029-.1-.6-.8-.471-1.215-.666-1.427-.291-2.063-1.744-2.616-2.941-2.941-7.135-5.906-14.258-8.821-21.4Zm50.648.314q-4.455,10.547-8.908,21.1c-.555,1.081-1.049,2.467-2.325,2.854a4.7,4.7,0,0,1-3.778-.517c-1.776-1.02-2.8-2.874-3.967-4.479-1.482-2.188-3.107-4.281-4.5-6.53a10.193,10.193,0,0,0,3.418-1.343,5.691,5.691,0,0,0,2.616-5.077,5.879,5.879,0,0,0-3.363-4.941,12.481,12.481,0,0,0-4.624-.907c-3.61-.052-7.219,0-10.829-.032-.032.125-.1.375-.131.5,1.04,0,2.3-.09,3.008.837a5.653,5.653,0,0,1,.529,2.793v16.3a5.406,5.406,0,0,1-.52,2.8c-.721,1.014-2.081.82-3.15,1.055.378.416.974.291,1.476.32,3.031-.026,6.065,0,9.1-.017v-.419a4.309,4.309,0,0,1-2.639-.6,3.257,3.257,0,0,1-.77-2.4c-.026-2.709-.02-5.42,0-8.138.8,0,1.607,0,2.415.032,2.656,3.889,5.452,7.678,8.138,11.55,4.749.026,9.5.061,14.241-.017l-.247-.421c-1.081-.224-2.5-.346-2.761-1.674a39,39,0,0,1,2.325-5.993c3.1,0,6.2.029,9.3,0,.671,1.561,1.378,3.113,1.907,4.731.166.671.445,1.482,0,2.1-.514.677-1.453.674-2.209.82l.029.433h9.57l.02-.427a4.667,4.667,0,0,1-2.226-.814,7.355,7.355,0,0,1-1.587-2.537c-2.906-6.992-5.757-14-8.672-20.989C384.2,701.294,383.442,701.451,383.387,701.855Zm-101.005.616c1.163-.073,2.645.078,3.246,1.255a19.231,19.231,0,0,1,.291,3.243v12.77a26.158,26.158,0,0,1-.291,5.025c-.532,1.325-2.133,1.343-3.334,1.389l.291.366c3.429.073,6.868.049,10.3,0-.137-.581-.831-.352-1.247-.488a2.167,2.167,0,0,1-2.223-2.2c-.047-6.1,0-12.206-.02-18.31,0-.916.029-2.034.872-2.616a3.966,3.966,0,0,1,2.528-.453c-.023-.11-.067-.331-.09-.442-3.258-.116-6.525-.032-9.783-.044C282.545,701.924,282.364,702.084,282.382,702.471Zm114.1-.485v.7a5.007,5.007,0,0,1,4.755,3.066c.058,5.443,0,10.893.026,16.336a6.882,6.882,0,0,1-.482,3.063c-.689,1.017-2.034.9-3.1,1.029.2.509.77.349,1.2.389,2.467-.02,4.941,0,7.4,0l-.017-.422c-1.02-.07-2.29.015-2.944-.944a6.766,6.766,0,0,1-.494-3.11c.017-4.859-.029-9.719.026-14.575,5.176,6.313,10.3,12.669,15.444,19.013a1.418,1.418,0,0,0,1.04.561c.081-7.146-.015-14.3.049-21.443.017-1.107.166-2.514,1.369-2.961.665-.43,1.816.218,2.165-.66-2.863-.067-5.722-.026-8.585-.023,0,.122.029.366.038.488a3.931,3.931,0,0,1,2.491.453c.834.561.814,1.68.849,2.578,0,4.941.017,9.881,0,14.822q-7.42-9.155-14.787-18.35C400.784,701.971,398.627,701.98,396.483,701.985Zm-92.972,2.906v3.284a32.8,32.8,0,0,0,3.514-3.563l-.715-.546a3.586,3.586,0,0,1-2.8.834Zm-11.739,0c-.154,1.453-.061,2.93-.093,4.4,0,4.758-.041,9.518.026,14.276.567.137,1.131.291,1.709.41a15.557,15.557,0,0,0,1.793-.419c.131-6.217.067-12.442.026-18.661a26.456,26.456,0,0,0-3.461,0ZM303.4,720.138a31.314,31.314,0,0,1,.09,3.345c1.107.462,2.683.48,3.086,1.86a3.124,3.124,0,0,1,.761-1.34c-1.354-1.25-2.563-2.645-3.941-3.862Z" transform="translate(-84.614 -436.381)" fill="#fcfbfb"/>
    <path id="Path_15739" data-name="Path 15739" d="M835.106,701.494a14.64,14.64,0,0,1,5.281-2.107c1.427-.1,2.866,0,4.3-.044,1.453-.119,2.773.541,4.144.872,1.244-1.293,4.028-1.293,4.819.5.453,1.985.387,4.046.651,6.06-.081,1.415.66,3.049-.532,4.2,1.1-.055,2.494-.061,3.171.991a2.945,2.945,0,0,1-.479,3.627,4.136,4.136,0,0,1-1.9.639c-.1,2.941,0,5.888-.058,8.832a2.494,2.494,0,0,1-1.09,1.982,15.985,15.985,0,0,1-8.138,2.261,27.39,27.39,0,0,1-6.266-.354,14.114,14.114,0,0,1-10.355-9.669A15.965,15.965,0,0,1,835.106,701.494Zm2.421,1.3a13.686,13.686,0,0,0-6.914,9.463,12.622,12.622,0,0,0,2.4,10.233,11.686,11.686,0,0,0,7.1,4.3,17.834,17.834,0,0,0,12.055-1.744c.026-2.616-.041-5.205.032-7.806a5.372,5.372,0,0,1,.639-2.906c.462-.642,1.325-.607,2.034-.706v-.41c-3.165.017-6.333-.073-9.495.049l.273.323c1.119.145,2.549.291,2.877,1.622a93.661,93.661,0,0,1,.151,9.434,9.417,9.417,0,0,1-7.745.735,8.751,8.751,0,0,1-4.609-4.121,15.693,15.693,0,0,1-1.348-11.178c.706-2.653,2.232-5.321,4.813-6.516a8.5,8.5,0,0,1,8.847,1,10.782,10.782,0,0,1,2.813,4.592l.668.163c-.169-2.572-.419-5.138-.581-7.71a5.91,5.91,0,0,0-.721.029c-.093.581-.169,1.279-.9,1.29-1.572-.259-3.028-1-4.612-1.215A13.688,13.688,0,0,0,837.527,702.794Zm.561,5.813a13.189,13.189,0,0,0-.788,8.855,9.377,9.377,0,0,0,3.249,5.071c1.657,1.226,3.909,1.125,5.813.581-.015-2.325,0-4.624-.029-6.934a3.183,3.183,0,0,1-2.592-.9c-1.061-1.3-.712-3.982,1.212-4.24a45.524,45.524,0,0,1,4.961-.081c-1.125-1.008-1.162-2.68-2.122-3.8-1.29-1.962-3.909-2.194-6.019-1.79a5.708,5.708,0,0,0-3.685,3.252Z" transform="translate(-490.309 -436.468)" fill="#fcfbfb"/>
    <path id="Path_15740" data-name="Path 15740" d="M593.005,713.554c1.712-.607,3.688-.953,5.345,0,2.956,1.6,3.342,6.211.857,8.4-1.691,1.494-4.069,1.706-6.234,1.628C593,720.239,592.936,716.9,593.005,713.554Zm2.325,1.828v5.752a3.493,3.493,0,0,0,2.813-1.694,3.214,3.214,0,0,0-.18-3.156,2.886,2.886,0,0,0-2.636-.9Z" transform="translate(-323.601 -446.16)" fill="#fcfbfb"/>
    <path id="Path_15741" data-name="Path 15741" d="M503,737.707c1.453-3.226,2.807-6.5,4.261-9.727,1.418,3.229,2.723,6.507,4.165,9.724Q507.208,737.745,503,737.707Zm4.261-3.65q-.311.689-.636,1.375h1.2c-.177-.471-.387-.916-.573-1.375Z" transform="translate(-259.778 -456.813)" fill="#fcfbfb"/>
    <path id="Path_15742" data-name="Path 15742" d="M677.7,737.744c1.485-3.2,2.746-6.525,4.3-9.7,1.311,3.255,2.761,6.455,4.069,9.713C683.28,737.764,680.49,737.779,677.7,737.744Zm4.258-3.572q-.323.663-.663,1.319c.416,0,.837-.023,1.258-.029-.2-.433-.407-.863-.6-1.29Z" transform="translate(-383.705 -456.855)" fill="#fcfbfb"/>
    <path id="Path_15743" data-name="Path 15743" d="M348.415,92a89.586,89.586,0,0,0,3.865,10.463,94.151,94.151,0,0,1,4.941,13.971,22.407,22.407,0,0,1,.729,4.046,35.654,35.654,0,0,1,.445,8.684,43.863,43.863,0,0,1-1.918,9.992,12.776,12.776,0,0,1-2.659,4.144,49.377,49.377,0,0,1-8.213,7.176,65.708,65.708,0,0,0,4.083-14.241,80.744,80.744,0,0,0-.064-13.122,105.22,105.22,0,0,1-3.592,14.778c-5.185,12.224-10.149,24.541-15.153,36.84-2.1,5.06-4.028,10.192-6.336,15.162-.5,1.014-.753,2.229-1.7,2.944-2.558,2.22-4.978,4.592-7.583,6.757,4.769-11.256,9.4-22.573,13.706-34q3.075-8.068,6.068-16.118c.456-1.008,1.2-1.941,1.163-3.11.174-2.034-1.436-3.525-2.142-5.3a28.982,28.982,0,0,1-2.677-13.023,16.7,16.7,0,0,1,1.994-7.283,87.758,87.758,0,0,1,6.461-10.931c2.775-4.194,6.007-8.175,7.8-12.93A10.413,10.413,0,0,0,348.415,92Z" transform="translate(-126.601 -5.667)" fill="#773a1d"/>
    <path id="Path_15744" data-name="Path 15744" d="M433.106,302.878a53.8,53.8,0,0,0,16.275-2.508c-4.772,5.612-9.518,11.352-15.4,15.854a27.92,27.92,0,0,1-7.388,4.484,20.68,20.68,0,0,1-6.853,1c-2.3.067-4.214-1.436-6.437-1.767,4.729-.291,9.129-2.342,13.02-4.941a65.589,65.589,0,0,0,7.76-5.862c-2.616.924-5.257,1.779-7.908,2.616a51.307,51.307,0,0,1-12.788,2.122,55.342,55.342,0,0,1,6.222-7.376,18.145,18.145,0,0,1,7.963-3.421C429.4,302.794,431.258,303,433.106,302.878Z" transform="translate(-196.148 -153.479)" fill="#773a1d"/>
    <path id="Path_15745" data-name="Path 15745" d="M551.861,559.46c.305,0,.613,0,.921.02q.331,6.068.788,12.131l-.872-.148c-.9-2.717-1.973-5.522-4.136-7.519-4.426-4.223-12.468-3.578-16.115,1.354-2.761,3.682-3.368,8.443-3.461,12.913a20.222,20.222,0,0,0,2.217,9.5,11.59,11.59,0,0,0,8.013,5.6,12.5,12.5,0,0,0,9.376-1.674,22.515,22.515,0,0,0,4.888-5.263c.291.142.581.291.872.442-1.906,3.659-4.917,6.975-8.925,8.3a19.147,19.147,0,0,1-10.843.078,15.974,15.974,0,0,1-10.108-9.69,21.02,21.02,0,0,1-.805-11.957,18.055,18.055,0,0,1,7.684-11.334,17.051,17.051,0,0,1,16.191-1.235,5.573,5.573,0,0,0,2.464.82C551.12,561.561,551.509,560.387,551.861,559.46Z" transform="translate(-274.083 -337.27)" fill="#773a1d"/>
    <path id="Path_15746" data-name="Path 15746" d="M655.574,559.5h.872c4.264,10.172,8.446,20.379,12.689,30.557.779,1.674,1.7,3.636,3.636,4.176.648.291,1.875-.064,1.744,1.011-4.583.023-9.169,0-13.753,0,0-.18.023-.543.032-.724,1.2-.1,2.758-.171,3.345-1.433.4-1.107-.093-2.287-.439-3.345-.756-2.034-1.633-4.04-2.465-6.051H647.82c-.947,2.345-2.061,4.63-2.889,7.025-.232.872-.514,1.994.2,2.72.852.965,2.258.872,3.418,1.1l.139.709c-3.662,0-7.324.02-10.986,0,.038-.177.116-.532.154-.709a5.936,5.936,0,0,0,2.741-1.119,14.98,14.98,0,0,0,2.345-4.025C647.14,579.408,651.38,569.466,655.574,559.5Zm-.974,8.306c-1.941,4.682-4,9.3-5.961,13.988h11.872C658.518,577.141,656.626,572.433,654.6,567.806Z" transform="translate(-355.33 -337.298)" fill="#773a1d"/>
    <path id="Path_15747" data-name="Path 15747" d="M914.826,559.52c.291,0,.607-.017.916-.02q5.885,14.241,11.8,28.482a19.729,19.729,0,0,0,2.54,4.941,4.891,4.891,0,0,0,3.575,1.572c.017.18.055.544.073.727q-6.879.026-13.753,0c.023-.16.07-.479.09-.639,1.163-.262,2.68-.206,3.3-1.453.459-1.224-.125-2.514-.5-3.679q-1.129-2.93-2.4-5.813c-4.444,0-8.887.029-13.331,0-.872,1.93-1.683,3.9-2.511,5.853-.392,1.25-1.255,2.906-.122,4.019.9.968,2.36.628,3.441,1.162l.041.541q-5.522.026-11.012,0c.029-.174.09-.52.119-.695,1.052-.331,2.325-.43,3.023-1.4a27.269,27.269,0,0,0,3.124-6.2C907.1,577.8,910.993,568.672,914.826,559.52Zm-1.029,8.463c-1.933,4.618-3.923,9.213-5.906,13.808q5.938.026,11.872,0c-1.677-4.069-3.4-8.094-5.083-12.148A4.781,4.781,0,0,0,913.8,567.983Z" transform="translate(-539.249 -337.298)" fill="#773a1d"/>
    <path id="Path_15748" data-name="Path 15748" d="M150.089,561.736c4.917-.023,9.835.026,14.755-.026.035.253.067.506.1.764a5.707,5.707,0,0,0-4.037,1.052c-.947.9-.747,2.325-.91,3.505-.032,3.891-.02,7.789,0,11.683,3.488-3.243,7.048-6.408,10.343-9.844,1.087-1.276,2.488-2.444,2.871-4.15a1.651,1.651,0,0,0-.791-1.915,6.978,6.978,0,0,0-2.235-.363c-.015-.177-.041-.532-.055-.709,4.243,0,8.486.015,12.732,0l.07.773a6.632,6.632,0,0,0-2.842.7c-2.819,1.41-4.769,3.97-7.024,6.086-2.648,2.787-5.406,5.47-8.109,8.2q6.8,6.74,13.6,13.488c2.287,2.11,4.743,4.386,7.914,4.967.424.131,1.308.1,1.026.872-5.536.023-11.073,0-16.609,0,0-.18.041-.538.055-.718a2.676,2.676,0,0,0,2.235-.872,2.157,2.157,0,0,0-.41-3.127q-6.35-6.333-12.77-12.587c0,4.069-.041,8.138,0,12.206.189,1.093-.052,2.433.834,3.27,1.087,1.046,2.677,1.125,4.1,1.162,0,.163-.023.488-.029.651H150.072c0-.157-.023-.474-.032-.631,1.5-.116,3.38.023,4.359-1.375.727-1.261.581-2.8.663-4.205,0-7.809.029-15.615-.02-23.425-.1-1.314.113-3.034-1.163-3.854a6.122,6.122,0,0,0-3.816-.843C150.072,562.285,150.084,561.919,150.089,561.736Z" transform="translate(-9.398 -338.866)" fill="#773a1d"/>
    <path id="Path_15749" data-name="Path 15749" d="M280.977,561.746h23.971a16.7,16.7,0,0,1,2.749.1c0,2.543.291,5.074.326,7.62-.363,0-.727-.017-1.087-.023-.308-1.668-.607-3.578-1.994-4.72a5.368,5.368,0,0,0-3.508-1.014c-3.525-.087-7.051-.038-10.576-.041v13.912c2.749,0,5.5.041,8.254-.029,1.163-.125,2.494-.148,3.36-1.043,1.067-1.055,1.163-2.633,1.375-4.028h.936c0,4.034.023,8.071-.014,12.1l-.907-.163c-.416-1.163-.244-2.616-1.122-3.607a5.1,5.1,0,0,0-3.906-1.354H290.87c0,4.388-.017,8.78,0,13.168a1.9,1.9,0,0,0,1.532,2.2,65.743,65.743,0,0,0,9.922-.026,6.452,6.452,0,0,0,4.7-2.732,24.232,24.232,0,0,0,2.508-4.043h1.1q-1.491,4.409-2.973,8.8h-26.68c0-.16-.038-.477-.049-.636,1.41-.061,2.985-.1,4.1-1.087.872-.872.811-2.209.872-3.351V567.341a8.012,8.012,0,0,0-.636-3.636c-1.023-1.308-2.837-1.163-4.319-1.2C280.95,562.3,280.971,561.932,280.977,561.746Z" transform="translate(-102.248 -338.878)" fill="#773a1d"/>
    <path id="Path_15750" data-name="Path 15750" d="M384.353,561.79H393.7c7.036,8.757,14.026,17.554,21.111,26.273.038-4.862,0-9.727,0-14.59-.02-2.52.061-5.042-.093-7.556a3.324,3.324,0,0,0-1.195-2.7c-1.061-.759-2.418-.651-3.65-.692v-.735h12.113l.035.738c-1.372.029-2.976-.073-3.99,1.029s-.872,2.735-.962,4.127c-.023,9.925,0,19.85,0,29.775l-.971-.026q-11.282-14.029-22.62-28.028c-.035,6.975,0,13.95-.015,20.925a12.1,12.1,0,0,0,.471,4.3c.849,1.558,2.825,1.5,4.359,1.567v.657H386.2c.026-.157.073-.477.1-.634,1.311-.113,2.839,0,3.857-1,.947-.982.872-2.479.982-3.743,0-8.251.026-16.5-.015-24.759a7.379,7.379,0,0,0-6.777-3.662Z" transform="translate(-175.611 -338.923)" fill="#773a1d"/>
    <path id="Path_15751" data-name="Path 15751" d="M764.126,561.772c3.066.017,6.135-.029,9.2.02a7.09,7.09,0,0,1,1.349,1.5c6.641,8.263,13.244,16.56,19.928,24.8.041-6.53,0-13.058,0-19.586a12.761,12.761,0,0,0-.581-4.54c-.91-1.474-2.834-1.453-4.359-1.453,0-.183.023-.552.029-.738h12.119c0,.186.02.552.026.735-1.366.026-2.941-.07-3.982.991-1.017,1.113-.872,2.747-.968,4.147-.029,9.928,0,19.856,0,29.784h-.979Q784.572,583.38,773.2,569.34c.014,7.385,0,14.767,0,22.149.145,1.145.038,2.424.68,3.435.962,1.29,2.717,1.18,4.15,1.293.026.157.076.477.1.636h-12.1v-.648c1.27-.09,2.741.026,3.761-.872,1.014-.872,1.032-2.325,1.07-3.543v-24.7c.11-.872-.75-1.325-1.224-1.895a7.024,7.024,0,0,0-5.522-2.119C764.123,562.618,764.123,562.2,764.126,561.772Z" transform="translate(-445.009 -338.908)" fill="#773a1d"/>
    <path id="Path_15752" data-name="Path 15752" d="M144.736,248.32h33.515v2.354a22.372,22.372,0,0,0-6.487,1.412,4.49,4.49,0,0,0-2.572,4.54,29.732,29.732,0,0,0,2.462,8.19q9.681,22.3,19.385,44.588c.695,1.564,1.325,3.159,2.1,4.688,2.616-2.4,5.231-4.8,7.893-7.152-3.438,8.379-6.847,16.766-10.332,25.125h-2.267q-13.383-30.56-26.642-61.169c-2.13-4.743-4.034-9.591-6.368-14.241A10.071,10.071,0,0,0,149,251.424a22.607,22.607,0,0,0-4.269-.747Q144.739,249.5,144.736,248.32Z" transform="translate(-5.632 -116.556)" fill="#d38d2a"/>
    <path id="Path_15753" data-name="Path 15753" d="M850.468,340.19q.872-.023,1.773-.02,9.849,22.562,19.71,45.111c1.311,2.959,2.5,6.042,4.519,8.605,1.546,1.968,4.115,2.712,6.522,2.842,0,.471.023.942.041,1.418H859.582c-.017-.474-.032-.945-.041-1.412,1.939-.166,4.322-.212,5.566-1.968.979-1.436.238-3.22-.212-4.708-1.366-3.7-3.069-7.266-4.63-10.887H837.288c-1.163,2.508-2.261,5.042-3.4,7.556a22.2,22.2,0,0,0-2.084,5.961,3.14,3.14,0,0,0,2.209,3.241,18.469,18.469,0,0,0,4.592.785c0,.471,0,.945.023,1.421-6.243,0-12.5.023-18.725-.017,0-.465.015-.93.026-1.392A13.12,13.12,0,0,0,824.4,395.3a13.9,13.9,0,0,0,3.13-4.147c1.761-3.27,3.121-6.731,4.682-10.094C838.291,367.439,844.426,353.837,850.468,340.19Zm-2.43,15.113q-4.685,10.4-9.376,20.8c6.786,0,13.572.02,20.344,0-3.313-7.574-6.661-15.13-9.977-22.7a7.868,7.868,0,0,0-.991,1.915Z" transform="translate(-484.578 -181.711)" fill="#d38d2a"/>
    <path id="Path_15754" data-name="Path 15754" d="M539,346.433c10.547,0,21.1-.023,31.644.015v1.4c-2.906.029-6.121-.218-8.632,1.54a4.259,4.259,0,0,0-1.671,2.97,49.235,49.235,0,0,0-.328,7.908v27.3A59.949,59.949,0,0,0,560.3,396a3.511,3.511,0,0,0,1.505,2.592c2.616,1.706,5.83,1.744,8.829,1.686v1.369q-15.816.017-31.626,0v-1.375c2.863-.026,5.981.2,8.5-1.433a3.819,3.819,0,0,0,1.677-2.587,20.346,20.346,0,0,0,.349-4.9V355.314a11.564,11.564,0,0,0-.706-4.734c-.84-1.334-2.433-1.863-3.874-2.267a20.759,20.759,0,0,0-5.923-.453C539,347.386,539,346.909,539,346.433Z" transform="translate(-285.315 -186.149)" fill="#d38d2a"/>
    <path id="Path_15755" data-name="Path 15755" d="M661.025,348.125c10.547,0,21.091-.023,31.635,0v1.36c-3.1.108-6.7-.247-9.169,2.02-1.482,1.657-1.27,4.069-1.453,6.15,0,12.206-.026,24.413,0,36.619.189,1.744-.02,3.645.936,5.2a6.585,6.585,0,0,0,3.2,1.851,21.555,21.555,0,0,0,6.507.631c-.015.453-.026.913-.035,1.372H661.037v-1.392c2.834-.026,5.935.2,8.428-1.4,1.863-1.1,1.976-3.531,2.078-5.452q.02-19.449,0-38.892c-.079-1.744-.064-3.88-1.665-4.97-2.572-1.77-5.853-1.7-8.847-1.744C661.01,349.037,661.01,348.581,661.025,348.125Z" transform="translate(-371.869 -187.347)" fill="#d38d2a"/>
    <path id="Path_15756" data-name="Path 15756" d="M404.155,395.147c10.532-.015,21.065.023,31.6-.017,0,.4.023.79.038,1.189-2.935.049-6.054-.2-8.754,1.163a2.924,2.924,0,0,0-1.482,1.816c-.753,2.7-.137,5.522-.4,8.263,0,1.648.163,3.3.02,4.941-.227,3,.218,6.007-.035,9.009-.076,1.453.119,2.906,0,4.359a33.53,33.53,0,0,0,.355,5.813,2.671,2.671,0,0,0,1.691,1.779c2.712,1.139,5.705,1.116,8.594,1.1,0,.387-.017.773-.023,1.163-10.535-.032-21.071,0-31.606,0V434.56c2.941-.061,6.074.2,8.78-1.163,1.439-.744,1.715-2.537,1.726-4V401.166c-.015-1.319-.235-2.947-1.572-3.581-2.77-1.334-5.929-1.285-8.934-1.282C404.152,395.926,404.152,395.537,404.155,395.147Z" transform="translate(-189.659 -220.699)" fill="#d38d2a"/>
    <path id="Path_15757" data-name="Path 15757" d="M267.251,711.47a12.187,12.187,0,0,1,12.642-3.918,25.459,25.459,0,0,0,3.043.93c.744,0,1.043-.776,1.378-1.308l.607-.049c.16,2.831.465,5.656.517,8.492l-.561-.247a11.786,11.786,0,0,0-2.985-5.231,7.95,7.95,0,0,0-10.143.038,10.96,10.96,0,0,0-3.049,6.176,21.266,21.266,0,0,0,.093,7.623,9.306,9.306,0,0,0,2.764,4.964,9.1,9.1,0,0,0,9.326,1.386c1.979-.837,3.261-2.633,4.63-4.2l.48.4a11.713,11.713,0,0,1-5.734,5.432,13,13,0,0,1-7.774.273,11.024,11.024,0,0,1-7.19-6.568A14.393,14.393,0,0,1,267.251,711.47Z" transform="translate(-90.417 -442.009)" fill="#d38d2a"/>
    <path id="Path_15758" data-name="Path 15758" d="M425.339,707.239l.654-.029c2.906,7.147,5.879,14.27,8.821,21.4.552,1.189,1.189,2.645,2.616,2.941.416.195,1.116.061,1.215.666-3.2.073-6.411.023-9.617.029v-.442c.985-.084,2.456-.4,2.383-1.674-.291-2.1-1.4-3.976-2.122-5.952h-9.355c-.66,1.668-1.453,3.275-2.034,4.981a1.78,1.78,0,0,0,.218,1.93,5.4,5.4,0,0,0,2.514.741l-.273.387c-6.359.076-12.724.015-19.086.032l-.038-.427c.668-.1,1.52-.2,1.825-.916.5-.747-.18-1.558-.683-2.087-2.906-2.906-5.763-5.876-8.719-8.742q-.026,4,0,8a7.825,7.825,0,0,0,.314,2.531c.636,1.058,2,1.2,3.116,1.221v.419H386.764l-.029-.419c.9-.1,1.956.038,2.688-.616a3.457,3.457,0,0,0,.756-2.572V711.206c-.038-.872.017-1.962-.817-2.488a4.776,4.776,0,0,0-2.752-.6l.25-.387c3.447-.1,6.905-.055,10.355-.017-.34.872-1.485.238-2.145.683a2.227,2.227,0,0,0-1.36,2.267c-.119,2.906-.049,5.85-.041,8.777,2.528-2.395,5.17-4.679,7.521-7.266.753-.872,1.726-1.793,1.744-3.037-.212-.956-1.27-.95-2.034-1.023-.073-.1-.215-.308-.291-.413,3.04-.055,6.083-.049,9.123,0-.227.66-1.046.465-1.561.718-2.02.811-3.517,2.473-5.008,3.993-1.965,2.133-4.092,4.115-6.031,6.272,2.194,2.058,4.211,4.293,6.362,6.394,2.005,1.979,3.842,4.188,6.263,5.682,1.334.753,3.025,1.4,4.5.619,1.075-.491,1.52-1.706,2.034-2.691Q420.817,717.969,425.339,707.239Zm-4.9,15.735q4.211.029,8.428,0c-1.453-3.217-2.746-6.5-4.165-9.724C423.238,716.472,421.889,719.748,420.436,722.974Z" transform="translate(-177.214 -442.079)" fill="#d38d2a"/>
    <path id="Path_15759" data-name="Path 15759" d="M604.894,707.463c.055-.416.814-.561.872-.07,2.906,6.975,5.775,14,8.672,20.989a7.187,7.187,0,0,0,1.587,2.537,4.667,4.667,0,0,0,2.226.814l-.02.427h-9.57l-.029-.433c.756-.145,1.694-.142,2.209-.82.45-.622.171-1.433,0-2.1-.529-1.619-1.235-3.171-1.907-4.731-3.1.038-6.2.017-9.3,0a41.548,41.548,0,0,0-2.325,5.993c.261,1.328,1.68,1.453,2.761,1.674l.221.421c-4.749.078-9.5.044-14.241.017-2.68-3.871-5.475-7.661-8.138-11.55-.808-.026-1.613-.032-2.415-.032-.023,2.712-.029,5.423,0,8.138.076.825.064,1.825.77,2.4a4.3,4.3,0,0,0,2.639.6v.419c-3.034.023-6.068,0-9.1.017-.5-.029-1.1.1-1.476-.32,1.07-.235,2.43-.041,3.15-1.055A5.406,5.406,0,0,0,572,728V711.71a5.557,5.557,0,0,0-.529-2.793c-.706-.927-1.968-.84-3.008-.837.035-.125.1-.375.131-.5,3.61.046,7.219-.02,10.829.032a12.48,12.48,0,0,1,4.624.907,5.917,5.917,0,0,1,3.363,4.941,5.69,5.69,0,0,1-2.616,5.077,10.439,10.439,0,0,1-3.418,1.343c1.389,2.25,3.014,4.342,4.5,6.53,1.163,1.6,2.191,3.458,3.967,4.479,1.163.538,2.526,1.055,3.778.517,1.282-.387,1.776-1.773,2.325-2.854Q600.448,718.016,604.894,707.463Zm-29.354,1.927c-.07,3.342,0,6.684-.032,10.03,2.159.078,4.543-.134,6.234-1.628,2.485-2.191,2.1-6.807-.857-8.4-1.671-.953-3.642-.607-5.359-.006Zm24.59,13.488c2.79.035,5.58.02,8.37,0-1.308-3.258-2.758-6.458-4.069-9.713-1.569,3.194-2.831,6.5-4.316,9.713Z" transform="translate(-306.121 -441.99)" fill="#d38d2a"/>
    <path id="Path_15760" data-name="Path 15760" d="M843.322,708.372a13.647,13.647,0,0,1,7.754-1.075c1.584.218,3.04.956,4.612,1.215.729,0,.805-.721.9-1.29.235-.015.477-.023.721-.029.177,2.572.427,5.138.581,7.71l-.668-.163a10.852,10.852,0,0,0-2.813-4.592,8.5,8.5,0,0,0-8.847-1c-2.581,1.194-4.107,3.862-4.813,6.516a15.693,15.693,0,0,0,1.349,11.178,8.75,8.75,0,0,0,4.624,4.109,9.419,9.419,0,0,0,7.745-.735,93.663,93.663,0,0,0-.151-9.434c-.328-1.319-1.744-1.476-2.877-1.622l-.273-.323c3.162-.122,6.33-.032,9.495-.049v.41c-.706.1-1.569.064-2.034.706a5.338,5.338,0,0,0-.639,2.906c-.073,2.616,0,5.2-.032,7.806a17.8,17.8,0,0,1-12.055,1.744,11.686,11.686,0,0,1-7.1-4.3,12.622,12.622,0,0,1-2.4-10.221A13.722,13.722,0,0,1,843.322,708.372Z" transform="translate(-496.104 -442.047)" fill="#d38d2a"/>
    <path id="Path_15761" data-name="Path 15761" d="M346.387,709.278c-.017-.387.163-.546.538-.482,3.258,0,6.525-.073,9.783.044.023.11.067.331.09.442a4.062,4.062,0,0,0-2.528.453c-.849.567-.872,1.688-.872,2.616.017,6.1-.026,12.206.02,18.31a2.167,2.167,0,0,0,2.223,2.2c.416.137,1.11-.1,1.247.488-3.429.044-6.868.067-10.3,0l-.291-.366c1.2-.047,2.8-.064,3.334-1.389a24.018,24.018,0,0,0,.291-5.025v-12.77a19.229,19.229,0,0,0-.291-3.243C349.032,709.356,347.561,709.205,346.387,709.278Z" transform="translate(-148.62 -443.188)" fill="#d38d2a"/>
    <path id="Path_15762" data-name="Path 15762" d="M739.179,708.824c2.145,0,4.29-.015,6.437,0q7.359,9.2,14.787,18.35c.029-4.941,0-9.881,0-14.822-.035-.9,0-2.017-.849-2.578a3.932,3.932,0,0,0-2.491-.453c0-.122-.026-.366-.038-.488,2.863,0,5.722-.044,8.585.023-.349.872-1.5.23-2.165.66-1.2.448-1.351,1.854-1.369,2.962-.064,7.147.032,14.3-.049,21.443a1.418,1.418,0,0,1-1.04-.561c-5.141-6.344-10.268-12.7-15.444-19.013-.055,4.856,0,9.716-.026,14.575a6.765,6.765,0,0,0,.494,3.11c.654.959,1.924.872,2.944.945l.017.421c-2.467.017-4.941,0-7.4,0-.433-.041-1,.119-1.2-.389,1.069-.131,2.412,0,3.1-1.029a6.867,6.867,0,0,0,.482-3.063c-.023-5.443.032-10.893-.026-16.336a5.008,5.008,0,0,0-4.755-3.066C739.182,709.347,739.179,709,739.179,708.824Z" transform="translate(-427.31 -443.22)" fill="#d38d2a"/>
  </g>
</svg>
