<svg id="handshake" xmlns="http://www.w3.org/2000/svg" width="99.067" height="84.192" viewBox="0 0 99.067 84.192">
  <g id="Group_398" data-name="Group 398" transform="translate(0 4.284)">
    <g id="Group_397" data-name="Group 397">
      <path id="Path_15542" data-name="Path 15542" d="M98.752,104.926a1.454,1.454,0,0,0-2.043-.236l-2.852,2.262L70.8,76.685l13.179-8.458a1.454,1.454,0,0,0-1.571-2.447l-14.5,9.31a1.469,1.469,0,0,0-.372,2.1l2.64,3.466L68.3,82.1l-7.452-2.462a1.484,1.484,0,0,0-.456-.073H43.329a1.454,1.454,0,0,0-1.411,1.1l-.96,3.84-2.423-1.02a1.455,1.455,0,0,0-.733-.1l-6.741.789-2.29-1.33,2.178-3.773a1.469,1.469,0,0,0-.532-1.986L2.181,60.776A1.454,1.454,0,0,0,.727,63.294L22.856,76.07l-19.1,33.08-1.577-.91a1.454,1.454,0,0,0-1.454,2.518l7.684,4.436a1.468,1.468,0,0,0,1.986-.532l1.112-1.926,3.137,1.673a6.107,6.107,0,0,0,7.309,8.614,5.963,5.963,0,0,0,1.2,3.589,6.154,6.154,0,0,0,6.743,2.137,6.1,6.1,0,0,0,5.135,5.939,6.174,6.174,0,0,0,.98.079,6.044,6.044,0,0,0,1.849-.29A6.107,6.107,0,0,0,43,140.41a6.172,6.172,0,0,0,.98.078,6.06,6.06,0,0,0,3.567-1.161l3.392-2.455A6.083,6.083,0,0,0,52.7,134.9l5.968,3.253a6.107,6.107,0,0,0,8.991-6.043,6.1,6.1,0,0,0,7.174-6.686,6.107,6.107,0,0,0,7.181-6.683,6.025,6.025,0,0,0,1.1.1,6.131,6.131,0,0,0,1.733-.252,6.107,6.107,0,0,0,4.133-7.583,6.179,6.179,0,0,0-.431-1.077l2.55-1.81,1.347,1.769a1.469,1.469,0,0,0,2.06.258l4.014-3.183A1.454,1.454,0,0,0,98.752,104.926ZM8.606,111.949,6.276,110.6l19.1-33.08,2.33,1.345Zm13.335,7.86a3.2,3.2,0,1,1-3.75-5.183l10.286-7.442a3.2,3.2,0,0,1,3.751,5.183Zm7.968,5.721a3.214,3.214,0,0,1-4.43-.666,3.307,3.307,0,0,1,.764-4.578l7.688-5.563a5.236,5.236,0,0,1,.852-.516,3.18,3.18,0,0,1,3.776,1,3.228,3.228,0,0,1-.661,4.539Zm7.968,5.721a3.2,3.2,0,0,1-3.752-5.182L39.6,122.1l.214-.155a3.183,3.183,0,0,1,4.412.643,3.228,3.228,0,0,1-.662,4.54Zm12.65,1.136a3.172,3.172,0,0,1-1.29,2.13l-3.392,2.455a3.2,3.2,0,0,1-3.75-5.183l3.177-2.3.215-.156a3.217,3.217,0,0,1,4.412.643A3.172,3.172,0,0,1,50.527,132.387Zm35.4-18.118a3.229,3.229,0,0,1-4.34,1.278l-16.81-9.163a1.454,1.454,0,0,0-1.392,2.553l14.087,7.678a3.2,3.2,0,1,1-3.062,5.617l-14.293-7.791a1.454,1.454,0,0,0-1.392,2.553L70.3,123.3a3.2,3.2,0,0,1-3.064,5.616l-12.115-6.6a1.454,1.454,0,0,0-1.392,2.553l9.392,5.119a3.2,3.2,0,1,1-3.062,5.617l-6.588-3.591a6.125,6.125,0,0,0-5.8-6.2c.027-.129.052-.259.071-.391a6.124,6.124,0,0,0-5.742-6.992c.027-.129.052-.259.071-.391a6.124,6.124,0,0,0-5.742-6.992c.027-.129.052-.259.071-.391a6.107,6.107,0,0,0-9.623-5.828l-10.147,7.341-3.661-1.953L27.317,85.355l2.7,1.569a1.457,1.457,0,0,0,.9.187l6.841-.8,2.485,1.046-1.428,5.713a1.464,1.464,0,0,0-.043.353V105.83a7.658,7.658,0,1,0,15.315,0V93.839l.264-.423,30.295,16.512A3.229,3.229,0,0,1,85.926,114.268Zm.694-6.533a6.219,6.219,0,0,0-.58-.36L55.9,90.946l1.118-1.789a1.454,1.454,0,0,0-2.466-1.541L51.4,92.652a1.456,1.456,0,0,0-.221.771V105.83a4.75,4.75,0,1,1-9.5,0V93.6l2.783-11.132H60.156l7.96,2.63a1.465,1.465,0,0,0,1.34-.226l2.482-1.9,17.394,22.838Z" transform="translate(0 -60.58)" fill="#fff"/>
    </g>
  </g>
  <g id="Group_400" data-name="Group 400" transform="translate(88.012 0)">
    <g id="Group_399" data-name="Group 399">
      <path id="Path_15543" data-name="Path 15543" d="M465.693,39.108a1.454,1.454,0,0,0-2.009-.438L455.538,43.9a1.454,1.454,0,1,0,1.571,2.447l8.146-5.228A1.455,1.455,0,0,0,465.693,39.108Z" transform="translate(-454.869 -38.439)" fill="#fff"/>
    </g>
  </g>
</svg>
