<svg xmlns="http://www.w3.org/2000/svg" width="76.759" height="76.622" viewBox="0 0 76.759 76.622">
  <g id="data" transform="translate(0)">
    <g id="Group_380" data-name="Group 380" transform="translate(43.471 3.748)">
      <g id="Group_379" data-name="Group 379" transform="translate(0 0)">
        <ellipse id="Ellipse_14" data-name="Ellipse 14" cx="2.249" cy="2.623" rx="2.249" ry="2.623" fill="#fff"/>
      </g>
    </g>
    <g id="Group_382" data-name="Group 382" transform="translate(5.117 5.117)">
      <g id="Group_381" data-name="Group 381">
        <path id="Path_15535" data-name="Path 15535" d="M58.866,32.428H33.279a1.279,1.279,0,1,0,0,2.559H58.866a1.279,1.279,0,0,0,0-2.559Z" transform="translate(-32 -32.428)" fill="#fff"/>
      </g>
    </g>
    <g id="Group_384" data-name="Group 384" transform="translate(35.821 5.117)">
      <g id="Group_383" data-name="Group 383">
        <path id="Path_15536" data-name="Path 15536" d="M229.117,32.428h-3.838a1.279,1.279,0,0,0,0,2.559h3.838a1.279,1.279,0,1,0,0-2.559Z" transform="translate(-224 -32.428)" fill="#fff"/>
      </g>
    </g>
    <g id="Group_386" data-name="Group 386" transform="translate(43.471 19.487)">
      <g id="Group_385" data-name="Group 385" transform="translate(0 0)">
        <ellipse id="Ellipse_15" data-name="Ellipse 15" cx="2.249" cy="2.249" rx="2.249" ry="2.249" transform="translate(0 0)" fill="#fff"/>
      </g>
    </g>
    <g id="Group_388" data-name="Group 388" transform="translate(5.117 20.469)">
      <g id="Group_387" data-name="Group 387">
        <path id="Path_15537" data-name="Path 15537" d="M58.866,128.428H33.279a1.279,1.279,0,1,0,0,2.559H58.866a1.279,1.279,0,1,0,0-2.559Z" transform="translate(-32 -128.428)" fill="#fff"/>
      </g>
    </g>
    <g id="Group_390" data-name="Group 390" transform="translate(35.821 20.469)">
      <g id="Group_389" data-name="Group 389">
        <path id="Path_15538" data-name="Path 15538" d="M229.117,128.428h-3.838a1.279,1.279,0,0,0,0,2.559h3.838a1.279,1.279,0,1,0,0-2.559Z" transform="translate(-224 -128.428)" fill="#fff"/>
      </g>
    </g>
    <g id="Group_392" data-name="Group 392" transform="translate(5.117 35.821)">
      <g id="Group_391" data-name="Group 391">
        <path id="Path_15539" data-name="Path 15539" d="M58.866,224.428H33.279a1.279,1.279,0,1,0,0,2.559H58.866a1.279,1.279,0,1,0,0-2.559Z" transform="translate(-32 -224.428)" fill="#fff"/>
      </g>
    </g>
    <g id="Group_394" data-name="Group 394" transform="translate(5.117 51.173)">
      <g id="Group_393" data-name="Group 393">
        <path id="Path_15540" data-name="Path 15540" d="M58.866,320.428H33.279a1.279,1.279,0,1,0,0,2.559H58.866a1.279,1.279,0,1,0,0-2.559Z" transform="translate(-32 -320.428)" fill="#fff"/>
      </g>
    </g>
    <g id="Group_396" data-name="Group 396" transform="translate(0 0)">
      <g id="Group_395" data-name="Group 395">
        <path id="Path_15541" data-name="Path 15541" d="M76.759,35.609c0-2.345-2.577-4.119-6.4-5.3V6.825a1.279,1.279,0,0,0-1.279-1.279H53.731V4.266A3.838,3.838,0,0,0,49.893.428H3.838A3.838,3.838,0,0,0,0,4.266V9.383a3.838,3.838,0,0,0,3.838,3.838H6.4V15.78H3.838A3.838,3.838,0,0,0,0,19.618v5.117a3.838,3.838,0,0,0,3.838,3.838H6.4v2.559H3.838A3.838,3.838,0,0,0,0,34.97v5.117a3.838,3.838,0,0,0,3.838,3.838H6.4v2.559H3.838A3.838,3.838,0,0,0,0,50.321v5.117a3.838,3.838,0,0,0,3.838,3.838H6.4v7.676a1.279,1.279,0,0,0,1.279,1.279H37.1V70.1c0,4.559,9.979,6.945,19.829,6.945S76.759,74.664,76.759,70.1V59.277h-.095a3,3,0,0,0,.095-.686V47.763h-.095a3,3,0,0,0,.095-.686V36.249h-.087A3.126,3.126,0,0,0,76.759,35.609ZM3.838,10.663A1.279,1.279,0,0,1,2.559,9.383V4.266A1.279,1.279,0,0,1,3.838,2.987H49.893a1.279,1.279,0,0,1,1.279,1.279V9.383a1.279,1.279,0,0,1-1.279,1.279Zm40.938,2.559V15.78H8.955V13.221ZM3.838,26.014a1.279,1.279,0,0,1-1.279-1.279V19.618a1.279,1.279,0,0,1,1.279-1.279H49.893a1.279,1.279,0,0,1,1.279,1.279v5.117a1.279,1.279,0,0,1-1.279,1.279ZM37.1,35.609a3.126,3.126,0,0,0,.087.64H37.1V47.077a3,3,0,0,0,.095.686H37.1V58.591a3,3,0,0,0,.095.686H37.1v6.4H8.955v-6.4H33.262a1.279,1.279,0,1,0,0-2.559H3.838a1.279,1.279,0,0,1-1.279-1.279V50.321a1.279,1.279,0,0,1,1.279-1.279H33.262a1.279,1.279,0,1,0,0-2.559H8.955V43.925H33.262a1.279,1.279,0,1,0,0-2.559H3.838a1.279,1.279,0,0,1-1.279-1.279V34.97A1.279,1.279,0,0,1,3.838,33.69H33.262a1.279,1.279,0,1,0,0-2.559H8.955V28.573H49.893a3.838,3.838,0,0,0,3.838-3.838V19.618a3.838,3.838,0,0,0-3.838-3.838H47.335V13.221h2.559a3.838,3.838,0,0,0,3.838-3.838V8.1H67.8v21.54A52.637,52.637,0,0,0,56.93,28.573C47.079,28.573,37.1,30.991,37.1,35.609ZM74.2,70.1c0,1.489-6.1,4.387-17.271,4.387s-17.271-2.9-17.271-4.387V62.183c3.592,2.211,10.458,3.353,17.271,3.353S70.608,64.394,74.2,62.183Zm0-11.514c0,1.489-6.1,4.387-17.271,4.387s-17.271-2.9-17.271-4.387V50.669c3.592,2.211,10.458,3.353,17.271,3.353S70.608,52.88,74.2,50.669Zm0-11.514c0,1.489-6.1,4.387-17.271,4.387s-17.271-2.9-17.271-4.387V39.249c3.592,2.245,10.458,3.4,17.271,3.4s13.678-1.151,17.271-3.4ZM56.93,40.087c-11.175,0-17.271-2.958-17.271-4.478s6.1-4.478,17.271-4.478S74.2,34.091,74.2,35.609,68.1,40.087,56.93,40.087Z" transform="translate(0 -0.428)" fill="#fff"/>
      </g>
    </g>
  </g>
</svg>
