<svg id="Social_integration" data-name="Social integration" xmlns="http://www.w3.org/2000/svg" width="84.192" height="84.192" viewBox="0 0 84.192 84.192">
  <path id="Path_15562" data-name="Path 15562" d="M11.613,50a5.613,5.613,0,1,0,5.613,5.613A5.613,5.613,0,0,0,11.613,50Zm0,8.419a2.806,2.806,0,1,1,2.806-2.806A2.806,2.806,0,0,1,11.613,58.419Z" transform="translate(-0.387 17.353)" fill="#fff"/>
  <path id="Path_15563" data-name="Path 15563" d="M83.342,47.08a6.995,6.995,0,0,0-4.166-12.629H55.508L56.934,23.04A9.822,9.822,0,0,0,47.183,12H46.57a4.21,4.21,0,0,0-4.177,3.688l-.657,5.242A15.459,15.459,0,0,1,26.424,34.451H24.451v-4.21a1.4,1.4,0,0,0-1.4-1.4H3.4a1.4,1.4,0,0,0-1.4,1.4V80.756a1.4,1.4,0,0,0,1.4,1.4H23.048a1.4,1.4,0,0,0,1.4-1.4v-3.72c.038,0,.074.02.112.022A5.51,5.51,0,0,1,27.284,78,23.764,23.764,0,0,0,40.741,82.16H72.16a7.024,7.024,0,0,0,7.016-7.016,6.942,6.942,0,0,0-1.544-4.337,6.97,6.97,0,0,0,3.944-11.548A6.967,6.967,0,0,0,83.342,47.08Zm.043-5.613a4.21,4.21,0,0,1-4.21,4.21H67.95a4.21,4.21,0,0,1,0-8.419H79.176A4.21,4.21,0,0,1,83.385,41.467ZM21.645,79.353H4.806V31.645H21.645Zm7.222-3.669a8.32,8.32,0,0,0-3.929-1.4l-.487-.161V37.257h1.973a18.27,18.27,0,0,0,18.1-15.98l.655-5.242a1.4,1.4,0,0,1,1.393-1.229h.609a7.016,7.016,0,0,1,6.963,7.886l-1.616,12.96-1.123,6.174a9.822,9.822,0,0,1-9.664,8.06H39.886a1.4,1.4,0,0,0,0,2.806h1.856a12.629,12.629,0,0,0,12.425-10.37l.92-5.065h7.285a6.921,6.921,0,0,0,1.4,9.822,6.93,6.93,0,0,0-1.04,10.273,6.937,6.937,0,0,0-3.072,10.9,7.016,7.016,0,0,0-5.747,6.888,6.943,6.943,0,0,0,1.44,4.21H40.741a20.958,20.958,0,0,1-11.874-3.669ZM72.16,79.353H60.934a4.21,4.21,0,1,1,0-8.419H72.16a4.21,4.21,0,1,1,0,8.419Zm4.21-11.226H65.144a4.21,4.21,0,1,1,0-8.419H76.369a4.21,4.21,0,1,1,0,8.419ZM79.176,56.9H67.95a4.21,4.21,0,0,1,0-8.419H79.176a4.21,4.21,0,1,1,0,8.419Z" transform="translate(-2 2.032)" fill="#fff"/>
  <path id="Path_15564" data-name="Path 15564" d="M35.4,13.226a1.4,1.4,0,0,0,1.4-1.4V3.4A1.4,1.4,0,1,0,34,3.4v8.419A1.4,1.4,0,0,0,35.4,13.226Z" transform="translate(10.902 -2)" fill="#fff"/>
  <path id="Path_15565" data-name="Path 15565" d="M28.344,15.328a1.4,1.4,0,1,0,1.984-1.984L24.376,7.39A1.4,1.4,0,0,0,22.39,9.374Z" transform="translate(6.056 0.007)" fill="#fff"/>
  <path id="Path_15566" data-name="Path 15566" d="M18.4,21.806h8.419a1.4,1.4,0,1,0,0-2.806H18.4a1.4,1.4,0,0,0,0,2.806Z" transform="translate(4.048 4.854)" fill="#fff"/>
  <path id="Path_15567" data-name="Path 15567" d="M43.181,15.739a1.4,1.4,0,0,0,.992-.411l5.954-5.954A1.4,1.4,0,1,0,48.141,7.39l-5.952,5.954a1.4,1.4,0,0,0,.992,2.4Z" transform="translate(14.038 0.007)" fill="#fff"/>
  <path id="Path_15568" data-name="Path 15568" d="M45,20.4a1.4,1.4,0,0,0,1.4,1.4h8.419a1.4,1.4,0,1,0,0-2.806H46.4A1.4,1.4,0,0,0,45,20.4Z" transform="translate(15.337 4.854)" fill="#fff"/>
</svg>
