<svg id="happiness" xmlns="http://www.w3.org/2000/svg" width="76.603" height="76.622" viewBox="0 0 76.603 76.622">
  <path id="Path_15544" data-name="Path 15544" d="M312.258,96.809a5.791,5.791,0,0,0-5.784,5.785V116.5A16.433,16.433,0,0,1,305,123.3a5.566,5.566,0,0,0-8.779-1.273l-7.849,7.72a14.974,14.974,0,0,0-4.446,10.611v16.972a1.5,1.5,0,0,0,2.992,0V140.362a11.961,11.961,0,0,1,3.553-8.477l7.849-7.72a2.579,2.579,0,0,1,3.295-.27,2.581,2.581,0,0,1,.441,3.825l-7.762,8.717a1.5,1.5,0,0,0,2.235,1.99l7.762-8.717,0,0a19.4,19.4,0,0,0,5.169-13.206V102.594a2.792,2.792,0,1,1,5.585,0v19.414a35.29,35.29,0,0,1-4.78,17.723l-6.857,11.789a1.5,1.5,0,1,0,2.587,1.5l6.857-11.789a38.282,38.282,0,0,0,5.185-19.227V102.594a5.791,5.791,0,0,0-5.784-5.785Zm0,0" transform="translate(-241.439 -82.321)" fill="#fff"/>
  <path id="Path_15545" data-name="Path 15545" d="M394.148,492a1.5,1.5,0,1,0,1.057.438A1.509,1.509,0,0,0,394.148,492Zm0,0" transform="translate(-333.89 -418.371)" fill="#fff"/>
  <path id="Path_15546" data-name="Path 15546" d="M21.817,122.032a5.567,5.567,0,0,0-8.779,1.273,16.439,16.439,0,0,1-1.468-6.8V102.594a5.785,5.785,0,1,0-11.569,0v4.339a1.5,1.5,0,1,0,2.992,0v-4.339a2.792,2.792,0,1,1,5.585,0V116.5a19.4,19.4,0,0,0,5.169,13.206l0,0,7.762,8.717a1.5,1.5,0,0,0,2.235-1.99l-7.762-8.717a2.58,2.58,0,0,1,.441-3.824,2.579,2.579,0,0,1,3.295.269l7.849,7.72a11.964,11.964,0,0,1,3.553,8.478v16.972a1.5,1.5,0,0,0,2.992,0V140.362a14.973,14.973,0,0,0-4.447-10.611Zm0,0" transform="translate(0 -82.321)" fill="#fff"/>
  <path id="Path_15547" data-name="Path 15547" d="M1.5,197.445a1.5,1.5,0,1,0-1.5-1.5,1.5,1.5,0,0,0,1.5,1.5Zm0,0" transform="translate(0 -165.352)" fill="#fff"/>
  <path id="Path_15548" data-name="Path 15548" d="M7.772,256.766a35.286,35.286,0,0,1-4.78-17.723v-3.106a1.5,1.5,0,0,0-2.992,0v3.106A38.283,38.283,0,0,0,5.185,258.27l9.867,16.964a1.5,1.5,0,1,0,2.587-1.5Zm0,0" transform="translate(0 -199.356)" fill="#fff"/>
  <path id="Path_15549" data-name="Path 15549" d="M162.723,19.909a19.908,19.908,0,1,0-19.908,19.908,19.931,19.931,0,0,0,19.908-19.908ZM142.815,36.825a16.916,16.916,0,1,1,16.916-16.916,16.935,16.935,0,0,1-16.916,16.916Zm0,0" transform="translate(-104.514)" fill="#fff"/>
  <path id="Path_15550" data-name="Path 15550" d="M200.1,93.521a1.5,1.5,0,0,0,1.5-1.5,3.056,3.056,0,1,0-6.111,0,1.5,1.5,0,1,0,2.992,0,.064.064,0,0,1,.127,0A1.5,1.5,0,0,0,200.1,93.521Zm0,0" transform="translate(-166.226 -75.655)" fill="#fff"/>
  <path id="Path_15551" data-name="Path 15551" d="M282.083,88.969a3.059,3.059,0,0,0-3.056,3.056,1.5,1.5,0,1,0,2.992,0,.063.063,0,1,1,.127,0,1.5,1.5,0,1,0,2.992,0A3.059,3.059,0,0,0,282.083,88.969Zm0,0" transform="translate(-237.27 -75.654)" fill="#fff"/>
  <path id="Path_15552" data-name="Path 15552" d="M228.027,151.4a1.5,1.5,0,0,0-1.5,1.5,3.019,3.019,0,1,1-6.039,0,1.5,1.5,0,1,0-2.992,0,6.012,6.012,0,0,0,12.024,0A1.5,1.5,0,0,0,228.027,151.4Zm0,0" transform="translate(-184.951 -128.744)" fill="#fff"/>
</svg>
