<svg id="integrity" xmlns="http://www.w3.org/2000/svg" width="86.939" height="99.066" viewBox="0 0 86.939 99.066">
  <g id="Group_401" data-name="Group 401" transform="translate(0)">
    <path id="Path_15553" data-name="Path 15553" d="M158.812,157.837a1.451,1.451,0,0,0-2.052,0l-10.011,10.011L126.33,147.429a9.865,9.865,0,0,1,13.952-13.952l5.44,5.44a1.451,1.451,0,0,0,2.052,0l5.44-5.44a9.865,9.865,0,1,1,13.952,13.952l-5.619,5.619A1.451,1.451,0,0,0,163.6,155.1l5.619-5.619a12.768,12.768,0,1,0-18.057-18.056l-4.414,4.414-4.414-4.414a12.768,12.768,0,1,0-18.056,18.056l20.76,20.761a2.419,2.419,0,0,0,3.421,0l10.353-10.353A1.451,1.451,0,0,0,158.812,157.837Z" transform="translate(-103.279 -102.985)" fill="#fff"/>
    <path id="Path_15554" data-name="Path 15554" d="M249.951,10.113A1.451,1.451,0,0,0,251.4,8.662V1.451a1.451,1.451,0,1,0-2.9,0v7.21A1.451,1.451,0,0,0,249.951,10.113Z" transform="translate(-206.482)" fill="#fff"/>
    <path id="Path_15555" data-name="Path 15555" d="M376.433,71.306a1.447,1.447,0,0,0,1.026-.425l5.1-5.1a1.451,1.451,0,1,0-2.052-2.052l-5.1,5.1a1.451,1.451,0,0,0,1.026,2.477Z" transform="translate(-308.491 -51.056)" fill="#fff"/>
    <path id="Path_15556" data-name="Path 15556" d="M428.823,219.039h7.211a1.451,1.451,0,1,0,0-2.9h-7.211a1.451,1.451,0,1,0,0,2.9Z" transform="translate(-350.744 -174.317)" fill="#fff"/>
    <path id="Path_15557" data-name="Path 15557" d="M249.951,395.009a1.451,1.451,0,0,0-1.451,1.451v7.21a1.451,1.451,0,1,0,2.9,0v-7.21A1.451,1.451,0,0,0,249.951,395.009Z" transform="translate(-206.482 -318.579)" fill="#fff"/>
    <path id="Path_15558" data-name="Path 15558" d="M33.814,219.039h7.21a1.451,1.451,0,1,0,0-2.9h-7.21a1.451,1.451,0,1,0,0,2.9Z" transform="translate(-32.165 -174.317)" fill="#fff"/>
    <path id="Path_15559" data-name="Path 15559" d="M101.192,70.881a1.451,1.451,0,0,0,2.052-2.052l-5.1-5.1a1.451,1.451,0,0,0-2.052,2.052Z" transform="translate(-83.221 -51.056)" fill="#fff"/>
    <path id="Path_15560" data-name="Path 15560" d="M61.15,288.05a4.321,4.321,0,0,0-3.076,1.274l-.649.649v-7.756a1.451,1.451,0,1,0-2.9,0v10.659l-.778.778H51.766a9.619,9.619,0,0,0-9.608,9.608,1.451,1.451,0,1,0,2.9,0,6.713,6.713,0,0,1,6.706-6.706h2.58a1.451,1.451,0,0,0,1.026-.425l4.754-4.754a1.447,1.447,0,0,1,2.046,2.046l-8.551,8.551a1.457,1.457,0,0,0-.258.351,10.141,10.141,0,0,1-19.122-4.709V274.627a1.447,1.447,0,1,1,2.894,0v14.3a1.451,1.451,0,0,0,1.451,1.451H50.179a1.451,1.451,0,0,0,1.451-1.451V272.695a1.447,1.447,0,0,1,2.894,0v2.75a1.451,1.451,0,0,0,2.9,0v-2.75a4.348,4.348,0,0,0-5.8-4.1v-1.889a4.349,4.349,0,0,0-8.692-.234,4.347,4.347,0,0,0-5.8,4.056,4.348,4.348,0,0,0-5.8,4.1v22.989a13.043,13.043,0,0,0,24.487,6.259l8.4-8.4a4.349,4.349,0,0,0-3.075-7.425ZM45.834,266.705a1.447,1.447,0,1,1,2.894,0v20.767H45.834Zm-5.8,3.864a1.447,1.447,0,0,1,2.894,0v16.9H40.038Z" transform="translate(-31.339 -211.593)" fill="#fff"/>
    <path id="Path_15561" data-name="Path 15561" d="M336.827,279.024a1.451,1.451,0,0,0,1.451-1.451v-2.946a4.347,4.347,0,0,0-5.8-4.1,4.347,4.347,0,0,0-5.8-4.056,4.349,4.349,0,0,0-8.692.234v1.888a4.348,4.348,0,0,0-5.8,4.1v17.278l-.649-.649a4.349,4.349,0,0,0-6.151,6.151l8.4,8.4a13.043,13.043,0,0,0,24.487-6.258V284.345a1.451,1.451,0,0,0-2.9,0v13.271a10.141,10.141,0,0,1-19.122,4.709,1.457,1.457,0,0,0-.258-.351l-8.551-8.551a1.447,1.447,0,1,1,2.046-2.046l4.754,4.754a1.451,1.451,0,0,0,1.026.425h2.58a6.713,6.713,0,0,1,6.706,6.706,1.451,1.451,0,1,0,2.9,0,9.619,9.619,0,0,0-9.608-9.608h-1.979l-.779-.779c0-.005,0-.011,0-.016V272.695a1.447,1.447,0,0,1,2.894,0v16.229a1.451,1.451,0,0,0,1.451,1.451h11.592a1.451,1.451,0,0,0,1.451-1.451v-14.3a1.447,1.447,0,1,1,2.894,0v2.946A1.451,1.451,0,0,0,336.827,279.024Zm-13.043-8.454v16.9H320.89V266.705a1.447,1.447,0,0,1,2.894,0v3.864Zm5.8,16.9h-2.894v-16.9a1.447,1.447,0,0,1,2.894,0v16.9Z" transform="translate(-251.34 -211.593)" fill="#fff"/>
  </g>
</svg>
