<svg xmlns="http://www.w3.org/2000/svg" width="79.846" height="90.95" viewBox="0 0 79.846 90.95">
  <path id="XMLID_45_" d="M72.107,8.977a1.958,1.958,0,0,1,1.958-1.958h.466a1.958,1.958,0,1,1,0,3.917h-.466A1.958,1.958,0,0,1,72.107,8.977Zm2.7,45.526a1.958,1.958,0,0,0,1.958,1.958h.466a1.958,1.958,0,0,0,0-3.917h-.466A1.958,1.958,0,0,0,74.809,54.5ZM77,45.526A8.978,8.978,0,0,1,78.96,63.266v5.947a1.958,1.958,0,1,1-3.917,0V63.266A8.978,8.978,0,0,1,77,45.526Zm0,3.917a5.06,5.06,0,1,0,5.06,5.06A5.066,5.066,0,0,0,77,49.443ZM45.459,28.449A8.978,8.978,0,1,1,56.4,37.211v5.947a1.958,1.958,0,1,1-3.917,0V37.211A8.994,8.994,0,0,1,45.459,28.449Zm3.917,0a5.061,5.061,0,1,0,5.061-5.06A5.066,5.066,0,0,0,49.376,28.449ZM65.321,8.977A8.977,8.977,0,1,1,76.257,17.74v5.947a1.958,1.958,0,0,1-3.917,0V17.739A8.993,8.993,0,0,1,65.321,8.977Zm3.917,0a5.06,5.06,0,1,0,5.06-5.06A5.066,5.066,0,0,0,69.238,8.977Zm29.2,24.875-3.279-1.187-2.7-18.5a7.007,7.007,0,0,0-3.436-5.137,1.958,1.958,0,0,0-1.98,3.379,3.043,3.043,0,0,1,1.54,2.323l2.871,19.657a1.959,1.959,0,0,0,1.271,1.558l4.381,1.586c3,1.087,3.3,1.836,3.221,2.368l-4.713,32.27a3.365,3.365,0,0,1-2.972,2.862l-29.7,6.48a.838.838,0,0,1-.712-.15A4.413,4.413,0,0,1,60.8,78.614l-.158-.949a1.959,1.959,0,0,0-2.6-1.52L31.8,85.646c-.374.136-.844-.222-.98-.335a2.407,2.407,0,0,1-.914-1.993l9.1-54.5a3.979,3.979,0,0,1,1.648-2.868A1.958,1.958,0,1,0,39.2,22.31c-2.435.972-3.694,3.665-4.06,5.861l-9.1,54.5a6.231,6.231,0,0,0,2.271,5.648,5.163,5.163,0,0,0,3.3,1.276,4.458,4.458,0,0,0,1.522-.268L57.255,80.6a7.555,7.555,0,0,0,2.778,4.012,4.735,4.735,0,0,0,3.743.734l29.7-6.48a7.217,7.217,0,0,0,6.013-6.123l4.713-32.27C104.835,36.167,100.191,34.486,98.443,33.853ZM54.2,30.407h.466a1.958,1.958,0,0,0,0-3.917H54.2a1.958,1.958,0,1,0,0,3.917ZM50.519,15.858a1.957,1.957,0,0,0,2.254-1.609l.994-5.955A4.414,4.414,0,0,1,55.2,5.542a.84.84,0,0,1,.712-.15l4.851,1.058A1.958,1.958,0,0,0,61.6,2.624L56.745,1.566A4.735,4.735,0,0,0,53,2.3a8.06,8.06,0,0,0-3.1,5.349L48.91,13.6A1.958,1.958,0,0,0,50.519,15.858Z" transform="matrix(1, 0.017, -0.017, 1, -24.402, -0.453)" fill="#0d5235"/>
</svg>
