<svg id="bus" xmlns="http://www.w3.org/2000/svg" width="99.986" height="94.23" viewBox="0 0 99.986 94.23">
  <path id="Path_15763" data-name="Path 15763" d="M96.95,17.642H95.1a5.386,5.386,0,0,0-5.378-5.283H85.255V5.381A5.388,5.388,0,0,0,79.874,0H20.112a5.387,5.387,0,0,0-5.381,5.381v6.978H10.262a5.386,5.386,0,0,0-5.378,5.283H3.037A3.04,3.04,0,0,0,0,20.679V36.323A3.04,3.04,0,0,0,3.037,39.36H9.661A3.04,3.04,0,0,0,12.7,36.323V20.679a3.04,3.04,0,0,0-3.037-3.037H7.822a2.447,2.447,0,0,1,2.44-2.348h4.469V69.738a1.468,1.468,0,0,0,2.935,0v-12.1a5.34,5.34,0,0,0,2.446.59H79.874a5.34,5.34,0,0,0,2.446-.59V81.329a2.448,2.448,0,0,1-2.446,2.446H20.112a2.448,2.448,0,0,1-2.446-2.446V76.521a1.468,1.468,0,0,0-2.935,0v4.807a5.387,5.387,0,0,0,5.381,5.38h1.526v3.411a4.114,4.114,0,0,0,4.109,4.109h6.6a4.114,4.114,0,0,0,4.109-4.109V86.709H63.533v3.411a4.114,4.114,0,0,0,4.109,4.109h6.6a4.114,4.114,0,0,0,4.109-4.109V86.709h1.526a5.387,5.387,0,0,0,5.381-5.38V15.294h4.469a2.448,2.448,0,0,1,2.441,2.348H90.327a3.041,3.041,0,0,0-3.038,3.037V36.323a3.041,3.041,0,0,0,3.038,3.037H96.95a3.04,3.04,0,0,0,3.037-3.037V20.679a3.04,3.04,0,0,0-3.037-3.037ZM9.661,20.577a.1.1,0,0,1,.1.1V36.323a.1.1,0,0,1-.1.1H3.037a.1.1,0,0,1-.1-.1V20.679a.1.1,0,0,1,.1-.1ZM33.519,90.12a1.176,1.176,0,0,1-1.174,1.174h-6.6a1.175,1.175,0,0,1-1.174-1.174V86.709h8.944V90.12Zm41.893,0a1.175,1.175,0,0,1-1.174,1.174h-6.6a1.176,1.176,0,0,1-1.174-1.174V86.709h8.945ZM82.32,17.527H23.056a1.468,1.468,0,0,0,0,2.935H82.321v27.8H72.626a1.468,1.468,0,0,0,0,2.935h9.695v1.648a2.449,2.449,0,0,1-2.446,2.446H20.112a2.449,2.449,0,0,1-2.446-2.446V51.2h48.11a1.468,1.468,0,1,0,0-2.935H51.344L65.189,36.688a1.465,1.465,0,0,0-1.879-2.247L46.776,48.262h-6.3L54.319,36.688a1.465,1.465,0,1,0-1.879-2.247L35.908,48.263H17.667V12.831H82.32Zm0-7.631H17.667V5.381a2.448,2.448,0,0,1,2.446-2.446H79.874A2.448,2.448,0,0,1,82.32,5.381ZM97.052,36.323a.1.1,0,0,1-.1.1H90.327a.1.1,0,0,1-.1-.1V20.679a.1.1,0,0,1,.1-.1H96.95a.1.1,0,0,1,.1.1Zm0,0" transform="translate(0 0)" fill="#0d5235"/>
  <path id="Path_15764" data-name="Path 15764" d="M124.738,333.777a2.449,2.449,0,0,0,2.446-2.446v-2.348a5.778,5.778,0,0,0-5.772-5.772h-9a2.448,2.448,0,0,0-2.446,2.446V328a5.779,5.779,0,0,0,5.772,5.772ZM112.9,328v-1.859h8.512a2.84,2.84,0,0,1,2.837,2.837v1.859h-8.511A2.841,2.841,0,0,1,112.9,328Zm0,0" transform="translate(-88.49 -260.092)" fill="#0d5235"/>
  <path id="Path_15765" data-name="Path 15765" d="M325.31,333.777A5.779,5.779,0,0,0,331.082,328v-2.348a2.448,2.448,0,0,0-2.446-2.446h-9a5.779,5.779,0,0,0-5.772,5.772v2.348a2.449,2.449,0,0,0,2.446,2.446Zm-8.512-4.794a2.841,2.841,0,0,1,2.838-2.837h8.511V328a2.84,2.84,0,0,1-2.837,2.837H316.8Zm0,0" transform="translate(-252.571 -260.092)" fill="#0d5235"/>
  <path id="Path_15766" data-name="Path 15766" d="M228.039,386.283a1.881,1.881,0,0,0,1.88-1.88v-3.871a1.881,1.881,0,0,0-1.88-1.88H215.083a1.881,1.881,0,0,0-1.88,1.88V384.4a1.881,1.881,0,0,0,1.88,1.88Zm-11.9-4.7h10.846v1.761H216.138Zm0,0" transform="translate(-171.568 -304.707)" fill="#0d5235"/>
</svg>
