<svg id="garden" xmlns="http://www.w3.org/2000/svg" width="111.17" height="87.676" viewBox="0 0 111.17 87.676">
  <g id="Group_425" data-name="Group 425" transform="translate(0 0)">
    <path id="Path_15779" data-name="Path 15779" d="M109.286,138.114H85.571V126.869a16.8,16.8,0,0,0,12.438-8.834,16.439,16.439,0,0,0,9.15-5.851,18.755,18.755,0,0,0,4.012-11.672,18.262,18.262,0,0,0-8.586-15.679C102.038,73.967,93.661,65.3,83.46,65.3a18.09,18.09,0,0,0-9.188,2.527,1.832,1.832,0,1,0,1.863,3.154,14.424,14.424,0,0,1,7.326-2.018c8.525,0,15.474,7.611,15.49,16.966a1.832,1.832,0,0,0,1,1.631,14.448,14.448,0,0,1,7.553,12.948c0,7-4.738,13.054-11.021,14.09a1.832,1.832,0,0,0-1.352,1.012,13.328,13.328,0,0,1-9.563,7.547V106.953l9.014-8.289a1.832,1.832,0,0,0-2.48-2.7l-6.535,6.009V89.749a1.832,1.832,0,0,0-3.663,0v22.169l-6.535-6.009a1.832,1.832,0,1,0-2.48,2.7l9.015,8.289v6.351a13.255,13.255,0,0,1-10.172-7.739A1.831,1.831,0,0,0,70.46,114.5c-6.078-1.291-10.489-7.174-10.489-13.987a14.423,14.423,0,0,1,7.071-12.689,1.832,1.832,0,0,0,.933-1.619c0-.051,0-.1,0-.151,0-.029,0-.058,0-.087A17.9,17.9,0,0,1,71.225,75.54a1.832,1.832,0,0,0-2.988-2.119,21.476,21.476,0,0,0-3.918,11.771,18.189,18.189,0,0,0-8.011,15.32c0,8.208,5.211,15.358,12.515,17.358a16.739,16.739,0,0,0,13.085,9.064v11.18h-1.16a11.593,11.593,0,0,0-8.11-10.372,10.849,10.849,0,0,0-7.483-5.971,10.825,10.825,0,0,0-19.994-3.016,11.184,11.184,0,0,0-9.065,5.253,9.179,9.179,0,0,0-7.925-6V113.19a16.161,16.161,0,0,0,11.881-8.459,15.819,15.819,0,0,0,8.769-5.621,18.033,18.033,0,0,0,3.858-11.223,17.567,17.567,0,0,0-8.222-15.057c-.546-10.425-8.59-18.73-18.386-18.73a17.4,17.4,0,0,0-10.452,3.5,1.832,1.832,0,0,0,2.187,2.939,13.763,13.763,0,0,1,8.265-2.78c8.119,0,14.736,7.252,14.752,16.165a1.832,1.832,0,0,0,1,1.631,13.755,13.755,0,0,1,7.188,12.327c0,6.66-4.508,12.427-10.486,13.413a1.832,1.832,0,0,0-1.352,1.012,12.7,12.7,0,0,1-9.007,7.167V94.089l8.605-7.913a1.832,1.832,0,0,0-2.48-2.7l-6.126,5.633V77.584a1.832,1.832,0,0,0-3.663,0V98.631L18.383,93a1.832,1.832,0,0,0-2.48,2.7l8.6,7.913v5.958a12.625,12.625,0,0,1-9.59-7.353,1.831,1.831,0,0,0-1.275-1.009c-5.783-1.229-9.98-6.829-9.98-13.315a13.731,13.731,0,0,1,6.729-12.081,1.831,1.831,0,0,0,.933-1.617c0-.05,0-.1,0-.148,0-.027,0-.053,0-.08a17.426,17.426,0,0,1,1.241-6.511,16.869,16.869,0,0,1,.839-1.783,1.832,1.832,0,0,0-3.217-1.752,20.528,20.528,0,0,0-1.022,2.173,21,21,0,0,0-1.49,7.09A17.5,17.5,0,0,0,0,87.887c0,7.881,5,14.749,12.006,16.684a16.108,16.108,0,0,0,12.5,8.683v5.239a9.093,9.093,0,0,0-4.824,3.945,9.358,9.358,0,0,0-8.739,7.871,11.8,11.8,0,0,0-6.618,7.8h-2.5a1.832,1.832,0,1,0,0,3.663H109.286a1.831,1.831,0,1,0,0-3.663Zm-101.117,0a8.128,8.128,0,0,1,5.053-4.759,1.832,1.832,0,0,0,1.267-1.688,5.723,5.723,0,0,1,5.748-5.58c.125,0,.263.006.431.018a1.833,1.833,0,0,0,1.823-1.117,5.454,5.454,0,0,1,10.467,1.68,1.832,1.832,0,0,0,1.684,1.684,5.413,5.413,0,0,1,1.44.316l.006,0c.085.031.168.065.251.1l.054.023q.116.05.23.106l.076.039q.157.08.307.17c.055.033.11.065.163.1s.08.054.119.081c.06.041.12.083.178.126l.1.075c.071.055.141.112.209.171l.056.048a5.477,5.477,0,0,1,.509.515l.043.051q.1.118.193.243l.036.048a5.432,5.432,0,0,1,.388.611c.015.028.03.057.045.086q.062.118.118.241c.015.032.03.064.044.1.046.106.09.213.13.321l0,.011a1.832,1.832,0,0,0,1.336,1.167c.164.035.324.078.482.127.051.016.1.035.152.052.105.035.21.071.312.112.059.024.117.05.175.076.091.04.182.081.271.125.06.03.118.062.177.094.084.045.168.092.249.142.058.035.115.071.172.108q.119.077.233.16c.054.039.108.079.161.12.076.059.149.12.222.182.049.042.1.084.147.127.074.068.146.138.217.209.042.042.085.083.126.126.08.085.155.173.23.262.028.033.057.064.084.1q.15.187.285.385c.019.028.035.057.053.085.069.106.137.212.2.322.028.05.054.1.081.152.049.091.1.182.14.275.027.058.052.117.077.176.039.089.076.178.11.27.023.063.045.126.066.189q.046.135.086.273c.019.065.036.131.053.2.023.093.044.187.063.282.013.066.026.132.037.2.005.031.008.063.012.094Zm40.877,0h0c0-.017-.005-.035-.007-.052-.021-.219-.048-.436-.084-.651,0-.013,0-.025-.007-.038q-.056-.329-.134-.651c0-.009,0-.019-.006-.028-.052-.213-.113-.422-.179-.629-.007-.022-.014-.045-.021-.067-.065-.2-.138-.4-.216-.59l-.034-.084q-.117-.285-.253-.561l-.043-.087q-.137-.274-.291-.539l-.047-.08q-.158-.267-.333-.523l-.043-.061c-.122-.175-.248-.347-.38-.513l-.025-.031q-.208-.259-.432-.5l0-.005c-.149-.161-.3-.317-.462-.468l-.041-.04c-.153-.144-.312-.282-.474-.415l-.065-.054q-.24-.194-.492-.372l-.078-.055q-.252-.175-.516-.335l-.083-.049q-.267-.158-.545-.3l-.077-.038c-.191-.094-.385-.184-.583-.266l-.053-.021c-.208-.084-.419-.163-.634-.233h0c-.009-.019-.02-.036-.029-.055q-.111-.222-.233-.437c-.042-.073-.086-.145-.13-.217s-.106-.173-.161-.258-.108-.162-.164-.242-.1-.137-.149-.205c-.063-.086-.127-.171-.193-.254-.039-.049-.08-.1-.12-.144q-.232-.278-.484-.538c-.029-.03-.057-.061-.086-.09-.084-.083-.17-.163-.257-.243-.05-.046-.1-.092-.151-.137q-.124-.109-.253-.215c-.063-.051-.126-.1-.19-.15-.08-.061-.159-.124-.241-.183-.115-.083-.233-.163-.352-.241-.032-.021-.062-.044-.094-.064a7.524,7.524,0,0,1,6.478-3.689c.165,0,.345.008.564.024a1.831,1.831,0,0,0,1.823-1.117,7.161,7.161,0,0,1,13.742,2.206,1.832,1.832,0,0,0,1.684,1.684,7.168,7.168,0,0,1,6.17,4.7,1.832,1.832,0,0,0,1.336,1.167,7.9,7.9,0,0,1,6.168,7.041H49.047Z" transform="translate(0 -54.101)" fill="#0d5235"/>
  </g>
</svg>
