<svg id="home_2_" data-name="home (2)" xmlns="http://www.w3.org/2000/svg" width="104.457" height="100.968" viewBox="0 0 104.457 100.968">
  <path id="Path_15780" data-name="Path 15780" d="M115.211,103.261q0-.111,0-.219a6.971,6.971,0,0,0-6.963-6.963V63.873l6.267-4.7a1.741,1.741,0,0,0-.017-2.8L99.548,45.447v-19a1.741,1.741,0,0,0,1.741-1.741V17.741A1.741,1.741,0,0,0,99.548,16H82.139A1.741,1.741,0,0,0,80.4,17.741V24.7a1.741,1.741,0,0,0,1.741,1.741v6.28L69.24,23.3a1.741,1.741,0,0,0-2.054,0L21.924,56.374a1.741,1.741,0,0,0-.017,2.8l6.267,4.7V96.078a6.971,6.971,0,0,0-6.963,6.963q0,.109,0,.219a6.963,6.963,0,0,0,1.737,13.707h90.523a6.963,6.963,0,0,0,1.737-13.707ZM83.88,19.482H97.807v3.482H83.88Zm1.741,15.667v-8.7H96.066V42.9l-10.61-7.753ZM68.213,26.86,110.548,57.8l-4.054,3.04-37.258-27.1a1.741,1.741,0,0,0-2.048,0L29.93,60.838,25.877,57.8ZM19.469,110a3.486,3.486,0,0,1,3.429-3.482h0c.089.012.178.023.269.029a1.741,1.741,0,0,0,1.746-2.332,3.422,3.422,0,0,1-.226-1.179,3.486,3.486,0,0,1,3.482-3.482v13.927H22.951A3.486,3.486,0,0,1,19.469,110Zm74.856,3.482H73.435v-38.3h20.89Zm3.482,0V73.447a1.741,1.741,0,0,0-1.741-1.741H71.694a1.741,1.741,0,0,0-1.741,1.741v40.039h-38.3v-49.6L68.213,37.3,104.77,63.889v49.6Zm15.667,0h-5.222V99.56a3.486,3.486,0,0,1,3.482,3.482,3.422,3.422,0,0,1-.226,1.18,1.741,1.741,0,0,0,1.746,2.332c.091-.006.18-.017.269-.029h0a3.482,3.482,0,0,1-.052,6.963Z" transform="translate(-15.984 -16)" fill="#0d5235"/>
  <path id="Path_15781" data-name="Path 15781" d="M142.631,272h-20.89A1.741,1.741,0,0,0,120,273.741v24.372a1.741,1.741,0,0,0,1.741,1.741h20.89a1.741,1.741,0,0,0,1.741-1.741V273.741A1.741,1.741,0,0,0,142.631,272Zm-1.741,12.186h-6.963v-8.7h6.963Zm-10.445-8.7v8.7h-6.963v-8.7Zm-6.963,12.186h6.963v8.7h-6.963Zm10.445,8.7v-8.7h6.963v8.7Z" transform="translate(-97.366 -216.293)" fill="#0d5235"/>
  <circle id="Ellipse_61" data-name="Ellipse 61" cx="1.741" cy="1.741" r="1.741" transform="translate(60.399 77.539) rotate(-67.5)" fill="#0d5235"/>
</svg>
