<svg id="hospital" xmlns="http://www.w3.org/2000/svg" width="90.613" height="90.613" viewBox="0 0 90.613 90.613">
  <path id="Path_15782" data-name="Path 15782" d="M91.1,29.184H71.47V3.51A1.51,1.51,0,0,0,69.96,2H24.653a1.51,1.51,0,0,0-1.51,1.51V29.184H3.51A1.51,1.51,0,0,0,2,30.694V91.1a1.51,1.51,0,0,0,1.51,1.51H91.1a1.51,1.51,0,0,0,1.51-1.51V30.694A1.51,1.51,0,0,0,91.1,29.184ZM5.02,32.2H23.143V89.592H5.02ZM51.837,74.49v15.1H42.776V74.49Zm16.612,15.1H54.857V74.49h3.02V71.47H36.735v3.02h3.02v15.1H26.163V5.02H68.449Zm21.143,0H71.47V32.2H89.592Z" transform="translate(-2 -2)" fill="#0d5235"/>
  <path id="Path_15783" data-name="Path 15783" d="M51.51,36.082h9.061a1.51,1.51,0,0,0,1.51-1.51V25.51A1.51,1.51,0,0,0,60.571,24H51.51A1.51,1.51,0,0,0,50,25.51v9.061A1.51,1.51,0,0,0,51.51,36.082Zm1.51-9.061h6.041v6.041H53.02Z" transform="translate(22.49 9.225)" fill="#0d5235"/>
  <path id="Path_15784" data-name="Path 15784" d="M51.51,46.082h9.061a1.51,1.51,0,0,0,1.51-1.51V35.51A1.51,1.51,0,0,0,60.571,34H51.51A1.51,1.51,0,0,0,50,35.51v9.061A1.51,1.51,0,0,0,51.51,46.082Zm1.51-9.061h6.041v6.041H53.02Z" transform="translate(22.49 14.327)" fill="#0d5235"/>
  <path id="Path_15785" data-name="Path 15785" d="M51.51,56.082h9.061a1.51,1.51,0,0,0,1.51-1.51V45.51A1.51,1.51,0,0,0,60.571,44H51.51A1.51,1.51,0,0,0,50,45.51v9.061A1.51,1.51,0,0,0,51.51,56.082Zm1.51-9.061h6.041v6.041H53.02Z" transform="translate(22.49 19.429)" fill="#0d5235"/>
  <path id="Path_15786" data-name="Path 15786" d="M16.571,24H7.51A1.51,1.51,0,0,0,6,25.51v9.061a1.51,1.51,0,0,0,1.51,1.51h9.061a1.51,1.51,0,0,0,1.51-1.51V25.51A1.51,1.51,0,0,0,16.571,24Zm-1.51,9.061H9.02V27.02h6.041Z" transform="translate(0.041 9.225)" fill="#0d5235"/>
  <path id="Path_15787" data-name="Path 15787" d="M21.51,31.061h6.041a1.51,1.51,0,0,0,1.51-1.51V23.51A1.51,1.51,0,0,0,27.551,22H21.51A1.51,1.51,0,0,0,20,23.51v6.041A1.51,1.51,0,0,0,21.51,31.061Zm1.51-6.041h3.02v3.02H23.02Z" transform="translate(7.184 8.204)" fill="#0d5235"/>
  <path id="Path_15788" data-name="Path 15788" d="M36.551,22H30.51A1.51,1.51,0,0,0,29,23.51v6.041a1.51,1.51,0,0,0,1.51,1.51h6.041a1.51,1.51,0,0,0,1.51-1.51V23.51A1.51,1.51,0,0,0,36.551,22Zm-1.51,6.041H32.02V25.02h3.02Z" transform="translate(11.776 8.204)" fill="#0d5235"/>
  <path id="Path_15789" data-name="Path 15789" d="M38,23.51v6.041a1.51,1.51,0,0,0,1.51,1.51h6.041a1.51,1.51,0,0,0,1.51-1.51V23.51A1.51,1.51,0,0,0,45.551,22H39.51A1.51,1.51,0,0,0,38,23.51Zm3.02,1.51h3.02v3.02H41.02Z" transform="translate(16.368 8.204)" fill="#0d5235"/>
  <path id="Path_15790" data-name="Path 15790" d="M21.51,39.061h6.041a1.51,1.51,0,0,0,1.51-1.51V31.51A1.51,1.51,0,0,0,27.551,30H21.51A1.51,1.51,0,0,0,20,31.51v6.041A1.51,1.51,0,0,0,21.51,39.061Zm1.51-6.041h3.02v3.02H23.02Z" transform="translate(7.184 12.286)" fill="#0d5235"/>
  <path id="Path_15791" data-name="Path 15791" d="M36.551,30H30.51A1.51,1.51,0,0,0,29,31.51v6.041a1.51,1.51,0,0,0,1.51,1.51h6.041a1.51,1.51,0,0,0,1.51-1.51V31.51A1.51,1.51,0,0,0,36.551,30Zm-1.51,6.041H32.02V33.02h3.02Z" transform="translate(11.776 12.286)" fill="#0d5235"/>
  <path id="Path_15792" data-name="Path 15792" d="M45.551,30H39.51A1.51,1.51,0,0,0,38,31.51v6.041a1.51,1.51,0,0,0,1.51,1.51h6.041a1.51,1.51,0,0,0,1.51-1.51V31.51A1.51,1.51,0,0,0,45.551,30Zm-1.51,6.041H41.02V33.02h3.02Z" transform="translate(16.368 12.286)" fill="#0d5235"/>
  <path id="Path_15793" data-name="Path 15793" d="M21.51,47.061h6.041a1.51,1.51,0,0,0,1.51-1.51V39.51A1.51,1.51,0,0,0,27.551,38H21.51A1.51,1.51,0,0,0,20,39.51v6.041A1.51,1.51,0,0,0,21.51,47.061Zm1.51-6.041h3.02v3.02H23.02Z" transform="translate(7.184 16.368)" fill="#0d5235"/>
  <path id="Path_15794" data-name="Path 15794" d="M36.551,38H30.51A1.51,1.51,0,0,0,29,39.51v6.041a1.51,1.51,0,0,0,1.51,1.51h6.041a1.51,1.51,0,0,0,1.51-1.51V39.51A1.51,1.51,0,0,0,36.551,38Zm-1.51,6.041H32.02V41.02h3.02Z" transform="translate(11.776 16.368)" fill="#0d5235"/>
  <path id="Path_15795" data-name="Path 15795" d="M45.551,38H39.51A1.51,1.51,0,0,0,38,39.51v6.041a1.51,1.51,0,0,0,1.51,1.51h6.041a1.51,1.51,0,0,0,1.51-1.51V39.51A1.51,1.51,0,0,0,45.551,38Zm-1.51,6.041H41.02V41.02h3.02Z" transform="translate(16.368 16.368)" fill="#0d5235"/>
  <path id="Path_15796" data-name="Path 15796" d="M16.571,34H7.51A1.51,1.51,0,0,0,6,35.51v9.061a1.51,1.51,0,0,0,1.51,1.51h9.061a1.51,1.51,0,0,0,1.51-1.51V35.51A1.51,1.51,0,0,0,16.571,34Zm-1.51,9.061H9.02V37.02h6.041Z" transform="translate(0.041 14.327)" fill="#0d5235"/>
  <path id="Path_15797" data-name="Path 15797" d="M16.571,44H7.51A1.51,1.51,0,0,0,6,45.51v9.061a1.51,1.51,0,0,0,1.51,1.51h9.061a1.51,1.51,0,0,0,1.51-1.51V45.51A1.51,1.51,0,0,0,16.571,44Zm-1.51,9.061H9.02V47.02h6.041Z" transform="translate(0.041 19.429)" fill="#0d5235"/>
  <path id="Path_15798" data-name="Path 15798" d="M26.51,21.1h4.531v4.531a1.51,1.51,0,0,0,1.51,1.51h6.041a1.51,1.51,0,0,0,1.51-1.51V21.1h4.531a1.51,1.51,0,0,0,1.51-1.51V13.551a1.51,1.51,0,0,0-1.51-1.51H40.1V7.51A1.51,1.51,0,0,0,38.592,6H32.551a1.51,1.51,0,0,0-1.51,1.51v4.531H26.51A1.51,1.51,0,0,0,25,13.551v6.041A1.51,1.51,0,0,0,26.51,21.1Zm1.51-6.041h4.531a1.51,1.51,0,0,0,1.51-1.51V9.02h3.02v4.531a1.51,1.51,0,0,0,1.51,1.51h4.531v3.02H38.592a1.51,1.51,0,0,0-1.51,1.51v4.531h-3.02V19.592a1.51,1.51,0,0,0-1.51-1.51H28.02Z" transform="translate(9.735 0.041)" fill="#0d5235"/>
  <path id="Path_15799" data-name="Path 15799" d="M42,56h3.02v3.02H42Z" transform="translate(18.408 25.551)" fill="#0d5235"/>
  <path id="Path_15800" data-name="Path 15800" d="M42,52h3.02v3.02H42Z" transform="translate(18.408 23.511)" fill="#0d5235"/>
  <path id="Path_15801" data-name="Path 15801" d="M42,48h3.02v3.02H42Z" transform="translate(18.408 21.47)" fill="#0d5235"/>
</svg>
