<svg id="mall" xmlns="http://www.w3.org/2000/svg" width="99.986" height="99.995" viewBox="0 0 99.986 99.995">
  <g id="Group_427" data-name="Group 427" transform="translate(26.663 15.006)">
    <g id="Group_426" data-name="Group 426">
      <path id="Path_15802" data-name="Path 15802" d="M181.423,91.225c-.007-.017-.011-.035-.019-.052a23.45,23.45,0,0,0-9.136-10.737c-.029-.014-.052-.037-.082-.05a23.124,23.124,0,0,0-24.605,0c-.03.012-.052.035-.081.049a23.452,23.452,0,0,0-9.137,10.737c-.007.017-.012.034-.019.051a23.2,23.2,0,0,0-1.791,8.948V118.5a1.665,1.665,0,0,0,1.664,1.666h43.329a1.665,1.665,0,0,0,1.666-1.664V100.173A23.185,23.185,0,0,0,181.423,91.225Zm-34.871,25.612h-6.666v-10h6.666Zm0-13.332h-6.666v-3.333a19.866,19.866,0,0,1,1.166-6.666h5.5Zm0-13.332h-3.96a20.1,20.1,0,0,1,3.96-4.864Zm11.665,26.663h-8.332v-10h8.332Zm0-13.332h-8.332v-10h8.332Zm0-13.332h-8.332V82.881a19.831,19.831,0,0,1,8.332-2.621Zm11.665,26.663H161.55v-10h8.332Zm0-13.332H161.55v-10h8.332Zm0-13.332H161.55V80.26a19.831,19.831,0,0,1,8.332,2.621Zm3.333-4.864a20.1,20.1,0,0,1,3.96,4.864h-3.96Zm6.666,31.528h-6.666v-10h6.666Zm0-13.332h-6.666v-10h5.5a19.862,19.862,0,0,1,1.166,6.666Z" transform="translate(-136.553 -76.842)" fill="#0d5235"/>
    </g>
  </g>
  <g id="Group_429" data-name="Group 429" transform="translate(0 0)">
    <g id="Group_428" data-name="Group 428">
      <path id="Path_15803" data-name="Path 15803" d="M96.674,50h-5V44.7A4.987,4.987,0,0,0,90.008,35H81.676v-7.08a4.972,4.972,0,0,0,2.373-1.979,4.916,4.916,0,0,0,.216-4.82,38.338,38.338,0,0,0-68.5,0,4.92,4.92,0,0,0,.216,4.822,4.973,4.973,0,0,0,2.373,1.979V35H10.019A4.987,4.987,0,0,0,8.352,44.7V50h-5A3.337,3.337,0,0,0,.02,53.335V98.328a1.665,1.665,0,0,0,1.664,1.666H98.34a1.665,1.665,0,0,0,1.666-1.664v-45A3.337,3.337,0,0,0,96.674,50ZM8.352,96.662h-5V53.334h5ZM18.74,22.621h0a35,35,0,0,1,62.547,0,1.6,1.6,0,0,1-.075,1.574,1.751,1.751,0,0,1-2.9-.044,31.648,31.648,0,0,0-56.6,0,1.616,1.616,0,0,1-1.448.853h-.013a1.682,1.682,0,0,1-1.439-.809A1.6,1.6,0,0,1,18.74,22.621Zm-.389,74.041H11.685V45h6.666Zm1.666-54.993h-10a1.666,1.666,0,1,1,0-3.333h10a1.666,1.666,0,0,1,0,3.333ZM38.348,96.662h-10v-25h10Zm20,0H41.681v-20H58.346Zm13.332,0h-10v-25h10Zm6.666,0H75.01v-25a3.337,3.337,0,0,0-3.333-3.333h-10a3.337,3.337,0,0,0-3.333,3.333v1.666H41.681V71.665a3.337,3.337,0,0,0-3.333-3.333h-10a3.337,3.337,0,0,0-3.333,3.333v25H21.684V65H78.343V96.662Zm0-35H21.684V44.7a4.969,4.969,0,0,0,0-9.384V28.136a4.862,4.862,0,0,0,3.009-2.486,28.314,28.314,0,0,1,50.641,0,4.857,4.857,0,0,0,3.009,2.484v7.177a4.969,4.969,0,0,0,0,9.384V61.667Zm10,35H81.676V45h6.666Zm1.666-54.993h-10a1.666,1.666,0,0,1,0-3.333h10a1.666,1.666,0,0,1,0,3.333Zm6.666,54.993h-5V53.334h5Z" transform="translate(-0.02 0)" fill="#0d5235"/>
    </g>
  </g>
</svg>
