<svg id="train" xmlns="http://www.w3.org/2000/svg" width="79.753" height="100" viewBox="0 0 79.753 100">
  <path id="Path_15804" data-name="Path 15804" d="M217.188,47.876A2.812,2.812,0,0,0,220,45.067v-4.8a2.812,2.812,0,0,0-2.809-2.809H199.71a2.812,2.812,0,0,0-2.809,2.809v4.8a2.812,2.812,0,0,0,2.809,2.809ZM199.83,40.385h17.238v4.561H199.83Z" transform="translate(-168.572 -30.141)" fill="#0d5235"/>
  <path id="Path_15805" data-name="Path 15805" d="M98.551,110.78V130.5a4.735,4.735,0,0,0,4.73,4.73H155.33a4.735,4.735,0,0,0,4.73-4.73V110.78a4.735,4.735,0,0,0-4.73-4.73h-2.69a1.465,1.465,0,1,0,0,2.929h2.69a1.8,1.8,0,0,1,1.8,1.8V130.5a1.8,1.8,0,0,1-1.8,1.8H103.281a1.8,1.8,0,0,1-1.8-1.8V110.78a1.8,1.8,0,0,1,1.8-1.8H145.8a1.465,1.465,0,0,0,0-2.929H103.281a4.735,4.735,0,0,0-4.73,4.73Z" transform="translate(-89.429 -85.34)" fill="#0d5235"/>
  <path id="Path_15806" data-name="Path 15806" d="M131,93.407l-7.217-12.5a9.378,9.378,0,0,0,6.365-8.868V15.87A15.866,15.866,0,0,0,114.283,0H69.148A15.887,15.887,0,0,0,53.279,15.87V49.838a1.465,1.465,0,1,0,2.929,0V15.87a12.955,12.955,0,0,1,12.94-12.94h45.135a12.939,12.939,0,0,1,12.94,12.94V62.933h-5.438a7.734,7.734,0,0,0-7.582-6.258H68.956a7.734,7.734,0,0,0-7.582,6.258H56.208v-6.26a1.465,1.465,0,0,0-2.929,0V64.4c0,8.511-.038,8.18.129,9.184a9.394,9.394,0,0,0,6.235,7.328l-7.216,12.5a4.394,4.394,0,0,0,7.61,4.394l2.081-3.6h59.195l2.081,3.6A4.394,4.394,0,1,0,131,93.407ZM119,64.4A4.793,4.793,0,1,1,114.2,59.6,4.8,4.8,0,0,1,119,64.4ZM108.152,59.6a7.711,7.711,0,0,0,0,9.587H75.007a7.714,7.714,0,0,0,0-9.587Zm-39.2,0A4.793,4.793,0,1,1,64.163,64.4,4.8,4.8,0,0,1,68.956,59.6Zm-7.583,6.258a7.74,7.74,0,0,0,7.576,6.258H114.2a7.743,7.743,0,0,0,7.584-6.258h5.437v6.177a6.444,6.444,0,0,1-6.434,6.434H62.642a6.441,6.441,0,0,1-6.392-5.71c-.056-.5-.042-.159-.042-6.9h5.165ZM57.5,96.337a1.465,1.465,0,1,1-2.537-1.465L62.74,81.4h3.382Zm6.309-5.069L65.5,88.338h52.43l1.691,2.929Zm3.382-5.859L69.5,81.4h44.421l2.313,4.006Zm60.739,11.464a1.464,1.464,0,0,1-2-.536L117.309,81.4h3.382l7.776,13.469A1.464,1.464,0,0,1,127.931,96.873Z" transform="translate(-51.839)" fill="#0d5235"/>
</svg>
