<svg id="Arrayan_Logo-Color" data-name="Arrayan Logo-Color" xmlns="http://www.w3.org/2000/svg" width="226.363" height="50" viewBox="0 0 226.363 50">
  <path id="Path_16" data-name="Path 16" d="M176.022,103.5a8.158,8.158,0,0,1,11.42-1.387c.46.46,1.167.863,1.243,1.563a3.153,3.153,0,0,1-1.857,1.25c-.733-.413-1.237-1.167-2.03-1.49a5.158,5.158,0,0,0-6.627,1.74c-1.777,2.607-1.163,6.79,1.667,8.4a5.475,5.475,0,0,0,6.213-.633v-2.493c-1.687-.107-3.377-.033-5.063-.063a5.607,5.607,0,0,1,.12-2.567c2.107.077,4.22.023,6.333.023.447.043,1.023-.1,1.333.333.067,1.743.02,3.5,0,5.247.067.69-.587,1.1-1.03,1.51-3.3,2.743-8.81,2.393-11.523-1A8.747,8.747,0,0,1,176.022,103.5Z" transform="translate(-116.262 -66.929)" fill="#fff"/>
  <path id="Path_17" data-name="Path 17" d="M230.875,101.17c2.333.073,4.687-.037,7.03.06a4.833,4.833,0,0,1,4.26,3.333,5.9,5.9,0,0,1-.537,4.177,6.459,6.459,0,0,1-2.977,2.267c.163.09.333.18.5.28,1.02,2,2.56,3.69,3.543,5.717-1.063,0-2.123,0-3.18-.057-1.087-1.84-2.247-3.64-3.41-5.43-.55-.923-1.757-.483-2.613-.413,0,1.96.033,3.923-.03,5.883h-2.61c-.333-2.837-.053-5.7-.13-8.55A62.859,62.859,0,0,1,230.875,101.17Zm2.627,2.553q-.023,2.427,0,4.853c1.77-.18,3.947.577,5.39-.777a2.858,2.858,0,0,0,.143-3.437C237.4,103.243,235.338,103.837,233.5,103.723Z" transform="translate(-153.791 -67.447)" fill="#fff"/>
  <path id="Path_18" data-name="Path 18" d="M292.407,108.21v-.187h0a3.924,3.924,0,0,0-.037-.437,7.879,7.879,0,0,0-3.333-5.887,8.567,8.567,0,0,0-3.24-1.237l-.24-.037-.127-.017c-.1,0-.2-.023-.293-.03-.19,0-.377-.02-.567-.02h-.027a5.43,5.43,0,0,0-.57.02.977.977,0,0,0-.293.03l-.127.017-.237.037a8.547,8.547,0,0,0-3.24,1.237,7.921,7.921,0,0,0-3.333,5.887c0,.147-.027.293-.033.437h0v.757a7.767,7.767,0,0,0,.12,1.273h0c.017.083.03.167.043.247.03.157.067.31.1.467.053.22.117.44.19.667.033.117.077.23.117.333l.02.057a7.517,7.517,0,0,0,2.913,3.687,7.6,7.6,0,0,0,1.95.857c.1.03.2.057.293.08.223.06.45.1.667.143s.44.067.667.087a.133.133,0,0,0,.037,0c.233.023.477.033.717.033h.02a5.158,5.158,0,0,0,.717-.033h.033a8.178,8.178,0,0,0,1.333-.23c.1-.023.2-.05.293-.08a7.576,7.576,0,0,0,1.947-.857,7.5,7.5,0,0,0,2.917-3.683.194.194,0,0,1,.02-.057c.043-.113.083-.227.12-.333a6.109,6.109,0,0,0,.187-.667c.04-.157.073-.31.1-.467.017-.08.03-.163.047-.247h0a8.15,8.15,0,0,0,.12-1.273v-.447A.556.556,0,0,0,292.407,108.21Zm-6.933,5.953a3.836,3.836,0,0,1-.76.057h-.29a3.854,3.854,0,0,1-.76-.057,1.128,1.128,0,0,1-.257-.05,5.363,5.363,0,0,1-3.277-2.61c-.023-.047-.047-.09-.07-.14s-.057-.123-.08-.183a4.977,4.977,0,0,1-.29-1.033,8.372,8.372,0,0,1-.1-1.417c0-.38,0-.76.03-1.133a4.711,4.711,0,0,1,.053-.61,6.413,6.413,0,0,1,1.517-2.873c.043-.04.083-.077.13-.113a1.566,1.566,0,0,1,.14-.11l.023-.017q.14-.1.29-.19c.07-.047.143-.087.217-.127s.2-.113.3-.16a.444.444,0,0,1,.107-.05,5.394,5.394,0,0,1,2.13-.477h.09a5.42,5.42,0,0,1,2.133.477.625.625,0,0,1,.107.05c.1.047.2.1.293.16s.15.08.22.127.193.123.287.19l.027.017c.047.037.093.07.14.11s.087.073.127.113a6.454,6.454,0,0,1,1.52,2.873h0a5.384,5.384,0,0,1,.05.61c.017.373.03.753.03,1.133a8.721,8.721,0,0,1-.1,1.417,5.186,5.186,0,0,1-.29,1.033,1.825,1.825,0,0,1-.083.183c-.02.05-.047.093-.07.14a5.357,5.357,0,0,1-3.273,2.61A2.544,2.544,0,0,1,285.473,114.163Z" transform="translate(-184.473 -66.907)" fill="#fff"/>
  <path id="Path_19" data-name="Path 19" d="M336.893,101.187q1.31,0,2.62.023c.017,3.16,0,6.333,0,9.48a3.777,3.777,0,0,0,2.15,3.78A4.183,4.183,0,0,0,346,113.8a4.309,4.309,0,0,0,1.2-3.113c.023-3.177-.047-6.333.04-9.52.86,0,1.723,0,2.58.033-.043,3.38,0,6.757,0,10.137a5.894,5.894,0,0,1-2.8,5.08,8.417,8.417,0,0,1-5.8.593,5.51,5.51,0,0,1-4.037-3.76,12.075,12.075,0,0,1-.35-3.867C336.867,106.653,336.823,103.92,336.893,101.187Z" transform="translate(-224.56 -67.447)" fill="#fff"/>
  <path id="Path_20" data-name="Path 20" d="M390.47,101.259c2.193-.053,4.387-.02,6.58-.02a4.82,4.82,0,0,1,4.067,1.907c1.927,2.507.79,6.8-2.363,7.667-1.793.36-3.647.073-5.463.207-.107,2,.17,4.037-.21,6.023-.863-.03-1.73-.043-2.6-.053C390.477,111.753,390.49,106.509,390.47,101.259Zm2.83,2.49c-.033,1.62-.053,3.243,0,4.867a21.081,21.081,0,0,0,4.913-.3,3.139,3.139,0,0,0,.63-3.87c-1.627-1.153-3.7-.557-5.53-.7Z" transform="translate(-260.313 -67.486)" fill="#fff"/>
  <path id="Path_21" data-name="Path 21" d="M541.093,5.78c.183-.76,1.017-.54,1.59-.61,3.37,7.667,6.417,15.477,9.813,23.13.533.137,1.07.283,1.607.43V29.8c-1.707-.03-3.413.023-5.113-.037a4.5,4.5,0,0,1-3.79-2.51c-.667-1.427-1.2-2.927-1.89-4.333-2.53.04-5.057,0-7.583.027-.527,1.667-1.563,3.163-1.827,4.9.713.4,1.533.563,2.22,1,0,.24.047.717.06.957h-6.94c.063-.4.14-.793.22-1.19a19.015,19.015,0,0,0,2.5-.847C535.14,20.493,538.013,13.113,541.093,5.78ZM536.4,21.4c2.1.047,4.2.02,6.3.027-1.033-2.55-2.047-5.113-3.23-7.6C538.457,16.36,537.393,18.867,536.4,21.4Z" transform="translate(-352.827 -3.447)" fill="#fff"/>
  <path id="Path_22" data-name="Path 22" d="M186.46,5.343c.473,0,.947-.023,1.42-.033,3.333,7.51,6.313,15.173,9.583,22.71.38.573,1.233.557,1.823.83.017.333.037.69.057,1.04a45.323,45.323,0,0,1-6.207-.167c-2.92-.927-3.407-4.3-4.62-6.687h-7.623c-.523,1.667-1.577,3.2-1.79,4.93.843.547,2.6.507,2.333,1.92H174.38v-.933c.94-.393,1.887-.773,2.843-1.127C180.3,20.34,183.453,12.873,186.46,5.343Zm-1.667,8.55c-1.213,2.483-2.14,5.09-3.25,7.617,2.133,0,4.267.07,6.4-.053-1.18-2.463-2.187-5.01-3.153-7.563Z" transform="translate(-116.253 -3.54)" fill="#fff"/>
  <path id="Path_23" data-name="Path 23" d="M402.25,27.147c3.023-7.26,5.97-14.577,9.07-21.817h1.3c3.333,7.6,6.48,15.283,9.667,22.957.647.217,1.3.447,1.933.7-.03.233-.093.693-.123.923-2.143-.107-4.333.253-6.447-.26-2.76-1.043-3.17-4.3-4.407-6.607-2.533.023-5.067-.043-7.593.037-.54,1.573-1.31,3.057-1.827,4.633.37,1,2.763.573,2.31,2.133-2.377.12-4.77.09-7.15,0C398.987,28,401.8,28.783,402.25,27.147Zm4.07-5.613c2.113,0,4.227.023,6.333-.03-1.083-2.51-2.093-5.05-3.15-7.57C408.357,16.43,407.32,18.98,406.32,21.533Z" transform="translate(-265.987 -3.553)" fill="#fff"/>
  <path id="Path_24" data-name="Path 24" d="M255.293,6.463c4.407.1,8.83-.217,13.22.277,2.313.377,4.847,1.157,6.2,3.23a6.467,6.467,0,0,1,.21,6.26c-1.067,1.973-3.333,2.93-5.453,3.243,1.31.623,2.753,1.3,3.417,2.683,1.127,2.333,2.12,4.74,3.267,7.07.493.057,1,.127,1.49.19.057.417.113.833.167,1.257-1.933-.023-3.87.043-5.8-.037a4.459,4.459,0,0,1-3.513-2.793c-1.127-2.527-2.193-5.08-3.427-7.557h-1.587c0,2.967.033,5.937,0,8.907.767.1,1.533.213,2.293.36,0,.377,0,.763.03,1.143-3.523-.043-7.047.02-10.57-.027.05-.4.1-.793.167-1.187a17.634,17.634,0,0,0,1.887-.41c-.047-7,0-14-.023-20.983-.65-.157-1.3-.333-1.947-.48C255.323,7.21,255.307,6.833,255.293,6.463Zm8.2,1.507q.027,5.37,0,10.737a6.4,6.4,0,0,0,3.367-.523c1.783-.87,2.443-3,2.39-4.867,0-1.783-.547-3.873-2.253-4.75A6.028,6.028,0,0,0,263.493,7.97Z" transform="translate(-170.16 -4.303)" fill="#fff"/>
  <path id="Path_25" data-name="Path 25" d="M331.08,7.543V6.43c2.983.053,5.97.027,8.957.027a21.509,21.509,0,0,1,6.423.773c2.047.533,4.14,1.937,4.627,4.117a5.973,5.973,0,0,1-1.053,5.8,7.945,7.945,0,0,1-4.583,2.3,24.584,24.584,0,0,1,2.39,1.547,10.36,10.36,0,0,1,1.743,3.1c.7,1.6,1.5,3.167,2.063,4.83a10.161,10.161,0,0,0,1.75.58l.16,1.117c-1.927.023-3.853.077-5.777,0a4.468,4.468,0,0,1-3.507-2.8c-1.123-2.5-2.22-5-3.31-7.52-.57-.02-1.143-.023-1.713-.023v8.83a21.641,21.641,0,0,0,2.173.333c.17.377.417.777.13,1.177-3.5.083-7,0-10.5.04V29.59c.667-.177,1.333-.35,1.98-.55-.033-7-.02-14,0-21C332.383,7.873,331.733,7.7,331.08,7.543Zm8.173.41q-.023,5.367,0,10.73a6.147,6.147,0,0,0,3.333-.49,4.945,4.945,0,0,0,2.39-4.543c.1-1.873-.43-4.03-2.143-5.053A6.061,6.061,0,0,0,339.253,7.953Z" transform="translate(-220.7 -4.287)" fill="#fff"/>
  <path id="Path_26" data-name="Path 26" d="M468.1,6.458a45.376,45.376,0,0,1,5.94.173,5.24,5.24,0,0,1,3.733,3.29c1.39,2.973,3,5.85,4.333,8.85,1.72-3.37,3.2-6.86,4.753-10.31-.8-.287-1.59-.59-2.38-.893,0-.37,0-.737.02-1.1,2.413.173,4.887-.277,7.263.277-.427,1.333-2,1.307-3.037,1.853-1.84,4.29-3.947,8.463-5.743,12.773-.17,2.567,0,5.15-.087,7.723a11.543,11.543,0,0,0,1.913.367c.05.4.093.8.143,1.207h-10.24c.04-.423.09-.84.147-1.257.617-.067,1.233-.15,1.853-.23,0-2.5.1-5-.04-7.5-2.19-4.567-4.48-9.093-6.773-13.61l-1.767-.53C468.123,7.268,468.107,6.728,468.1,6.458Z" transform="translate(-312.067 -4.298)" fill="#fff"/>
  <path id="Path_27" data-name="Path 27" d="M607.83,6.437c2.26.077,4.62-.267,6.78.6,2.263,1.74,3.88,4.14,5.76,6.26,2.137,2.413,4.1,5,6.36,7.283-.057-4.057.05-8.117-.077-12.17-.86-.277-1.7-.593-2.55-.9-.017-.36-.027-.713-.03-1.063,2.353,0,4.713.037,7.07-.027v1.1q-1.317.463-2.61.983c-.053,7.2,0,14.4-.027,21.6a9.825,9.825,0,0,1-.163,1.16c-.543-.15-1.293.153-1.667-.4C621.71,25.087,616.84,19.23,611.83,13.5c-.1,5.02-.023,10.043-.04,15.063.847.367,1.74.64,2.583,1.027.053.333.1.693.133,1.047-2.257,0-4.51.043-6.763-.02l-.573-.4.517-.737c.837-.263,1.667-.57,2.473-.91V8.27c-.777-.28-1.56-.52-2.35-.743C607.837,7.257,607.83,6.707,607.83,6.437Z" transform="translate(-404.78 -4.28)" fill="#fff"/>
  <path id="Path_28" data-name="Path 28" d="M69.75,57.8,88.283,76.337a8.183,8.183,0,0,1,2.4,5.79v6.407L72.147,70a8.187,8.187,0,0,1-2.4-5.8Z" transform="translate(-46.5 -38.533)" fill="#fff"/>
  <path id="Path_29" data-name="Path 29" d="M101.24,6.407V0l8.037,8.037a8.19,8.19,0,0,1,2.4,5.79v6.407l-8.04-8.037a8.2,8.2,0,0,1-2.4-5.79Z" transform="translate(-67.493)" fill="#fff"/>
  <path id="Path_30" data-name="Path 30" d="M4.18,20.267,22.267,2.18,40,19.913a14.267,14.267,0,0,1,4.183,10.093v7.667L21.8,15.307a1.267,1.267,0,0,0-.8.247l-21,21V30.36A14.274,14.274,0,0,1,4.181,20.266Z" transform="translate(0 -1.453)" fill="#fff"/>
</svg>
