<svg id="Arrayan_Logo-Color" data-name="Arrayan Logo-Color" xmlns="http://www.w3.org/2000/svg" width="452.727" height="100" viewBox="0 0 452.727 100">
  <path id="Path_16" data-name="Path 16" d="M177.651,106.611c5.107-7.033,16.18-8.3,22.84-2.773.92.92,2.333,1.727,2.487,3.127a6.307,6.307,0,0,1-3.713,2.5c-1.467-.827-2.473-2.333-4.06-2.98-4.433-2.293-10.667-.92-13.253,3.48-3.553,5.213-2.327,13.58,3.333,16.8a10.949,10.949,0,0,0,12.427-1.267v-4.987c-3.373-.213-6.753-.067-10.127-.127a11.214,11.214,0,0,1,.24-5.133c4.213.153,8.44.047,12.667.047.893.087,2.047-.207,2.667.667.133,3.487.04,6.993,0,10.493.133,1.38-1.173,2.207-2.06,3.02-6.6,5.487-17.62,4.787-23.047-2A17.5,17.5,0,0,1,177.651,106.611Z" transform="translate(-58.131 -33.464)" fill="#3bb05f"/>
  <path id="Path_17" data-name="Path 17" d="M231.062,101.17c4.667.147,9.373-.073,14.06.12a9.667,9.667,0,0,1,8.52,6.667c.407,2.787.567,5.9-1.073,8.353-1.273,2.28-3.74,3.393-5.953,4.533.327.18.667.36,1.007.56,2.04,4,5.12,7.38,7.087,11.433-2.127,0-4.247,0-6.36-.113-2.173-3.68-4.493-7.28-6.82-10.86-1.1-1.847-3.513-.967-5.227-.827,0,3.92.067,7.847-.06,11.767h-5.22c-.667-5.673-.107-11.407-.26-17.1C230.9,110.857,230.369,105.977,231.062,101.17Zm5.253,5.107q-.047,4.853,0,9.707c3.54-.36,7.893,1.153,10.78-1.553,1.913-1.893,1.433-4.727.287-6.873C244.109,105.317,239.989,106.5,236.316,106.277Z" transform="translate(-76.896 -33.723)" fill="#3bb05f"/>
  <path id="Path_18" data-name="Path 18" d="M308.1,116.06v-.373h0a7.847,7.847,0,0,0-.073-.873,15.758,15.758,0,0,0-6.667-11.773,17.133,17.133,0,0,0-6.48-2.473l-.48-.073-.253-.033c-.193,0-.393-.047-.587-.06-.38,0-.753-.04-1.133-.04h-.053a10.858,10.858,0,0,0-1.14.04,1.953,1.953,0,0,0-.587.06l-.253.033-.473.073a17.093,17.093,0,0,0-6.48,2.473,15.842,15.842,0,0,0-6.667,11.773c0,.293-.053.587-.067.873h0V117.2a15.532,15.532,0,0,0,.24,2.547h0c.033.167.06.333.087.493.06.313.133.62.207.933.107.44.233.88.38,1.333.067.233.153.46.233.667l.04.113a15.033,15.033,0,0,0,5.827,7.373,15.192,15.192,0,0,0,3.9,1.713c.193.06.393.113.587.16.447.12.9.207,1.333.287s.88.133,1.333.173a.267.267,0,0,0,.073,0c.467.047.953.067,1.433.067h.04a10.314,10.314,0,0,0,1.433-.067h.067a16.357,16.357,0,0,0,2.667-.46c.193-.047.393-.1.587-.16a15.154,15.154,0,0,0,3.893-1.713,14.994,14.994,0,0,0,5.833-7.367.388.388,0,0,1,.04-.113c.087-.227.167-.453.24-.667a12.237,12.237,0,0,0,.373-1.333c.08-.313.147-.62.207-.933.033-.16.06-.327.093-.493h0a16.3,16.3,0,0,0,.24-2.547v-.893A1.107,1.107,0,0,0,308.1,116.06Zm-13.867,11.907a7.671,7.671,0,0,1-1.52.113h-.58a7.706,7.706,0,0,1-1.52-.113,2.257,2.257,0,0,1-.513-.1,10.727,10.727,0,0,1-6.553-5.22c-.047-.093-.093-.18-.14-.28s-.113-.247-.16-.367a9.948,9.948,0,0,1-.58-2.067,16.738,16.738,0,0,1-.207-2.833c0-.76,0-1.52.06-2.267a9.421,9.421,0,0,1,.107-1.22,12.827,12.827,0,0,1,3.033-5.747c.087-.08.167-.153.26-.227a3.137,3.137,0,0,1,.28-.22l.047-.033q.28-.2.58-.38c.14-.093.287-.173.433-.253s.393-.227.593-.32a.887.887,0,0,1,.213-.1,10.787,10.787,0,0,1,4.26-.953h.18a10.84,10.84,0,0,1,4.267.953,1.247,1.247,0,0,1,.213.1c.2.093.393.207.587.32s.3.16.44.253.387.247.573.38l.053.033c.093.073.187.14.28.22s.173.147.253.227a12.906,12.906,0,0,1,3.04,5.747h0a10.754,10.754,0,0,1,.1,1.22c.033.747.06,1.507.06,2.267a17.46,17.46,0,0,1-.2,2.833A10.375,10.375,0,0,1,301.6,122a3.64,3.64,0,0,1-.167.367c-.04.1-.093.187-.14.28a10.713,10.713,0,0,1-6.547,5.22,5.087,5.087,0,0,1-.507.1Z" transform="translate(-92.237 -33.453)" fill="#3bb05f"/>
  <path id="Path_19" data-name="Path 19" d="M336.947,101.2q2.62,0,5.24.047c.033,6.32,0,12.667,0,18.96-.113,3.007,1.28,6.473,4.3,7.56,2.807.993,6.433.933,8.667-1.333,1.747-1.547,2.32-4,2.407-6.227.047-6.353-.093-12.667.08-19.04,1.72,0,3.447,0,5.16.067-.087,6.76,0,13.513,0,20.273-.12,4-1.94,8.173-5.593,10.16a16.833,16.833,0,0,1-11.593,1.187,11.02,11.02,0,0,1-8.073-7.52c-.867-2.493-.667-5.153-.7-7.733C336.893,112.137,336.807,106.67,336.947,101.2Z" transform="translate(-112.28 -33.723)" fill="#3bb05f"/>
  <path id="Path_20" data-name="Path 20" d="M390.47,101.29c4.387-.107,8.773-.04,13.16-.04a9.64,9.64,0,0,1,8.133,3.813c3.853,5.013,1.58,13.6-4.727,15.333-3.587.72-7.293.147-10.927.413-.213,4,.34,8.073-.42,12.047-1.727-.06-3.46-.087-5.193-.107C390.483,122.276,390.51,111.79,390.47,101.29Zm5.66,4.98c-.067,3.24-.107,6.487,0,9.733,3.287,0,6.6.167,9.827-.6,2.4-1.887,2.46-5.153,1.26-7.74-3.253-2.307-7.4-1.113-11.06-1.393Z" transform="translate(-130.157 -33.743)" fill="#3bb05f"/>
  <path id="Path_21" data-name="Path 21" d="M552.947,6.39c.367-1.52,2.033-1.08,3.18-1.22,6.74,15.333,12.833,30.953,19.627,46.26,1.067.273,2.14.567,3.213.86v2.147c-3.413-.06-6.827.047-10.227-.073-3.273.087-6.047-2.313-7.58-5.02-1.333-2.853-2.4-5.853-3.78-8.667-5.06.08-10.113,0-15.167.053-1.053,3.333-3.127,6.327-3.653,9.793,1.427.793,3.067,1.127,4.44,2,0,.48.093,1.433.12,1.913H529.24c.127-.8.28-1.587.44-2.38a38.033,38.033,0,0,0,5-1.693C541.04,35.817,546.787,21.057,552.947,6.39ZM543.56,37.637c4.2.093,8.4.04,12.6.053-2.067-5.1-4.093-10.227-6.46-15.2C547.673,27.55,545.547,32.563,543.56,37.637Z" transform="translate(-176.413 -1.723)" fill="#0d5235"/>
  <path id="Path_22" data-name="Path 22" d="M198.54,5.377c.947,0,1.893-.047,2.84-.067,6.667,15.02,12.627,30.347,19.167,45.42.76,1.147,2.467,1.113,3.647,1.66.033.667.073,1.38.113,2.08-4.133-.133-8.327.367-12.413-.333-5.84-1.853-6.813-8.593-9.24-13.373H187.407c-1.047,3.333-3.153,6.4-3.58,9.86,1.687,1.093,5.2,1.013,4.667,3.84H174.38V52.6c1.88-.787,3.773-1.547,5.687-2.253C186.227,35.37,192.527,20.437,198.54,5.377Zm-3.333,17.1c-2.427,4.967-4.28,10.18-6.5,15.233,4.267,0,8.533.14,12.8-.107-2.36-4.927-4.373-10.02-6.307-15.127Z" transform="translate(-58.127 -1.77)" fill="#0d5235"/>
  <path id="Path_23" data-name="Path 23" d="M405.52,48.963c6.047-14.52,11.94-29.153,18.14-43.633h2.593c6.667,15.193,12.96,30.567,19.333,45.913,1.293.433,2.593.893,3.867,1.407-.06.467-.187,1.387-.247,1.847-4.287-.213-8.667.507-12.893-.52-5.52-2.087-6.34-8.6-8.813-13.213-5.067.047-10.133-.087-15.187.073-1.08,3.147-2.62,6.113-3.653,9.267.74,2,5.527,1.147,4.62,4.267-4.753.24-9.54.18-14.3,0C398.993,50.663,404.613,52.237,405.52,48.963Zm8.14-11.227c4.227,0,8.453.047,12.667-.06-2.167-5.02-4.187-10.1-6.3-15.14C417.733,27.53,415.66,32.63,413.66,37.737Z" transform="translate(-132.993 -1.777)" fill="#0d5235"/>
  <path id="Path_24" data-name="Path 24" d="M255.347,6.472c8.813.207,17.66-.433,26.44.553,4.627.753,9.693,2.313,12.407,6.46a12.933,12.933,0,0,1,.42,12.52c-2.133,3.947-6.667,5.86-10.907,6.487,2.62,1.247,5.507,2.593,6.833,5.367,2.253,4.667,4.24,9.48,6.533,14.14.987.113,2,.253,2.98.38.113.833.227,1.667.333,2.513-3.867-.047-7.74.087-11.6-.073-3.247-.14-5.693-2.84-7.027-5.587-2.253-5.053-4.387-10.16-6.853-15.113h-3.173c0,5.933.067,11.873,0,17.813,1.533.2,3.067.427,4.587.72,0,.753,0,1.527.06,2.287-7.047-.087-14.093.04-21.14-.053.1-.8.2-1.587.333-2.373a35.265,35.265,0,0,0,3.773-.82c-.093-14,0-28-.047-41.967-1.3-.313-2.593-.667-3.893-.96C255.407,7.965,255.373,7.212,255.347,6.472Zm16.4,3.013q.053,10.74,0,21.473c2.267-.047,4.72.207,6.733-1.047,3.567-1.74,4.887-6,4.78-9.733,0-3.567-1.093-7.747-4.507-9.5C276.7,9.285,274.127,9.485,271.747,9.485Z" transform="translate(-85.08 -2.152)" fill="#0d5235"/>
  <path id="Path_25" data-name="Path 25" d="M331.11,8.657V6.43c5.967.107,11.94.053,17.913.053,4.313.067,8.707.187,12.847,1.547,4.093,1.067,8.28,3.873,9.253,8.233a11.947,11.947,0,0,1-2.107,11.607c-2.327,2.667-5.787,3.933-9.167,4.593,1.533,1.127,3.373,1.787,4.78,3.093,1.727,1.693,2.453,4.067,3.487,6.2,1.4,3.2,3.007,6.333,4.127,9.66a20.326,20.326,0,0,0,3.5,1.16l.32,2.233c-3.853.047-7.707.153-11.553,0-3.24-.18-5.707-2.84-7.013-5.6-2.247-4.993-4.44-10-6.62-15.04-1.14-.04-2.287-.047-3.427-.047v17.66a43.285,43.285,0,0,0,4.347.667c.34.753.833,1.553.26,2.353-7,.167-14,0-21.007.08V52.75c1.333-.353,2.667-.7,3.96-1.1-.067-14-.04-28,0-42C333.717,9.317,332.417,8.977,331.11,8.657Zm16.347.82q-.047,10.733,0,21.46c2.24,0,4.667.253,6.667-.98,3.333-1.653,4.787-5.553,4.78-9.087.207-3.747-.86-8.06-4.287-10.107C352.51,9.363,349.9,9.423,347.457,9.477Z" transform="translate(-110.35 -2.143)" fill="#0d5235"/>
  <path id="Path_26" data-name="Path 26" d="M468.1,6.469c3.933.1,7.933-.273,11.88.347,3.533.487,6.067,3.507,7.467,6.58,2.78,5.947,6,11.7,8.667,17.7,3.44-6.74,6.4-13.72,9.507-20.62-1.607-.573-3.18-1.18-4.76-1.787,0-.74,0-1.473.04-2.207,4.827.347,9.773-.553,14.527.553-.853,2.667-4,2.613-6.073,3.707-3.68,8.58-7.893,16.927-11.487,25.547-.34,5.133,0,10.3-.173,15.447a23.087,23.087,0,0,0,3.827.733c.1.8.187,1.6.287,2.413h-20.48c.08-.847.18-1.68.293-2.513,1.233-.133,2.467-.3,3.707-.46,0-5,.193-10-.08-15-4.38-9.133-8.96-18.187-13.547-27.22l-3.533-1.06C468.147,8.089,468.113,7.009,468.1,6.469Z" transform="translate(-156.033 -2.149)" fill="#0d5235"/>
  <path id="Path_27" data-name="Path 27" d="M608.49,6.453c4.52.153,9.24-.533,13.56,1.207,4.527,3.48,7.76,8.28,11.52,12.52,4.273,4.827,8.207,10,12.72,14.567-.113-8.113.1-16.233-.153-24.34-1.72-.553-3.407-1.187-5.1-1.807-.033-.72-.053-1.427-.06-2.127,4.707,0,9.427.073,14.14-.053v2.2q-2.634.927-5.22,1.967c-.107,14.4,0,28.793-.053,43.193a19.612,19.612,0,0,1-.327,2.32c-1.087-.3-2.587.307-3.333-.793C636.25,43.753,626.51,32.04,616.49,20.573c-.2,10.04-.047,20.087-.08,30.127,1.693.733,3.48,1.28,5.167,2.053.107.667.2,1.387.267,2.093-4.513,0-9.02.087-13.527-.04l-1.147-.8,1.033-1.473c1.673-.527,3.333-1.14,4.947-1.82V10.12c-1.553-.56-3.12-1.04-4.7-1.487C608.5,8.093,608.49,6.993,608.49,6.453Z" transform="translate(-202.39 -2.14)" fill="#0d5235"/>
  <path id="Path_28" data-name="Path 28" d="M69.75,57.8l37.067,37.073a16.367,16.367,0,0,1,4.8,11.58v12.813L74.543,82.193A16.373,16.373,0,0,1,69.75,70.6Z" transform="translate(-23.25 -19.267)" fill="#0d5235"/>
  <path id="Path_29" data-name="Path 29" d="M101.24,12.813V0l16.073,16.073a16.38,16.38,0,0,1,4.8,11.58V40.467l-16.08-16.073a16.393,16.393,0,0,1-4.793-11.58Z" transform="translate(-33.747)" fill="#3bb05f"/>
  <path id="Path_30" data-name="Path 30" d="M8.36,38.353,44.533,2.18,80,37.647a28.533,28.533,0,0,1,8.367,20.187V73.167L43.607,28.433A2.533,2.533,0,0,0,42,28.927l-42,42V58.54A28.548,28.548,0,0,1,8.362,38.352Z" transform="translate(0 -0.727)" fill="#3bb05f"/>
</svg>
