<svg id="Layer_1" data-name="Layer 1" xmlns="http://www.w3.org/2000/svg" viewBox="0 0 350 150"><defs><style>.cls-1{fill:#0d5235;}</style></defs><path class="cls-1" d="M37.32,4.16c-3.85,3.51-4.54,9-4.54,9s5.54-.18,9.39-3.69,4.54-9,4.54-9S41.16.65,37.32,4.16Z"/><path class="cls-1" d="M64.37,133.47a17,17,0,0,1,3.47,9.28c0,.07-7-1.88-10.07-6.57a12,12,0,0,1-1.65-9.41A28.39,28.39,0,0,1,64.37,133.47Z"/><path class="cls-1" d="M59.5,148.19a11.83,11.83,0,0,0,8.39-5.62c-.07,0-6.62-1.87-12.27-1.21a15.57,15.57,0,0,0-9,4.28C46.49,145.65,53.32,149.25,59.5,148.19Z"/><path class="cls-1" d="M52.29,128.16a16.82,16.82,0,0,1,1.42,9.54c0,.07-6.12-3-8.18-8a12.07,12.07,0,0,1,.24-9.38A26.14,26.14,0,0,1,52.29,128.16Z"/><path class="cls-1" d="M44.83,141.55a11.66,11.66,0,0,0,9-4c-.07,0-5.81-2.9-11.29-3.21a15.28,15.28,0,0,0-9.41,2.6C33,136.92,38.82,141.55,44.83,141.55Z"/><path class="cls-1" d="M41.86,121a16.68,16.68,0,0,1-.47,9.47c0,.07-5.24-3.91-6.29-9.17a12,12,0,0,1,2-9A24.66,24.66,0,0,1,41.86,121Z"/><path class="cls-1" d="M32.2,132.67a11.42,11.42,0,0,0,9.3-2.37c-.06,0-5-3.79-10.17-5a15.11,15.11,0,0,0-9.55.9C21.71,126.16,26.47,131.65,32.2,132.67Z"/><path class="cls-1" d="M33.15,112.23a16.37,16.37,0,0,1-2.18,9.1c0,.07-4.33-4.69-4.42-10a12,12,0,0,1,3.5-8.47A23.87,23.87,0,0,1,33.15,112.23Z"/><path class="cls-1" d="M21.69,121.9a11.24,11.24,0,0,0,9.42-.7c-.06,0-4.09-4.53-8.94-6.64a14.93,14.93,0,0,0-9.44-.79C12.66,113.75,16.33,119.92,21.69,121.9Z"/><path class="cls-1" d="M26.24,102.19a16.32,16.32,0,0,1-3.71,8.48c0,.06-3.4-5.32-2.58-10.5a11.74,11.74,0,0,1,4.87-7.64A23.75,23.75,0,0,1,26.24,102.19Z"/><path class="cls-1" d="M13.39,109.6a11.11,11.11,0,0,0,9.29,1c-.05,0-3.18-5.12-7.56-8A14.84,14.84,0,0,0,6,100.1C6,100.07,8.51,106.73,13.39,109.6Z"/><path class="cls-1" d="M21.21,91.18a15.88,15.88,0,0,1-5.08,7.62c0,.06-2.41-5.79-.75-10.72a11.55,11.55,0,0,1,6-6.63A23.59,23.59,0,0,1,21.21,91.18Z"/><path class="cls-1" d="M7.37,96.14a11.09,11.09,0,0,0,8.93,2.59c-.05,0-2.24-5.56-6-9.2a15,15,0,0,0-8.5-4C1.7,85.48,3.08,92.47,7.37,96.14Z"/><path class="cls-1" d="M18.11,79.48a15.59,15.59,0,0,1-6.24,6.58s-1.4-6.12,1.05-10.67a11.28,11.28,0,0,1,7-5.44A23.34,23.34,0,0,1,18.11,79.48Z"/><path class="cls-1" d="M3.73,81.87A11.08,11.08,0,0,0,12.05,86,31.49,31.49,0,0,0,7.66,75.9,15.14,15.14,0,0,0,0,70.42S.14,77.51,3.73,81.87Z"/><path class="cls-1" d="M17,67.4a15.23,15.23,0,0,1-7.21,5.37s-.35-6.28,2.82-10.35a11.15,11.15,0,0,1,7.81-4.13A23.74,23.74,0,0,1,17,67.4Z"/><path class="cls-1" d="M2.55,67.18A11.26,11.26,0,0,0,10,72.76,32.16,32.16,0,0,0,7.41,62a15.23,15.23,0,0,0-6.55-6.8S-.23,62.23,2.55,67.18Z"/><path class="cls-1" d="M18.05,55.24a15.07,15.07,0,0,1-8,4c-.05,0,.74-6.29,4.57-9.77A11,11,0,0,1,23,46.78,24.82,24.82,0,0,1,18.05,55.24Z"/><path class="cls-1" d="M3.92,52.42a11.21,11.21,0,0,0,6.32,6.87,33.9,33.9,0,0,0-.65-11.17,15.45,15.45,0,0,0-5.18-7.95C4.37,40.12,2.05,47,3.92,52.42Z"/><path class="cls-1" d="M21.23,43.3a14.7,14.7,0,0,1-8.56,2.6c-.06,0,1.86-6.14,6.29-8.95a10.84,10.84,0,0,1,8.75-1.25A25.85,25.85,0,0,1,21.23,43.3Z"/><path class="cls-1" d="M7.91,38a11.26,11.26,0,0,0,4.93,8,36.24,36.24,0,0,0,1.44-11.28,15.6,15.6,0,0,0-3.54-8.89C10.71,25.72,7.08,32.23,7.91,38Z"/><path class="cls-1" d="M26.64,31.89A14.56,14.56,0,0,1,17.73,33c-.07,0,3-5.83,8-7.9a10.72,10.72,0,0,1,8.91.26C34.55,25.36,31.06,29.75,26.64,31.89Z"/><path class="cls-1" d="M14.62,24.18a11.22,11.22,0,0,0,3.26,8.89A39.24,39.24,0,0,0,21.56,22a15.84,15.84,0,0,0-1.63-9.59C19.91,12.33,14.94,18.27,14.62,24.18Z"/><path class="cls-1" d="M34.37,21.3a14.3,14.3,0,0,1-9.06-.42c-.07,0,4.22-5.36,9.64-6.63A10.52,10.52,0,0,1,43.79,16C43.71,16,39.21,19.9,34.37,21.3Z"/><path class="cls-1" d="M24.13,11.44A11.25,11.25,0,0,0,25.45,21,44.91,44.91,0,0,0,31.51,10.4a16.48,16.48,0,0,0,.57-10C32.07.32,25.72,5.52,24.13,11.44Z"/><path class="cls-1" d="M87.43,144.29l-.1-1.07A66.25,66.25,0,0,1,61,140.27a69.72,69.72,0,0,1-23.07-12.63A73.37,73.37,0,0,1,11.79,80.2c-2-15.39-1-29.1,3.07-40.75a54.29,54.29,0,0,1,23-29.1l-.57-.92A55.4,55.4,0,0,0,13.84,39.1C9.73,50.91,8.68,64.79,10.72,80.34a74.43,74.43,0,0,0,26.47,48.13A71,71,0,0,0,60.62,141.3,67.29,67.29,0,0,0,87.43,144.29Z"/><path class="cls-1" d="M312.68,4.16c3.85,3.51,4.54,9,4.54,9s-5.54-.18-9.39-3.69-4.54-9-4.54-9S308.84.65,312.68,4.16Z"/><path class="cls-1" d="M285.63,133.47a17,17,0,0,0-3.47,9.28c0,.07,6.95-1.88,10.07-6.57a12,12,0,0,0,1.65-9.41A28.39,28.39,0,0,0,285.63,133.47Z"/><path class="cls-1" d="M290.5,148.19a11.83,11.83,0,0,1-8.39-5.62c.07,0,6.62-1.87,12.27-1.21a15.57,15.57,0,0,1,9,4.28C303.51,145.65,296.68,149.25,290.5,148.19Z"/><path class="cls-1" d="M297.71,128.16a16.82,16.82,0,0,0-1.42,9.54c0,.07,6.12-3,8.18-8a12.07,12.07,0,0,0-.24-9.38A26.14,26.14,0,0,0,297.71,128.16Z"/><path class="cls-1" d="M305.17,141.55a11.66,11.66,0,0,1-9-4c.07,0,5.81-2.9,11.29-3.21a15.28,15.28,0,0,1,9.41,2.6C317,136.92,311.18,141.55,305.17,141.55Z"/><path class="cls-1" d="M308.14,121a16.68,16.68,0,0,0,.47,9.47c0,.07,5.24-3.91,6.29-9.17a12,12,0,0,0-2-9A24.66,24.66,0,0,0,308.14,121Z"/><path class="cls-1" d="M317.8,132.67a11.42,11.42,0,0,1-9.3-2.37c.06,0,5-3.79,10.17-5a15.11,15.11,0,0,1,9.55.9C328.29,126.16,323.53,131.65,317.8,132.67Z"/><path class="cls-1" d="M316.85,112.23a16.37,16.37,0,0,0,2.18,9.1c0,.07,4.33-4.69,4.42-10a12,12,0,0,0-3.5-8.47A23.87,23.87,0,0,0,316.85,112.23Z"/><path class="cls-1" d="M328.31,121.9a11.24,11.24,0,0,1-9.42-.7c.06,0,4.09-4.53,8.94-6.64a14.93,14.93,0,0,1,9.44-.79C337.34,113.75,333.67,119.92,328.31,121.9Z"/><path class="cls-1" d="M323.76,102.19a16.32,16.32,0,0,0,3.71,8.48c0,.06,3.4-5.32,2.58-10.5a11.74,11.74,0,0,0-4.87-7.64A23.75,23.75,0,0,0,323.76,102.19Z"/><path class="cls-1" d="M336.61,109.6a11.11,11.11,0,0,1-9.29,1c.05,0,3.18-5.12,7.56-8A14.84,14.84,0,0,1,344,100.1C344,100.07,341.49,106.73,336.61,109.6Z"/><path class="cls-1" d="M328.79,91.18a15.88,15.88,0,0,0,5.08,7.62c0,.06,2.41-5.79.75-10.72a11.55,11.55,0,0,0-6-6.63A23.59,23.59,0,0,0,328.79,91.18Z"/><path class="cls-1" d="M342.63,96.14a11.09,11.09,0,0,1-8.93,2.59c.05,0,2.24-5.56,6-9.2a15,15,0,0,1,8.5-4C348.3,85.48,346.92,92.47,342.63,96.14Z"/><path class="cls-1" d="M331.89,79.48a15.59,15.59,0,0,0,6.24,6.58s1.4-6.12-1.05-10.67a11.28,11.28,0,0,0-7-5.44A23.34,23.34,0,0,0,331.89,79.48Z"/><path class="cls-1" d="M346.27,81.87A11.08,11.08,0,0,1,338,86a31.49,31.49,0,0,1,4.39-10.11A15.14,15.14,0,0,1,350,70.42C350,70.38,349.86,77.51,346.27,81.87Z"/><path class="cls-1" d="M333,67.4a15.23,15.23,0,0,0,7.21,5.37s.35-6.28-2.82-10.35a11.15,11.15,0,0,0-7.81-4.13A23.74,23.74,0,0,0,333,67.4Z"/><path class="cls-1" d="M347.45,67.18A11.26,11.26,0,0,1,340,72.76,32.16,32.16,0,0,1,342.59,62a15.23,15.23,0,0,1,6.55-6.8S350.23,62.23,347.45,67.18Z"/><path class="cls-1" d="M332,55.24a15.07,15.07,0,0,0,8,4c.05,0-.74-6.29-4.57-9.77A11,11,0,0,0,327,46.78,24.82,24.82,0,0,0,332,55.24Z"/><path class="cls-1" d="M346.08,52.42a11.21,11.21,0,0,1-6.32,6.87,33.9,33.9,0,0,1,.65-11.17,15.45,15.45,0,0,1,5.18-7.95C345.63,40.12,348,47,346.08,52.42Z"/><path class="cls-1" d="M328.77,43.3a14.7,14.7,0,0,0,8.56,2.6c.06,0-1.86-6.14-6.29-8.95a10.84,10.84,0,0,0-8.75-1.25A25.85,25.85,0,0,0,328.77,43.3Z"/><path class="cls-1" d="M342.09,38a11.26,11.26,0,0,1-4.93,8,36.24,36.24,0,0,1-1.44-11.28,15.6,15.6,0,0,1,3.54-8.89C339.29,25.72,342.92,32.23,342.09,38Z"/><path class="cls-1" d="M323.36,31.89a14.56,14.56,0,0,0,8.91,1.1c.07,0-3-5.83-8-7.9a10.72,10.72,0,0,0-8.91.26C315.45,25.36,318.94,29.75,323.36,31.89Z"/><path class="cls-1" d="M335.38,24.18a11.22,11.22,0,0,1-3.26,8.89A39.24,39.24,0,0,1,328.44,22a15.84,15.84,0,0,1,1.63-9.59C330.09,12.33,335.06,18.27,335.38,24.18Z"/><path class="cls-1" d="M315.63,21.3a14.3,14.3,0,0,0,9.06-.42c.07,0-4.22-5.36-9.64-6.63A10.52,10.52,0,0,0,306.21,16C306.29,16,310.79,19.9,315.63,21.3Z"/><path class="cls-1" d="M325.87,11.44A11.25,11.25,0,0,1,324.55,21a44.91,44.91,0,0,1-6.06-10.59,16.48,16.48,0,0,1-.57-10C317.93.32,324.28,5.52,325.87,11.44Z"/><path class="cls-1" d="M262.57,144.29l.1-1.07a66.25,66.25,0,0,0,26.38-2.95,69.72,69.72,0,0,0,23.07-12.63A73.37,73.37,0,0,0,338.21,80.2c2-15.39,1-29.1-3.07-40.75a54.29,54.29,0,0,0-23-29.1l.57-.92A55.4,55.4,0,0,1,336.16,39.1c4.11,11.81,5.16,25.69,3.12,41.24a74.43,74.43,0,0,1-26.47,48.13,71,71,0,0,1-23.43,12.83A67.29,67.29,0,0,1,262.57,144.29Z"/><path class="cls-1" d="M146.86,33.65a11.07,11.07,0,0,1,4.32,1.74A4.61,4.61,0,0,1,153,39.15a5,5,0,0,1-2,4q-2.4,1.93-7,1.93H133v-.59a4.88,4.88,0,0,0,2-.28,1.55,1.55,0,0,0,.75-.72,6.66,6.66,0,0,0,.22-2.2v-14a6.74,6.74,0,0,0-.22-2.21,1.59,1.59,0,0,0-.76-.73,5.08,5.08,0,0,0-2-.27v-.59h10.36a14.72,14.72,0,0,1,5.26.66,5.43,5.43,0,0,1,2.44,2,4.88,4.88,0,0,1,.9,2.8,4,4,0,0,1-1.14,2.78A8.13,8.13,0,0,1,146.86,33.65Zm-5.81.81V42.2a1.55,1.55,0,0,0,1.74,1.73,5.06,5.06,0,0,0,2.35-.56,3.86,3.86,0,0,0,1.65-1.65,5,5,0,0,0,.57-2.4,5.26,5.26,0,0,0-.7-2.71,3.77,3.77,0,0,0-1.93-1.69A10.72,10.72,0,0,0,141.05,34.46Zm0-1.24a8.2,8.2,0,0,0,3.34-.51A3.76,3.76,0,0,0,146,31.27a4.32,4.32,0,0,0,.58-2.36,4.4,4.4,0,0,0-.57-2.35,3.51,3.51,0,0,0-1.62-1.39,8.53,8.53,0,0,0-3.38-.47Z"/><path class="cls-1" d="M163.32,24.73v8.81h.43a3.42,3.42,0,0,0,3-1.29,8,8,0,0,0,1.18-3.82h.61V39.76h-.61a8.43,8.43,0,0,0-.81-3,3.41,3.41,0,0,0-1.42-1.59,5.43,5.43,0,0,0-2.36-.41v6.09a9,9,0,0,0,.15,2.19,1.34,1.34,0,0,0,.56.65,2.7,2.7,0,0,0,1.35.26h1.29a7,7,0,0,0,7.47-5.68h.59l-1,6.87H155.07v-.59h.72a3.06,3.06,0,0,0,1.52-.33,1.5,1.5,0,0,0,.63-.77,6.37,6.37,0,0,0,.18-2V27.19a11.66,11.66,0,0,0-.08-1.8,1.53,1.53,0,0,0-.59-.86,2.73,2.73,0,0,0-1.66-.45h-.72v-.59h18.1v6.4h-.6a7.91,7.91,0,0,0-1.3-3.37A4.86,4.86,0,0,0,168.9,25a12.87,12.87,0,0,0-3.35-.29Z"/><path class="cls-1" d="M192.34,23l.17,7.2h-.65a7.44,7.44,0,0,0-2.27-4.36,5.72,5.72,0,0,0-3.92-1.65,3.65,3.65,0,0,0-2.57.87,2.66,2.66,0,0,0-.95,2,2.46,2.46,0,0,0,.33,1.28A5.49,5.49,0,0,0,184,29.82a34.43,34.43,0,0,0,3.46,1.87,15.33,15.33,0,0,1,5.11,3.52,5.93,5.93,0,0,1,1.31,3.8,6.13,6.13,0,0,1-2.11,4.66,7.61,7.61,0,0,1-5.37,1.95,9,9,0,0,1-1.92-.2,14.3,14.3,0,0,1-2.29-.79,3.46,3.46,0,0,0-1.25-.31,1.57,1.57,0,0,0-.88.31,2.25,2.25,0,0,0-.75,1h-.59V37.44h.59A9.42,9.42,0,0,0,182,42.7a6.36,6.36,0,0,0,4.31,1.81,4.06,4.06,0,0,0,2.85-1,3,3,0,0,0,1.06-2.26,2.88,2.88,0,0,0-.41-1.48,4.7,4.7,0,0,0-1.23-1.37,18.6,18.6,0,0,0-2.93-1.68,26,26,0,0,1-4.25-2.47,7.54,7.54,0,0,1-2-2.28,5.67,5.67,0,0,1-.7-2.77,5.91,5.91,0,0,1,1.9-4.41A6.65,6.65,0,0,1,185.39,23a8.14,8.14,0,0,1,2,.25,10.89,10.89,0,0,1,1.82.71,4.23,4.23,0,0,0,1.51.52.81.81,0,0,0,.65-.26,2.89,2.89,0,0,0,.45-1.22Z"/><path class="cls-1" d="M215.77,23.49v5.85h-.57a9.35,9.35,0,0,0-1.13-2.91A4.42,4.42,0,0,0,212.36,25a5.49,5.49,0,0,0-2.12-.29h-1.61V41.41a7,7,0,0,0,.18,2.08,1.66,1.66,0,0,0,.72.72,2.86,2.86,0,0,0,1.46.31h.72v.59H200.38v-.59h.72a3.06,3.06,0,0,0,1.52-.33,1.58,1.58,0,0,0,.65-.77,6.37,6.37,0,0,0,.18-2V24.73h-1.57a4.53,4.53,0,0,0-3.17.93A6.12,6.12,0,0,0,197,29.34h-.61V23.49Z"/><path class="cls-1" d="M71.76,77.77v-.59h.72a2.81,2.81,0,0,0,1.44-.3,1.69,1.69,0,0,0,.74-.8,7.27,7.27,0,0,0,.15-2V59.85a7,7,0,0,0-.18-2.08,1.58,1.58,0,0,0-.71-.72,2.8,2.8,0,0,0-1.44-.31h-.72v-.59h9.68a15.59,15.59,0,0,1,6.24,1.05,9.17,9.17,0,0,1,4.37,3.91,12.46,12.46,0,0,1,.76,10.11,9.6,9.6,0,0,1-1.9,3.18,9.43,9.43,0,0,1-2.68,2,14.78,14.78,0,0,1-3.73,1.17,17.31,17.31,0,0,1-3.06.19ZM80,57.38V74.25a6.28,6.28,0,0,0,.12,1.64,1,1,0,0,0,.43.46,2.64,2.64,0,0,0,1.25.24,4.82,4.82,0,0,0,4.06-1.82q1.92-2.46,1.92-7.62a14.39,14.39,0,0,0-1.31-6.65,5.59,5.59,0,0,0-2.66-2.65A10.19,10.19,0,0,0,80,57.38Z"/><path class="cls-1" d="M103.9,57.39v8.8h.43a3.41,3.41,0,0,0,3-1.29,7.9,7.9,0,0,0,1.18-3.81h.61V72.41h-.61a8.35,8.35,0,0,0-.8-3,3.5,3.5,0,0,0-1.43-1.58,5.29,5.29,0,0,0-2.36-.41v6.09a8.79,8.79,0,0,0,.15,2.18,1.29,1.29,0,0,0,.57.66,2.64,2.64,0,0,0,1.34.25h1.29a7.7,7.7,0,0,0,4.85-1.4,7.82,7.82,0,0,0,2.63-4.27h.59l-1,6.87H95.66v-.59h.71a2.93,2.93,0,0,0,1.52-.34,1.4,1.4,0,0,0,.64-.76,6.94,6.94,0,0,0,.17-2V59.85a10.43,10.43,0,0,0-.08-1.8,1.5,1.5,0,0,0-.59-.87,2.77,2.77,0,0,0-1.66-.44h-.71v-.59h18.09v6.39h-.6a7.78,7.78,0,0,0-1.3-3.36,4.86,4.86,0,0,0-2.37-1.5,12.82,12.82,0,0,0-3.35-.29Z"/><path class="cls-1" d="M140.34,56.15v.59a3.52,3.52,0,0,0-2.1,1.26,19.17,19.17,0,0,0-2,3.74L128.8,78.26h-.53l-7.41-17.19a21.7,21.7,0,0,0-1.8-3.65,2.53,2.53,0,0,0-1.71-.68v-.59h10.36v.59h-.35a3.58,3.58,0,0,0-1.91.35.79.79,0,0,0-.37.7,2.43,2.43,0,0,0,.13.68c.09.26.37,1,.86,2.09l4.61,10.77L135,61.74a22.89,22.89,0,0,0,.94-2.32,3.59,3.59,0,0,0,.18-1,1.49,1.49,0,0,0-.25-.84,1.66,1.66,0,0,0-.75-.56,5.1,5.1,0,0,0-1.82-.27v-.59Z"/><path class="cls-1" d="M151,57.39v8.8h.43a3.42,3.42,0,0,0,3-1.29,8,8,0,0,0,1.18-3.81h.6V72.41h-.6a8.55,8.55,0,0,0-.81-3,3.48,3.48,0,0,0-1.42-1.58,5.32,5.32,0,0,0-2.36-.41v6.09a8.79,8.79,0,0,0,.15,2.18,1.32,1.32,0,0,0,.56.66,2.69,2.69,0,0,0,1.34.25h1.29a7,7,0,0,0,7.48-5.67h.59l-1,6.87H142.78v-.59h.72a2.89,2.89,0,0,0,1.51-.34,1.4,1.4,0,0,0,.64-.76,6.46,6.46,0,0,0,.18-2V59.85a11.66,11.66,0,0,0-.08-1.8,1.6,1.6,0,0,0-.59-.87,2.82,2.82,0,0,0-1.66-.44h-.72v-.59h18.1v6.39h-.61a7.66,7.66,0,0,0-1.3-3.36,4.78,4.78,0,0,0-2.36-1.5,12.92,12.92,0,0,0-3.35-.29Z"/><path class="cls-1" d="M185,70.18l-.81,7.59H165v-.59h.72a2.91,2.91,0,0,0,1.51-.34,1.4,1.4,0,0,0,.64-.76,6.58,6.58,0,0,0,.17-2V59.85a7.13,7.13,0,0,0-.17-2.08,1.68,1.68,0,0,0-.71-.72,2.85,2.85,0,0,0-1.44-.31H165v-.59h11.53v.59h-.94a3,3,0,0,0-1.52.33,1.53,1.53,0,0,0-.65.77,6.37,6.37,0,0,0-.18,2V73.62a7.34,7.34,0,0,0,.19,2.12,1.26,1.26,0,0,0,.75.67,7.3,7.3,0,0,0,1.93.15h1.8a6,6,0,0,0,2.87-.61,5.31,5.31,0,0,0,2-1.91,15.43,15.43,0,0,0,1.59-3.86Z"/><path class="cls-1" d="M199.39,55.84a10.74,10.74,0,0,1,11.62,11,11.52,11.52,0,0,1-2.41,7.24,10.7,10.7,0,0,1-9,4.14q-5.84,0-9-4a11.46,11.46,0,0,1-2.52-7.42,10.74,10.74,0,0,1,3.28-8A10.43,10.43,0,0,1,199.39,55.84Zm.19,1a4.86,4.86,0,0,0-4.51,3A16.21,16.21,0,0,0,193.81,67c0,3.69.64,6.41,1.94,8.18a4.46,4.46,0,0,0,3.8,1.85,4.56,4.56,0,0,0,2.74-.8A6.58,6.58,0,0,0,204.47,73a17.81,17.81,0,0,0,.79-5.84,19.46,19.46,0,0,0-.8-6.42,6.3,6.3,0,0,0-2-3A4.85,4.85,0,0,0,199.58,56.87Z"/><path class="cls-1" d="M221.1,68v6a6.46,6.46,0,0,0,.22,2.21,1.55,1.55,0,0,0,.76.73,5.15,5.15,0,0,0,2,.27v.59h-11v-.59a4.94,4.94,0,0,0,2-.28,1.63,1.63,0,0,0,.74-.73,6.35,6.35,0,0,0,.22-2.2v-14a6.5,6.5,0,0,0-.22-2.21,1.55,1.55,0,0,0-.75-.72,5.14,5.14,0,0,0-2-.27v-.59h9.43q4.65,0,6.68,1.66a5.12,5.12,0,0,1,2,4.14,5.26,5.26,0,0,1-1.31,3.61,6.75,6.75,0,0,1-3.6,2A25,25,0,0,1,221.1,68Zm0-10.59v9.35l.8,0a3.87,3.87,0,0,0,3-1.16A5.19,5.19,0,0,0,226,62a5,5,0,0,0-1-3.52,4.12,4.12,0,0,0-3.15-1.12Z"/><path class="cls-1" d="M241,57.39v8.8h.43a3.41,3.41,0,0,0,3-1.29,7.9,7.9,0,0,0,1.18-3.81h.61V72.41h-.61a8.35,8.35,0,0,0-.8-3,3.5,3.5,0,0,0-1.43-1.58,5.29,5.29,0,0,0-2.36-.41v6.09a8.79,8.79,0,0,0,.15,2.18,1.29,1.29,0,0,0,.57.66,2.64,2.64,0,0,0,1.34.25h1.29a7.75,7.75,0,0,0,4.86-1.4,7.86,7.86,0,0,0,2.62-4.27h.59l-1,6.87H232.75v-.59h.71a2.93,2.93,0,0,0,1.52-.34,1.4,1.4,0,0,0,.64-.76,6.94,6.94,0,0,0,.17-2V59.85a10.43,10.43,0,0,0-.08-1.8,1.5,1.5,0,0,0-.59-.87,2.77,2.77,0,0,0-1.66-.44h-.71v-.59h18.1v6.39h-.61a7.78,7.78,0,0,0-1.3-3.36,4.86,4.86,0,0,0-2.37-1.5,12.82,12.82,0,0,0-3.35-.29Z"/><path class="cls-1" d="M263,67.91V74a6.46,6.46,0,0,0,.22,2.21,1.52,1.52,0,0,0,.75.73,5.18,5.18,0,0,0,2,.27v.59H255v-.59a4.94,4.94,0,0,0,2-.28,1.71,1.71,0,0,0,.75-.73A6.72,6.72,0,0,0,258,74v-14a6.89,6.89,0,0,0-.21-2.21A1.62,1.62,0,0,0,257,57a5.14,5.14,0,0,0-2-.27v-.59h10a22,22,0,0,1,5.74.54,5.83,5.83,0,0,1,3,2,5.38,5.38,0,0,1,1.14,3.42,5.12,5.12,0,0,1-1.72,4,7.21,7.21,0,0,1-3.08,1.48l5.2,7.32a12.15,12.15,0,0,0,1.45,1.77,2.69,2.69,0,0,0,1.52.54v.59h-6.81l-7-9.86Zm0-10.6v9.47H264a10.26,10.26,0,0,0,3.32-.4A3.3,3.3,0,0,0,269,64.91a5.38,5.38,0,0,0,.63-2.77,4.2,4.2,0,0,0-4.88-4.83Z"/><path class="cls-1" d="M104.05,108.08A3.19,3.19,0,0,1,102.7,107a2.76,2.76,0,0,1-.49-1.61h1.87a1.66,1.66,0,0,0,.54,1.13A1.94,1.94,0,0,0,106,107a2.11,2.11,0,0,0,1.41-.44,1.42,1.42,0,0,0,.51-1.13,1.24,1.24,0,0,0-.32-.87,2.14,2.14,0,0,0-.78-.52c-.31-.12-.74-.25-1.29-.4a11.65,11.65,0,0,1-1.7-.56,2.84,2.84,0,0,1-1.11-.88,2.59,2.59,0,0,1-.46-1.59A2.89,2.89,0,0,1,102.7,99,3,3,0,0,1,104,97.93a4.77,4.77,0,0,1,1.92-.36,4,4,0,0,1,2.53.77,2.84,2.84,0,0,1,1.09,2.12H107.6a1.36,1.36,0,0,0-.55-1,2,2,0,0,0-1.33-.42,1.89,1.89,0,0,0-1.23.39,1.34,1.34,0,0,0-.47,1.1,1.12,1.12,0,0,0,.3.8,2.06,2.06,0,0,0,.76.5,11.07,11.07,0,0,0,1.25.4,13.31,13.31,0,0,1,1.73.58,2.8,2.8,0,0,1,1.13.9,2.57,2.57,0,0,1,.47,1.61,2.92,2.92,0,0,1-.44,1.53A3.12,3.12,0,0,1,108,108a4.21,4.21,0,0,1-2,.44A4.78,4.78,0,0,1,104.05,108.08Z"/><path class="cls-1" d="M120.08,99.91v8.44h-1.75v-1a2.87,2.87,0,0,1-1.08.82,3.45,3.45,0,0,1-1.42.3,3.83,3.83,0,0,1-1.78-.41,3,3,0,0,1-1.24-1.23,4,4,0,0,1-.45-2v-5h1.73v4.7a2.47,2.47,0,0,0,.56,1.74,2.27,2.27,0,0,0,3.1,0,2.39,2.39,0,0,0,.58-1.74v-4.7Z"/><path class="cls-1" d="M126.1,100.16a3.78,3.78,0,0,1,1.72-.39,3.9,3.9,0,0,1,2,.54,3.79,3.79,0,0,1,1.42,1.52,4.74,4.74,0,0,1,.52,2.26,4.85,4.85,0,0,1-.52,2.28,3.92,3.92,0,0,1-1.43,1.56,3.82,3.82,0,0,1-2,.56,3.71,3.71,0,0,1-1.73-.39,3.29,3.29,0,0,1-1.21-1v1.23h-1.74V97h1.74v4.15A3.4,3.4,0,0,1,126.1,100.16Zm3.55,2.42a2.44,2.44,0,0,0-1-1,2.52,2.52,0,0,0-1.26-.33,2.45,2.45,0,0,0-1.25.34,2.49,2.49,0,0,0-1,1,3,3,0,0,0-.36,1.51,3.14,3.14,0,0,0,.36,1.53,2.49,2.49,0,0,0,1,1,2.49,2.49,0,0,0,2.51,0,2.51,2.51,0,0,0,1-1,3,3,0,0,0,.36-1.53A2.94,2.94,0,0,0,129.65,102.58Z"/><path class="cls-1" d="M135.57,108.13a3.1,3.1,0,0,1-1.25-1,2.44,2.44,0,0,1-.49-1.39h1.81a1.23,1.23,0,0,0,.51.9,1.85,1.85,0,0,0,1.17.36,2,2,0,0,0,1.14-.29.85.85,0,0,0,.41-.72.74.74,0,0,0-.46-.71,8.22,8.22,0,0,0-1.43-.5,15.36,15.36,0,0,1-1.54-.51,2.64,2.64,0,0,1-1-.75,2,2,0,0,1-.43-1.33,2.14,2.14,0,0,1,.39-1.24,2.74,2.74,0,0,1,1.15-.88,4.3,4.3,0,0,1,1.7-.32,3.54,3.54,0,0,1,2.32.73,2.65,2.65,0,0,1,.95,2h-1.75a1.26,1.26,0,0,0-.46-.9,1.76,1.76,0,0,0-1.12-.34,1.86,1.86,0,0,0-1.06.26.83.83,0,0,0-.36.69.75.75,0,0,0,.24.57,1.88,1.88,0,0,0,.6.36c.23.09.58.2,1,.33a10.64,10.64,0,0,1,1.51.5,2.73,2.73,0,0,1,1,.74,2,2,0,0,1,.44,1.3,2.17,2.17,0,0,1-.4,1.29,2.65,2.65,0,0,1-1.12.89,4.31,4.31,0,0,1-1.71.32A4.22,4.22,0,0,1,135.57,108.13Z"/><path class="cls-1" d="M143.33,98.47a1.12,1.12,0,0,1,0-1.59,1.12,1.12,0,0,1,1.57,0,1.15,1.15,0,0,1,0,1.59,1.12,1.12,0,0,1-1.57,0ZM145,99.91v8.44h-1.75V99.91Z"/><path class="cls-1" d="M148,101.84a3.88,3.88,0,0,1,3.47-2.07,4,4,0,0,1,1.63.36,3.33,3.33,0,0,1,1.28,1V97h1.76v11.33h-1.76v-1.27a3.3,3.3,0,0,1-1.19,1,3.72,3.72,0,0,1-1.74.4,3.81,3.81,0,0,1-2-.56,4,4,0,0,1-1.44-1.56,4.85,4.85,0,0,1-.53-2.28A4.67,4.67,0,0,1,148,101.84Zm6,.77a2.54,2.54,0,0,0-.94-1,2.43,2.43,0,0,0-1.26-.34,2.46,2.46,0,0,0-1.25.33,2.5,2.5,0,0,0-1,1,3,3,0,0,0-.36,1.51,3.14,3.14,0,0,0,.36,1.53,2.58,2.58,0,0,0,1,1,2.49,2.49,0,0,0,2.51,0,2.54,2.54,0,0,0,.94-1,3.14,3.14,0,0,0,.36-1.53A3,3,0,0,0,154.06,102.61Z"/><path class="cls-1" d="M159.35,98.47a1.15,1.15,0,0,1,0-1.59,1.07,1.07,0,0,1,.8-.32,1,1,0,0,1,.78.32,1.15,1.15,0,0,1,0,1.59,1.06,1.06,0,0,1-.78.32A1.11,1.11,0,0,1,159.35,98.47ZM161,99.91v8.44h-1.75V99.91Z"/><path class="cls-1" d="M165.51,106.93h3.83v1.42h-5.85v-1.42l3.85-5.6h-3.85V99.91h5.85v1.42Z"/><path class="cls-1" d="M179.47,104.78H173a2.32,2.32,0,0,0,.75,1.62,2.36,2.36,0,0,0,1.65.62,2,2,0,0,0,2-1.18h1.89a3.88,3.88,0,0,1-1.39,1.91,4.11,4.11,0,0,1-2.49.74,4.21,4.21,0,0,1-2.16-.55,3.81,3.81,0,0,1-1.5-1.53,4.59,4.59,0,0,1-.55-2.29,4.81,4.81,0,0,1,.53-2.29,3.7,3.7,0,0,1,1.49-1.52,4.67,4.67,0,0,1,4.32,0,3.69,3.69,0,0,1,1.46,1.47,4.45,4.45,0,0,1,.52,2.16A5.52,5.52,0,0,1,179.47,104.78Zm-1.76-1.41a2,2,0,0,0-.69-1.54,2.47,2.47,0,0,0-1.67-.59,2.21,2.21,0,0,0-1.55.58,2.43,2.43,0,0,0-.77,1.55Z"/><path class="cls-1" d="M182.1,101.84a3.88,3.88,0,0,1,3.47-2.07,3.94,3.94,0,0,1,1.63.36,3.25,3.25,0,0,1,1.28,1V97h1.76v11.33h-1.76v-1.27a3.22,3.22,0,0,1-1.19,1,3.71,3.71,0,0,1-1.73.4,3.82,3.82,0,0,1-2-.56,4,4,0,0,1-1.44-1.56,4.85,4.85,0,0,1-.52-2.28A4.67,4.67,0,0,1,182.1,101.84Zm6,.77a2.47,2.47,0,0,0-.94-1,2.43,2.43,0,0,0-1.26-.34,2.48,2.48,0,0,0-2.19,1.29,3,3,0,0,0-.36,1.51,3.14,3.14,0,0,0,.36,1.53,2.51,2.51,0,0,0,1,1,2.47,2.47,0,0,0,2.5,0,2.47,2.47,0,0,0,.94-1,3.14,3.14,0,0,0,.36-1.53A3,3,0,0,0,188.12,102.61Z"/><path class="cls-1" d="M206.56,97.7v10.65h-1.75v-4.66h-5v4.66h-1.74V97.7h1.74v4.57h5V97.7Z"/><path class="cls-1" d="M211.28,107.94a3.86,3.86,0,0,1-1.52-1.53,4.59,4.59,0,0,1-.55-2.29,4.49,4.49,0,0,1,.57-2.28,3.91,3.91,0,0,1,1.54-1.53,4.5,4.5,0,0,1,2.19-.54,4.44,4.44,0,0,1,2.19.54,3.93,3.93,0,0,1,1.55,1.53,4.49,4.49,0,0,1,.57,2.28,4.4,4.4,0,0,1-.59,2.28,3.9,3.9,0,0,1-1.58,1.54,4.5,4.5,0,0,1-2.21.55A4.23,4.23,0,0,1,211.28,107.94Zm3.42-1.29a2.56,2.56,0,0,0,1-1,3.13,3.13,0,0,0,.36-1.56,3.09,3.09,0,0,0-.35-1.55,2.33,2.33,0,0,0-.93-1,2.62,2.62,0,0,0-1.26-.32,2.58,2.58,0,0,0-1.25.32,2.35,2.35,0,0,0-.91,1,3.32,3.32,0,0,0-.33,1.55,3,3,0,0,0,.69,2.11,2.33,2.33,0,0,0,1.76.74A2.62,2.62,0,0,0,214.7,106.65Z"/><path class="cls-1" d="M228,99.91v8.44h-1.74v-1a2.87,2.87,0,0,1-1.08.82,3.45,3.45,0,0,1-1.42.3,3.83,3.83,0,0,1-1.78-.41,3,3,0,0,1-1.24-1.23,3.87,3.87,0,0,1-.46-2v-5H222v4.7a2.43,2.43,0,0,0,.56,1.74,2.27,2.27,0,0,0,3.1,0,2.39,2.39,0,0,0,.58-1.74v-4.7Z"/><path class="cls-1" d="M232.36,108.13a3.17,3.17,0,0,1-1.25-1,2.44,2.44,0,0,1-.49-1.39h1.81a1.23,1.23,0,0,0,.51.9,1.85,1.85,0,0,0,1.17.36,2,2,0,0,0,1.14-.29.85.85,0,0,0,.41-.72.75.75,0,0,0-.45-.71,8.39,8.39,0,0,0-1.44-.5c-.63-.18-1.14-.35-1.54-.51a2.64,2.64,0,0,1-1-.75,2,2,0,0,1-.43-1.33,2.08,2.08,0,0,1,.4-1.24,2.65,2.65,0,0,1,1.14-.88,4.3,4.3,0,0,1,1.7-.32,3.54,3.54,0,0,1,2.32.73,2.62,2.62,0,0,1,1,2h-1.75a1.23,1.23,0,0,0-.46-.9,1.74,1.74,0,0,0-1.12-.34,1.81,1.81,0,0,0-1.05.26.81.81,0,0,0-.37.69.75.75,0,0,0,.24.57,2,2,0,0,0,.6.36c.23.09.58.2,1,.33a10.64,10.64,0,0,1,1.51.5,2.73,2.73,0,0,1,1,.74,2,2,0,0,1,.44,1.3,2.23,2.23,0,0,1-.39,1.29,2.68,2.68,0,0,1-1.13.89,4.28,4.28,0,0,1-1.71.32A4.22,4.22,0,0,1,232.36,108.13Z"/><path class="cls-1" d="M247.72,104.78h-6.44a2.32,2.32,0,0,0,.75,1.62,2.36,2.36,0,0,0,1.65.62,2,2,0,0,0,2-1.18h1.89a3.88,3.88,0,0,1-1.39,1.91,4.11,4.11,0,0,1-2.49.74,4.27,4.27,0,0,1-2.17-.55,3.94,3.94,0,0,1-1.5-1.53,4.7,4.7,0,0,1-.54-2.29,4.81,4.81,0,0,1,.53-2.29,3.74,3.74,0,0,1,1.48-1.52,4.69,4.69,0,0,1,4.33,0,3.75,3.75,0,0,1,1.46,1.47,4.89,4.89,0,0,1,.45,3ZM246,103.37a2,2,0,0,0-.68-1.54,2.47,2.47,0,0,0-1.67-.59,2.21,2.21,0,0,0-1.55.58,2.38,2.38,0,0,0-.77,1.55Z"/><path class="cls-1" d="M158.86,124.35c1-.84,1.76-1.54,2.32-2.09a9.22,9.22,0,0,0,1.42-1.7,3.3,3.3,0,0,0,.57-1.78,2.19,2.19,0,0,0-.44-1.44,1.68,1.68,0,0,0-1.37-.52,1.76,1.76,0,0,0-1.4.57,2.42,2.42,0,0,0-.53,1.54h-1.69a3.76,3.76,0,0,1,6.22-2.68,3.29,3.29,0,0,1,.94,2.45,4.34,4.34,0,0,1-.56,2.12,9.13,9.13,0,0,1-1.33,1.83c-.52.53-1.18,1.15-2,1.86l-.69.61h4.85v1.46h-7.44V125.3Z"/><path class="cls-1" d="M168.4,116.86a3.92,3.92,0,0,1,6.17,0,8,8,0,0,1,.9,4.14,8.2,8.2,0,0,1-.9,4.19,3.91,3.91,0,0,1-6.17,0,8.2,8.2,0,0,1-.9-4.19A8,8,0,0,1,168.4,116.86Zm5.19,2a2.89,2.89,0,0,0-.65-1.4,1.87,1.87,0,0,0-1.46-.54,1.85,1.85,0,0,0-1.45.54,2.72,2.72,0,0,0-.65,1.4,11.36,11.36,0,0,0-.16,2.1,13,13,0,0,0,.15,2.16,2.72,2.72,0,0,0,.65,1.41,2.24,2.24,0,0,0,2.92,0,2.73,2.73,0,0,0,.66-1.41,13,13,0,0,0,.15-2.16A11.36,11.36,0,0,0,173.59,118.9Z"/><path class="cls-1" d="M177.56,117.16v-1.6h3.18v11.17H179v-9.57Z"/><path class="cls-1" d="M184.14,118.38a3,3,0,0,1,.41-1.52,2.89,2.89,0,0,1,1.24-1.09,5.18,5.18,0,0,1,4,0,2.92,2.92,0,0,1,1.25,1.09,3,3,0,0,1,.41,1.52,2.58,2.58,0,0,1-.44,1.51,2.86,2.86,0,0,1-1.15,1,2.91,2.91,0,0,1,1.38,1,3,3,0,0,1,.5,1.71,3.18,3.18,0,0,1-.5,1.76,3.28,3.28,0,0,1-1.41,1.18,4.86,4.86,0,0,1-2.06.41,4.77,4.77,0,0,1-2-.41,3.25,3.25,0,0,1-1.4-1.18,3.11,3.11,0,0,1-.51-1.76,2.83,2.83,0,0,1,1.87-2.76A2.64,2.64,0,0,1,184.14,118.38Zm2,3.78a1.68,1.68,0,0,0-.64,1.43,1.82,1.82,0,0,0,.61,1.41,2.4,2.4,0,0,0,1.67.55,2.33,2.33,0,0,0,1.65-.55,1.85,1.85,0,0,0,.61-1.41,1.76,1.76,0,0,0-.62-1.43,2.94,2.94,0,0,0-3.28,0Zm3.11-4.88a2.55,2.55,0,0,0-2.92,0,1.64,1.64,0,0,0-.54,1.33,1.58,1.58,0,0,0,.56,1.25,2.11,2.11,0,0,0,1.43.48,2.08,2.08,0,0,0,1.44-.49,1.58,1.58,0,0,0,.57-1.25A1.62,1.62,0,0,0,189.28,117.28Z"/></svg>