<svg id="Layer_1" data-name="Layer 1" xmlns="http://www.w3.org/2000/svg" viewBox="0 0 222.37 96.22"><defs><style>.cls-1{fill:#fff;}</style></defs><path class="cls-1" d="M18.69,74.59C.38,52.75,6.65,21,27.57,6.56l-.22-.32C6.18,20.59-.54,52.78,18,75.19,27,86.07,38.66,89.25,46,93.29h2.53C41.29,88.66,28.64,86.42,18.69,74.59Z"/><path class="cls-1" d="M39.48,79.78c-1.68,2.68-2.13,6.21.44,8.12l.09-.12a3.08,3.08,0,0,0,1-3C41.19,83.26,40.27,81.1,39.48,79.78Z"/><path class="cls-1" d="M35.36,86.09c2.15-1.6,1.48-5.54.27-8C33.75,80.56,33,84.08,35.36,86.09Z"/><path class="cls-1" d="M31,83.79C33.24,82.42,33,78.48,32,76,29.91,78.24,28.87,81.65,31,83.79Z"/><path class="cls-1" d="M26.93,81c2.15-1.08,2.46-4.56,1.63-7.55C26.28,75.53,25,78.81,26.93,81Z"/><path class="cls-1" d="M25.43,70.6c-2.33,1.73-3.94,4.88-2.25,7.26C25.55,76.92,25.91,73.18,25.43,70.6Z"/><path class="cls-1" d="M22.62,67.36c-2.71,1.65-4.21,4.78-2.84,6.93C22.19,73.55,22.9,69.89,22.62,67.36Z"/><path class="cls-1" d="M20.16,63.82c-2.54,1.25-4.52,3.95-3.37,6.55C19.18,69.88,20.23,66.36,20.16,63.82Z"/><path class="cls-1" d="M18.1,60c-2.73,1-4.77,3.6-3.86,6.16C16.71,65.86,17.85,62.51,18.1,60Z"/><path class="cls-1" d="M16.46,56c-2.63.76-5,3.1-4.3,5.73C14.56,61.59,16,58.42,16.46,56Z"/><path class="cls-1" d="M15.26,51.75c-2.92.58-5.15,2.85-4.7,5.27C12.91,57.11,14.74,54.06,15.26,51.75Z"/><path class="cls-1" d="M14.53,47.42c-2.66.29-5.23,2.1-5,4.79C11.84,52.51,13.68,49.67,14.53,47.42Z"/><path class="cls-1" d="M14.3,43c-3.2.07-5.33,2.11-5.36,4.29C11.17,47.77,13.37,45.14,14.3,43Z"/><path class="cls-1" d="M14.55,38.58c-2.8-.18-5.48,1.44-5.63,3.79C11.08,43,13.48,40.58,14.55,38.58Z"/><path class="cls-1" d="M15.28,34.17c-2.51-.37-5.39.79-5.84,3.28C11.51,38.24,14.11,36.05,15.28,34.17Z"/><path class="cls-1" d="M10.49,32.62c2,.94,4.75-1.06,6-2.78C14.06,29.27,11,30.29,10.49,32.62Z"/><path class="cls-1" d="M12.05,27.92c1.89,1.06,4.73-.64,6.16-2.27C15.24,24.71,12.59,26.15,12.05,27.92Z"/><path class="cls-1" d="M14.12,23.41c1.75,1.18,4.69-.24,6.25-1.75C17.54,20.51,14.8,21.69,14.12,23.41Z"/><path class="cls-1" d="M23,17.92c-2.66-1.35-5.48-.43-6.31,1.24C18.3,20.46,21.34,19.26,23,17.92Z"/><path class="cls-1" d="M19.65,15.2c1.49,1.37,4.53.53,6.33-.73C23.49,13,20.62,13.62,19.65,15.2Z"/><path class="cls-1" d="M23.06,11.59c1.42,1.51,4.55.82,6.33-.24C27,9.65,24.13,10.12,23.06,11.59Z"/><path class="cls-1" d="M26.83,8.37c1.29,1.59,4.46,1.16,6.3.25C31.24,7,28.28,6.77,26.83,8.37Z"/><path class="cls-1" d="M30.92,96.22a10.69,10.69,0,0,0,2.9-.4,6.08,6.08,0,0,0,1.31-.56,6.21,6.21,0,0,0,1.13-.83,3.33,3.33,0,0,0,1-3.78A5.55,5.55,0,0,0,30.92,96.22Z"/><path class="cls-1" d="M32.49,88.52a5.52,5.52,0,0,0-6.86,4.7,8.75,8.75,0,0,0,1.45.07,9.5,9.5,0,0,0,1.43-.13,6,6,0,0,0,2.56-1.08A3.27,3.27,0,0,0,32.49,88.52Z"/><path class="cls-1" d="M28,85.89a5,5,0,0,0-4.28.17,5.61,5.61,0,0,0-3,3.6,8.93,8.93,0,0,0,2.82.27,6.66,6.66,0,0,0,1.36-.22,5.39,5.39,0,0,0,1.27-.52A3.21,3.21,0,0,0,28,85.89Z"/><path class="cls-1" d="M23.77,82.8a4.72,4.72,0,0,0-1.92-.62,5.62,5.62,0,0,0-5.66,3.43C19.62,86.87,23.63,86.14,23.77,82.8Z"/><path class="cls-1" d="M19.94,79.26a5.46,5.46,0,0,0-7.77,1.86C15.42,82.72,19.39,82.5,19.94,79.26Z"/><path class="cls-1" d="M16.52,75.35a5.48,5.48,0,0,0-7.86.89C11.68,78.17,15.59,78.4,16.52,75.35Z"/><path class="cls-1" d="M13.52,71.1A5.45,5.45,0,0,0,5.73,71C8.42,73.31,12.28,73.91,13.52,71.1Z"/><path class="cls-1" d="M11,66.56a5.41,5.41,0,0,0-7.61-1C5.79,68.09,9.46,69.13,11,66.56Z"/><path class="cls-1" d="M9,61.78a5.42,5.42,0,0,0-7.35-1.9C3.64,62.51,7.07,64.15,9,61.78Z"/><path class="cls-1" d="M7.47,56.82a5.44,5.44,0,0,0-7-2.75C2.81,57.88,5.93,58.32,7.47,56.82Z"/><path class="cls-1" d="M6.5,51.73A5.43,5.43,0,0,0,0,48.18C1.57,51.86,4.67,53.12,6.5,51.73Z"/><path class="cls-1" d="M6.08,46.58A5.43,5.43,0,0,0,.15,42.29a11.25,11.25,0,0,0,.42,1.15C1.67,45.78,3.92,47.81,6.08,46.58Z"/><path class="cls-1" d="M6.21,41.41A5.42,5.42,0,0,0,.94,36.48a9.93,9.93,0,0,0,.28,1.17C1.93,40,4,42.34,6.21,41.41Z"/><path class="cls-1" d="M6.9,36.29a5.41,5.41,0,0,0-4.57-5.47C2.66,35.14,5.11,36.75,6.9,36.29Z"/><path class="cls-1" d="M8.14,31.29a5.44,5.44,0,0,0-3.82-5.93C4.15,29.54,6.31,31.5,8.14,31.29Z"/><path class="cls-1" d="M9.88,26.44c.77-2.3-.65-5.14-3-6.28C6.36,23.38,7.55,26.41,9.88,26.44Z"/><path class="cls-1" d="M12.12,21.81c1-2.07.06-5-2.16-6.53C8.84,19.12,10.38,21.56,12.12,21.81Z"/><path class="cls-1" d="M14.85,17.45a5.54,5.54,0,0,0-1.3-6.68C12.36,13.55,12.66,16.83,14.85,17.45Z"/><path class="cls-1" d="M18,13.42a5.59,5.59,0,0,0-.44-6.72C15.68,10,16.45,12.72,18,13.42Z"/><path class="cls-1" d="M21.61,9.74A5.6,5.6,0,0,0,22,3.1C20.25,5.46,19.78,8.6,21.61,9.74Z"/><path class="cls-1" d="M25.57,6.47A5.67,5.67,0,0,0,26.8,0C24.81,2.12,24,5.11,25.57,6.47Z"/><path class="cls-1" d="M37.33,1.26C34,.82,30,2.27,29.26,5.17,32,5.87,35.5,3.44,37.33,1.26Z"/><path class="cls-1" d="M204.41,75.19c18.5-22.41,11.78-54.6-9.39-68.95l-.22.32c20.92,14.39,27.19,46.19,8.89,68-10,11.83-22.6,14.07-29.86,18.7h2.53C183.71,89.25,195.39,86.07,204.41,75.19Z"/><path class="cls-1" d="M181.39,84.76a3.1,3.1,0,0,0,1,3l.1.12c2.57-1.91,2.11-5.44.44-8.12C182.1,81.1,181.19,83.26,181.39,84.76Z"/><path class="cls-1" d="M187,86.09c2.36-2,1.6-5.53-.27-8C185.53,80.55,184.87,84.49,187,86.09Z"/><path class="cls-1" d="M191.36,83.79c2.14-2.14,1.11-5.55-1-7.78C189.41,78.48,189.13,82.42,191.36,83.79Z"/><path class="cls-1" d="M195.44,81c1.89-2.23.66-5.51-1.63-7.55C193,76.48,193.29,80,195.44,81Z"/><path class="cls-1" d="M196.94,70.6c-.48,2.58-.11,6.32,2.26,7.26C200.88,75.48,199.27,72.33,196.94,70.6Z"/><path class="cls-1" d="M202.59,74.29c1.37-2.15-.13-5.28-2.84-6.93C199.48,69.89,200.18,73.55,202.59,74.29Z"/><path class="cls-1" d="M205.58,70.37c1.15-2.6-.82-5.3-3.36-6.55C202.14,66.36,203.19,69.88,205.58,70.37Z"/><path class="cls-1" d="M208.13,66.16C209,63.6,207,61.05,204.28,60,204.53,62.51,205.67,65.86,208.13,66.16Z"/><path class="cls-1" d="M205.92,56c.42,2.46,1.9,5.63,4.3,5.73C210.93,59.06,208.54,56.72,205.92,56Z"/><path class="cls-1" d="M207.12,51.75c.52,2.31,2.34,5.36,4.69,5.27C212.26,54.6,210,52.33,207.12,51.75Z"/><path class="cls-1" d="M212.89,52.21c.18-2.69-2.38-4.5-5-4.79C208.7,49.67,210.53,52.51,212.89,52.21Z"/><path class="cls-1" d="M213.44,47.3c0-2.18-2.17-4.22-5.36-4.29C209,45.14,211.21,47.77,213.44,47.3Z"/><path class="cls-1" d="M207.83,38.58c1.06,2,3.47,4.42,5.62,3.79C213.31,40,210.63,38.4,207.83,38.58Z"/><path class="cls-1" d="M207.09,34.17c1.17,1.88,3.77,4.07,5.84,3.28C212.48,35,209.6,33.8,207.09,34.17Z"/><path class="cls-1" d="M205.86,29.84c1.28,1.72,4,3.72,6,2.78C211.38,30.29,208.31,29.27,205.86,29.84Z"/><path class="cls-1" d="M204.16,25.65c1.43,1.63,4.28,3.33,6.16,2.27C209.78,26.15,207.14,24.71,204.16,25.65Z"/><path class="cls-1" d="M202,21.66c1.56,1.51,4.51,2.93,6.26,1.75C207.57,21.69,204.83,20.51,202,21.66Z"/><path class="cls-1" d="M199.4,17.92c1.64,1.34,4.67,2.54,6.32,1.24C204.88,17.49,202.06,16.57,199.4,17.92Z"/><path class="cls-1" d="M196.39,14.47c1.8,1.26,4.85,2.1,6.34.73C201.76,13.62,198.89,13,196.39,14.47Z"/><path class="cls-1" d="M193,11.35c1.78,1.06,4.92,1.75,6.33.24C198.24,10.12,195.35,9.65,193,11.35Z"/><path class="cls-1" d="M189.25,8.62c1.84.91,5,1.34,6.29-.25C194.09,6.77,191.13,7,189.25,8.62Z"/><path class="cls-1" d="M185.12,90.65a3.35,3.35,0,0,0,1,3.78,6.21,6.21,0,0,0,1.13.83,6.3,6.3,0,0,0,1.31.56,10.74,10.74,0,0,0,2.9.4A5.55,5.55,0,0,0,185.12,90.65Z"/><path class="cls-1" d="M189.88,88.52a3.26,3.26,0,0,0,1.43,3.56,6,6,0,0,0,2.55,1.08,9.62,9.62,0,0,0,1.43.13,8.7,8.7,0,0,0,1.45-.07A5.52,5.52,0,0,0,189.88,88.52Z"/><path class="cls-1" d="M198.69,86.06a5,5,0,0,0-4.29-.17,3.21,3.21,0,0,0,1.83,3.3,5.15,5.15,0,0,0,1.26.52,6.77,6.77,0,0,0,1.36.22,9,9,0,0,0,2.83-.27A5.64,5.64,0,0,0,198.69,86.06Z"/><path class="cls-1" d="M200.52,82.18a4.77,4.77,0,0,0-1.92.62c.14,3.34,4.15,4.07,7.58,2.81A5.62,5.62,0,0,0,200.52,82.18Z"/><path class="cls-1" d="M202.43,79.26c.56,3.24,4.52,3.46,7.77,1.86A5.46,5.46,0,0,0,202.43,79.26Z"/><path class="cls-1" d="M205.86,75.35c.93,3.05,4.83,2.82,7.85.89A5.47,5.47,0,0,0,205.86,75.35Z"/><path class="cls-1" d="M208.85,71.1c1.24,2.81,5.11,2.21,7.79-.07A5.45,5.45,0,0,0,208.85,71.1Z"/><path class="cls-1" d="M211.38,66.56c1.53,2.57,5.2,1.53,7.62-1A5.42,5.42,0,0,0,211.38,66.56Z"/><path class="cls-1" d="M213.4,61.78c1.9,2.37,5.33.73,7.35-1.9A5.42,5.42,0,0,0,213.4,61.78Z"/><path class="cls-1" d="M214.9,56.82c1.54,1.5,4.66,1.06,7-2.75A5.44,5.44,0,0,0,214.9,56.82Z"/><path class="cls-1" d="M215.87,51.73c1.83,1.39,4.94.13,6.5-3.55A5.43,5.43,0,0,0,215.87,51.73Z"/><path class="cls-1" d="M216.29,46.58c2.17,1.23,4.41-.8,5.52-3.14a11.2,11.2,0,0,0,.41-1.15A5.43,5.43,0,0,0,216.29,46.58Z"/><path class="cls-1" d="M216.16,41.41c2.25.93,4.28-1.43,5-3.76.11-.39.21-.78.28-1.17A5.44,5.44,0,0,0,216.16,41.41Z"/><path class="cls-1" d="M215.47,36.29c1.79.46,4.24-1.15,4.57-5.47A5.42,5.42,0,0,0,215.47,36.29Z"/><path class="cls-1" d="M214.24,31.29c1.82.21,4-1.75,3.81-5.93A5.44,5.44,0,0,0,214.24,31.29Z"/><path class="cls-1" d="M212.49,26.44c2.34,0,3.53-3.06,3-6.28C213.14,21.3,211.72,24.14,212.49,26.44Z"/><path class="cls-1" d="M212.41,15.28c-2.22,1.49-3.15,4.46-2.16,6.53C212,21.56,213.53,19.12,212.41,15.28Z"/><path class="cls-1" d="M208.83,10.77a5.53,5.53,0,0,0-1.31,6.68C209.71,16.83,210,13.55,208.83,10.77Z"/><path class="cls-1" d="M204.8,6.7a5.57,5.57,0,0,0-.45,6.72C205.93,12.72,206.7,10,204.8,6.7Z"/><path class="cls-1" d="M200.36,3.1a5.6,5.6,0,0,0,.4,6.64C202.6,8.6,202.12,5.46,200.36,3.1Z"/><path class="cls-1" d="M195.57,0a5.66,5.66,0,0,0,1.24,6.47C198.43,5.11,197.57,2.12,195.57,0Z"/><path class="cls-1" d="M193.12,5.17c-.73-2.9-4.75-4.35-8.07-3.91C186.88,3.44,190.38,5.87,193.12,5.17Z"/><path class="cls-1" d="M95.49,26.07a3.28,3.28,0,0,0,1.28-2.64A3,3,0,0,0,95.6,21a7.06,7.06,0,0,0-2.82-1.14,5.28,5.28,0,0,0,2.6-1.26,2.59,2.59,0,0,0,.74-1.82,3.18,3.18,0,0,0-.58-1.83A3.62,3.62,0,0,0,94,13.64a9.62,9.62,0,0,0-3.44-.43H83.74v.38a3.32,3.32,0,0,1,1.33.18,1.07,1.07,0,0,1,.49.47,4.53,4.53,0,0,1,.14,1.45v9.16a4.37,4.37,0,0,1-.14,1.43,1,1,0,0,1-.49.48,3.26,3.26,0,0,1-1.33.18v.39h7.18A7.17,7.17,0,0,0,95.49,26.07ZM89,14a5.57,5.57,0,0,1,2.21.3,2.29,2.29,0,0,1,1,.91,2.86,2.86,0,0,1,.37,1.54,2.88,2.88,0,0,1-.37,1.54,2.56,2.56,0,0,1-1.08.94,5.4,5.4,0,0,1-2.18.33Zm.28,12.27a1.15,1.15,0,0,1-.29-.85V20.37a6.79,6.79,0,0,1,2.4.3,2.47,2.47,0,0,1,1.25,1.1,3.45,3.45,0,0,1,.46,1.78,3.24,3.24,0,0,1-.37,1.56,2.56,2.56,0,0,1-1.08,1.08,3.33,3.33,0,0,1-1.54.37A1.14,1.14,0,0,1,89.27,26.27Z"/><path class="cls-1" d="M111,22.84h-.38a5.09,5.09,0,0,1-1.72,2.79,5.06,5.06,0,0,1-3.17.91h-.84a1.74,1.74,0,0,1-.87-.16.77.77,0,0,1-.37-.43,5.47,5.47,0,0,1-.1-1.42v-4a3.69,3.69,0,0,1,1.54.26,2.35,2.35,0,0,1,.93,1,5.38,5.38,0,0,1,.52,2h.4V16.44h-.4a5.08,5.08,0,0,1-.77,2.48,2.2,2.2,0,0,1-1.94.85h-.28V14H105a8.15,8.15,0,0,1,2.19.19,3.15,3.15,0,0,1,1.55,1,5.08,5.08,0,0,1,.84,2.19h.4V13.21H98.14v.38h.47a1.78,1.78,0,0,1,1.09.3,1,1,0,0,1,.38.56,6.79,6.79,0,0,1,0,1.17v9.29a4.53,4.53,0,0,1-.11,1.31,1,1,0,0,1-.42.5,1.91,1.91,0,0,1-1,.22h-.47v.39h12.21Z"/><path class="cls-1" d="M114.44,27a1,1,0,0,1,.57-.2,2.15,2.15,0,0,1,.82.2,9.79,9.79,0,0,0,1.49.51,5.72,5.72,0,0,0,1.26.14,5,5,0,0,0,3.5-1.28,4,4,0,0,0,1.38-3,3.89,3.89,0,0,0-.85-2.48,10.09,10.09,0,0,0-3.34-2.3A20.3,20.3,0,0,1,117,17.34a3.42,3.42,0,0,1-1-1,1.54,1.54,0,0,1-.22-.83,1.75,1.75,0,0,1,.62-1.31,2.42,2.42,0,0,1,1.68-.56,3.77,3.77,0,0,1,2.56,1.07,4.81,4.81,0,0,1,1.48,2.85h.43l-.12-4.7h-.31a1.84,1.84,0,0,1-.29.8.56.56,0,0,1-.43.16,2.91,2.91,0,0,1-1-.33,7.19,7.19,0,0,0-1.19-.47,5.4,5.4,0,0,0-1.34-.16,4.34,4.34,0,0,0-3.12,1.18A3.86,3.86,0,0,0,113.57,17a3.61,3.61,0,0,0,.46,1.81,5,5,0,0,0,1.29,1.49,16.87,16.87,0,0,0,2.77,1.61A12,12,0,0,1,120,23a3,3,0,0,1,.8.89,1.9,1.9,0,0,1,.27,1,1.93,1.93,0,0,1-.69,1.47,2.61,2.61,0,0,1-1.86.64,4.12,4.12,0,0,1-2.82-1.18A6.09,6.09,0,0,1,114,22.32h-.39v5.33H114A1.42,1.42,0,0,1,114.44,27Z"/><path class="cls-1" d="M134.16,14a3.51,3.51,0,0,1,1.39.19,2.81,2.81,0,0,1,1.11.92,6,6,0,0,1,.74,1.9h.37V13.21H125.09V17h.4a4.05,4.05,0,0,1,1.14-2.41,3,3,0,0,1,2.08-.6h1V24.91a4.05,4.05,0,0,1-.12,1.31.94.94,0,0,1-.43.5,1.87,1.87,0,0,1-1,.22h-.47v.39h7.39v-.39h-.47a2,2,0,0,1-1-.2,1.13,1.13,0,0,1-.47-.48,4.42,4.42,0,0,1-.12-1.35V14Z"/><path class="cls-1" d="M54.14,35.22a10.07,10.07,0,0,0-4.07-.69H43.75v.39h.47a1.82,1.82,0,0,1,.94.2,1,1,0,0,1,.46.47A4.45,4.45,0,0,1,45.74,37v9.28a4.49,4.49,0,0,1-.1,1.31,1.12,1.12,0,0,1-.48.53,1.86,1.86,0,0,1-.94.19h-.47v.39h6.32a10.75,10.75,0,0,0,2-.13,9.28,9.28,0,0,0,2.43-.76,6.08,6.08,0,0,0,1.75-1.31,6.32,6.32,0,0,0,1.24-2.08,8.12,8.12,0,0,0-.49-6.6A6,6,0,0,0,54.14,35.22ZM53,46.69a3.15,3.15,0,0,1-2.65,1.19,1.7,1.7,0,0,1-.81-.16.55.55,0,0,1-.28-.3,3.59,3.59,0,0,1-.09-1.07v-11a6.81,6.81,0,0,1,2.49.31,3.68,3.68,0,0,1,1.74,1.73,9.35,9.35,0,0,1,.85,4.34A8,8,0,0,1,53,46.69Z"/><path class="cls-1" d="M72.19,44.16H71.8A5.14,5.14,0,0,1,70.09,47a5.08,5.08,0,0,1-3.17.92h-.84a1.74,1.74,0,0,1-.88-.17.85.85,0,0,1-.37-.43,6,6,0,0,1-.1-1.42v-4a3.45,3.45,0,0,1,1.54.27,2.23,2.23,0,0,1,.94,1,5.58,5.58,0,0,1,.52,2h.4V37.76h-.4A5.27,5.27,0,0,1,67,40.25a2.23,2.23,0,0,1-1.95.84h-.28V35.34h1.46a8.15,8.15,0,0,1,2.19.19,3.12,3.12,0,0,1,1.54,1,5,5,0,0,1,.85,2.19h.4V34.53H59.35v.39h.47a1.73,1.73,0,0,1,1.08.29,1,1,0,0,1,.39.56A8.19,8.19,0,0,1,61.34,37v9.28a4.53,4.53,0,0,1-.11,1.31.93.93,0,0,1-.42.5,1.91,1.91,0,0,1-1,.22h-.47v.39h12.2Z"/><path class="cls-1" d="M88.53,34.92v-.39H83.89v.39a3.26,3.26,0,0,1,1.19.17,1,1,0,0,1,.49.37.94.94,0,0,1,.17.55,2.2,2.2,0,0,1-.12.65A14.25,14.25,0,0,1,85,38.18l-2.79,6.26-3-7c-.32-.74-.51-1.2-.56-1.37a1.32,1.32,0,0,1-.09-.44.52.52,0,0,1,.24-.46,2.43,2.43,0,0,1,1.25-.22h.23v-.39H73.51v.39a1.67,1.67,0,0,1,1.12.44,14.46,14.46,0,0,1,1.18,2.39L80.65,49H81l4.86-10.79a12.79,12.79,0,0,1,1.3-2.44A2.26,2.26,0,0,1,88.53,34.92Z"/><path class="cls-1" d="M92,47.54a.91.91,0,0,1-.41.5,1.91,1.91,0,0,1-1,.22h-.47v.39h12.2l.63-4.49h-.38A5.14,5.14,0,0,1,100.86,47a5.08,5.08,0,0,1-3.17.92h-.85A1.73,1.73,0,0,1,96,47.7a.85.85,0,0,1-.37-.43,5.47,5.47,0,0,1-.1-1.42v-4a3.48,3.48,0,0,1,1.54.27,2.16,2.16,0,0,1,.93,1,5.37,5.37,0,0,1,.53,2h.39V37.76H98.5a5.27,5.27,0,0,1-.77,2.49,2.23,2.23,0,0,1-2,.84H95.5V35.34H97a8,8,0,0,1,2.18.19,3.1,3.1,0,0,1,1.55,1,5,5,0,0,1,.85,2.19h.39V34.53H90.12v.39h.47a1.73,1.73,0,0,1,1.08.29,1,1,0,0,1,.39.56,8.19,8.19,0,0,1,0,1.18v9.28A4.05,4.05,0,0,1,92,47.54Z"/><path class="cls-1" d="M110.13,35.63a1,1,0,0,1,.42-.5,2,2,0,0,1,1-.21h.62v-.39h-7.53v.39h.47a1.82,1.82,0,0,1,.94.2,1,1,0,0,1,.46.47,4.45,4.45,0,0,1,.12,1.36v9.28a4.05,4.05,0,0,1-.12,1.31.87.87,0,0,1-.41.5,1.91,1.91,0,0,1-1,.22h-.47v.39h12.54l.53-5h-.43a10.06,10.06,0,0,1-1,2.52,3.41,3.41,0,0,1-1.29,1.25,4.06,4.06,0,0,1-1.88.4h-1.17a4.92,4.92,0,0,1-1.26-.1.77.77,0,0,1-.49-.44,4.64,4.64,0,0,1-.13-1.38V37A4.17,4.17,0,0,1,110.13,35.63Z"/><path class="cls-1" d="M127.21,49a7,7,0,0,0,5.88-2.71,7.51,7.51,0,0,0,1.58-4.72,7,7,0,0,0-7.59-7.21,6.83,6.83,0,0,0-5.27,2,7,7,0,0,0-2.13,5.24,7.46,7.46,0,0,0,1.64,4.84A7.14,7.14,0,0,0,127.21,49Zm-2.95-12a3.22,3.22,0,0,1,4.8-1.41,4.1,4.1,0,0,1,1.33,2,12.91,12.91,0,0,1,.52,4.19,11.88,11.88,0,0,1-.51,3.82A4.34,4.34,0,0,1,129,47.67a2.94,2.94,0,0,1-1.79.52A2.89,2.89,0,0,1,124.7,47a9.09,9.09,0,0,1-1.27-5.34A10.5,10.5,0,0,1,124.26,37Z"/><path class="cls-1" d="M143.21,48.26a3.3,3.3,0,0,1-1.32-.18,1,1,0,0,1-.5-.47,4.49,4.49,0,0,1-.14-1.44V42.25a15.84,15.84,0,0,0,3.42-.25A4.31,4.31,0,0,0,147,40.67a3.44,3.44,0,0,0,.86-2.35,3.38,3.38,0,0,0-1.33-2.71,6.92,6.92,0,0,0-4.36-1.08H136v.39a3.35,3.35,0,0,1,1.32.17,1,1,0,0,1,.49.48A4,4,0,0,1,138,37v9.16a4.12,4.12,0,0,1-.15,1.44,1,1,0,0,1-.48.47,3.32,3.32,0,0,1-1.33.18v.39h7.17Zm-2-12.92h.43a2.67,2.67,0,0,1,2,.73,3.26,3.26,0,0,1,.69,2.3,3.37,3.37,0,0,1-.69,2.34,2.53,2.53,0,0,1-2,.75c-.11,0-.29,0-.52,0Z"/><path class="cls-1" d="M161.69,44.16h-.38a4.55,4.55,0,0,1-4.88,3.71h-.85a1.73,1.73,0,0,1-.87-.17.81.81,0,0,1-.37-.43,5.47,5.47,0,0,1-.1-1.42v-4a3.48,3.48,0,0,1,1.54.27,2.16,2.16,0,0,1,.93,1,5.57,5.57,0,0,1,.53,2h.39V37.76h-.39a5.27,5.27,0,0,1-.77,2.49,2.24,2.24,0,0,1-1.95.84h-.28V35.34h1.46a8.06,8.06,0,0,1,2.18.19,3.1,3.1,0,0,1,1.55,1,5.07,5.07,0,0,1,.85,2.19h.39V34.53H148.86v.39h.47a1.77,1.77,0,0,1,1.08.29.93.93,0,0,1,.38.56,6.43,6.43,0,0,1,.06,1.18v9.28a4.05,4.05,0,0,1-.12,1.31.89.89,0,0,1-.42.5,1.87,1.87,0,0,1-1,.22h-.47v.39h12.2Z"/><path class="cls-1" d="M170.59,48.26a3.3,3.3,0,0,1-1.32-.18,1,1,0,0,1-.49-.47,4.21,4.21,0,0,1-.14-1.44v-4h.92l4.55,6.44h4.45v-.39a1.77,1.77,0,0,1-1-.35,7.23,7.23,0,0,1-.95-1.16L173.23,42a4.6,4.6,0,0,0,2-1,3.35,3.35,0,0,0,1.12-2.59,3.51,3.51,0,0,0-.75-2.23,3.83,3.83,0,0,0-1.93-1.31,14.62,14.62,0,0,0-3.75-.35h-6.56v.39a3.28,3.28,0,0,1,1.32.17,1.06,1.06,0,0,1,.5.48,4.41,4.41,0,0,1,.14,1.44v9.16a4.49,4.49,0,0,1-.14,1.44,1.12,1.12,0,0,1-.49.47,3.32,3.32,0,0,1-1.33.18v.39h7.22Zm-2-13h1.11a3.29,3.29,0,0,1,2.43.77,3.3,3.3,0,0,1,.76,2.38,3.54,3.54,0,0,1-.41,1.81,2.2,2.2,0,0,1-1.13,1,6.59,6.59,0,0,1-2.17.26h-.59Z"/><path class="cls-1" d="M34.85,62a3.39,3.39,0,0,0-1.29,1.26,3.8,3.8,0,0,0,0,3.66,3.49,3.49,0,0,0,1.29,1.27,3.61,3.61,0,0,0,1.79.45,3.39,3.39,0,0,0,1.65-.4,3.34,3.34,0,0,0,1.21-1.09,3.5,3.5,0,0,0,.58-1.49V64.8H36.25v.91h2.61a2.28,2.28,0,0,1-.71,1.41,2.17,2.17,0,0,1-1.51.52,2.39,2.39,0,0,1-1.23-.31,2.19,2.19,0,0,1-.85-.88,2.86,2.86,0,0,1-.3-1.33,2.79,2.79,0,0,1,.3-1.32,2.25,2.25,0,0,1,.85-.88,2.5,2.5,0,0,1,1.23-.31,2.23,2.23,0,0,1,1.11.27,1.82,1.82,0,0,1,.75.78h1.37a3.1,3.1,0,0,0-1.26-1.54A3.76,3.76,0,0,0,34.85,62Z"/><path class="cls-1" d="M43,65.71a1.63,1.63,0,0,1,.34-1.18,1.42,1.42,0,0,1,1-.34h.29V63a2,2,0,0,0-1,.24,1.65,1.65,0,0,0-.66.65v-.8H41.81v5.51H43Z"/><path class="cls-1" d="M49.86,63.35A2.89,2.89,0,0,0,48.47,63a3,3,0,0,0-1.44.35,2.46,2.46,0,0,0-1,1,3.12,3.12,0,0,0-.34,1.49,3,3,0,0,0,.35,1.5,2.55,2.55,0,0,0,1,1,2.9,2.9,0,0,0,1.42.35,2.68,2.68,0,0,0,1.62-.48A2.52,2.52,0,0,0,51,67H49.77a1.33,1.33,0,0,1-1.3.77,1.52,1.52,0,0,1-1.08-.4,1.48,1.48,0,0,1-.49-1.06h4.21a4.45,4.45,0,0,0,0-.56,2.94,2.94,0,0,0-.34-1.41A2.5,2.5,0,0,0,49.86,63.35Zm-3,2a1.55,1.55,0,0,1,.5-1,1.46,1.46,0,0,1,1-.38,1.64,1.64,0,0,1,1.09.38,1.33,1.33,0,0,1,.45,1Z"/><path class="cls-1" d="M56.62,63.35a3.05,3.05,0,0,0-2.82,0,2.46,2.46,0,0,0-1,1,3.12,3.12,0,0,0-.35,1.49,3,3,0,0,0,.36,1.5,2.48,2.48,0,0,0,1,1,2.86,2.86,0,0,0,1.41.35,2.69,2.69,0,0,0,1.63-.48,2.5,2.5,0,0,0,.9-1.25H56.53a1.32,1.32,0,0,1-1.3.77,1.52,1.52,0,0,1-1.57-1.46h4.21a3.13,3.13,0,0,0,0-.56,2.83,2.83,0,0,0-.34-1.41A2.37,2.37,0,0,0,56.62,63.35Zm-2.95,2a1.6,1.6,0,0,1,.5-1,1.47,1.47,0,0,1,1-.38,1.61,1.61,0,0,1,1.09.38,1.3,1.3,0,0,1,.45,1Z"/><path class="cls-1" d="M64.62,68.61V65.36a2.58,2.58,0,0,0-.29-1.28,1.93,1.93,0,0,0-.8-.8A2.46,2.46,0,0,0,62.36,63a2.4,2.4,0,0,0-.92.19,2,2,0,0,0-.72.53V63.1H59.58v5.51h1.14V65.53a1.57,1.57,0,0,1,.38-1.13,1.31,1.31,0,0,1,1-.4,1.28,1.28,0,0,1,1,.4,1.57,1.57,0,0,1,.37,1.13v3.08Z"/><polygon class="cls-1" points="76.66 68.61 78.72 61.66 77.5 61.66 76.05 67.29 74.6 61.66 73.32 61.66 71.76 67.32 70.32 61.66 69.11 61.66 71.08 68.62 72.36 68.61 73.91 63.35 75.37 68.61 76.66 68.61"/><path class="cls-1" d="M84,63.9a2.31,2.31,0,0,0-.77-.63A2.43,2.43,0,0,0,82.12,63a2.46,2.46,0,0,0-1.31.36,2.49,2.49,0,0,0-.94,1,3.07,3.07,0,0,0-.35,1.47,3.15,3.15,0,0,0,.35,1.49,2.7,2.7,0,0,0,.93,1,2.47,2.47,0,0,0,1.3.36,2.34,2.34,0,0,0,1.14-.26,2.14,2.14,0,0,0,.79-.65v.82h1.15V63.1H84Zm-.23,2.95a1.59,1.59,0,0,1-.62.64,1.62,1.62,0,0,1-1.63,0,1.59,1.59,0,0,1-.62-.66,2,2,0,0,1-.24-1,1.9,1.9,0,0,1,.24-1,1.55,1.55,0,0,1,.61-.63,1.6,1.6,0,0,1,.82-.22,1.63,1.63,0,0,1,1.44.86,2.07,2.07,0,0,1,.23,1A2.14,2.14,0,0,1,83.8,66.85Z"/><path class="cls-1" d="M87.38,67.08a1.5,1.5,0,0,0,.41,1.17,1.75,1.75,0,0,0,1.18.36h.9v-1h-.7a.72.72,0,0,1-.49-.13.58.58,0,0,1-.15-.45V64h1.34V63.1H88.53V61.73H87.38V63.1h-.65V64h.65Z"/><path class="cls-1" d="M96.25,67H95a1.33,1.33,0,0,1-1.3.77,1.52,1.52,0,0,1-1.08-.4,1.48,1.48,0,0,1-.49-1.06h4.21a4.45,4.45,0,0,0,0-.56,2.94,2.94,0,0,0-.34-1.41,2.5,2.5,0,0,0-1-1A2.89,2.89,0,0,0,93.72,63a3,3,0,0,0-1.44.35,2.46,2.46,0,0,0-1,1A3.12,3.12,0,0,0,91,65.85a3,3,0,0,0,.35,1.5,2.55,2.55,0,0,0,1,1,2.9,2.9,0,0,0,1.42.35,2.68,2.68,0,0,0,1.62-.48A2.52,2.52,0,0,0,96.25,67Zm-3.59-2.62a1.46,1.46,0,0,1,1-.38,1.64,1.64,0,0,1,1.09.38,1.33,1.33,0,0,1,.45,1h-3A1.55,1.55,0,0,1,92.66,64.35Z"/><path class="cls-1" d="M99.21,63.9v-.8H98.07v5.51h1.14v-2.9a1.63,1.63,0,0,1,.34-1.18,1.42,1.42,0,0,1,1-.34h.29V63a2,2,0,0,0-1,.24A1.72,1.72,0,0,0,99.21,63.9Z"/><polygon class="cls-1" points="109.18 67.11 106.74 61.66 105.51 61.66 105.51 68.61 106.65 68.61 106.65 63.85 108.78 68.61 109.57 68.61 111.69 63.85 111.69 68.61 112.83 68.61 112.83 61.66 111.61 61.66 109.18 67.11"/><path class="cls-1" d="M117.52,71.33A2.85,2.85,0,0,0,119,71a2.29,2.29,0,0,0,.92-.93,2.77,2.77,0,0,0,.33-1.36V63.1h-1.16v.8a2.13,2.13,0,0,0-.77-.63,2.44,2.44,0,0,0-1.13-.26,2.52,2.52,0,0,0-1.32.36,2.49,2.49,0,0,0-.94,1,3.07,3.07,0,0,0-.34,1.47,3.15,3.15,0,0,0,.34,1.49,2.64,2.64,0,0,0,.94,1,2.52,2.52,0,0,0,1.32.36,2.4,2.4,0,0,0,1.12-.26,2.32,2.32,0,0,0,.78-.66v.92a1.64,1.64,0,0,1-.42,1.22,1.52,1.52,0,0,1-1.12.42,1.92,1.92,0,0,1-1-.26,1.21,1.21,0,0,1-.55-.7h-1.13a1.91,1.91,0,0,0,.84,1.43A3.11,3.11,0,0,0,117.52,71.33Zm1.31-4.48a1.64,1.64,0,0,1-.61.64,1.61,1.61,0,0,1-.83.22,1.59,1.59,0,0,1-.81-.22,1.65,1.65,0,0,1-.62-.66,2,2,0,0,1-.23-1,1.9,1.9,0,0,1,.23-1,1.57,1.57,0,0,1,.62-.63,1.54,1.54,0,0,1,.81-.22,1.6,1.6,0,0,1,1.44.86,2,2,0,0,1,.23,1A2,2,0,0,1,118.83,66.85Z"/><path class="cls-1" d="M122.83,68.25a1.72,1.72,0,0,0,1.18.36h.9v-1h-.7a.73.73,0,0,1-.5-.13.58.58,0,0,1-.14-.45V64h1.34V63.1h-1.34V61.73h-1.15V63.1h-.65V64h.65v3A1.46,1.46,0,0,0,122.83,68.25Z"/><rect class="cls-1" x="129.68" y="64.51" width="4.11" height="0.96"/><path class="cls-1" d="M141,62.88a2.5,2.5,0,0,1,1.23-.31,2.23,2.23,0,0,1,1.11.27,1.87,1.87,0,0,1,.75.82h1.37a3.1,3.1,0,0,0-1.26-1.54,3.76,3.76,0,0,0-3.76-.09,3.39,3.39,0,0,0-1.29,1.26,3.58,3.58,0,0,0,1.29,4.93,3.61,3.61,0,0,0,1.79.45,3.64,3.64,0,0,0,2-.54,3.06,3.06,0,0,0,1.26-1.54H144a1.82,1.82,0,0,1-.75.82,2.23,2.23,0,0,1-1.11.27,2.39,2.39,0,0,1-1.23-.31,2.17,2.17,0,0,1-.85-.9,2.86,2.86,0,0,1-.3-1.35,2.92,2.92,0,0,1,.3-1.35A2.21,2.21,0,0,1,141,62.88Z"/><path class="cls-1" d="M151.33,63.9a2.31,2.31,0,0,0-.77-.63,2.4,2.4,0,0,0-1.14-.26,2.54,2.54,0,0,0-2.25,1.35,3.07,3.07,0,0,0-.35,1.47,3.15,3.15,0,0,0,.35,1.49,2.7,2.7,0,0,0,.93,1,2.47,2.47,0,0,0,1.3.36,2.34,2.34,0,0,0,1.14-.26,2.14,2.14,0,0,0,.79-.65v.82h1.15V63.1h-1.15Zm-.23,2.95a1.59,1.59,0,0,1-.62.64,1.62,1.62,0,0,1-1.63,0,1.65,1.65,0,0,1-.62-.66,2,2,0,0,1-.24-1,1.9,1.9,0,0,1,.24-1,1.62,1.62,0,0,1,1.43-.85,1.63,1.63,0,0,1,1.44.86,2,2,0,0,1,.23,1A2,2,0,0,1,151.1,66.85Z"/><path class="cls-1" d="M157.18,64V63.1h-1.34V61.73h-1.16V63.1H154V64h.65v3a1.46,1.46,0,0,0,.42,1.17,1.71,1.71,0,0,0,1.17.36h.91v-1h-.7a.73.73,0,0,1-.5-.13.58.58,0,0,1-.14-.45V64Z"/><path class="cls-1" d="M162.41,63.35A2.89,2.89,0,0,0,161,63a3,3,0,0,0-1.44.35,2.46,2.46,0,0,0-1,1,3.41,3.41,0,0,0,0,3,2.55,2.55,0,0,0,1,1,2.9,2.9,0,0,0,1.42.35,2.68,2.68,0,0,0,1.62-.48,2.52,2.52,0,0,0,.91-1.25h-1.23a1.33,1.33,0,0,1-1.3.77,1.52,1.52,0,0,1-1.08-.4,1.48,1.48,0,0,1-.49-1.06h4.21a4.45,4.45,0,0,0,0-.56,2.94,2.94,0,0,0-.34-1.41A2.5,2.5,0,0,0,162.41,63.35Zm-2.95,2a1.55,1.55,0,0,1,.5-1,1.46,1.46,0,0,1,1-.38,1.64,1.64,0,0,1,1.09.38,1.33,1.33,0,0,1,.45,1Z"/><path class="cls-1" d="M169.54,63.9a2.13,2.13,0,0,0-.77-.63,2.59,2.59,0,0,0-2.45.1,2.49,2.49,0,0,0-.94,1,3.07,3.07,0,0,0-.35,1.47,3.15,3.15,0,0,0,.35,1.49,2.64,2.64,0,0,0,.94,1,2.57,2.57,0,0,0,2.44.1,2.32,2.32,0,0,0,.78-.66v.92a1.64,1.64,0,0,1-.42,1.22,1.54,1.54,0,0,1-1.12.42,1.92,1.92,0,0,1-1-.26,1.23,1.23,0,0,1-.56-.7H165.3a2,2,0,0,0,.84,1.43,3.16,3.16,0,0,0,1.86.52,2.91,2.91,0,0,0,1.45-.34,2.29,2.29,0,0,0,.92-.93,2.76,2.76,0,0,0,.32-1.36V63.1h-1.15Zm-.23,2.95a1.59,1.59,0,0,1-.62.64,1.62,1.62,0,0,1-1.63,0,1.59,1.59,0,0,1-.62-.66,2,2,0,0,1-.24-1,1.9,1.9,0,0,1,.24-1,1.55,1.55,0,0,1,.61-.63,1.6,1.6,0,0,1,.82-.22,1.63,1.63,0,0,1,1.44.86,2.07,2.07,0,0,1,.23,1A2.14,2.14,0,0,1,169.31,66.85Z"/><path class="cls-1" d="M176.57,68.35a2.59,2.59,0,0,0,1-1,3.15,3.15,0,0,0,0-3,2.62,2.62,0,0,0-1-1,3.1,3.1,0,0,0-2.86,0,2.62,2.62,0,0,0-1,1,2.94,2.94,0,0,0-.37,1.49,3,3,0,0,0,.36,1.5,2.57,2.57,0,0,0,1,1,2.89,2.89,0,0,0,1.41.35A3,3,0,0,0,176.57,68.35Zm-3-2.5a2.07,2.07,0,0,1,.22-1,1.5,1.5,0,0,1,.59-.63,1.71,1.71,0,0,1,1.64,0,1.55,1.55,0,0,1,.61.63,2.07,2.07,0,0,1,.23,1,2,2,0,0,1-.24,1,1.59,1.59,0,0,1-.63.63,1.67,1.67,0,0,1-.82.21,1.53,1.53,0,0,1-1.15-.48A2,2,0,0,1,173.53,65.85Z"/><path class="cls-1" d="M180.81,65.71a1.63,1.63,0,0,1,.34-1.18,1.42,1.42,0,0,1,1-.34h.29V63a2,2,0,0,0-1,.24,1.65,1.65,0,0,0-.66.65v-.8h-1.14v5.51h1.14Z"/><polygon class="cls-1" points="184.66 71.2 185.84 71.2 189.22 63.1 188.04 63.1 186.43 67.3 184.88 63.1 183.61 63.1 185.78 68.52 184.66 71.2"/><polygon class="cls-1" points="64.85 73.66 63.71 73.66 63.71 80.61 67.2 80.61 67.2 79.69 64.85 79.69 64.85 73.66"/><path class="cls-1" d="M72.47,75.36A3,3,0,0,0,71,75a2.94,2.94,0,0,0-1.43.35,2.56,2.56,0,0,0-1,1,2.94,2.94,0,0,0-.37,1.49,3,3,0,0,0,.36,1.5,2.57,2.57,0,0,0,1,1A2.89,2.89,0,0,0,71,80.7a3,3,0,0,0,1.44-.35,2.66,2.66,0,0,0,1-1,2.92,2.92,0,0,0,.38-1.49,3,3,0,0,0-.37-1.49A2.69,2.69,0,0,0,72.47,75.36Zm0,3.51a1.59,1.59,0,0,1-.63.63,1.67,1.67,0,0,1-.82.21,1.53,1.53,0,0,1-1.15-.48,2,2,0,0,1-.45-1.38,2.07,2.07,0,0,1,.22-1,1.44,1.44,0,0,1,.59-.63A1.64,1.64,0,0,1,71,76a1.7,1.7,0,0,1,.82.21,1.61,1.61,0,0,1,.61.63,2.07,2.07,0,0,1,.23,1A2,2,0,0,1,72.44,78.87Z"/><polygon class="cls-1" points="80.53 79.51 79.41 75.1 78.22 75.1 77.05 79.53 75.9 75.1 74.74 75.1 76.46 80.61 77.66 80.61 78.77 76.54 79.88 80.61 81.08 80.61 82.79 75.1 81.67 75.1 80.53 79.51"/><path class="cls-1" d="M89.18,74.88a2.5,2.5,0,0,1,1.23-.31,2.23,2.23,0,0,1,1.11.27,1.87,1.87,0,0,1,.75.82h1.37a3.1,3.1,0,0,0-1.26-1.54A3.76,3.76,0,0,0,88.62,74a3.39,3.39,0,0,0-1.29,1.26,3.8,3.8,0,0,0,0,3.66,3.49,3.49,0,0,0,1.29,1.27,3.83,3.83,0,0,0,3.76-.09,3.06,3.06,0,0,0,1.26-1.54H92.27a1.82,1.82,0,0,1-.75.82,2.23,2.23,0,0,1-1.11.27,2.39,2.39,0,0,1-1.23-.31,2.24,2.24,0,0,1-.85-.9,2.86,2.86,0,0,1-.3-1.35,2.92,2.92,0,0,1,.3-1.35A2.28,2.28,0,0,1,89.18,74.88Z"/><path class="cls-1" d="M99.3,75.36A2.94,2.94,0,0,0,97.87,75a3,3,0,0,0-1.43.35,2.69,2.69,0,0,0-1,1,3.24,3.24,0,0,0,0,3,2.57,2.57,0,0,0,1,1,2.89,2.89,0,0,0,1.41.35,3.08,3.08,0,0,0,1.45-.35,2.63,2.63,0,0,0,1-1,2.83,2.83,0,0,0,.38-1.49,2.94,2.94,0,0,0-.37-1.49A2.56,2.56,0,0,0,99.3,75.36Zm0,3.51a1.63,1.63,0,0,1-.62.63,1.71,1.71,0,0,1-.83.21,1.5,1.5,0,0,1-1.14-.48,1.92,1.92,0,0,1-.46-1.38,2.19,2.19,0,0,1,.22-1,1.52,1.52,0,0,1,.6-.63,1.69,1.69,0,0,1,1.63,0,1.49,1.49,0,0,1,.61.63,2,2,0,0,1,.23,1A2,2,0,0,1,99.27,78.87Z"/><path class="cls-1" d="M105.47,77.74a8.13,8.13,0,0,0-1-.33c-.3-.08-.52-.16-.68-.21a1.28,1.28,0,0,1-.39-.24.51.51,0,0,1-.16-.37.54.54,0,0,1,.24-.45,1.21,1.21,0,0,1,.69-.17,1.15,1.15,0,0,1,.73.22.83.83,0,0,1,.3.59h1.14a1.68,1.68,0,0,0-.61-1.29,2.31,2.31,0,0,0-1.52-.48,2.75,2.75,0,0,0-1.11.21,1.71,1.71,0,0,0-.75.58,1.36,1.36,0,0,0-.26.8,1.29,1.29,0,0,0,.29.87,1.69,1.69,0,0,0,.67.49,8,8,0,0,0,1,.33,5.62,5.62,0,0,1,.94.33.5.5,0,0,1,.29.46.58.58,0,0,1-.26.48,1.34,1.34,0,0,1-.75.18,1.25,1.25,0,0,1-.76-.23.79.79,0,0,1-.34-.59H102a1.64,1.64,0,0,0,.32.91,2,2,0,0,0,.82.64,2.86,2.86,0,0,0,1.16.23,2.76,2.76,0,0,0,1.12-.21,1.7,1.7,0,0,0,.73-.58,1.35,1.35,0,0,0,.26-.84,1.25,1.25,0,0,0-.29-.85A1.84,1.84,0,0,0,105.47,77.74Z"/><path class="cls-1" d="M109.48,73.73h-1.15V75.1h-.65V76h.65v3a1.5,1.5,0,0,0,.41,1.17,1.75,1.75,0,0,0,1.18.36h.9v-1h-.7a.7.7,0,0,1-.49-.13.58.58,0,0,1-.15-.45V76h1.34V75.1h-1.34Z"/><polygon class="cls-1" points="119.88 76.64 116.61 76.64 116.61 73.66 115.47 73.66 115.47 80.61 116.61 80.61 116.61 77.57 119.88 77.57 119.88 80.61 121.02 80.61 121.02 73.66 119.88 73.66 119.88 76.64"/><path class="cls-1" d="M127,75.36a2.94,2.94,0,0,0-1.43-.35,3,3,0,0,0-1.43.35,2.69,2.69,0,0,0-1,1,3.24,3.24,0,0,0,0,3,2.57,2.57,0,0,0,1,1,2.9,2.9,0,0,0,1.42.35,3.07,3.07,0,0,0,1.44-.35,2.57,2.57,0,0,0,1-1,2.83,2.83,0,0,0,.38-1.49,2.94,2.94,0,0,0-.37-1.49A2.56,2.56,0,0,0,127,75.36Zm0,3.51a1.51,1.51,0,0,1-.62.63,1.7,1.7,0,0,1-.82.21,1.52,1.52,0,0,1-1.15-.48,2,2,0,0,1-.46-1.38,2.19,2.19,0,0,1,.22-1,1.52,1.52,0,0,1,.6-.63,1.69,1.69,0,0,1,1.63,0,1.57,1.57,0,0,1,.62.63,2.07,2.07,0,0,1,.22,1A2,2,0,0,1,127,78.87Z"/><path class="cls-1" d="M133.89,78.17a1.6,1.6,0,0,1-.38,1.14,1.34,1.34,0,0,1-1,.39,1.31,1.31,0,0,1-1-.39,1.6,1.6,0,0,1-.37-1.14V75.1H130v3.24a2.55,2.55,0,0,0,.29,1.28,2,2,0,0,0,.81.8,2.46,2.46,0,0,0,1.17.27,2.23,2.23,0,0,0,.92-.19,1.84,1.84,0,0,0,.71-.54v.65H135V75.1h-1.14Z"/><path class="cls-1" d="M140.19,77.74a8.13,8.13,0,0,0-1-.33c-.3-.08-.52-.16-.68-.21a1.28,1.28,0,0,1-.39-.24.51.51,0,0,1-.16-.37.54.54,0,0,1,.24-.45,1.21,1.21,0,0,1,.69-.17,1.15,1.15,0,0,1,.73.22.83.83,0,0,1,.3.59h1.14a1.68,1.68,0,0,0-.61-1.29,2.31,2.31,0,0,0-1.52-.48,2.75,2.75,0,0,0-1.11.21,1.77,1.77,0,0,0-.75.58,1.36,1.36,0,0,0-.26.8,1.29,1.29,0,0,0,.29.87,1.69,1.69,0,0,0,.67.49,8,8,0,0,0,1,.33,5.62,5.62,0,0,1,.94.33.48.48,0,0,1,.29.46.58.58,0,0,1-.26.48,1.34,1.34,0,0,1-.75.18,1.25,1.25,0,0,1-.76-.23.83.83,0,0,1-.34-.59h-1.18a1.64,1.64,0,0,0,.32.91,2,2,0,0,0,.82.64,2.86,2.86,0,0,0,1.16.23,2.76,2.76,0,0,0,1.12-.21,1.65,1.65,0,0,0,.73-.58,1.35,1.35,0,0,0,.26-.84,1.25,1.25,0,0,0-.29-.85A1.84,1.84,0,0,0,140.19,77.74Z"/><path class="cls-1" d="M143.45,72.91a.72.72,0,0,0-.73.73.7.7,0,0,0,.21.52.72.72,0,0,0,.52.21.72.72,0,0,0,.72-.73.72.72,0,0,0-.21-.52A.69.69,0,0,0,143.45,72.91Z"/><rect class="cls-1" x="142.87" y="75.1" width="1.14" height="5.51"/><path class="cls-1" d="M150,75.28a2.45,2.45,0,0,0-1.16-.27,2.41,2.41,0,0,0-.93.19,1.92,1.92,0,0,0-.71.53V75.1H146v5.51h1.14V77.53a1.57,1.57,0,0,1,.37-1.13,1.49,1.49,0,0,1,2,0,1.62,1.62,0,0,1,.37,1.13v3.08h1.13V77.36a2.69,2.69,0,0,0-.29-1.28A1.89,1.89,0,0,0,150,75.28Z"/><path class="cls-1" d="M157.19,75.9a2.25,2.25,0,0,0-.78-.63,2.41,2.41,0,0,0-1.13-.26,2.52,2.52,0,0,0-1.32.36,2.56,2.56,0,0,0-.94,1,3.07,3.07,0,0,0-.34,1.47,3.15,3.15,0,0,0,.34,1.49,2.72,2.72,0,0,0,.94,1,2.52,2.52,0,0,0,1.32.36,2.4,2.4,0,0,0,1.12-.26,2.36,2.36,0,0,0,.79-.66v.92a1.61,1.61,0,0,1-.43,1.22,1.5,1.5,0,0,1-1.11.42,2,2,0,0,1-1-.26,1.26,1.26,0,0,1-.55-.7H153a2,2,0,0,0,.84,1.43,3.12,3.12,0,0,0,1.86.52,2.84,2.84,0,0,0,1.44-.34,2.25,2.25,0,0,0,.93-.93,2.87,2.87,0,0,0,.32-1.36V75.1h-1.15ZM157,78.85a1.6,1.6,0,0,1-1.43.86,1.6,1.6,0,0,1-.82-.22,1.72,1.72,0,0,1-.62-.66,2.11,2.11,0,0,1-.23-1,2,2,0,0,1,.23-1,1.63,1.63,0,0,1,.62-.63,1.58,1.58,0,0,1,.82-.22,1.68,1.68,0,0,1,.82.22,1.64,1.64,0,0,1,.61.64,2,2,0,0,1,.24,1A2,2,0,0,1,157,78.85Z"/></svg>