<svg id="Layer_1" data-name="Layer 1" xmlns="http://www.w3.org/2000/svg" viewBox="0 0 350 150"><defs><style>.cls-1{fill:#0d5235;}</style></defs><path class="cls-1" d="M37.32,4.16c-3.85,3.51-4.54,9-4.54,9s5.54-.18,9.39-3.69,4.54-9,4.54-9S41.16.65,37.32,4.16Z"/><path class="cls-1" d="M64.37,133.47a17,17,0,0,1,3.47,9.28c0,.07-7-1.88-10.07-6.57a12,12,0,0,1-1.65-9.41A28.39,28.39,0,0,1,64.37,133.47Z"/><path class="cls-1" d="M59.5,148.19a11.83,11.83,0,0,0,8.39-5.62c-.07,0-6.62-1.87-12.27-1.21a15.57,15.57,0,0,0-9,4.28C46.49,145.65,53.32,149.25,59.5,148.19Z"/><path class="cls-1" d="M52.29,128.16a16.82,16.82,0,0,1,1.42,9.54c0,.07-6.12-3-8.18-8a12.07,12.07,0,0,1,.24-9.38A26.14,26.14,0,0,1,52.29,128.16Z"/><path class="cls-1" d="M44.83,141.55a11.66,11.66,0,0,0,9-4c-.07,0-5.81-2.9-11.29-3.21a15.28,15.28,0,0,0-9.41,2.6C33,136.92,38.82,141.55,44.83,141.55Z"/><path class="cls-1" d="M41.86,121a16.68,16.68,0,0,1-.47,9.47c0,.07-5.24-3.91-6.29-9.17a12,12,0,0,1,2-9A24.66,24.66,0,0,1,41.86,121Z"/><path class="cls-1" d="M32.2,132.67a11.42,11.42,0,0,0,9.3-2.37c-.06,0-5-3.79-10.17-5a15.11,15.11,0,0,0-9.55.9C21.71,126.16,26.47,131.65,32.2,132.67Z"/><path class="cls-1" d="M33.15,112.23a16.37,16.37,0,0,1-2.18,9.1c0,.07-4.33-4.69-4.42-10a12,12,0,0,1,3.5-8.47A23.87,23.87,0,0,1,33.15,112.23Z"/><path class="cls-1" d="M21.69,121.9a11.24,11.24,0,0,0,9.42-.7c-.06,0-4.09-4.53-8.94-6.64a14.93,14.93,0,0,0-9.44-.79C12.66,113.75,16.33,119.92,21.69,121.9Z"/><path class="cls-1" d="M26.24,102.19a16.32,16.32,0,0,1-3.71,8.48c0,.06-3.4-5.32-2.58-10.5a11.74,11.74,0,0,1,4.87-7.64A23.75,23.75,0,0,1,26.24,102.19Z"/><path class="cls-1" d="M13.39,109.6a11.11,11.11,0,0,0,9.29,1c-.05,0-3.18-5.12-7.56-8A14.84,14.84,0,0,0,6,100.1C6,100.07,8.51,106.73,13.39,109.6Z"/><path class="cls-1" d="M21.21,91.18a15.88,15.88,0,0,1-5.08,7.62c0,.06-2.41-5.79-.75-10.72a11.55,11.55,0,0,1,6-6.63A23.59,23.59,0,0,1,21.21,91.18Z"/><path class="cls-1" d="M7.37,96.14a11.09,11.09,0,0,0,8.93,2.59c-.05,0-2.24-5.56-6-9.2a15,15,0,0,0-8.5-4C1.7,85.48,3.08,92.47,7.37,96.14Z"/><path class="cls-1" d="M18.11,79.48a15.59,15.59,0,0,1-6.24,6.58s-1.4-6.12,1.05-10.67a11.28,11.28,0,0,1,7-5.44A23.34,23.34,0,0,1,18.11,79.48Z"/><path class="cls-1" d="M3.73,81.87A11.08,11.08,0,0,0,12.05,86,31.49,31.49,0,0,0,7.66,75.9,15.14,15.14,0,0,0,0,70.42S.14,77.51,3.73,81.87Z"/><path class="cls-1" d="M17,67.4a15.23,15.23,0,0,1-7.21,5.37s-.35-6.28,2.82-10.35a11.15,11.15,0,0,1,7.81-4.13A23.74,23.74,0,0,1,17,67.4Z"/><path class="cls-1" d="M2.55,67.18A11.26,11.26,0,0,0,10,72.76,32.16,32.16,0,0,0,7.41,62a15.23,15.23,0,0,0-6.55-6.8S-.23,62.23,2.55,67.18Z"/><path class="cls-1" d="M18.05,55.24a15.07,15.07,0,0,1-8,4c-.05,0,.74-6.29,4.57-9.77A11,11,0,0,1,23,46.78,24.82,24.82,0,0,1,18.05,55.24Z"/><path class="cls-1" d="M3.92,52.42a11.21,11.21,0,0,0,6.32,6.87,33.9,33.9,0,0,0-.65-11.17,15.45,15.45,0,0,0-5.18-7.95C4.37,40.12,2.05,47,3.92,52.42Z"/><path class="cls-1" d="M21.23,43.3a14.7,14.7,0,0,1-8.56,2.6c-.06,0,1.86-6.14,6.29-8.95a10.84,10.84,0,0,1,8.75-1.25A25.85,25.85,0,0,1,21.23,43.3Z"/><path class="cls-1" d="M7.91,38a11.26,11.26,0,0,0,4.93,8,36.24,36.24,0,0,0,1.44-11.28,15.6,15.6,0,0,0-3.54-8.89C10.71,25.72,7.08,32.23,7.91,38Z"/><path class="cls-1" d="M26.64,31.89A14.56,14.56,0,0,1,17.73,33c-.07,0,3-5.83,8-7.9a10.72,10.72,0,0,1,8.91.26C34.55,25.36,31.06,29.75,26.64,31.89Z"/><path class="cls-1" d="M14.62,24.18a11.22,11.22,0,0,0,3.26,8.89A39.24,39.24,0,0,0,21.56,22a15.84,15.84,0,0,0-1.63-9.59C19.91,12.33,14.94,18.27,14.62,24.18Z"/><path class="cls-1" d="M34.37,21.3a14.3,14.3,0,0,1-9.06-.42c-.07,0,4.22-5.36,9.64-6.63A10.52,10.52,0,0,1,43.79,16C43.71,16,39.21,19.9,34.37,21.3Z"/><path class="cls-1" d="M24.13,11.44A11.25,11.25,0,0,0,25.45,21,44.91,44.91,0,0,0,31.51,10.4a16.48,16.48,0,0,0,.57-10C32.07.32,25.72,5.52,24.13,11.44Z"/><path class="cls-1" d="M87.43,144.29l-.1-1.07A66.25,66.25,0,0,1,61,140.27a69.72,69.72,0,0,1-23.07-12.63A73.37,73.37,0,0,1,11.79,80.2c-2-15.39-1-29.1,3.07-40.75a54.29,54.29,0,0,1,23-29.1l-.57-.92A55.4,55.4,0,0,0,13.84,39.1C9.73,50.91,8.68,64.79,10.72,80.34a74.43,74.43,0,0,0,26.47,48.13A71,71,0,0,0,60.62,141.3,67.29,67.29,0,0,0,87.43,144.29Z"/><path class="cls-1" d="M312.68,4.16c3.85,3.51,4.54,9,4.54,9s-5.54-.18-9.39-3.69-4.54-9-4.54-9S308.84.65,312.68,4.16Z"/><path class="cls-1" d="M285.63,133.47a17,17,0,0,0-3.47,9.28c0,.07,6.95-1.88,10.07-6.57a12,12,0,0,0,1.65-9.41A28.39,28.39,0,0,0,285.63,133.47Z"/><path class="cls-1" d="M290.5,148.19a11.83,11.83,0,0,1-8.39-5.62c.07,0,6.62-1.87,12.27-1.21a15.57,15.57,0,0,1,9,4.28C303.51,145.65,296.68,149.25,290.5,148.19Z"/><path class="cls-1" d="M297.71,128.16a16.82,16.82,0,0,0-1.42,9.54c0,.07,6.12-3,8.18-8a12.07,12.07,0,0,0-.24-9.38A26.14,26.14,0,0,0,297.71,128.16Z"/><path class="cls-1" d="M305.17,141.55a11.66,11.66,0,0,1-9-4c.07,0,5.81-2.9,11.29-3.21a15.28,15.28,0,0,1,9.41,2.6C317,136.92,311.18,141.55,305.17,141.55Z"/><path class="cls-1" d="M308.14,121a16.68,16.68,0,0,0,.47,9.47c0,.07,5.24-3.91,6.29-9.17a12,12,0,0,0-2-9A24.66,24.66,0,0,0,308.14,121Z"/><path class="cls-1" d="M317.8,132.67a11.42,11.42,0,0,1-9.3-2.37c.06,0,5-3.79,10.17-5a15.11,15.11,0,0,1,9.55.9C328.29,126.16,323.53,131.65,317.8,132.67Z"/><path class="cls-1" d="M316.85,112.23a16.37,16.37,0,0,0,2.18,9.1c0,.07,4.33-4.69,4.42-10a12,12,0,0,0-3.5-8.47A23.87,23.87,0,0,0,316.85,112.23Z"/><path class="cls-1" d="M328.31,121.9a11.24,11.24,0,0,1-9.42-.7c.06,0,4.09-4.53,8.94-6.64a14.93,14.93,0,0,1,9.44-.79C337.34,113.75,333.67,119.92,328.31,121.9Z"/><path class="cls-1" d="M323.76,102.19a16.32,16.32,0,0,0,3.71,8.48c0,.06,3.4-5.32,2.58-10.5a11.74,11.74,0,0,0-4.87-7.64A23.75,23.75,0,0,0,323.76,102.19Z"/><path class="cls-1" d="M336.61,109.6a11.11,11.11,0,0,1-9.29,1c.05,0,3.18-5.12,7.56-8A14.84,14.84,0,0,1,344,100.1C344,100.07,341.49,106.73,336.61,109.6Z"/><path class="cls-1" d="M328.79,91.18a15.88,15.88,0,0,0,5.08,7.62c0,.06,2.41-5.79.75-10.72a11.55,11.55,0,0,0-6-6.63A23.59,23.59,0,0,0,328.79,91.18Z"/><path class="cls-1" d="M342.63,96.14a11.09,11.09,0,0,1-8.93,2.59c.05,0,2.24-5.56,6-9.2a15,15,0,0,1,8.5-4C348.3,85.48,346.92,92.47,342.63,96.14Z"/><path class="cls-1" d="M331.89,79.48a15.59,15.59,0,0,0,6.24,6.58s1.4-6.12-1.05-10.67a11.28,11.28,0,0,0-7-5.44A23.34,23.34,0,0,0,331.89,79.48Z"/><path class="cls-1" d="M346.27,81.87A11.08,11.08,0,0,1,338,86a31.49,31.49,0,0,1,4.39-10.11A15.14,15.14,0,0,1,350,70.42C350,70.38,349.86,77.51,346.27,81.87Z"/><path class="cls-1" d="M333,67.4a15.23,15.23,0,0,0,7.21,5.37s.35-6.28-2.82-10.35a11.15,11.15,0,0,0-7.81-4.13A23.74,23.74,0,0,0,333,67.4Z"/><path class="cls-1" d="M347.45,67.18A11.26,11.26,0,0,1,340,72.76,32.16,32.16,0,0,1,342.59,62a15.23,15.23,0,0,1,6.55-6.8S350.23,62.23,347.45,67.18Z"/><path class="cls-1" d="M332,55.24a15.07,15.07,0,0,0,8,4c.05,0-.74-6.29-4.57-9.77A11,11,0,0,0,327,46.78,24.82,24.82,0,0,0,332,55.24Z"/><path class="cls-1" d="M346.08,52.42a11.21,11.21,0,0,1-6.32,6.87,33.9,33.9,0,0,1,.65-11.17,15.45,15.45,0,0,1,5.18-7.95C345.63,40.12,348,47,346.08,52.42Z"/><path class="cls-1" d="M328.77,43.3a14.7,14.7,0,0,0,8.56,2.6c.06,0-1.86-6.14-6.29-8.95a10.84,10.84,0,0,0-8.75-1.25A25.85,25.85,0,0,0,328.77,43.3Z"/><path class="cls-1" d="M342.09,38a11.26,11.26,0,0,1-4.93,8,36.24,36.24,0,0,1-1.44-11.28,15.6,15.6,0,0,1,3.54-8.89C339.29,25.72,342.92,32.23,342.09,38Z"/><path class="cls-1" d="M323.36,31.89a14.56,14.56,0,0,0,8.91,1.1c.07,0-3-5.83-8-7.9a10.72,10.72,0,0,0-8.91.26C315.45,25.36,318.94,29.75,323.36,31.89Z"/><path class="cls-1" d="M335.38,24.18a11.22,11.22,0,0,1-3.26,8.89A39.24,39.24,0,0,1,328.44,22a15.84,15.84,0,0,1,1.63-9.59C330.09,12.33,335.06,18.27,335.38,24.18Z"/><path class="cls-1" d="M315.63,21.3a14.3,14.3,0,0,0,9.06-.42c.07,0-4.22-5.36-9.64-6.63A10.52,10.52,0,0,0,306.21,16C306.29,16,310.79,19.9,315.63,21.3Z"/><path class="cls-1" d="M325.87,11.44A11.25,11.25,0,0,1,324.55,21a44.91,44.91,0,0,1-6.06-10.59,16.48,16.48,0,0,1-.57-10C317.93.32,324.28,5.52,325.87,11.44Z"/><path class="cls-1" d="M262.57,144.29l.1-1.07a66.25,66.25,0,0,0,26.38-2.95,69.72,69.72,0,0,0,23.07-12.63A73.37,73.37,0,0,0,338.21,80.2c2-15.39,1-29.1-3.07-40.75a54.29,54.29,0,0,0-23-29.1l.57-.92A55.4,55.4,0,0,1,336.16,39.1c4.11,11.81,5.16,25.69,3.12,41.24a74.43,74.43,0,0,1-26.47,48.13,71,71,0,0,1-23.43,12.83A67.29,67.29,0,0,1,262.57,144.29Z"/><path class="cls-1" d="M133.25,24.86V31.3h-.49a8.18,8.18,0,0,0-2.71-4,6.35,6.35,0,0,0-3.94-1.38,5.13,5.13,0,0,0-3.41,1.15,6.17,6.17,0,0,0-1.92,3.22,16.68,16.68,0,0,0,0,8.83,5.2,5.2,0,0,0,2,2.9,5.72,5.72,0,0,0,3.28.93,6.32,6.32,0,0,0,1.35-.14,9.33,9.33,0,0,0,1.42-.41v-3.8a4,4,0,0,0-.15-1.39,1.36,1.36,0,0,0-.61-.57,2.33,2.33,0,0,0-1.13-.26h-.47v-.49h8.87v.49a3.9,3.9,0,0,0-1.4.28,1.34,1.34,0,0,0-.61.69,3.48,3.48,0,0,0-.13,1.25v3.8a18.22,18.22,0,0,1-3.64,1.18,19.37,19.37,0,0,1-3.92.4,11.39,11.39,0,0,1-4.31-.71,10.55,10.55,0,0,1-3-1.86,8.86,8.86,0,0,1-2.06-2.59,9.06,9.06,0,0,1-.94-4.16,9.4,9.4,0,0,1,2.89-7,10,10,0,0,1,7.29-2.84,10.28,10.28,0,0,1,4.37.83,8.26,8.26,0,0,0,1.56.5,1,1,0,0,0,.7-.27,2.43,2.43,0,0,0,.6-1.05Z"/><path class="cls-1" d="M147.28,25a9.06,9.06,0,0,1,9.82,9.31,9.7,9.7,0,0,1-2,6.11,9,9,0,0,1-7.6,3.5,9.21,9.21,0,0,1-7.62-3.34,9.65,9.65,0,0,1-2.13-6.26,9.06,9.06,0,0,1,2.77-6.77A8.78,8.78,0,0,1,147.28,25Zm.16.86a4.13,4.13,0,0,0-3.81,2.55,13.82,13.82,0,0,0-1.06,6q0,4.67,1.64,6.9a3.76,3.76,0,0,0,3.21,1.56,3.83,3.83,0,0,0,2.31-.67,5.51,5.51,0,0,0,1.85-2.75,15.32,15.32,0,0,0,.66-4.94,16.36,16.36,0,0,0-.68-5.42,5.31,5.31,0,0,0-1.71-2.53A4,4,0,0,0,147.44,25.89Z"/><path class="cls-1" d="M175.7,37.13l-.69,6.4H158.8V43h.61a2.53,2.53,0,0,0,1.28-.29,1.25,1.25,0,0,0,.54-.64,6,6,0,0,0,.14-1.7v-12a6.53,6.53,0,0,0-.14-1.75,1.4,1.4,0,0,0-.6-.61,2.48,2.48,0,0,0-1.22-.26h-.61v-.5h9.74v.5h-.8a2.53,2.53,0,0,0-1.28.28,1.34,1.34,0,0,0-.55.65,5.43,5.43,0,0,0-.15,1.69V40a6.23,6.23,0,0,0,.16,1.79,1.07,1.07,0,0,0,.64.57,6.41,6.41,0,0,0,1.63.12h1.52a5.16,5.16,0,0,0,2.42-.51,4.44,4.44,0,0,0,1.67-1.62,13,13,0,0,0,1.35-3.25Z"/><path class="cls-1" d="M177.73,43.53V43h.61a2.52,2.52,0,0,0,1.22-.25,1.51,1.51,0,0,0,.62-.68,6.55,6.55,0,0,0,.12-1.7v-12a6.53,6.53,0,0,0-.14-1.75,1.4,1.4,0,0,0-.6-.61,2.48,2.48,0,0,0-1.22-.26h-.61v-.5h8.17a13.16,13.16,0,0,1,5.27.89,7.82,7.82,0,0,1,3.69,3.3A10.5,10.5,0,0,1,195.5,38a8.09,8.09,0,0,1-1.6,2.68,7.82,7.82,0,0,1-2.27,1.69,11.85,11.85,0,0,1-3.14,1,14.64,14.64,0,0,1-2.59.16Zm7-17.21V40.56A5.1,5.1,0,0,0,184.8,42a.76.76,0,0,0,.36.39,2.3,2.3,0,0,0,1.05.2A4.07,4.07,0,0,0,189.65,41q1.6-2.07,1.61-6.43a12.19,12.19,0,0,0-1.1-5.61,4.77,4.77,0,0,0-2.25-2.24A8.71,8.71,0,0,0,184.69,26.32Z"/><path class="cls-1" d="M204.89,26.33v7.43h.36a2.88,2.88,0,0,0,2.52-1.09,6.69,6.69,0,0,0,1-3.22h.51V39h-.51a7,7,0,0,0-.68-2.56,2.91,2.91,0,0,0-1.2-1.34,4.72,4.72,0,0,0-2-.34v5.14a8,8,0,0,0,.12,1.85,1.15,1.15,0,0,0,.48.55,2.29,2.29,0,0,0,1.13.22h1.09a5.9,5.9,0,0,0,6.32-4.8h.49l-.82,5.8H197.93V43h.6a2.5,2.5,0,0,0,1.28-.29,1.25,1.25,0,0,0,.54-.64,5.51,5.51,0,0,0,.15-1.7v-12a8.86,8.86,0,0,0-.07-1.52,1.3,1.3,0,0,0-.5-.72,2.26,2.26,0,0,0-1.4-.38h-.6v-.5h15.28v5.4h-.52a6.57,6.57,0,0,0-1.09-2.84,4.05,4.05,0,0,0-2-1.27,11,11,0,0,0-2.83-.24Z"/><path class="cls-1" d="M223.12,25.28l9,11.32V28.75a3.76,3.76,0,0,0-.47-2.22,2.6,2.6,0,0,0-2.17-.75v-.5h6v.5a4.77,4.77,0,0,0-1.55.38,1.57,1.57,0,0,0-.62.77,5.16,5.16,0,0,0-.22,1.82V44h-.46l-12.35-15.2V40.36a2.54,2.54,0,0,0,.72,2.12,2.63,2.63,0,0,0,1.65.56h.43v.49h-6.47V43a3,3,0,0,0,2.1-.62,2.93,2.93,0,0,0,.59-2.06V27.48L219,27a3.76,3.76,0,0,0-1-1,3.17,3.17,0,0,0-1.28-.25v-.5Z"/><path class="cls-1" d="M41.35,62.84V67.9a5.63,5.63,0,0,0,.18,1.86,1.36,1.36,0,0,0,.65.62,4.36,4.36,0,0,0,1.7.23v.49H34.61v-.49a4.09,4.09,0,0,0,1.71-.24,1.46,1.46,0,0,0,.64-.61,5.63,5.63,0,0,0,.18-1.86V56.05A5.71,5.71,0,0,0,37,54.19a1.36,1.36,0,0,0-.64-.61,4.2,4.2,0,0,0-1.71-.23v-.5h8q3.93,0,5.64,1.4a4.34,4.34,0,0,1,1.71,3.5,4.49,4.49,0,0,1-1.1,3,5.63,5.63,0,0,1-3,1.73A21.28,21.28,0,0,1,41.35,62.84Zm0-8.94v7.89l.67,0a3.28,3.28,0,0,0,2.54-1,4.39,4.39,0,0,0,.88-3,4.25,4.25,0,0,0-.88-3,3.49,3.49,0,0,0-2.66-.94Z"/><path class="cls-1" d="M58,62.78V67.9a5.63,5.63,0,0,0,.18,1.86,1.38,1.38,0,0,0,.64.62,4.39,4.39,0,0,0,1.71.23v.49H51.2v-.49a4.09,4.09,0,0,0,1.71-.24,1.36,1.36,0,0,0,.64-.61,5.63,5.63,0,0,0,.18-1.86V56.05a5.71,5.71,0,0,0-.18-1.86,1.31,1.31,0,0,0-.64-.61,4.2,4.2,0,0,0-1.71-.23v-.5h8.48a18.2,18.2,0,0,1,4.84.46A4.86,4.86,0,0,1,67,55a4.55,4.55,0,0,1,1,2.88,4.31,4.31,0,0,1-1.46,3.34A6,6,0,0,1,64,62.48l4.38,6.17a10,10,0,0,0,1.23,1.5,2.29,2.29,0,0,0,1.28.46v.49H65.09l-5.88-8.32Zm0-9v8h.77a8.88,8.88,0,0,0,2.8-.34A2.85,2.85,0,0,0,63,60.25a4.61,4.61,0,0,0,.53-2.34,3.55,3.55,0,0,0-4.12-4.08Z"/><path class="cls-1" d="M81.12,52.59a9.07,9.07,0,0,1,9.82,9.32,9.7,9.7,0,0,1-2,6.11,9,9,0,0,1-7.6,3.5,9.21,9.21,0,0,1-7.62-3.34,9.65,9.65,0,0,1-2.13-6.26,9.06,9.06,0,0,1,2.77-6.77A8.82,8.82,0,0,1,81.12,52.59Zm.16.87A4.11,4.11,0,0,0,77.47,56a13.8,13.8,0,0,0-1.06,6q0,4.68,1.64,6.91a3.76,3.76,0,0,0,3.21,1.56,3.83,3.83,0,0,0,2.31-.67,5.55,5.55,0,0,0,1.85-2.75,15.36,15.36,0,0,0,.66-4.94,16.36,16.36,0,0,0-.68-5.42,5.31,5.31,0,0,0-1.71-2.53A4,4,0,0,0,81.28,53.46Z"/><path class="cls-1" d="M99.48,62.84V67.9a5.63,5.63,0,0,0,.18,1.86,1.36,1.36,0,0,0,.65.62,4.33,4.33,0,0,0,1.7.23v.49H92.74v-.49a4.09,4.09,0,0,0,1.71-.24,1.38,1.38,0,0,0,.63-.61,5.53,5.53,0,0,0,.19-1.86V56.05a5.61,5.61,0,0,0-.19-1.86,1.27,1.27,0,0,0-.64-.61,4.11,4.11,0,0,0-1.7-.23v-.5h8q3.93,0,5.64,1.4a4.34,4.34,0,0,1,1.71,3.5,4.49,4.49,0,0,1-1.1,3,5.62,5.62,0,0,1-3,1.73A21.17,21.17,0,0,1,99.48,62.84Zm0-8.94v7.89l.67,0a3.24,3.24,0,0,0,2.53-1,4.34,4.34,0,0,0,.89-3,4.2,4.2,0,0,0-.89-3A3.45,3.45,0,0,0,100,53.9Z"/><path class="cls-1" d="M116.3,53.9v7.43h.36a2.88,2.88,0,0,0,2.52-1.09,6.8,6.8,0,0,0,1-3.22h.51v9.56h-.51A7.38,7.38,0,0,0,119.5,64a3,3,0,0,0-1.21-1.34,4.72,4.72,0,0,0-2-.34v5.14a7.2,7.2,0,0,0,.13,1.85,1.08,1.08,0,0,0,.47.55,2.33,2.33,0,0,0,1.14.21h1.09a6.52,6.52,0,0,0,4.09-1.18,6.59,6.59,0,0,0,2.22-3.61h.5l-.82,5.8H109.34v-.49H110a2.49,2.49,0,0,0,1.27-.29,1.16,1.16,0,0,0,.54-.64,5.51,5.51,0,0,0,.15-1.7V56a8.86,8.86,0,0,0-.07-1.52,1.28,1.28,0,0,0-.49-.72,2.28,2.28,0,0,0-1.4-.38h-.61v-.5h15.28v5.4h-.51a6.56,6.56,0,0,0-1.1-2.84,4.05,4.05,0,0,0-2-1.27,10.9,10.9,0,0,0-2.83-.24Z"/><path class="cls-1" d="M134.94,62.78V67.9a5.63,5.63,0,0,0,.18,1.86,1.33,1.33,0,0,0,.64.62,4.32,4.32,0,0,0,1.71.23v.49h-9.34v-.49a4.09,4.09,0,0,0,1.71-.24,1.38,1.38,0,0,0,.63-.61,5.26,5.26,0,0,0,.19-1.86V56.05a5.34,5.34,0,0,0-.19-1.86,1.29,1.29,0,0,0-.63-.61,4.2,4.2,0,0,0-1.71-.23v-.5h8.48a18.25,18.25,0,0,1,4.84.46A4.86,4.86,0,0,1,144,55a4.55,4.55,0,0,1,1,2.88,4.31,4.31,0,0,1-1.46,3.34,6,6,0,0,1-2.6,1.26l4.39,6.17a9.36,9.36,0,0,0,1.23,1.5,2.26,2.26,0,0,0,1.28.46v.49H142l-5.88-8.32Zm0-9v8h.76a8.8,8.8,0,0,0,2.8-.34A2.81,2.81,0,0,0,140,60.25a4.5,4.5,0,0,0,.54-2.34,3.55,3.55,0,0,0-4.12-4.08Z"/><path class="cls-1" d="M164.77,52.85v4.94h-.49a7.93,7.93,0,0,0-.95-2.46,3.78,3.78,0,0,0-1.44-1.19,4.69,4.69,0,0,0-1.79-.24h-1.36V68a5.93,5.93,0,0,0,.15,1.75,1.37,1.37,0,0,0,.61.61,2.39,2.39,0,0,0,1.23.27h.6v.49h-9.55v-.49h.6a2.5,2.5,0,0,0,1.28-.29,1.26,1.26,0,0,0,.55-.64,5.51,5.51,0,0,0,.15-1.7V53.9H153a3.85,3.85,0,0,0-2.68.78,5.19,5.19,0,0,0-1.48,3.11h-.51V52.85Z"/><path class="cls-1" d="M186.41,52.85v.5a2.65,2.65,0,0,0-1.38.52A14.1,14.1,0,0,0,182.9,57l-4,6.61V68a6,6,0,0,0,.15,1.76,1.3,1.3,0,0,0,.59.6,2.16,2.16,0,0,0,1.16.27h1v.49H171.62v-.49h.95a2.45,2.45,0,0,0,1.28-.29,1.22,1.22,0,0,0,.55-.64,5.51,5.51,0,0,0,.15-1.7V64.32l-4.29-7.82a11.44,11.44,0,0,0-1.81-2.73,2.29,2.29,0,0,0-1.4-.42v-.5h8.75v.5h-.39a1.93,1.93,0,0,0-1.11.23.61.61,0,0,0-.31.48,8.26,8.26,0,0,0,1.07,2.44l3.3,6,3.29-5.5a7.4,7.4,0,0,0,1.22-2.68.71.71,0,0,0-.35-.61,3.29,3.29,0,0,0-1.68-.4v-.5Z"/><path class="cls-1" d="M206.46,65.91H200l-.76,1.77a4.07,4.07,0,0,0-.38,1.47,1.22,1.22,0,0,0,.62,1.13,5.19,5.19,0,0,0,1.79.33v.49h-6.07v-.49a2.69,2.69,0,0,0,1.61-.82A10.47,10.47,0,0,0,198.39,67l6.52-14.57h.26l6.58,15a9.25,9.25,0,0,0,1.55,2.68,2.16,2.16,0,0,0,1.29.49v.49h-8.83v-.49h.37a2.75,2.75,0,0,0,1.49-.3.71.71,0,0,0,.3-.62,1.8,1.8,0,0,0-.08-.5c0-.08-.16-.41-.41-1Zm-.46-1-2.71-6.28-2.8,6.28Z"/><path class="cls-1" d="M239.87,52.85v.5a1.75,1.75,0,0,0-.86.28,2,2,0,0,0-.62.74c-.06.11-.34.8-.85,2.09l-5.72,15.06h-.53l-4.52-11.76-5,11.76h-.5l-6-14.9A15.9,15.9,0,0,0,214,53.9a1.66,1.66,0,0,0-1.23-.55v-.5h7.92v.5a2.19,2.19,0,0,0-1.27.29.81.81,0,0,0-.32.65,8,8,0,0,0,.66,2.17l3.58,8.86,2.87-6.92-.75-1.94a15.43,15.43,0,0,0-1-2.12,2,2,0,0,0-.77-.76,2.78,2.78,0,0,0-1.29-.23v-.5h8.84v.5a4.93,4.93,0,0,0-1.33.15.84.84,0,0,0-.6.82,9.48,9.48,0,0,0,.6,1.9l3.33,8.64,3-7.82a14.34,14.34,0,0,0,.58-1.66,3.64,3.64,0,0,0,.11-.82,1.08,1.08,0,0,0-.38-.87,2.46,2.46,0,0,0-1.44-.34v-.5Z"/><path class="cls-1" d="M249.44,65.91H243l-.76,1.77a4.07,4.07,0,0,0-.38,1.47,1.22,1.22,0,0,0,.62,1.13,5.19,5.19,0,0,0,1.79.33v.49h-6.07v-.49a2.69,2.69,0,0,0,1.61-.82A10.47,10.47,0,0,0,241.37,67l6.52-14.57h.26l6.58,15a9.25,9.25,0,0,0,1.55,2.68,2.16,2.16,0,0,0,1.29.49v.49h-8.83v-.49h.37a2.75,2.75,0,0,0,1.49-.3.71.71,0,0,0,.3-.62,1.8,1.8,0,0,0-.08-.5c0-.08-.16-.41-.41-1Zm-.46-1-2.71-6.28-2.8,6.28Z"/><path class="cls-1" d="M266.46,62.78V67.9a5.63,5.63,0,0,0,.18,1.86,1.43,1.43,0,0,0,.64.62,4.39,4.39,0,0,0,1.71.23v.49h-9.34v-.49a4.15,4.15,0,0,0,1.72-.24,1.38,1.38,0,0,0,.63-.61,5.63,5.63,0,0,0,.18-1.86V56.05a5.71,5.71,0,0,0-.18-1.86,1.27,1.27,0,0,0-.64-.61,4.2,4.2,0,0,0-1.71-.23v-.5h8.48a18.33,18.33,0,0,1,4.85.46,4.88,4.88,0,0,1,2.5,1.69,4.5,4.5,0,0,1,1,2.88A4.31,4.31,0,0,1,275,61.22a6,6,0,0,1-2.6,1.26l4.39,6.17a9.5,9.5,0,0,0,1.22,1.5,2.31,2.31,0,0,0,1.28.46v.49h-5.75l-5.88-8.32Zm0-9v8h.77a8.84,8.84,0,0,0,2.8-.34,2.81,2.81,0,0,0,1.46-1.24,4.51,4.51,0,0,0,.53-2.34,3.54,3.54,0,0,0-4.12-4.08Z"/><path class="cls-1" d="M281,71.1v-.49h.6a2.5,2.5,0,0,0,1.22-.25,1.65,1.65,0,0,0,.63-.68,6.55,6.55,0,0,0,.12-1.7V56a6,6,0,0,0-.15-1.75,1.4,1.4,0,0,0-.6-.61,2.48,2.48,0,0,0-1.22-.26H281v-.5h8.17a13.11,13.11,0,0,1,5.26.89,7.75,7.75,0,0,1,3.7,3.3,10.5,10.5,0,0,1,.64,8.54,8.28,8.28,0,0,1-1.61,2.68A7.78,7.78,0,0,1,294.92,70a11.93,11.93,0,0,1-3.15,1,14.51,14.51,0,0,1-2.58.16Zm7-17.21V68.13a5.28,5.28,0,0,0,.1,1.39.82.82,0,0,0,.37.39,2.25,2.25,0,0,0,1.05.2,4.05,4.05,0,0,0,3.43-1.54q1.62-2.07,1.62-6.43a12,12,0,0,0-1.11-5.61,4.69,4.69,0,0,0-2.25-2.24A8.61,8.61,0,0,0,288,53.89Z"/><path class="cls-1" d="M314.11,52.43l.15,6.09h-.55a6.18,6.18,0,0,0-1.92-3.68,4.83,4.83,0,0,0-3.3-1.4,3.11,3.11,0,0,0-2.18.74,2.24,2.24,0,0,0-.8,1.69,2.11,2.11,0,0,0,.28,1.07,4.66,4.66,0,0,0,1.26,1.25A25.76,25.76,0,0,0,310,59.77a13.15,13.15,0,0,1,4.32,3,5,5,0,0,1,1.1,3.21,5.19,5.19,0,0,1-1.78,3.94,6.41,6.41,0,0,1-4.53,1.64,7.15,7.15,0,0,1-1.63-.17,13,13,0,0,1-1.92-.66,3,3,0,0,0-1.07-.27,1.32,1.32,0,0,0-.74.27,1.86,1.86,0,0,0-.63.82h-.5V64.63h.5a7.8,7.8,0,0,0,2.28,4.43A5.34,5.34,0,0,0,309,70.59a3.38,3.38,0,0,0,2.4-.82,2.51,2.51,0,0,0,.9-1.91,2.48,2.48,0,0,0-.34-1.25,3.86,3.86,0,0,0-1.05-1.15A14.78,14.78,0,0,0,308.45,64,21.61,21.61,0,0,1,304.87,62,6.41,6.41,0,0,1,303.19,60a4.79,4.79,0,0,1-.59-2.35A5,5,0,0,1,304.21,54a5.55,5.55,0,0,1,4-1.54,6.62,6.62,0,0,1,1.73.22,9.13,9.13,0,0,1,1.54.6,3.58,3.58,0,0,0,1.27.43.72.72,0,0,0,.55-.21,2.43,2.43,0,0,0,.38-1Z"/><path class="cls-1" d="M136.26,96.13v10.64h-1.74V96.13Z"/><path class="cls-1" d="M146.57,100.83a2.88,2.88,0,0,1-1.22,1.17,4.61,4.61,0,0,1-2.16.45h-1.93v4.32h-1.75V96.13h3.68a4.66,4.66,0,0,1,2.07.42,2.89,2.89,0,0,1,1.27,1.14A3.12,3.12,0,0,1,147,99.3,3.27,3.27,0,0,1,146.57,100.83Zm-1.9-.25a1.66,1.66,0,0,0,.49-1.28c0-1.17-.66-1.75-2-1.75h-1.93V101h1.93A2.13,2.13,0,0,0,144.67,100.58Z"/><path class="cls-1" d="M163.2,96.13l-3.15,10.64h-2l-2.24-8-2.37,8-2,0-3-10.66h1.86l2.2,8.67,2.39-8.67h2l2.22,8.62,2.22-8.62Z"/><path class="cls-1" d="M178.38,106.77l-1.32-1.32a5.07,5.07,0,0,1-1.67,1.14,5.19,5.19,0,0,1-2,.38,4.78,4.78,0,0,1-2-.4,3,3,0,0,1-1.34-1.14,3.09,3.09,0,0,1-.48-1.72,3.26,3.26,0,0,1,.63-2,4.18,4.18,0,0,1,1.87-1.37,3.7,3.7,0,0,1-.63-1,2.91,2.91,0,0,1-.18-1,2.21,2.21,0,0,1,.36-1.25,2.49,2.49,0,0,1,1-.88,3.65,3.65,0,0,1,1.56-.32,3.16,3.16,0,0,1,1.54.35,2.21,2.21,0,0,1,.95.94,2.29,2.29,0,0,1,.25,1.33h-1.74a1.17,1.17,0,0,0-.28-.88,1,1,0,0,0-.79-.31,1.13,1.13,0,0,0-.82.29,1,1,0,0,0-.32.73,1.58,1.58,0,0,0,.24.82,7.2,7.2,0,0,0,.83,1l2.82,2.8,1.09-1.79h1.88l-1.37,2.36-.39.63,2.59,2.57Zm-2.47-2.46-2.81-2.84c-1.21.48-1.81,1.21-1.81,2.18a1.7,1.7,0,0,0,.58,1.31,2.16,2.16,0,0,0,1.5.52A3.39,3.39,0,0,0,175.91,104.31Z"/><path class="cls-1" d="M194.48,102.21a2.75,2.75,0,0,1,.17,3.16,2.87,2.87,0,0,1-1.21,1,4.35,4.35,0,0,1-1.86.37h-4.26V96.13h4.06a4.42,4.42,0,0,1,1.87.36,2.78,2.78,0,0,1,1.18,1,2.51,2.51,0,0,1,.4,1.39,2.36,2.36,0,0,1-.49,1.53,2.84,2.84,0,0,1-1.32.9A2.42,2.42,0,0,1,194.48,102.21Zm-5.41-1.61h2.16a2.08,2.08,0,0,0,1.34-.39,1.56,1.56,0,0,0,0-2.25,2,2,0,0,0-1.34-.41h-2.16Zm3.75,4.32a1.49,1.49,0,0,0,.51-1.2,1.55,1.55,0,0,0-.54-1.24,2.14,2.14,0,0,0-1.42-.46h-2.3v3.33h2.36A2.1,2.1,0,0,0,192.82,104.92Z"/><path class="cls-1" d="M204.39,96.13v1.42h-2.83v9.22h-1.75V97.55H197V96.13Z"/><path class="cls-1" d="M215.48,106.77h-1.74l-5.26-8v8h-1.74V96.11h1.74l5.26,7.94V96.11h1.74Z"/><path class="cls-1" d="M159.12,122.78c1-.85,1.75-1.55,2.32-2.1a9.15,9.15,0,0,0,1.41-1.7,3.3,3.3,0,0,0,.57-1.78,2.14,2.14,0,0,0-.44-1.44,1.67,1.67,0,0,0-1.37-.52,1.76,1.76,0,0,0-1.4.57,2.42,2.42,0,0,0-.53,1.54H158a3.75,3.75,0,0,1,6.21-2.68,3.27,3.27,0,0,1,.94,2.45,4.23,4.23,0,0,1-.56,2.12,8.18,8.18,0,0,1-1.33,1.83c-.52.53-1.17,1.15-2,1.86l-.69.61h4.86V125H158v-1.27Z"/><path class="cls-1" d="M168.65,115.28a3.94,3.94,0,0,1,6.17,0,8,8,0,0,1,.9,4.14,8.18,8.18,0,0,1-.9,4.19,3.91,3.91,0,0,1-6.17,0,8.18,8.18,0,0,1-.89-4.19A8,8,0,0,1,168.65,115.28Zm5.19,2a2.72,2.72,0,0,0-.65-1.4,1.85,1.85,0,0,0-1.45-.54,1.87,1.87,0,0,0-1.46.54,2.89,2.89,0,0,0-.65,1.4,11.43,11.43,0,0,0-.16,2.1,13,13,0,0,0,.15,2.16,2.73,2.73,0,0,0,.66,1.41,2.24,2.24,0,0,0,2.92,0,2.72,2.72,0,0,0,.65-1.41,13,13,0,0,0,.15-2.16A11.43,11.43,0,0,0,173.84,117.32Z"/><path class="cls-1" d="M177.81,115.58V114H181v11.17h-1.76v-9.57Z"/><path class="cls-1" d="M186.79,123.28a2.13,2.13,0,0,0,1.37.4,1.72,1.72,0,0,0,1.59-.86,6.1,6.1,0,0,0,.5-2.92,2.39,2.39,0,0,1-1,.8,3.64,3.64,0,0,1-1.45.28,4,4,0,0,1-1.8-.4,3,3,0,0,1-1.28-1.21,3.86,3.86,0,0,1-.47-2,3.45,3.45,0,0,1,3.71-3.7,3.25,3.25,0,0,1,3,1.39,8,8,0,0,1,.88,4.25,13,13,0,0,1-.33,3.23,3.45,3.45,0,0,1-1.14,1.9,4.23,4.23,0,0,1-4.78-.21,3.28,3.28,0,0,1-1-2.16h1.6A1.94,1.94,0,0,0,186.79,123.28Zm2.74-4.34a2.16,2.16,0,0,0,.53-1.52,2.3,2.3,0,0,0-.56-1.65,2,2,0,0,0-1.53-.59,2,2,0,0,0-1.52.6,2.29,2.29,0,0,0-.56,1.59,2.23,2.23,0,0,0,.54,1.54,2.12,2.12,0,0,0,1.65.6A1.9,1.9,0,0,0,189.53,118.94Z"/></svg>