<?xml version="1.0" encoding="utf-8"?>
<!-- Generator: Adobe Illustrator 25.4.1, SVG Export Plug-In . SVG Version: 6.00 Build 0)  -->
<svg version="1.1" id="Layer_1" xmlns="http://www.w3.org/2000/svg" xmlns:xlink="http://www.w3.org/1999/xlink" x="0px" y="0px"
	 viewBox="0 0 350 150" style="enable-background:new 0 0 350 150;" xml:space="preserve">
<style type="text/css">
	.st0{fill:#0D5235;}
	.st1{font-family:'MyriadPro-Semibold';}
	.st2{font-size:15.1296px;}
</style>
<path class="st0" d="M37.3,4.2c-3.8,3.5-4.5,9-4.5,9s5.5-0.2,9.4-3.7s4.5-9,4.5-9S41.2,0.6,37.3,4.2z"/>
<path class="st0" d="M64.4,133.5c2.1,2.7,3.3,5.9,3.5,9.3c0,0.1-7-1.9-10.1-6.6c-1.8-2.8-2.4-6.2-1.7-9.4
	C59.3,128.5,62.1,130.7,64.4,133.5z"/>
<path class="st0" d="M59.5,148.2c3.5-0.5,6.6-2.6,8.4-5.6c-0.1,0-6.6-1.9-12.3-1.2c-3.4,0.4-6.5,1.9-9,4.3
	C46.5,145.6,53.3,149.2,59.5,148.2z"/>
<path class="st0" d="M52.3,128.2c1.4,3,1.9,6.3,1.4,9.5c0,0.1-6.1-3-8.2-8c-1.2-3-1.1-6.4,0.2-9.4C48.4,122.5,50.7,125.1,52.3,128.2
	z"/>
<path class="st0" d="M44.8,141.6c3.4,0.1,6.7-1.4,9-4c-0.1,0-5.8-2.9-11.3-3.2c-3.3-0.2-6.6,0.7-9.4,2.6
	C33,136.9,38.8,141.6,44.8,141.6z"/>
<path class="st0" d="M41.9,121c0.8,3.1,0.6,6.4-0.5,9.5c0,0.1-5.2-3.9-6.3-9.2c-0.6-3.1,0.2-6.4,2-9C39.3,114.8,40.9,117.8,41.9,121
	z"/>
<path class="st0" d="M32.2,132.7c3.3,0.6,6.7-0.3,9.3-2.4c-0.1,0-5-3.8-10.2-5c-3.2-0.7-6.5-0.4-9.6,0.9
	C21.7,126.2,26.5,131.6,32.2,132.7z"/>
<path class="st0" d="M33.2,112.2c0.2,3.2-0.6,6.3-2.2,9.1c0,0.1-4.3-4.7-4.4-10c0-3.2,1.3-6.2,3.5-8.5
	C31.7,105.7,32.8,108.9,33.2,112.2z"/>
<path class="st0" d="M21.7,121.9c3.1,1.2,6.5,0.9,9.4-0.7c-0.1,0-4.1-4.5-8.9-6.6c-3-1.3-6.3-1.6-9.4-0.8
	C12.7,113.8,16.3,119.9,21.7,121.9z"/>
<path class="st0" d="M26.2,102.2c-0.4,3.1-1.7,6.1-3.7,8.5c0,0.1-3.4-5.3-2.6-10.5c0.5-3.1,2.3-5.8,4.9-7.6
	C26,95.6,26.4,98.9,26.2,102.2z"/>
<path class="st0" d="M13.4,109.6c2.8,1.7,6.2,2,9.3,1c0,0-3.2-5.1-7.6-8c-2.7-1.8-5.9-2.7-9.1-2.5C6,100.1,8.5,106.7,13.4,109.6z"/>
<path class="st0" d="M21.2,91.2c-0.9,3-2.7,5.6-5.1,7.6c0,0.1-2.4-5.8-0.8-10.7c1-2.9,3.2-5.3,6-6.6C22,84.7,21.9,88,21.2,91.2z"/>
<path class="st0" d="M7.4,96.1c2.5,2.1,5.7,3.1,8.9,2.6c0,0-2.2-5.6-6-9.2c-2.3-2.2-5.3-3.6-8.5-4C1.7,85.5,3.1,92.5,7.4,96.1z"/>
<path class="st0" d="M18.1,79.5c-1.4,2.8-3.6,5.1-6.2,6.6c0,0-1.4-6.1,1.1-10.7c1.5-2.7,4-4.7,7-5.4C20,73.2,19.4,76.5,18.1,79.5z"
	/>
<path class="st0" d="M3.7,81.9c2,2.5,5.1,4,8.3,4.1c-0.9-3.6-2.3-7-4.4-10.1c-1.9-2.6-4.6-4.5-7.7-5.5C0,70.4,0.1,77.5,3.7,81.9z"/>
<path class="st0" d="M17,67.4c-1.8,2.5-4.3,4.3-7.2,5.4c0,0-0.4-6.3,2.8-10.3c1.9-2.4,4.7-3.9,7.8-4.1C19.9,61.5,18.8,64.6,17,67.4z
	"/>
<path class="st0" d="M2.5,67.2c1.6,2.8,4.3,4.9,7.4,5.6C9.8,69.1,8.9,65.4,7.4,62c-1.4-2.9-3.7-5.3-6.6-6.8
	C0.9,55.2-0.2,62.2,2.5,67.2z"/>
<path class="st0" d="M18,55.2c-2.2,2.1-5,3.5-8,4c-0.1,0,0.7-6.3,4.6-9.8c2.3-2,5.3-3,8.4-2.7C21.9,49.9,20.2,52.8,18,55.2z"/>
<path class="st0" d="M3.9,52.4c1,3.1,3.3,5.6,6.3,6.9c0.4-3.7,0.2-7.5-0.6-11.2c-0.9-3.1-2.7-5.9-5.2-8C4.4,40.1,2,47,3.9,52.4z"/>
<path class="st0" d="M21.2,43.3c-2.5,1.7-5.5,2.6-8.6,2.6c-0.1,0,1.9-6.1,6.3-9c2.6-1.6,5.8-2.1,8.8-1.2
	C26.1,38.6,23.9,41.2,21.2,43.3z"/>
<path class="st0" d="M7.9,38c0.4,3.3,2.2,6.2,4.9,8c1.1-3.7,1.6-7.5,1.4-11.3c-0.2-3.3-1.5-6.4-3.5-8.9C10.7,25.7,7.1,32.2,7.9,38z"
	/>
<path class="st0" d="M26.6,31.9c-2.8,1.3-5.9,1.7-8.9,1.1c-0.1,0,3-5.8,8-7.9c2.9-1.2,6.1-1.1,8.9,0.3
	C34.5,25.4,31.1,29.8,26.6,31.9z"/>
<path class="st0" d="M14.6,24.2c-0.3,3.3,0.9,6.6,3.3,8.9c1.8-3.5,3-7.2,3.7-11.1c0.5-3.3-0.1-6.6-1.6-9.6
	C19.9,12.3,14.9,18.3,14.6,24.2z"/>
<path class="st0" d="M34.4,21.3c-3,0.8-6.2,0.7-9.1-0.4c-0.1,0,4.2-5.4,9.6-6.6c3.1-0.8,6.3-0.1,8.8,1.8
	C43.7,16,39.2,19.9,34.4,21.3z"/>
<path class="st0" d="M24.1,11.4c-1,3.2-0.5,6.7,1.3,9.6c2.5-3.2,4.5-6.8,6.1-10.6c1.2-3.2,1.4-6.7,0.6-10
	C32.1,0.3,25.7,5.5,24.1,11.4z"/>
<path class="st0" d="M87.4,144.3l-0.1-1.1c-8.9,0.8-17.8-0.2-26.3-2.9c-8.4-2.7-16.3-7-23.1-12.6c-14.4-11.9-23.8-28.9-26.1-47.4
	c-2-15.4-1-29.1,3.1-40.8c4-12.1,12.2-22.4,23-29.1l-0.6-0.9c-11.1,6.8-19.4,17.3-23.5,29.7c-4.1,11.8-5.2,25.7-3.1,41.2
	c2.4,18.8,11.8,36,26.5,48.1c6.9,5.7,14.9,10.1,23.4,12.8C69.3,144.1,78.4,145.1,87.4,144.3z"/>
<path class="st0" d="M312.7,4.2c3.9,3.5,4.5,9,4.5,9s-5.5-0.2-9.4-3.7s-4.5-9-4.5-9S308.8,0.6,312.7,4.2z"/>
<path class="st0" d="M285.6,133.5c-2.1,2.7-3.3,5.9-3.5,9.3c0,0.1,7-1.9,10.1-6.6c1.8-2.8,2.4-6.2,1.6-9.4
	C290.7,128.5,287.9,130.7,285.6,133.5z"/>
<path class="st0" d="M290.5,148.2c-3.5-0.5-6.6-2.6-8.4-5.6c0.1,0,6.6-1.9,12.3-1.2c3.4,0.4,6.5,1.9,9,4.3
	C303.5,145.6,296.7,149.2,290.5,148.2z"/>
<path class="st0" d="M297.7,128.2c-1.4,3-1.9,6.3-1.4,9.5c0,0.1,6.1-3,8.2-8c1.2-3,1.1-6.4-0.2-9.4
	C301.6,122.5,299.3,125.1,297.7,128.2z"/>
<path class="st0" d="M305.2,141.6c-3.4,0.1-6.7-1.4-9-4c0.1,0,5.8-2.9,11.3-3.2c3.3-0.2,6.6,0.7,9.4,2.6
	C317,136.9,311.2,141.6,305.2,141.6z"/>
<path class="st0" d="M308.1,121c-0.8,3.1-0.6,6.4,0.5,9.5c0,0.1,5.2-3.9,6.3-9.2c0.6-3.1-0.2-6.4-2-9
	C310.7,114.8,309.1,117.8,308.1,121z"/>
<path class="st0" d="M317.8,132.7c-3.3,0.6-6.7-0.3-9.3-2.4c0.1,0,5-3.8,10.2-5c3.2-0.7,6.5-0.4,9.5,0.9
	C328.3,126.2,323.5,131.6,317.8,132.7z"/>
<path class="st0" d="M316.9,112.2c-0.2,3.2,0.6,6.3,2.2,9.1c0,0.1,4.3-4.7,4.4-10c0-3.2-1.3-6.2-3.5-8.5
	C318.3,105.7,317.2,108.9,316.9,112.2z"/>
<path class="st0" d="M328.3,121.9c-3.1,1.2-6.5,0.9-9.4-0.7c0.1,0,4.1-4.5,8.9-6.6c3-1.3,6.3-1.6,9.4-0.8
	C337.3,113.8,333.7,119.9,328.3,121.9z"/>
<path class="st0" d="M323.8,102.2c0.4,3.1,1.7,6.1,3.7,8.5c0,0.1,3.4-5.3,2.6-10.5c-0.5-3.1-2.3-5.8-4.9-7.6
	C324,95.6,323.6,98.9,323.8,102.2z"/>
<path class="st0" d="M336.6,109.6c-2.8,1.7-6.2,2-9.3,1c0,0,3.2-5.1,7.6-8c2.7-1.8,5.9-2.7,9.1-2.5
	C344,100.1,341.5,106.7,336.6,109.6z"/>
<path class="st0" d="M328.8,91.2c0.9,3,2.7,5.6,5.1,7.6c0,0.1,2.4-5.8,0.8-10.7c-1-2.9-3.2-5.3-6-6.6C328,84.7,328.1,88,328.8,91.2z
	"/>
<path class="st0" d="M342.6,96.1c-2.5,2.1-5.7,3.1-8.9,2.6c0,0,2.2-5.6,6-9.2c2.3-2.2,5.3-3.6,8.5-4
	C348.3,85.5,346.9,92.5,342.6,96.1z"/>
<path class="st0" d="M331.9,79.5c1.4,2.8,3.6,5.1,6.2,6.6c0,0,1.4-6.1-1-10.7c-1.5-2.7-4-4.7-7-5.4C330,73.2,330.6,76.5,331.9,79.5z
	"/>
<path class="st0" d="M346.3,81.9c-2,2.5-5,4-8.3,4.1c0.9-3.6,2.3-7,4.4-10.1c1.9-2.6,4.6-4.5,7.6-5.5
	C350,70.4,349.9,77.5,346.3,81.9z"/>
<path class="st0" d="M333,67.4c1.8,2.5,4.3,4.3,7.2,5.4c0,0,0.4-6.3-2.8-10.3c-1.9-2.4-4.7-3.9-7.8-4.1
	C330.1,61.5,331.2,64.6,333,67.4z"/>
<path class="st0" d="M347.5,67.2c-1.6,2.8-4.3,4.9-7.5,5.6c0.2-3.7,1.1-7.3,2.6-10.8c1.4-2.9,3.7-5.3,6.5-6.8
	C349.1,55.2,350.2,62.2,347.5,67.2z"/>
<path class="st0" d="M332,55.2c2.2,2.1,5,3.5,8,4c0,0-0.7-6.3-4.6-9.8c-2.3-2-5.4-3-8.4-2.7C328.1,49.9,329.8,52.8,332,55.2z"/>
<path class="st0" d="M346.1,52.4c-1,3.1-3.3,5.6-6.3,6.9c-0.4-3.7-0.2-7.5,0.6-11.2c0.9-3.1,2.7-5.9,5.2-8
	C345.6,40.1,348,47,346.1,52.4z"/>
<path class="st0" d="M328.8,43.3c2.5,1.7,5.5,2.6,8.6,2.6c0.1,0-1.9-6.1-6.3-9c-2.6-1.6-5.8-2.1-8.8-1.2
	C323.9,38.6,326.1,41.2,328.8,43.3z"/>
<path class="st0" d="M342.1,38c-0.4,3.3-2.2,6.2-4.9,8c-1.1-3.7-1.6-7.5-1.4-11.3c0.2-3.3,1.5-6.4,3.5-8.9
	C339.3,25.7,342.9,32.2,342.1,38z"/>
<path class="st0" d="M323.4,31.9c2.8,1.3,5.9,1.7,8.9,1.1c0.1,0-3-5.8-8-7.9c-2.9-1.2-6.1-1.1-8.9,0.3
	C315.5,25.4,318.9,29.8,323.4,31.9z"/>
<path class="st0" d="M335.4,24.2c0.3,3.3-0.9,6.6-3.3,8.9c-1.8-3.5-3-7.2-3.7-11.1c-0.5-3.3,0.1-6.6,1.6-9.6
	C330.1,12.3,335.1,18.3,335.4,24.2z"/>
<path class="st0" d="M315.6,21.3c3,0.8,6.2,0.7,9.1-0.4c0.1,0-4.2-5.4-9.6-6.6c-3.1-0.8-6.3-0.1-8.8,1.8
	C306.3,16,310.8,19.9,315.6,21.3z"/>
<path class="st0" d="M325.9,11.4c1,3.2,0.5,6.7-1.3,9.6c-2.5-3.2-4.5-6.8-6.1-10.6c-1.2-3.2-1.4-6.7-0.6-10
	C317.9,0.3,324.3,5.5,325.9,11.4z"/>
<path class="st0" d="M262.6,144.3l0.1-1.1c8.9,0.8,17.9-0.2,26.4-2.9c8.4-2.7,16.3-7,23.1-12.6c14.4-11.9,23.8-28.9,26.1-47.4
	c2-15.4,1-29.1-3.1-40.8c-4-12.1-12.2-22.4-23-29.1l0.6-0.9c11.1,6.8,19.4,17.3,23.5,29.7c4.1,11.8,5.2,25.7,3.1,41.2
	c-2.4,18.8-11.8,36-26.5,48.1c-6.9,5.7-14.9,10.1-23.4,12.8C280.7,144.1,271.6,145.1,262.6,144.3z"/>
<path class="st0" d="M133.2,24.9v6.4h-0.5c-0.5-1.6-1.4-3-2.7-4c-1.1-0.9-2.5-1.4-3.9-1.4c-1.2,0-2.4,0.4-3.4,1.1
	c-1,0.8-1.6,2-1.9,3.2c-0.8,2.9-0.8,5.9,0,8.8c0.3,1.2,1,2.2,2,2.9c1,0.6,2.1,1,3.3,0.9c0.5,0,0.9,0,1.3-0.1c0.5-0.1,1-0.2,1.4-0.4
	v-3.8c0-0.5,0-0.9-0.1-1.4c-0.1-0.2-0.4-0.4-0.6-0.6c-0.3-0.2-0.7-0.3-1.1-0.3h-0.5v-0.5h8.9v0.5c-0.5,0-1,0.1-1.4,0.3
	c-0.3,0.2-0.5,0.4-0.6,0.7c-0.1,0.4-0.2,0.8-0.1,1.2v3.8c-1.2,0.5-2.4,0.9-3.6,1.2c-1.3,0.3-2.6,0.4-3.9,0.4c-1.5,0-2.9-0.2-4.3-0.7
	c-1.1-0.4-2.1-1.1-3-1.9c-0.8-0.7-1.5-1.6-2.1-2.6c-0.6-1.3-1-2.7-0.9-4.2c-0.1-2.6,1-5.2,2.9-7c1.9-1.9,4.6-2.9,7.3-2.8
	c1.5,0,3,0.2,4.4,0.8c0.5,0.2,1,0.4,1.6,0.5c0.3,0,0.5-0.1,0.7-0.3c0.3-0.3,0.5-0.7,0.6-1L133.2,24.9z"/>
<path class="st0" d="M147.3,25c5-0.4,9.4,3.3,9.8,8.3c0,0.3,0,0.7,0,1c0,2.2-0.7,4.4-2,6.1c-1.8,2.3-4.6,3.7-7.6,3.5
	c-2.9,0.2-5.8-1.1-7.6-3.3c-1.4-1.8-2.2-4-2.1-6.3c-0.1-2.5,0.9-5,2.8-6.8C142.3,25.8,144.8,24.8,147.3,25z M147.4,25.9
	c-1.7,0-3.2,1-3.8,2.5c-0.8,1.9-1.2,3.9-1.1,6c0,3.1,0.5,5.4,1.6,6.9c0.7,1,1.9,1.6,3.2,1.6c0.8,0,1.6-0.2,2.3-0.7
	c0.9-0.7,1.5-1.7,1.9-2.8c0.5-1.6,0.7-3.3,0.7-4.9c0.1-1.8-0.2-3.7-0.7-5.4c-0.3-1-0.9-1.9-1.7-2.5
	C149.1,26.1,148.3,25.8,147.4,25.9L147.4,25.9z"/>
<path class="st0" d="M175.7,37.1l-0.7,6.4h-16.2V43h0.6c0.4,0,0.9-0.1,1.3-0.3c0.2-0.1,0.4-0.4,0.5-0.6c0.1-0.6,0.2-1.1,0.1-1.7v-12
	c0-0.6,0-1.2-0.1-1.8c-0.1-0.3-0.3-0.5-0.6-0.6c-0.4-0.2-0.8-0.3-1.2-0.3h-0.6v-0.5h9.7v0.5h-0.8c-0.4,0-0.9,0.1-1.3,0.3
	c-0.2,0.2-0.4,0.4-0.6,0.6c-0.1,0.6-0.2,1.1-0.1,1.7V40c0,0.6,0,1.2,0.2,1.8c0.1,0.3,0.4,0.5,0.6,0.6c0.5,0.1,1.1,0.1,1.6,0.1h1.5
	c0.8,0,1.7-0.1,2.4-0.5c0.7-0.4,1.3-0.9,1.7-1.6c0.6-1,1-2.1,1.4-3.2L175.7,37.1z"/>
<path class="st0" d="M177.7,43.5V43h0.6c0.4,0,0.8-0.1,1.2-0.2c0.3-0.2,0.5-0.4,0.6-0.7c0.1-0.6,0.2-1.1,0.1-1.7v-12
	c0-0.6,0-1.2-0.1-1.8c-0.1-0.3-0.3-0.5-0.6-0.6c-0.4-0.2-0.8-0.3-1.2-0.3h-0.6v-0.5h8.2c1.8-0.1,3.6,0.2,5.3,0.9
	c1.6,0.7,2.8,1.8,3.7,3.3c1.4,2.6,1.7,5.7,0.6,8.6c-0.4,1-0.9,1.9-1.6,2.7c-0.6,0.7-1.4,1.3-2.3,1.7c-1,0.5-2.1,0.8-3.1,1
	c-0.9,0.1-1.7,0.2-2.6,0.2H177.7z M184.7,26.3v14.2c0,0.5,0,1,0.1,1.4c0.1,0.2,0.2,0.3,0.4,0.4c0.3,0.1,0.7,0.2,1.1,0.2
	c1.3,0.1,2.6-0.5,3.4-1.6c1.1-1.4,1.6-3.5,1.6-6.4c0.1-1.9-0.3-3.9-1.1-5.6c-0.5-1-1.3-1.8-2.2-2.2
	C186.9,26.4,185.8,26.3,184.7,26.3L184.7,26.3z"/>
<path class="st0" d="M204.9,26.3v7.4h0.4c1,0.1,1.9-0.3,2.5-1.1c0.6-1,0.9-2.1,1-3.2h0.5V39h-0.5c-0.1-0.9-0.3-1.8-0.7-2.6
	c-0.2-0.6-0.7-1-1.2-1.3c-0.6-0.3-1.3-0.4-2-0.3v5.1c0,0.6,0,1.2,0.1,1.8c0.1,0.2,0.3,0.4,0.5,0.5c0.4,0.2,0.7,0.2,1.1,0.2h1.1
	c3,0.3,5.8-1.8,6.3-4.8h0.5l-0.8,5.8h-15.8V43h0.6c0.4,0,0.9-0.1,1.3-0.3c0.2-0.1,0.4-0.4,0.5-0.6c0.1-0.6,0.2-1.1,0.1-1.7v-12
	c0-0.5,0-1-0.1-1.5c-0.1-0.3-0.3-0.5-0.5-0.7c-0.4-0.3-0.9-0.4-1.4-0.4h-0.6v-0.5h15.3v5.4h-0.5c-0.1-1-0.5-2-1.1-2.8
	c-0.5-0.6-1.2-1.1-2-1.3c-0.9-0.2-1.9-0.3-2.8-0.2L204.9,26.3z"/>
<path class="st0" d="M223.1,25.3l9,11.3v-7.8c0.1-0.8-0.1-1.5-0.5-2.2c-0.6-0.6-1.4-0.9-2.2-0.8v-0.5h6v0.5c-0.5,0-1.1,0.2-1.6,0.4
	c-0.3,0.2-0.5,0.5-0.6,0.8c-0.2,0.6-0.3,1.2-0.2,1.8V44h-0.5l-12.4-15.2v11.6c-0.1,0.8,0.2,1.6,0.7,2.1c0.5,0.4,1.1,0.6,1.6,0.6h0.4
	v0.5h-6.5V43c0.8,0.1,1.5-0.2,2.1-0.6c0.4-0.6,0.7-1.3,0.6-2.1V27.5L219,27c-0.3-0.4-0.6-0.7-1-1c-0.4-0.2-0.8-0.3-1.3-0.2v-0.5
	L223.1,25.3z"/>
<path class="st0" d="M41.3,62.8v5.1c0,0.6,0,1.3,0.2,1.9c0.1,0.3,0.4,0.5,0.7,0.6c0.5,0.2,1.1,0.3,1.7,0.2v0.5h-9.3v-0.5
	c0.6,0,1.2,0,1.7-0.2c0.3-0.1,0.5-0.3,0.6-0.6c0.2-0.6,0.2-1.2,0.2-1.9V56c0.1-0.6,0-1.3-0.1-1.9c-0.1-0.3-0.4-0.5-0.6-0.6
	c-0.5-0.2-1.1-0.3-1.7-0.2v-0.5h8c2.6,0,4.5,0.5,5.6,1.4c1.1,0.8,1.7,2.1,1.7,3.5c0,1.1-0.4,2.2-1.1,3c-0.8,0.9-1.8,1.5-3,1.7
	C44.4,62.8,42.9,62.9,41.3,62.8z M41.3,53.9v7.9H42c1,0.1,1.9-0.3,2.5-1c0.7-0.9,1-1.9,0.9-3c0.1-1.1-0.2-2.1-0.9-3
	c-0.7-0.7-1.7-1-2.7-0.9L41.3,53.9z"/>
<path class="st0" d="M58,62.8v5.1c0,0.6,0,1.3,0.2,1.9c0.1,0.3,0.4,0.5,0.6,0.6c0.5,0.2,1.1,0.3,1.7,0.2v0.5h-9.3v-0.5
	c0.6,0,1.2,0,1.7-0.2c0.3-0.1,0.5-0.3,0.6-0.6c0.2-0.6,0.2-1.2,0.2-1.9V56c0-0.6,0-1.3-0.2-1.9c-0.1-0.3-0.4-0.5-0.6-0.6
	c-0.5-0.2-1.1-0.3-1.7-0.2v-0.5h8.5c1.6-0.1,3.3,0.1,4.8,0.5c1,0.3,1.9,0.9,2.5,1.7c0.7,0.8,1,1.8,1,2.9c0,1.3-0.5,2.5-1.5,3.3
	c-0.7,0.6-1.6,1-2.5,1.3l4.4,6.2c0.4,0.5,0.8,1,1.2,1.5c0.4,0.3,0.8,0.4,1.3,0.5v0.5h-5.8l-5.9-8.3H58z M58,53.8v8h0.8
	c0.9,0,1.9-0.1,2.8-0.3c0.6-0.2,1.1-0.6,1.4-1.2c0.4-0.7,0.6-1.5,0.5-2.3c0.3-1.9-1-3.8-2.9-4.1c-0.4-0.1-0.8-0.1-1.2,0L58,53.8z"/>
<path class="st0" d="M81.1,52.6c5-0.4,9.4,3.3,9.8,8.3c0,0.3,0,0.7,0,1c0,2.2-0.7,4.4-2,6.1c-1.8,2.3-4.6,3.7-7.6,3.5
	c-2.9,0.2-5.8-1.1-7.6-3.3c-1.4-1.8-2.2-4-2.1-6.3c-0.1-2.5,0.9-5,2.8-6.8C76.1,53.4,78.6,52.4,81.1,52.6z M81.3,53.5
	c-1.7,0-3.2,1-3.8,2.5c-0.8,1.9-1.2,3.9-1.1,6c0,3.1,0.5,5.4,1.6,6.9c0.7,1,1.9,1.6,3.2,1.6c0.8,0,1.6-0.2,2.3-0.7
	c0.9-0.7,1.5-1.7,1.8-2.8c0.5-1.6,0.7-3.3,0.7-4.9c0.1-1.8-0.2-3.7-0.7-5.4c-0.3-1-0.9-1.9-1.7-2.5C83,53.7,82.1,53.4,81.3,53.5z"/>
<path class="st0" d="M99.5,62.8v5.1c0,0.6,0,1.3,0.2,1.9c0.1,0.3,0.4,0.5,0.7,0.6c0.5,0.2,1.1,0.3,1.7,0.2v0.5h-9.3v-0.5
	c0.6,0,1.2,0,1.7-0.2c0.3-0.1,0.5-0.3,0.6-0.6c0.2-0.6,0.2-1.2,0.2-1.9V56c0-0.6,0-1.3-0.2-1.9c-0.1-0.3-0.4-0.5-0.6-0.6
	c-0.5-0.2-1.1-0.3-1.7-0.2v-0.5h8c2.6,0,4.5,0.5,5.6,1.4c1.1,0.8,1.7,2.1,1.7,3.5c0,1.1-0.4,2.2-1.1,3c-0.8,0.9-1.8,1.5-3,1.7
	C102.5,62.8,101,62.9,99.5,62.8z M99.5,53.9v7.9h0.7c0.9,0.1,1.9-0.3,2.5-1c0.7-0.9,1-1.9,0.9-3c0.1-1.1-0.2-2.2-0.9-3
	c-0.7-0.7-1.7-1-2.7-0.9H99.5z"/>
<path class="st0" d="M116.3,53.9v7.4h0.4c1,0.1,1.9-0.3,2.5-1.1c0.6-1,0.9-2.1,1-3.2h0.5v9.6h-0.5c-0.1-0.9-0.3-1.8-0.7-2.6
	c-0.3-0.6-0.7-1-1.2-1.3c-0.6-0.3-1.3-0.4-2-0.3v5.1c0,0.6,0,1.2,0.1,1.8c0.1,0.2,0.3,0.4,0.5,0.6c0.4,0.2,0.7,0.2,1.1,0.2h1.1
	c1.5,0.1,2.9-0.3,4.1-1.2c1.1-0.9,1.9-2.2,2.2-3.6h0.5l-0.8,5.8h-15.8v-0.5h0.7c0.4,0,0.9-0.1,1.3-0.3c0.3-0.1,0.4-0.4,0.5-0.6
	c0.1-0.6,0.2-1.1,0.2-1.7V56c0-0.5,0-1-0.1-1.5c-0.1-0.3-0.2-0.5-0.5-0.7c-0.4-0.3-0.9-0.4-1.4-0.4h-0.6v-0.5h15.3v5.4h-0.5
	c-0.1-1-0.5-2-1.1-2.8c-0.5-0.6-1.2-1.1-2-1.3c-0.9-0.2-1.9-0.3-2.8-0.2L116.3,53.9z"/>
<path class="st0" d="M134.9,62.8v5.1c0,0.6,0,1.3,0.2,1.9c0.1,0.3,0.4,0.5,0.6,0.6c0.5,0.2,1.1,0.3,1.7,0.2v0.5h-9.3v-0.5
	c0.6,0,1.2,0,1.7-0.2c0.3-0.1,0.5-0.3,0.6-0.6c0.2-0.6,0.2-1.2,0.2-1.9V56c0-0.6,0-1.3-0.2-1.9c-0.1-0.3-0.4-0.5-0.6-0.6
	c-0.5-0.2-1.1-0.3-1.7-0.2v-0.5h8.5c1.6-0.1,3.3,0.1,4.8,0.5c1,0.3,1.9,0.9,2.6,1.7c0.7,0.8,1,1.8,1,2.9c0,1.3-0.5,2.5-1.5,3.3
	c-0.8,0.6-1.6,1.1-2.6,1.3l4.4,6.2c0.4,0.5,0.8,1,1.2,1.5c0.4,0.3,0.8,0.4,1.3,0.5v0.5H142l-5.9-8.3H134.9z M134.9,53.8v8h0.8
	c0.9,0,1.9-0.1,2.8-0.3c0.6-0.2,1.2-0.6,1.5-1.2c0.4-0.7,0.6-1.5,0.5-2.3c0.3-1.9-1-3.8-2.9-4.1c-0.4-0.1-0.8-0.1-1.2,0L134.9,53.8z
	"/>
<path class="st0" d="M164.8,52.8v4.9h-0.5c-0.2-0.9-0.5-1.7-0.9-2.5c-0.4-0.5-0.9-0.9-1.4-1.2c-0.6-0.2-1.2-0.3-1.8-0.2h-1.4V68
	c0,0.6,0,1.2,0.1,1.8c0.1,0.3,0.3,0.5,0.6,0.6c0.4,0.2,0.8,0.3,1.2,0.3h0.6v0.5h-9.6v-0.5h0.6c0.4,0,0.9-0.1,1.3-0.3
	c0.3-0.1,0.4-0.4,0.6-0.6c0.1-0.6,0.2-1.1,0.1-1.7V53.9H153c-1-0.1-1.9,0.2-2.7,0.8c-0.8,0.8-1.4,1.9-1.5,3.1h-0.5v-4.9H164.8z"/>
<path class="st0" d="M186.4,52.8v0.5c-0.5,0-1,0.2-1.4,0.5c-0.8,0.9-1.6,2-2.1,3.1l-4,6.6V68c0,0.6,0,1.2,0.1,1.8
	c0.1,0.3,0.3,0.5,0.6,0.6c0.4,0.2,0.8,0.3,1.2,0.3h1v0.5h-10.2v-0.5h0.9c0.4,0,0.9-0.1,1.3-0.3c0.3-0.1,0.4-0.4,0.6-0.6
	c0.1-0.6,0.2-1.1,0.1-1.7v-3.7l-4.3-7.8c-0.5-1-1.1-1.9-1.8-2.7c-0.4-0.3-0.9-0.4-1.4-0.4v-0.5h8.8v0.5h-0.4c-0.4,0-0.8,0-1.1,0.2
	c-0.2,0.1-0.3,0.3-0.3,0.5c0.2,0.9,0.6,1.7,1.1,2.4l3.3,6l3.3-5.5c0.6-0.8,1-1.7,1.2-2.7c0-0.3-0.1-0.5-0.4-0.6
	c-0.5-0.3-1.1-0.4-1.7-0.4v-0.5L186.4,52.8z"/>
<path class="st0" d="M206.5,65.9H200l-0.8,1.8c-0.2,0.5-0.3,1-0.4,1.5c0,0.5,0.2,0.9,0.6,1.1c0.6,0.2,1.2,0.3,1.8,0.3v0.5h-6.1v-0.5
	c0.6-0.1,1.2-0.4,1.6-0.8c0.7-0.8,1.2-1.8,1.6-2.8l6.5-14.6h0.3l6.6,15c0.4,1,0.9,1.9,1.6,2.7c0.4,0.3,0.8,0.5,1.3,0.5v0.5h-8.8
	v-0.5h0.4c0.5,0,1-0.1,1.5-0.3c0.2-0.1,0.3-0.4,0.3-0.6c0-0.2,0-0.3-0.1-0.5c0-0.1-0.2-0.4-0.4-1L206.5,65.9z M206,64.9l-2.7-6.3
	l-2.8,6.3H206z"/>
<path class="st0" d="M239.9,52.8v0.5c-0.3,0-0.6,0.1-0.9,0.3c-0.3,0.2-0.5,0.4-0.6,0.7c-0.1,0.1-0.3,0.8-0.9,2.1l-5.7,15.1h-0.5
	l-4.5-11.8l-5,11.8h-0.5l-6-14.9c-0.3-0.9-0.8-1.9-1.3-2.7c-0.3-0.3-0.8-0.5-1.2-0.5v-0.5h7.9v0.5c-0.4,0-0.9,0.1-1.3,0.3
	c-0.2,0.2-0.3,0.4-0.3,0.7c0.1,0.8,0.3,1.5,0.7,2.2l3.6,8.9l2.9-6.9l-0.8-1.9c-0.3-0.7-0.6-1.4-1-2.1c-0.2-0.3-0.4-0.6-0.8-0.8
	c-0.4-0.2-0.8-0.3-1.3-0.2v-0.5h8.8v0.5c-0.4,0-0.9,0-1.3,0.2c-0.4,0.1-0.6,0.4-0.6,0.8c0.1,0.7,0.3,1.3,0.6,1.9l3.3,8.6l3-7.8
	c0.2-0.5,0.4-1.1,0.6-1.7c0.1-0.3,0.1-0.5,0.1-0.8c0-0.3-0.1-0.7-0.4-0.9c-0.4-0.3-0.9-0.4-1.4-0.3v-0.5L239.9,52.8z"/>
<path class="st0" d="M249.4,65.9H243l-0.8,1.8c-0.2,0.5-0.3,1-0.4,1.5c0,0.5,0.2,0.9,0.6,1.1c0.6,0.2,1.2,0.3,1.8,0.3v0.5h-6.1v-0.5
	c0.6-0.1,1.2-0.4,1.6-0.8c0.7-0.8,1.2-1.8,1.6-2.8l6.5-14.6h0.3l6.6,15c0.4,1,0.9,1.9,1.6,2.7c0.4,0.3,0.8,0.5,1.3,0.5v0.5h-8.8
	v-0.5h0.4c0.5,0,1-0.1,1.5-0.3c0.2-0.1,0.3-0.4,0.3-0.6c0-0.2,0-0.3-0.1-0.5c0-0.1-0.2-0.4-0.4-1L249.4,65.9z M249,64.9l-2.7-6.3
	l-2.8,6.3H249z"/>
<path class="st0" d="M266.5,62.8v5.1c0,0.6,0,1.3,0.2,1.9c0.1,0.3,0.4,0.5,0.6,0.6c0.5,0.2,1.1,0.3,1.7,0.2v0.5h-9.3v-0.5
	c0.6,0,1.2,0,1.7-0.2c0.3-0.1,0.5-0.3,0.6-0.6c0.2-0.6,0.2-1.2,0.2-1.9V56c0-0.6,0-1.3-0.2-1.9c-0.1-0.3-0.4-0.5-0.6-0.6
	c-0.5-0.2-1.1-0.3-1.7-0.2v-0.5h8.5c1.6-0.1,3.3,0.1,4.9,0.5c1,0.3,1.9,0.9,2.5,1.7c0.7,0.8,1,1.8,1,2.9c0,1.3-0.5,2.5-1.5,3.3
	c-0.8,0.6-1.6,1.1-2.6,1.3l4.4,6.2c0.4,0.5,0.8,1,1.2,1.5c0.4,0.3,0.8,0.4,1.3,0.5v0.5h-5.8l-5.9-8.3H266.5z M266.5,53.8v8h0.8
	c0.9,0,1.9-0.1,2.8-0.3c0.6-0.2,1.1-0.7,1.5-1.2c0.4-0.7,0.6-1.5,0.5-2.3c0.3-1.9-1-3.8-2.9-4.1c-0.4-0.1-0.8-0.1-1.2,0H266.5z"/>
<path class="st0" d="M281,71.1v-0.5h0.6c0.4,0,0.8-0.1,1.2-0.2c0.3-0.2,0.5-0.4,0.6-0.7c0.1-0.6,0.2-1.1,0.1-1.7V56
	c0-0.6,0-1.2-0.1-1.8c-0.1-0.3-0.3-0.5-0.6-0.6c-0.4-0.2-0.8-0.3-1.2-0.3H281v-0.5h8.2c1.8-0.1,3.6,0.2,5.3,0.9
	c1.6,0.7,2.9,1.8,3.7,3.3c1.4,2.6,1.7,5.7,0.6,8.5c-0.4,1-0.9,1.9-1.6,2.7c-0.6,0.7-1.4,1.3-2.2,1.7c-1,0.5-2.1,0.8-3.1,1
	c-0.9,0.1-1.7,0.2-2.6,0.2L281,71.1z M288,53.9v14.2c0,0.5,0,0.9,0.1,1.4c0.1,0.2,0.2,0.3,0.4,0.4c0.3,0.2,0.7,0.2,1,0.2
	c1.3,0.1,2.6-0.5,3.4-1.5c1.1-1.4,1.6-3.5,1.6-6.4c0.1-1.9-0.3-3.9-1.1-5.6c-0.5-1-1.3-1.8-2.2-2.2C290.2,54,289.1,53.8,288,53.9z"
	/>
<path class="st0" d="M314.1,52.4l0.1,6.1h-0.5c-0.2-1.4-0.9-2.7-1.9-3.7c-0.9-0.9-2.1-1.4-3.3-1.4c-0.8,0-1.6,0.2-2.2,0.7
	c-0.5,0.4-0.8,1-0.8,1.7c0,0.4,0.1,0.7,0.3,1.1c0.3,0.5,0.8,0.9,1.3,1.2c0.9,0.6,1.9,1.1,2.9,1.6c1.6,0.7,3.1,1.7,4.3,3
	c0.7,0.9,1.1,2,1.1,3.2c0,1.5-0.6,2.9-1.8,3.9c-1.2,1.1-2.9,1.7-4.5,1.6c-0.5,0-1.1-0.1-1.6-0.2c-0.7-0.2-1.3-0.4-1.9-0.7
	c-0.3-0.2-0.7-0.2-1.1-0.3c-0.3,0-0.5,0.1-0.7,0.3c-0.3,0.2-0.5,0.5-0.6,0.8h-0.5v-6.9h0.5c0.3,1.7,1.1,3.2,2.3,4.4
	c1,0.9,2.2,1.5,3.6,1.5c0.9,0,1.7-0.2,2.4-0.8c0.6-0.5,0.9-1.2,0.9-1.9c0-0.4-0.1-0.9-0.3-1.2c-0.3-0.5-0.6-0.8-1-1.2
	c-0.8-0.6-1.6-1.1-2.5-1.5c-1.3-0.6-2.5-1.2-3.6-2c-0.7-0.5-1.3-1.2-1.7-2c-0.4-0.7-0.6-1.5-0.6-2.3c0-1.4,0.6-2.7,1.6-3.7
	c1.1-1,2.5-1.6,4-1.5c0.6,0,1.2,0.1,1.7,0.2c0.5,0.2,1,0.4,1.5,0.6c0.4,0.2,0.8,0.4,1.3,0.4c0.2,0,0.4-0.1,0.5-0.2
	c0.2-0.3,0.3-0.6,0.4-1L314.1,52.4z"/>
<text transform="matrix(1 0 0 1 160.3883 94.6704)"><tspan x="0" y="0" class="st0 st1 st2">IPW</tspan><tspan x="-44.7" y="13" class="st0 st1 st2">BEST SUBSIDIZED</tspan><tspan x="-81.6" y="26" class="st0 st1 st2">RESIDENTIAL DEVELOPMENT</tspan><tspan x="-3.4" y="39" class="st0 st1 st2">2023</tspan></text>
</svg>
