<svg id="Layer_1" data-name="Layer 1" xmlns="http://www.w3.org/2000/svg" viewBox="0 0 222.37 96.22"><defs><style>.cls-1{fill:#fff;}</style></defs><path class="cls-1" d="M18.69,74.59C.38,52.75,6.65,21,27.57,6.56l-.22-.32C6.18,20.59-.54,52.78,18,75.19,27,86.07,38.66,89.25,46,93.29h2.53C41.29,88.66,28.64,86.42,18.69,74.59Z"/><path class="cls-1" d="M39.92,87.9l.09-.12a3.08,3.08,0,0,0,1-3c.21-1.5-.71-3.66-1.5-5C37.8,82.46,37.35,86,39.92,87.9Z"/><path class="cls-1" d="M35.36,86.09c2.15-1.6,1.48-5.54.27-8C33.75,80.56,33,84.08,35.36,86.09Z"/><path class="cls-1" d="M31,83.79C33.24,82.42,33,78.48,32,76,29.91,78.24,28.87,81.65,31,83.79Z"/><path class="cls-1" d="M26.93,81c2.15-1.08,2.46-4.56,1.63-7.55C26.28,75.53,25,78.81,26.93,81Z"/><path class="cls-1" d="M25.43,70.6c-2.33,1.73-3.94,4.88-2.25,7.26C25.55,76.92,25.91,73.18,25.43,70.6Z"/><path class="cls-1" d="M22.62,67.36c-2.71,1.65-4.21,4.78-2.84,6.93C22.19,73.55,22.9,69.89,22.62,67.36Z"/><path class="cls-1" d="M20.16,63.82c-2.54,1.25-4.52,3.95-3.37,6.55C19.18,69.88,20.23,66.36,20.16,63.82Z"/><path class="cls-1" d="M18.1,60c-2.73,1-4.77,3.6-3.86,6.16C16.71,65.86,17.85,62.51,18.1,60Z"/><path class="cls-1" d="M16.46,56c-2.63.76-5,3.1-4.3,5.73C14.56,61.59,16,58.42,16.46,56Z"/><path class="cls-1" d="M15.26,51.75c-2.92.58-5.15,2.85-4.7,5.27C12.91,57.11,14.74,54.06,15.26,51.75Z"/><path class="cls-1" d="M14.53,47.42c-2.66.29-5.23,2.1-5,4.79C11.84,52.51,13.68,49.67,14.53,47.42Z"/><path class="cls-1" d="M14.3,43c-3.2.07-5.33,2.11-5.36,4.29C11.17,47.77,13.37,45.14,14.3,43Z"/><path class="cls-1" d="M14.55,38.58c-2.8-.18-5.48,1.44-5.63,3.79C11.08,43,13.48,40.58,14.55,38.58Z"/><path class="cls-1" d="M15.28,34.17c-2.51-.37-5.39.79-5.84,3.28C11.51,38.24,14.11,36.05,15.28,34.17Z"/><path class="cls-1" d="M10.49,32.62c2,.94,4.75-1.06,6-2.78C14.06,29.27,11,30.29,10.49,32.62Z"/><path class="cls-1" d="M12.05,27.92c1.89,1.06,4.73-.64,6.16-2.27C15.24,24.71,12.59,26.15,12.05,27.92Z"/><path class="cls-1" d="M14.12,23.41c1.75,1.18,4.69-.24,6.25-1.75C17.54,20.51,14.8,21.69,14.12,23.41Z"/><path class="cls-1" d="M23,17.92c-2.66-1.35-5.48-.43-6.31,1.24C18.3,20.46,21.34,19.26,23,17.92Z"/><path class="cls-1" d="M19.65,15.2c1.49,1.37,4.53.53,6.33-.73C23.49,13,20.62,13.62,19.65,15.2Z"/><path class="cls-1" d="M23.06,11.59c1.42,1.51,4.55.82,6.33-.24C27,9.65,24.13,10.12,23.06,11.59Z"/><path class="cls-1" d="M26.83,8.37c1.29,1.59,4.46,1.16,6.3.25C31.24,7,28.28,6.77,26.83,8.37Z"/><path class="cls-1" d="M30.92,96.22a10.69,10.69,0,0,0,2.9-.4,6.08,6.08,0,0,0,1.31-.56,6.21,6.21,0,0,0,1.13-.83,3.33,3.33,0,0,0,1-3.78A5.55,5.55,0,0,0,30.92,96.22Z"/><path class="cls-1" d="M32.49,88.52a5.52,5.52,0,0,0-6.86,4.7,8.75,8.75,0,0,0,1.45.07,9.5,9.5,0,0,0,1.43-.13,6,6,0,0,0,2.56-1.08A3.27,3.27,0,0,0,32.49,88.52Z"/><path class="cls-1" d="M28,85.89a5,5,0,0,0-4.28.17,5.61,5.61,0,0,0-3,3.6,8.93,8.93,0,0,0,2.82.27,6.66,6.66,0,0,0,1.36-.22,5.39,5.39,0,0,0,1.27-.52A3.21,3.21,0,0,0,28,85.89Z"/><path class="cls-1" d="M23.77,82.8a4.72,4.72,0,0,0-1.92-.62,5.62,5.62,0,0,0-5.66,3.43C19.62,86.87,23.63,86.14,23.77,82.8Z"/><path class="cls-1" d="M19.94,79.26a5.46,5.46,0,0,0-7.77,1.86C15.42,82.72,19.39,82.5,19.94,79.26Z"/><path class="cls-1" d="M16.52,75.35a5.48,5.48,0,0,0-7.86.89C11.68,78.17,15.59,78.4,16.52,75.35Z"/><path class="cls-1" d="M13.52,71.1A5.45,5.45,0,0,0,5.73,71C8.42,73.31,12.28,73.91,13.52,71.1Z"/><path class="cls-1" d="M11,66.56a5.41,5.41,0,0,0-7.61-1C5.79,68.09,9.46,69.13,11,66.56Z"/><path class="cls-1" d="M9,61.78a5.42,5.42,0,0,0-7.35-1.9C3.64,62.51,7.07,64.15,9,61.78Z"/><path class="cls-1" d="M7.47,56.82a5.44,5.44,0,0,0-7-2.75C2.81,57.88,5.93,58.32,7.47,56.82Z"/><path class="cls-1" d="M6.5,51.73A5.43,5.43,0,0,0,0,48.18C1.57,51.86,4.67,53.12,6.5,51.73Z"/><path class="cls-1" d="M6.08,46.58A5.43,5.43,0,0,0,.15,42.29a11.25,11.25,0,0,0,.42,1.15C1.67,45.78,3.92,47.81,6.08,46.58Z"/><path class="cls-1" d="M6.21,41.41A5.42,5.42,0,0,0,.94,36.48a9.93,9.93,0,0,0,.28,1.17C1.93,40,4,42.34,6.21,41.41Z"/><path class="cls-1" d="M6.9,36.29a5.41,5.41,0,0,0-4.57-5.47C2.66,35.14,5.11,36.75,6.9,36.29Z"/><path class="cls-1" d="M8.14,31.29a5.44,5.44,0,0,0-3.82-5.93C4.15,29.54,6.31,31.5,8.14,31.29Z"/><path class="cls-1" d="M9.88,26.44c.77-2.3-.65-5.14-3-6.28C6.36,23.38,7.54,26.41,9.88,26.44Z"/><path class="cls-1" d="M12.12,21.81c1-2.07.06-5-2.16-6.53C8.84,19.12,10.38,21.56,12.12,21.81Z"/><path class="cls-1" d="M14.85,17.45a5.54,5.54,0,0,0-1.3-6.68C12.36,13.55,12.66,16.83,14.85,17.45Z"/><path class="cls-1" d="M18,13.42a5.59,5.59,0,0,0-.44-6.72C15.68,10,16.45,12.72,18,13.42Z"/><path class="cls-1" d="M21.61,9.74A5.6,5.6,0,0,0,22,3.1C20.25,5.46,19.78,8.6,21.61,9.74Z"/><path class="cls-1" d="M25.57,6.47A5.67,5.67,0,0,0,26.8,0C24.81,2.12,24,5.11,25.57,6.47Z"/><path class="cls-1" d="M37.33,1.26C34,.82,30,2.27,29.26,5.17,32,5.87,35.5,3.44,37.33,1.26Z"/><path class="cls-1" d="M204.41,75.19c18.5-22.41,11.78-54.6-9.39-68.95l-.22.32c20.92,14.39,27.19,46.19,8.89,68-10,11.83-22.6,14.07-29.86,18.7h2.53C183.71,89.25,195.39,86.07,204.41,75.19Z"/><path class="cls-1" d="M182.36,87.78l.1.12c2.57-1.91,2.11-5.44.44-8.12-.8,1.32-1.71,3.48-1.51,5A3.1,3.1,0,0,0,182.36,87.78Z"/><path class="cls-1" d="M187,86.09c2.36-2,1.6-5.53-.27-8C185.53,80.55,184.87,84.49,187,86.09Z"/><path class="cls-1" d="M191.36,83.79c2.14-2.14,1.11-5.55-1-7.78C189.41,78.48,189.13,82.42,191.36,83.79Z"/><path class="cls-1" d="M195.44,81c1.89-2.23.66-5.51-1.63-7.55C193,76.48,193.29,80,195.44,81Z"/><path class="cls-1" d="M196.94,70.6c-.48,2.58-.11,6.32,2.26,7.26C200.88,75.48,199.27,72.33,196.94,70.6Z"/><path class="cls-1" d="M202.59,74.29c1.37-2.15-.13-5.28-2.84-6.93C199.48,69.89,200.18,73.55,202.59,74.29Z"/><path class="cls-1" d="M205.58,70.37c1.15-2.6-.82-5.3-3.36-6.55C202.14,66.36,203.19,69.88,205.58,70.37Z"/><path class="cls-1" d="M208.13,66.16C209,63.6,207,61.05,204.28,60,204.53,62.51,205.67,65.86,208.13,66.16Z"/><path class="cls-1" d="M205.92,56c.42,2.46,1.9,5.63,4.3,5.73C210.93,59.06,208.54,56.72,205.92,56Z"/><path class="cls-1" d="M207.12,51.75c.52,2.31,2.34,5.36,4.69,5.27C212.26,54.6,210,52.33,207.12,51.75Z"/><path class="cls-1" d="M212.89,52.21c.18-2.69-2.39-4.5-5-4.79C208.7,49.67,210.53,52.51,212.89,52.21Z"/><path class="cls-1" d="M213.44,47.3c0-2.18-2.17-4.22-5.36-4.29C209,45.14,211.21,47.77,213.44,47.3Z"/><path class="cls-1" d="M207.83,38.58c1.06,2,3.47,4.42,5.62,3.79C213.31,40,210.63,38.4,207.83,38.58Z"/><path class="cls-1" d="M207.09,34.17c1.17,1.88,3.77,4.07,5.84,3.28C212.48,35,209.6,33.8,207.09,34.17Z"/><path class="cls-1" d="M205.86,29.84c1.28,1.72,4,3.72,6,2.78C211.38,30.29,208.31,29.27,205.86,29.84Z"/><path class="cls-1" d="M204.16,25.65c1.43,1.63,4.28,3.33,6.16,2.27C209.78,26.15,207.14,24.71,204.16,25.65Z"/><path class="cls-1" d="M202,21.66c1.56,1.51,4.51,2.93,6.26,1.75C207.57,21.69,204.83,20.51,202,21.66Z"/><path class="cls-1" d="M199.4,17.92c1.64,1.34,4.67,2.54,6.32,1.24C204.88,17.49,202.07,16.57,199.4,17.92Z"/><path class="cls-1" d="M196.39,14.47c1.8,1.26,4.85,2.1,6.34.73C201.76,13.62,198.89,13,196.39,14.47Z"/><path class="cls-1" d="M193,11.35c1.78,1.06,4.92,1.75,6.33.24C198.24,10.12,195.35,9.65,193,11.35Z"/><path class="cls-1" d="M189.25,8.62c1.84.91,5,1.34,6.29-.25C194.09,6.77,191.13,7,189.25,8.62Z"/><path class="cls-1" d="M185.12,90.65a3.35,3.35,0,0,0,1,3.78,6.21,6.21,0,0,0,1.13.83,6.3,6.3,0,0,0,1.31.56,10.8,10.8,0,0,0,2.9.4A5.55,5.55,0,0,0,185.12,90.65Z"/><path class="cls-1" d="M189.88,88.52a3.26,3.26,0,0,0,1.43,3.56,6,6,0,0,0,2.55,1.08,9.62,9.62,0,0,0,1.43.13,8.7,8.7,0,0,0,1.45-.07A5.52,5.52,0,0,0,189.88,88.52Z"/><path class="cls-1" d="M198.69,86.06a5,5,0,0,0-4.29-.17,3.21,3.21,0,0,0,1.83,3.3,5.15,5.15,0,0,0,1.26.52,6.77,6.77,0,0,0,1.36.22,9,9,0,0,0,2.83-.27A5.64,5.64,0,0,0,198.69,86.06Z"/><path class="cls-1" d="M200.52,82.18a4.77,4.77,0,0,0-1.92.62c.14,3.34,4.15,4.07,7.58,2.81A5.62,5.62,0,0,0,200.52,82.18Z"/><path class="cls-1" d="M202.43,79.26c.56,3.24,4.52,3.46,7.77,1.86A5.46,5.46,0,0,0,202.43,79.26Z"/><path class="cls-1" d="M205.86,75.35c.93,3.05,4.83,2.82,7.85.89A5.47,5.47,0,0,0,205.86,75.35Z"/><path class="cls-1" d="M208.85,71.1c1.24,2.81,5.11,2.21,7.79-.07A5.45,5.45,0,0,0,208.85,71.1Z"/><path class="cls-1" d="M211.38,66.56c1.53,2.57,5.2,1.53,7.62-1A5.42,5.42,0,0,0,211.38,66.56Z"/><path class="cls-1" d="M213.4,61.78c1.9,2.37,5.33.73,7.35-1.9A5.42,5.42,0,0,0,213.4,61.78Z"/><path class="cls-1" d="M214.9,56.82c1.54,1.5,4.66,1.06,7-2.75A5.44,5.44,0,0,0,214.9,56.82Z"/><path class="cls-1" d="M215.87,51.73c1.83,1.39,4.94.13,6.5-3.55A5.43,5.43,0,0,0,215.87,51.73Z"/><path class="cls-1" d="M216.29,46.58c2.17,1.23,4.41-.8,5.52-3.14a11.2,11.2,0,0,0,.41-1.15A5.43,5.43,0,0,0,216.29,46.58Z"/><path class="cls-1" d="M216.16,41.41c2.25.93,4.28-1.43,5-3.76.11-.39.21-.78.28-1.17A5.44,5.44,0,0,0,216.16,41.41Z"/><path class="cls-1" d="M215.47,36.29c1.79.46,4.24-1.15,4.57-5.47A5.42,5.42,0,0,0,215.47,36.29Z"/><path class="cls-1" d="M214.24,31.29c1.82.21,4-1.75,3.81-5.93A5.44,5.44,0,0,0,214.24,31.29Z"/><path class="cls-1" d="M212.49,26.44c2.34,0,3.53-3.06,3-6.28C213.14,21.3,211.72,24.14,212.49,26.44Z"/><path class="cls-1" d="M212.41,15.28c-2.22,1.49-3.15,4.46-2.16,6.53C212,21.56,213.53,19.12,212.41,15.28Z"/><path class="cls-1" d="M208.83,10.77a5.53,5.53,0,0,0-1.31,6.68C209.71,16.83,210,13.55,208.83,10.77Z"/><path class="cls-1" d="M204.8,6.7a5.57,5.57,0,0,0-.45,6.72C205.93,12.72,206.7,10,204.8,6.7Z"/><path class="cls-1" d="M200.36,3.1a5.6,5.6,0,0,0,.4,6.64C202.6,8.6,202.12,5.46,200.36,3.1Z"/><path class="cls-1" d="M195.57,0a5.66,5.66,0,0,0,1.24,6.47C198.43,5.11,197.57,2.12,195.57,0Z"/><path class="cls-1" d="M193.12,5.17c-.73-2.9-4.75-4.35-8.07-3.91C186.88,3.44,190.38,5.87,193.12,5.17Z"/><path class="cls-1" d="M95.49,27.34a3.28,3.28,0,0,0,1.28-2.64,3,3,0,0,0-1.17-2.45,7.06,7.06,0,0,0-2.82-1.14,5.28,5.28,0,0,0,2.6-1.26A2.59,2.59,0,0,0,96.12,18a3.18,3.18,0,0,0-.58-1.83A3.62,3.62,0,0,0,94,14.91a9.62,9.62,0,0,0-3.44-.43H83.74v.38a3.32,3.32,0,0,1,1.33.18,1.07,1.07,0,0,1,.49.47A4.53,4.53,0,0,1,85.7,17v9.16a4.37,4.37,0,0,1-.14,1.43,1,1,0,0,1-.49.48,3.26,3.26,0,0,1-1.33.18v.39h7.18A7.17,7.17,0,0,0,95.49,27.34ZM89,15.27a5.57,5.57,0,0,1,2.21.3,2.29,2.29,0,0,1,1,.91A2.86,2.86,0,0,1,92.62,18a2.88,2.88,0,0,1-.37,1.54,2.56,2.56,0,0,1-1.08.94,5.4,5.4,0,0,1-2.18.33Zm.28,12.27a1.15,1.15,0,0,1-.29-.85V21.64a6.79,6.79,0,0,1,2.4.3A2.47,2.47,0,0,1,92.64,23a3.45,3.45,0,0,1,.46,1.78,3.24,3.24,0,0,1-.37,1.56,2.56,2.56,0,0,1-1.08,1.08,3.32,3.32,0,0,1-1.53.37A1.15,1.15,0,0,1,89.27,27.54Z"/><path class="cls-1" d="M111,24.11h-.38a4.55,4.55,0,0,1-4.89,3.7h-.84a1.74,1.74,0,0,1-.87-.16.77.77,0,0,1-.37-.43,5.47,5.47,0,0,1-.1-1.42v-4a3.69,3.69,0,0,1,1.54.26,2.35,2.35,0,0,1,.93,1,5.57,5.57,0,0,1,.53,2h.39V17.71h-.39a5.18,5.18,0,0,1-.78,2.48,2.2,2.2,0,0,1-1.94.85h-.28V15.29H105a8.15,8.15,0,0,1,2.19.19,3.15,3.15,0,0,1,1.55,1,5.2,5.2,0,0,1,.85,2.19H110V14.48H98.14v.38h.47a1.78,1.78,0,0,1,1.09.3,1,1,0,0,1,.38.56,6.79,6.79,0,0,1,0,1.17v9.29a4.53,4.53,0,0,1-.11,1.31,1,1,0,0,1-.42.5,1.91,1.91,0,0,1-1,.22h-.47v.39h12.21Z"/><path class="cls-1" d="M114.44,28.28a1,1,0,0,1,.57-.2,2.19,2.19,0,0,1,.82.2,9.79,9.79,0,0,0,1.49.51,5.72,5.72,0,0,0,1.26.14,5,5,0,0,0,3.5-1.28,4,4,0,0,0,1.38-3,3.89,3.89,0,0,0-.85-2.48,10.09,10.09,0,0,0-3.34-2.3A21.34,21.34,0,0,1,117,18.61a3.42,3.42,0,0,1-1-1,1.54,1.54,0,0,1-.22-.83,1.75,1.75,0,0,1,.62-1.31,2.43,2.43,0,0,1,1.68-.56A3.77,3.77,0,0,1,120.68,16a4.81,4.81,0,0,1,1.48,2.85h.43l-.12-4.7h-.31a2,2,0,0,1-.29.8.56.56,0,0,1-.43.16,2.91,2.91,0,0,1-1-.33,7.19,7.19,0,0,0-1.19-.47,5.38,5.38,0,0,0-1.33-.16,4.35,4.35,0,0,0-3.13,1.18,3.86,3.86,0,0,0-1.24,2.88A3.61,3.61,0,0,0,114,20a5,5,0,0,0,1.29,1.49,16.87,16.87,0,0,0,2.77,1.61,12,12,0,0,1,1.92,1.1,3,3,0,0,1,.8.89,1.9,1.9,0,0,1,.27,1,1.93,1.93,0,0,1-.69,1.47,2.61,2.61,0,0,1-1.86.64A4.12,4.12,0,0,1,115.71,27,6.09,6.09,0,0,1,114,23.59h-.39v5.33H114A1.42,1.42,0,0,1,114.44,28.28Z"/><path class="cls-1" d="M126.63,15.89a3,3,0,0,1,2.08-.6h1V26.18a4.05,4.05,0,0,1-.12,1.31,1,1,0,0,1-.42.5,1.91,1.91,0,0,1-1,.22h-.47v.39h7.39v-.39h-.47a2,2,0,0,1-1-.2,1.13,1.13,0,0,1-.47-.48,4.42,4.42,0,0,1-.12-1.35V15.29h1a3.51,3.51,0,0,1,1.39.19,2.81,2.81,0,0,1,1.11.92,6,6,0,0,1,.74,1.9h.37V14.48H125.09V18.3h.4A4.05,4.05,0,0,1,126.63,15.89Z"/><path class="cls-1" d="M54.14,36.49a10.07,10.07,0,0,0-4.07-.69H43.75v.39h.47a1.82,1.82,0,0,1,.94.2,1,1,0,0,1,.46.47,4.45,4.45,0,0,1,.12,1.36V47.5a4.49,4.49,0,0,1-.1,1.31,1.12,1.12,0,0,1-.48.53,1.86,1.86,0,0,1-.94.19h-.47v.39h6.32a10.75,10.75,0,0,0,2-.13A9.28,9.28,0,0,0,54.5,49a6.08,6.08,0,0,0,1.75-1.31,6.32,6.32,0,0,0,1.24-2.08A8.12,8.12,0,0,0,57,39,6,6,0,0,0,54.14,36.49ZM53,48a3.15,3.15,0,0,1-2.65,1.19A1.73,1.73,0,0,1,49.5,49a.58.58,0,0,1-.28-.3,3.59,3.59,0,0,1-.09-1.07v-11a6.81,6.81,0,0,1,2.49.31,3.68,3.68,0,0,1,1.74,1.73A9.35,9.35,0,0,1,54.21,43,8,8,0,0,1,53,48Z"/><path class="cls-1" d="M72.19,45.43H71.8a4.55,4.55,0,0,1-4.88,3.71h-.84A1.74,1.74,0,0,1,65.2,49a.85.85,0,0,1-.37-.43,6,6,0,0,1-.1-1.42v-4a3.45,3.45,0,0,1,1.54.27,2.23,2.23,0,0,1,.94,1,5.58,5.58,0,0,1,.52,2h.4V39h-.4A5.27,5.27,0,0,1,67,41.52a2.23,2.23,0,0,1-1.95.84h-.28V36.61h1.46a8.15,8.15,0,0,1,2.19.19,3.12,3.12,0,0,1,1.54,1A5,5,0,0,1,70.77,40h.4V35.8H59.35v.39h.47a1.73,1.73,0,0,1,1.08.29,1,1,0,0,1,.39.56,8.19,8.19,0,0,1,.05,1.18V47.5a4.05,4.05,0,0,1-.12,1.31.87.87,0,0,1-.41.5,1.91,1.91,0,0,1-1,.22h-.47v.39h12.2Z"/><path class="cls-1" d="M81,50.24l4.86-10.79A12.79,12.79,0,0,1,87.15,37a2.24,2.24,0,0,1,1.38-.82V35.8H83.89v.39a3.26,3.26,0,0,1,1.19.17,1,1,0,0,1,.49.37.94.94,0,0,1,.17.55,2.2,2.2,0,0,1-.12.65A14.25,14.25,0,0,1,85,39.45l-2.79,6.26-3-7c-.32-.74-.51-1.2-.56-1.37a1.32,1.32,0,0,1-.09-.44.52.52,0,0,1,.24-.46,2.45,2.45,0,0,1,1.25-.22h.23V35.8H73.51v.39a1.67,1.67,0,0,1,1.12.44A13.94,13.94,0,0,1,75.8,39l4.85,11.22Z"/><path class="cls-1" d="M103,45.43h-.39a5.14,5.14,0,0,1-1.71,2.79,5.08,5.08,0,0,1-3.17.92h-.85A1.73,1.73,0,0,1,96,49a.85.85,0,0,1-.37-.43,5.47,5.47,0,0,1-.1-1.42v-4a3.48,3.48,0,0,1,1.54.27,2.16,2.16,0,0,1,.93,1,5.37,5.37,0,0,1,.53,2h.39V39H98.5a5.27,5.27,0,0,1-.77,2.49,2.23,2.23,0,0,1-2,.84H95.5V36.61H97a8,8,0,0,1,2.18.19,3.1,3.1,0,0,1,1.55,1,5.07,5.07,0,0,1,.85,2.19h.39V35.8H90.12v.39h.47a1.75,1.75,0,0,1,1.08.29.93.93,0,0,1,.38.56,6.43,6.43,0,0,1,.06,1.18V47.5A4.05,4.05,0,0,1,92,48.81a.87.87,0,0,1-.41.5,1.91,1.91,0,0,1-1,.22h-.47v.39h12.2Z"/><path class="cls-1" d="M110.13,36.9a1,1,0,0,1,.42-.5,2,2,0,0,1,1-.21h.62V35.8h-7.53v.39h.47a1.8,1.8,0,0,1,.94.2,1,1,0,0,1,.46.47,4.45,4.45,0,0,1,.12,1.36V47.5a4.05,4.05,0,0,1-.12,1.31.87.87,0,0,1-.41.5,1.91,1.91,0,0,1-1,.22h-.47v.39h12.54l.53-5h-.43a10.06,10.06,0,0,1-1,2.52,3.41,3.41,0,0,1-1.29,1.25,4.06,4.06,0,0,1-1.88.4h-1.17a4.92,4.92,0,0,1-1.26-.1.77.77,0,0,1-.49-.44,4.31,4.31,0,0,1-.13-1.38v-9A4.17,4.17,0,0,1,110.13,36.9Z"/><path class="cls-1" d="M132.56,37.57a7,7,0,0,0-5.48-2,6.85,6.85,0,0,0-5.27,2,7,7,0,0,0-2.14,5.24,7.47,7.47,0,0,0,1.65,4.84,7.14,7.14,0,0,0,5.89,2.58,7,7,0,0,0,5.88-2.71,7.51,7.51,0,0,0,1.58-4.72A7.09,7.09,0,0,0,132.56,37.57Zm-2.16,9.24A4.34,4.34,0,0,1,129,48.94a2.94,2.94,0,0,1-1.79.52,2.89,2.89,0,0,1-2.48-1.21,9.09,9.09,0,0,1-1.27-5.34,10.5,10.5,0,0,1,.83-4.66,3.22,3.22,0,0,1,4.8-1.41,4.1,4.1,0,0,1,1.33,2,12.91,12.91,0,0,1,.52,4.19A11.88,11.88,0,0,1,130.4,46.81Z"/><path class="cls-1" d="M146.55,36.88a6.92,6.92,0,0,0-4.36-1.08H136v.39a3.35,3.35,0,0,1,1.32.17,1,1,0,0,1,.49.48,4,4,0,0,1,.15,1.44v9.16a4.12,4.12,0,0,1-.15,1.44,1,1,0,0,1-.48.47,3.32,3.32,0,0,1-1.33.18v.39h7.17v-.39a3.3,3.3,0,0,1-1.32-.18,1,1,0,0,1-.5-.47,4.49,4.49,0,0,1-.14-1.44V43.52a15.84,15.84,0,0,0,3.42-.25A4.31,4.31,0,0,0,147,41.94a3.44,3.44,0,0,0,.86-2.35A3.38,3.38,0,0,0,146.55,36.88ZM143.73,42a2.53,2.53,0,0,1-2,.75c-.11,0-.29,0-.52,0v-6.1h.43a2.67,2.67,0,0,1,2,.73,3.26,3.26,0,0,1,.69,2.3A3.37,3.37,0,0,1,143.73,42Z"/><path class="cls-1" d="M159.6,48.22a5.08,5.08,0,0,1-3.17.92h-.85a1.73,1.73,0,0,1-.87-.17.85.85,0,0,1-.37-.43,5.47,5.47,0,0,1-.1-1.42v-4a3.48,3.48,0,0,1,1.54.27,2.21,2.21,0,0,1,.93,1,5.37,5.37,0,0,1,.53,2h.39V39h-.39a5.27,5.27,0,0,1-.77,2.49,2.23,2.23,0,0,1-1.95.84h-.28V36.61h1.46a8,8,0,0,1,2.18.19,3.1,3.1,0,0,1,1.55,1,5.07,5.07,0,0,1,.85,2.19h.39V35.8H148.86v.39h.47a1.75,1.75,0,0,1,1.08.29,1,1,0,0,1,.38.56,6.43,6.43,0,0,1,.06,1.18V47.5a4.05,4.05,0,0,1-.12,1.31.91.91,0,0,1-.41.5,1.91,1.91,0,0,1-1,.22h-.47v.39h12.2l.63-4.49h-.38A5.14,5.14,0,0,1,159.6,48.22Z"/><path class="cls-1" d="M168.78,48.88a4.21,4.21,0,0,1-.14-1.44v-4h.92l4.55,6.44h4.45v-.39a1.77,1.77,0,0,1-1-.35,7.23,7.23,0,0,1-.95-1.16l-3.39-4.78a4.6,4.6,0,0,0,2-1,3.35,3.35,0,0,0,1.12-2.59,3.51,3.51,0,0,0-.75-2.23,3.83,3.83,0,0,0-1.93-1.31,14.67,14.67,0,0,0-3.75-.35h-6.56v.39a3.31,3.31,0,0,1,1.32.17,1.06,1.06,0,0,1,.5.48,4.41,4.41,0,0,1,.14,1.44v9.16a4.49,4.49,0,0,1-.14,1.44,1.12,1.12,0,0,1-.49.47,3.32,3.32,0,0,1-1.33.18v.39h7.22v-.39a3.3,3.3,0,0,1-1.32-.18A1,1,0,0,1,168.78,48.88Zm-.14-12.32h1.11a3.29,3.29,0,0,1,2.43.77,3.26,3.26,0,0,1,.76,2.38,3.54,3.54,0,0,1-.41,1.81,2.2,2.2,0,0,1-1.13,1,6.59,6.59,0,0,1-2.17.26h-.59Z"/><path class="cls-1" d="M67.45,66.27a10.49,10.49,0,0,0-1.13-.38,6.78,6.78,0,0,1-.82-.26,1.44,1.44,0,0,1-.49-.32.74.74,0,0,1-.2-.53.9.9,0,0,1,.31-.72,1.27,1.27,0,0,1,.8-.25,1.33,1.33,0,0,1,.87.27.92.92,0,0,1,.36.65h1.26a1.83,1.83,0,0,0-.71-1.38A2.61,2.61,0,0,0,66,62.84a3.06,3.06,0,0,0-1.25.24,1.92,1.92,0,0,0-.84.69,1.85,1.85,0,0,0-.3,1,1.65,1.65,0,0,0,.3,1,1.87,1.87,0,0,0,.73.58,8.36,8.36,0,0,0,1.1.36c.36.1.64.18.85.26a1.52,1.52,0,0,1,.51.34.84.84,0,0,1,.2.57.94.94,0,0,1-.33.74,1.37,1.37,0,0,1-.92.28,1.22,1.22,0,0,1-.88-.29,1.11,1.11,0,0,1-.36-.74H63.63A1.79,1.79,0,0,0,64,69a2.2,2.2,0,0,0,.88.7,3.22,3.22,0,0,0,1.26.24,2.76,2.76,0,0,0,1.29-.28,2,2,0,0,0,.83-.76,1.87,1.87,0,0,0,.28-1,1.68,1.68,0,0,0-.3-1A1.9,1.9,0,0,0,67.45,66.27Z"/><path class="cls-1" d="M74.15,67.44a1.6,1.6,0,0,1-.37,1.14,1.52,1.52,0,0,1-2,0,1.64,1.64,0,0,1-.37-1.14V64.37H70.25v3.24a2.55,2.55,0,0,0,.3,1.28,1.89,1.89,0,0,0,.81.8,2.45,2.45,0,0,0,1.16.27,2.24,2.24,0,0,0,.93-.19,1.81,1.81,0,0,0,.7-.54v.65h1.14V64.37H74.15Z"/><path class="cls-1" d="M81.67,64.63a2.55,2.55,0,0,0-1.32-.35,2.43,2.43,0,0,0-1.12.26,2.27,2.27,0,0,0-.8.65V62.48H77.29v7.4h1.14v-.8a2.19,2.19,0,0,0,.79.64,2.44,2.44,0,0,0,1.13.25,2.52,2.52,0,0,0,1.32-.36,2.62,2.62,0,0,0,.93-1,3.15,3.15,0,0,0,.34-1.49,3.07,3.07,0,0,0-.34-1.47A2.43,2.43,0,0,0,81.67,64.63Zm-.12,3.47a1.72,1.72,0,0,1-.62.66,1.61,1.61,0,0,1-.83.22,1.57,1.57,0,0,1-.81-.22,1.59,1.59,0,0,1-.62-.64,2,2,0,0,1-.24-1,2,2,0,0,1,.24-1,1.63,1.63,0,0,1,1.43-.86,1.61,1.61,0,0,1,.83.22,1.63,1.63,0,0,1,.62.63,1.9,1.9,0,0,1,.23,1A2,2,0,0,1,81.55,68.1Z"/><path class="cls-1" d="M87.73,67a8.13,8.13,0,0,0-1-.33c-.3-.08-.52-.16-.68-.21a1.28,1.28,0,0,1-.39-.24.51.51,0,0,1-.16-.37.54.54,0,0,1,.24-.45,1.21,1.21,0,0,1,.69-.17,1.15,1.15,0,0,1,.73.22.83.83,0,0,1,.3.59h1.14A1.68,1.68,0,0,0,88,64.76a2.31,2.31,0,0,0-1.52-.48,2.75,2.75,0,0,0-1.11.21,1.71,1.71,0,0,0-.75.58,1.36,1.36,0,0,0-.26.8,1.29,1.29,0,0,0,.29.87,1.69,1.69,0,0,0,.67.49,8,8,0,0,0,1,.33,5.62,5.62,0,0,1,.94.33.5.5,0,0,1,.29.46.56.56,0,0,1-.26.48,1.34,1.34,0,0,1-.75.18,1.25,1.25,0,0,1-.76-.23.83.83,0,0,1-.34-.59H84.27a1.64,1.64,0,0,0,.32.91,2,2,0,0,0,.82.64,2.86,2.86,0,0,0,1.16.23,2.76,2.76,0,0,0,1.12-.21,1.7,1.7,0,0,0,.73-.58,1.35,1.35,0,0,0,.26-.84,1.25,1.25,0,0,0-.29-.85A1.84,1.84,0,0,0,87.73,67Z"/><path class="cls-1" d="M91,62.18a.72.72,0,0,0-.73.73.7.7,0,0,0,.21.52.72.72,0,0,0,.52.21.72.72,0,0,0,.72-.73.72.72,0,0,0-.21-.52A.69.69,0,0,0,91,62.18Z"/><rect class="cls-1" x="90.41" y="64.37" width="1.14" height="5.51"/><path class="cls-1" d="M97.72,65.14a2.15,2.15,0,0,0-.84-.62,2.56,2.56,0,0,0-2.39.12,2.56,2.56,0,0,0-.94,1,3.07,3.07,0,0,0-.34,1.47,3.15,3.15,0,0,0,.34,1.49,2.72,2.72,0,0,0,.94,1,2.52,2.52,0,0,0,1.32.36,2.33,2.33,0,0,0,1.13-.26,2.12,2.12,0,0,0,.78-.66v.83h1.15v-7.4H97.72Zm-.24,3a1.57,1.57,0,0,1-.61.64,1.64,1.64,0,0,1-1.64,0,1.72,1.72,0,0,1-.62-.66,2.11,2.11,0,0,1-.23-1,2,2,0,0,1,.23-1,1.57,1.57,0,0,1,.62-.63,1.55,1.55,0,0,1,.82-.22,1.71,1.71,0,0,1,.82.22,1.64,1.64,0,0,1,.61.64,2,2,0,0,1,.24,1A2,2,0,0,1,97.48,68.12Z"/><path class="cls-1" d="M102,62.39a.74.74,0,0,0-1,0,.72.72,0,0,0-.21.52.73.73,0,1,0,1.45,0A.72.72,0,0,0,102,62.39Z"/><rect class="cls-1" x="100.88" y="64.37" width="1.14" height="5.51"/><polygon class="cls-1" points="107.46 64.37 103.64 64.37 103.64 65.3 106.15 65.3 103.64 68.95 103.64 69.88 107.46 69.88 107.46 68.95 104.96 68.95 107.46 65.3 107.46 64.37"/><path class="cls-1" d="M114.11,67a2.83,2.83,0,0,0-.34-1.41,2.44,2.44,0,0,0-1-1,3.05,3.05,0,0,0-2.82,0,2.46,2.46,0,0,0-1,1,3.12,3.12,0,0,0-.35,1.49,3,3,0,0,0,.36,1.5,2.48,2.48,0,0,0,1,1,2.83,2.83,0,0,0,1.41.35,2.69,2.69,0,0,0,1.63-.48,2.56,2.56,0,0,0,.9-1.25h-1.23a1.32,1.32,0,0,1-1.3.77,1.52,1.52,0,0,1-1.57-1.46h4.21A3.13,3.13,0,0,0,114.11,67Zm-4.24-.36a1.55,1.55,0,0,1,.5-1,1.47,1.47,0,0,1,1-.38,1.63,1.63,0,0,1,1.09.38,1.33,1.33,0,0,1,.45,1Z"/><path class="cls-1" d="M119.18,69.71a2.12,2.12,0,0,0,.78-.66v.83h1.15v-7.4H120v2.66a2.15,2.15,0,0,0-.84-.62,2.56,2.56,0,0,0-2.39.12,2.56,2.56,0,0,0-.94,1,3.07,3.07,0,0,0-.34,1.47,3.15,3.15,0,0,0,.34,1.49,2.72,2.72,0,0,0,.94,1,2.52,2.52,0,0,0,1.32.36A2.33,2.33,0,0,0,119.18,69.71Zm-2.33-1.61a2.11,2.11,0,0,1-.23-1,2,2,0,0,1,.23-1,1.57,1.57,0,0,1,.62-.63,1.55,1.55,0,0,1,.82-.22,1.71,1.71,0,0,1,.82.22,1.64,1.64,0,0,1,.61.64,2,2,0,0,1,.24,1,2,2,0,0,1-.24,1,1.57,1.57,0,0,1-.61.64,1.64,1.64,0,0,1-1.64,0A1.65,1.65,0,0,1,116.85,68.1Z"/><polygon class="cls-1" points="130.62 65.91 127.35 65.91 127.35 62.93 126.21 62.93 126.21 69.88 127.35 69.88 127.35 66.84 130.62 66.84 130.62 69.88 131.76 69.88 131.76 62.93 130.62 62.93 130.62 65.91"/><path class="cls-1" d="M137.73,64.63a3.1,3.1,0,0,0-2.86,0,2.62,2.62,0,0,0-1,1,2.94,2.94,0,0,0-.37,1.49,3,3,0,0,0,.36,1.5,2.57,2.57,0,0,0,1,1,2.89,2.89,0,0,0,1.41.35,3,3,0,0,0,1.44-.35,2.59,2.59,0,0,0,1-1,3.15,3.15,0,0,0,0-3A2.62,2.62,0,0,0,137.73,64.63Zm0,3.51a1.59,1.59,0,0,1-.63.63,1.67,1.67,0,0,1-.82.21,1.53,1.53,0,0,1-1.15-.48,2,2,0,0,1-.45-1.38,2.07,2.07,0,0,1,.22-1,1.5,1.5,0,0,1,.59-.63,1.71,1.71,0,0,1,1.64,0,1.55,1.55,0,0,1,.61.63,2.07,2.07,0,0,1,.23,1A2,2,0,0,1,137.7,68.14Z"/><path class="cls-1" d="M144.62,67.44a1.6,1.6,0,0,1-.37,1.14,1.35,1.35,0,0,1-1,.39,1.33,1.33,0,0,1-1-.39,1.6,1.6,0,0,1-.37-1.14V64.37h-1.13v3.24a2.55,2.55,0,0,0,.3,1.28,1.84,1.84,0,0,0,.81.8A2.45,2.45,0,0,0,143,70a2.24,2.24,0,0,0,.93-.19,1.81,1.81,0,0,0,.7-.54v.65h1.14V64.37h-1.14Z"/><path class="cls-1" d="M150.92,67a7.38,7.38,0,0,0-1-.33c-.3-.08-.53-.16-.68-.21a1.08,1.08,0,0,1-.39-.24.47.47,0,0,1-.16-.37.54.54,0,0,1,.24-.45,1.21,1.21,0,0,1,.69-.17,1.15,1.15,0,0,1,.73.22.83.83,0,0,1,.3.59h1.14a1.69,1.69,0,0,0-.62-1.29,2.28,2.28,0,0,0-1.51-.48,2.83,2.83,0,0,0-1.12.21,1.68,1.68,0,0,0-.74.58,1.3,1.3,0,0,0-.26.8,1.28,1.28,0,0,0,.28.87,1.72,1.72,0,0,0,.68.49,8,8,0,0,0,1,.33,5.13,5.13,0,0,1,.93.33.49.49,0,0,1,.3.46.55.55,0,0,1-.27.48,1.5,1.5,0,0,1-1.51,0,.81.81,0,0,1-.33-.59h-1.18a1.57,1.57,0,0,0,.32.91,2.08,2.08,0,0,0,.81.64,2.94,2.94,0,0,0,1.17.23,2.68,2.68,0,0,0,1.11-.21,1.68,1.68,0,0,0,.74-.58,1.42,1.42,0,0,0,.26-.84,1.36,1.36,0,0,0-.29-.85A1.88,1.88,0,0,0,150.92,67Z"/><path class="cls-1" d="M157.39,64.62a2.89,2.89,0,0,0-1.39-.34,3,3,0,0,0-1.44.35,2.52,2.52,0,0,0-1,1,3.41,3.41,0,0,0,0,3,2.62,2.62,0,0,0,1,1A2.9,2.9,0,0,0,156,70a2.66,2.66,0,0,0,1.62-.48,2.52,2.52,0,0,0,.91-1.25H157.3A1.33,1.33,0,0,1,156,69a1.52,1.52,0,0,1-1.08-.4,1.48,1.48,0,0,1-.49-1.06h4.21a4.45,4.45,0,0,0,0-.56,2.94,2.94,0,0,0-.34-1.41A2.5,2.5,0,0,0,157.39,64.62Zm-2.95,2a1.55,1.55,0,0,1,.5-1,1.46,1.46,0,0,1,1-.38,1.64,1.64,0,0,1,1.09.38,1.33,1.33,0,0,1,.45,1Z"/><path class="cls-1" d="M102,80.43c.52-.46.95-.86,1.28-1.21a5.44,5.44,0,0,0,.87-1.19,2.81,2.81,0,0,0,.37-1.39,2.15,2.15,0,0,0-.62-1.6,2.37,2.37,0,0,0-4,1.75H101a1.56,1.56,0,0,1,.34-1,1.16,1.16,0,0,1,.92-.38,1.12,1.12,0,0,1,.89.34,1.43,1.43,0,0,1,.29.94,2.17,2.17,0,0,1-.37,1.16,6.35,6.35,0,0,1-.93,1.12c-.37.35-.87.81-1.51,1.36L99.9,81v.83h4.86v-1h-3.17Z"/><path class="cls-1" d="M108.86,74.46a2.16,2.16,0,0,0-2,1,5.26,5.26,0,0,0-.58,2.7,5.39,5.39,0,0,0,.58,2.74,2.56,2.56,0,0,0,4,0,5.39,5.39,0,0,0,.59-2.74,5.25,5.25,0,0,0-.59-2.7A2.16,2.16,0,0,0,108.86,74.46Zm1.38,5.09a1.76,1.76,0,0,1-.43.92,1.2,1.2,0,0,1-1,.35,1.23,1.23,0,0,1-1-.35,1.75,1.75,0,0,1-.42-.92,8,8,0,0,1-.1-1.41,7.68,7.68,0,0,1,.1-1.37,1.76,1.76,0,0,1,.43-.91,1.2,1.2,0,0,1,1-.36,1.21,1.21,0,0,1,1,.36,1.83,1.83,0,0,1,.42.91,7.59,7.59,0,0,1,.11,1.37A9.11,9.11,0,0,1,110.24,79.55Z"/><polygon class="cls-1" points="112.82 75.63 113.75 75.63 113.75 81.88 114.9 81.88 114.9 74.59 112.82 74.59 112.82 75.63"/><path class="cls-1" d="M120.88,78.07a1.92,1.92,0,0,0,.76-.65,1.74,1.74,0,0,0,.28-1,1.89,1.89,0,0,0-.27-1,1.83,1.83,0,0,0-.81-.71,3,3,0,0,0-1.32-.27,2.93,2.93,0,0,0-1.32.27,1.83,1.83,0,0,0-.81.71,1.89,1.89,0,0,0-.27,1,1.72,1.72,0,0,0,1,1.64,1.89,1.89,0,0,0-.89.68,1.92,1.92,0,0,0-.33,1.12,2,2,0,0,0,.33,1.15,2.11,2.11,0,0,0,.92.77,3.13,3.13,0,0,0,1.33.27,3.18,3.18,0,0,0,1.34-.27,2.11,2.11,0,0,0,.92-.77,2,2,0,0,0,.33-1.15,1.89,1.89,0,0,0-.33-1.11A1.83,1.83,0,0,0,120.88,78.07Zm-2.31-2.36a1.67,1.67,0,0,1,1.91,0,1.09,1.09,0,0,1,.35.86,1,1,0,0,1-.37.82,1.55,1.55,0,0,1-1.87,0,1,1,0,0,1-.37-.82A1.09,1.09,0,0,1,118.57,75.71Zm2,5a1.57,1.57,0,0,1-1.08.36,1.62,1.62,0,0,1-1.09-.35,1.18,1.18,0,0,1-.4-.93,1.1,1.1,0,0,1,.42-.93,1.9,1.9,0,0,1,2.14,0,1.13,1.13,0,0,1,.4.93A1.19,1.19,0,0,1,120.6,80.75Z"/></svg>