<svg id="Layer_1" data-name="Layer 1" xmlns="http://www.w3.org/2000/svg" viewBox="0 0 350 150"><defs><style>.cls-1{fill:#0d5235;}</style></defs><path class="cls-1" d="M37.32,4.16c-3.85,3.51-4.54,9-4.54,9s5.54-.18,9.39-3.69,4.54-9,4.54-9S41.16.65,37.32,4.16Z"/><path class="cls-1" d="M64.37,133.47a17,17,0,0,1,3.47,9.28c0,.07-7-1.88-10.07-6.57a12,12,0,0,1-1.65-9.41A28.39,28.39,0,0,1,64.37,133.47Z"/><path class="cls-1" d="M59.5,148.19a11.83,11.83,0,0,0,8.39-5.62c-.07,0-6.62-1.87-12.27-1.21a15.57,15.57,0,0,0-9,4.28C46.49,145.65,53.32,149.25,59.5,148.19Z"/><path class="cls-1" d="M52.29,128.16a16.82,16.82,0,0,1,1.42,9.54c0,.07-6.12-3-8.18-8a12.07,12.07,0,0,1,.24-9.38A26.14,26.14,0,0,1,52.29,128.16Z"/><path class="cls-1" d="M44.83,141.55a11.66,11.66,0,0,0,9-4c-.07,0-5.81-2.9-11.29-3.21a15.28,15.28,0,0,0-9.41,2.6C33,136.92,38.82,141.55,44.83,141.55Z"/><path class="cls-1" d="M41.86,121a16.68,16.68,0,0,1-.47,9.47c0,.07-5.24-3.91-6.29-9.17a12,12,0,0,1,2-9A24.66,24.66,0,0,1,41.86,121Z"/><path class="cls-1" d="M32.2,132.67a11.42,11.42,0,0,0,9.3-2.37c-.06,0-5-3.79-10.17-5a15.11,15.11,0,0,0-9.55.9C21.71,126.16,26.47,131.65,32.2,132.67Z"/><path class="cls-1" d="M33.15,112.23a16.37,16.37,0,0,1-2.18,9.1c0,.07-4.33-4.69-4.42-10a12,12,0,0,1,3.5-8.47A23.87,23.87,0,0,1,33.15,112.23Z"/><path class="cls-1" d="M21.69,121.9a11.24,11.24,0,0,0,9.42-.7c-.06,0-4.09-4.53-8.94-6.64a14.93,14.93,0,0,0-9.44-.79C12.66,113.75,16.33,119.92,21.69,121.9Z"/><path class="cls-1" d="M26.24,102.19a16.32,16.32,0,0,1-3.71,8.48c0,.06-3.4-5.32-2.58-10.5a11.74,11.74,0,0,1,4.87-7.64A23.75,23.75,0,0,1,26.24,102.19Z"/><path class="cls-1" d="M13.39,109.6a11.11,11.11,0,0,0,9.29,1c-.05,0-3.18-5.12-7.56-8A14.84,14.84,0,0,0,6,100.1C6,100.07,8.51,106.73,13.39,109.6Z"/><path class="cls-1" d="M21.21,91.18a15.88,15.88,0,0,1-5.08,7.62c0,.06-2.41-5.79-.75-10.72a11.55,11.55,0,0,1,6-6.63A23.59,23.59,0,0,1,21.21,91.18Z"/><path class="cls-1" d="M7.37,96.14a11.09,11.09,0,0,0,8.93,2.59c-.05,0-2.24-5.56-6-9.2a15,15,0,0,0-8.5-4C1.7,85.48,3.08,92.47,7.37,96.14Z"/><path class="cls-1" d="M18.11,79.48a15.59,15.59,0,0,1-6.24,6.58s-1.4-6.12,1.05-10.67a11.28,11.28,0,0,1,7-5.44A23.34,23.34,0,0,1,18.11,79.48Z"/><path class="cls-1" d="M3.73,81.87A11.08,11.08,0,0,0,12.05,86,31.49,31.49,0,0,0,7.66,75.9,15.14,15.14,0,0,0,0,70.42S.14,77.51,3.73,81.87Z"/><path class="cls-1" d="M17,67.4a15.23,15.23,0,0,1-7.21,5.37s-.35-6.28,2.82-10.35a11.15,11.15,0,0,1,7.81-4.13A23.74,23.74,0,0,1,17,67.4Z"/><path class="cls-1" d="M2.55,67.18A11.26,11.26,0,0,0,10,72.76,32.16,32.16,0,0,0,7.41,62a15.23,15.23,0,0,0-6.55-6.8S-.23,62.23,2.55,67.18Z"/><path class="cls-1" d="M18.05,55.24a15.07,15.07,0,0,1-8,4c-.05,0,.74-6.29,4.57-9.77A11,11,0,0,1,23,46.78,24.82,24.82,0,0,1,18.05,55.24Z"/><path class="cls-1" d="M3.92,52.42a11.21,11.21,0,0,0,6.32,6.87,33.9,33.9,0,0,0-.65-11.17,15.45,15.45,0,0,0-5.18-7.95C4.37,40.12,2.05,47,3.92,52.42Z"/><path class="cls-1" d="M21.23,43.3a14.7,14.7,0,0,1-8.56,2.6c-.06,0,1.86-6.14,6.29-8.95a10.84,10.84,0,0,1,8.75-1.25A25.85,25.85,0,0,1,21.23,43.3Z"/><path class="cls-1" d="M7.91,38a11.26,11.26,0,0,0,4.93,8,36.24,36.24,0,0,0,1.44-11.28,15.6,15.6,0,0,0-3.54-8.89C10.71,25.72,7.08,32.23,7.91,38Z"/><path class="cls-1" d="M26.64,31.89A14.56,14.56,0,0,1,17.73,33c-.07,0,3-5.83,8-7.9a10.72,10.72,0,0,1,8.91.26C34.55,25.36,31.06,29.75,26.64,31.89Z"/><path class="cls-1" d="M14.62,24.18a11.22,11.22,0,0,0,3.26,8.89A39.24,39.24,0,0,0,21.56,22a15.84,15.84,0,0,0-1.63-9.59C19.91,12.33,14.94,18.27,14.62,24.18Z"/><path class="cls-1" d="M34.37,21.3a14.3,14.3,0,0,1-9.06-.42c-.07,0,4.22-5.36,9.64-6.63A10.52,10.52,0,0,1,43.79,16C43.71,16,39.21,19.9,34.37,21.3Z"/><path class="cls-1" d="M24.13,11.44A11.25,11.25,0,0,0,25.45,21,44.91,44.91,0,0,0,31.51,10.4a16.48,16.48,0,0,0,.57-10C32.07.32,25.72,5.52,24.13,11.44Z"/><path class="cls-1" d="M87.43,144.29l-.1-1.07A66.25,66.25,0,0,1,61,140.27a69.72,69.72,0,0,1-23.07-12.63A73.37,73.37,0,0,1,11.79,80.2c-2-15.39-1-29.1,3.07-40.75a54.29,54.29,0,0,1,23-29.1l-.57-.92A55.4,55.4,0,0,0,13.84,39.1C9.73,50.91,8.68,64.79,10.72,80.34a74.43,74.43,0,0,0,26.47,48.13A71,71,0,0,0,60.62,141.3,67.29,67.29,0,0,0,87.43,144.29Z"/><path class="cls-1" d="M312.68,4.16c3.85,3.51,4.54,9,4.54,9s-5.54-.18-9.39-3.69-4.54-9-4.54-9S308.84.65,312.68,4.16Z"/><path class="cls-1" d="M285.63,133.47a17,17,0,0,0-3.47,9.28c0,.07,6.95-1.88,10.07-6.57a12,12,0,0,0,1.65-9.41A28.39,28.39,0,0,0,285.63,133.47Z"/><path class="cls-1" d="M290.5,148.19a11.83,11.83,0,0,1-8.39-5.62c.07,0,6.62-1.87,12.27-1.21a15.57,15.57,0,0,1,9,4.28C303.51,145.65,296.68,149.25,290.5,148.19Z"/><path class="cls-1" d="M297.71,128.16a16.82,16.82,0,0,0-1.42,9.54c0,.07,6.12-3,8.18-8a12.07,12.07,0,0,0-.24-9.38A26.14,26.14,0,0,0,297.71,128.16Z"/><path class="cls-1" d="M305.17,141.55a11.66,11.66,0,0,1-9-4c.07,0,5.81-2.9,11.29-3.21a15.28,15.28,0,0,1,9.41,2.6C317,136.92,311.18,141.55,305.17,141.55Z"/><path class="cls-1" d="M308.14,121a16.68,16.68,0,0,0,.47,9.47c0,.07,5.24-3.91,6.29-9.17a12,12,0,0,0-2-9A24.66,24.66,0,0,0,308.14,121Z"/><path class="cls-1" d="M317.8,132.67a11.42,11.42,0,0,1-9.3-2.37c.06,0,5-3.79,10.17-5a15.11,15.11,0,0,1,9.55.9C328.29,126.16,323.53,131.65,317.8,132.67Z"/><path class="cls-1" d="M316.85,112.23a16.37,16.37,0,0,0,2.18,9.1c0,.07,4.33-4.69,4.42-10a12,12,0,0,0-3.5-8.47A23.87,23.87,0,0,0,316.85,112.23Z"/><path class="cls-1" d="M328.31,121.9a11.24,11.24,0,0,1-9.42-.7c.06,0,4.09-4.53,8.94-6.64a14.93,14.93,0,0,1,9.44-.79C337.34,113.75,333.67,119.92,328.31,121.9Z"/><path class="cls-1" d="M323.76,102.19a16.32,16.32,0,0,0,3.71,8.48c0,.06,3.4-5.32,2.58-10.5a11.74,11.74,0,0,0-4.87-7.64A23.75,23.75,0,0,0,323.76,102.19Z"/><path class="cls-1" d="M336.61,109.6a11.11,11.11,0,0,1-9.29,1c.05,0,3.18-5.12,7.56-8A14.84,14.84,0,0,1,344,100.1C344,100.07,341.49,106.73,336.61,109.6Z"/><path class="cls-1" d="M328.79,91.18a15.88,15.88,0,0,0,5.08,7.62c0,.06,2.41-5.79.75-10.72a11.55,11.55,0,0,0-6-6.63A23.59,23.59,0,0,0,328.79,91.18Z"/><path class="cls-1" d="M342.63,96.14a11.09,11.09,0,0,1-8.93,2.59c.05,0,2.24-5.56,6-9.2a15,15,0,0,1,8.5-4C348.3,85.48,346.92,92.47,342.63,96.14Z"/><path class="cls-1" d="M331.89,79.48a15.59,15.59,0,0,0,6.24,6.58s1.4-6.12-1.05-10.67a11.28,11.28,0,0,0-7-5.44A23.34,23.34,0,0,0,331.89,79.48Z"/><path class="cls-1" d="M346.27,81.87A11.08,11.08,0,0,1,338,86a31.49,31.49,0,0,1,4.39-10.11A15.14,15.14,0,0,1,350,70.42C350,70.38,349.86,77.51,346.27,81.87Z"/><path class="cls-1" d="M333,67.4a15.23,15.23,0,0,0,7.21,5.37s.35-6.28-2.82-10.35a11.15,11.15,0,0,0-7.81-4.13A23.74,23.74,0,0,0,333,67.4Z"/><path class="cls-1" d="M347.45,67.18A11.26,11.26,0,0,1,340,72.76,32.16,32.16,0,0,1,342.59,62a15.23,15.23,0,0,1,6.55-6.8S350.23,62.23,347.45,67.18Z"/><path class="cls-1" d="M332,55.24a15.07,15.07,0,0,0,8,4c.05,0-.74-6.29-4.57-9.77A11,11,0,0,0,327,46.78,24.82,24.82,0,0,0,332,55.24Z"/><path class="cls-1" d="M346.08,52.42a11.21,11.21,0,0,1-6.32,6.87,33.9,33.9,0,0,1,.65-11.17,15.45,15.45,0,0,1,5.18-7.95C345.63,40.12,348,47,346.08,52.42Z"/><path class="cls-1" d="M328.77,43.3a14.7,14.7,0,0,0,8.56,2.6c.06,0-1.86-6.14-6.29-8.95a10.84,10.84,0,0,0-8.75-1.25A25.85,25.85,0,0,0,328.77,43.3Z"/><path class="cls-1" d="M342.09,38a11.26,11.26,0,0,1-4.93,8,36.24,36.24,0,0,1-1.44-11.28,15.6,15.6,0,0,1,3.54-8.89C339.29,25.72,342.92,32.23,342.09,38Z"/><path class="cls-1" d="M323.36,31.89a14.56,14.56,0,0,0,8.91,1.1c.07,0-3-5.83-8-7.9a10.72,10.72,0,0,0-8.91.26C315.45,25.36,318.94,29.75,323.36,31.89Z"/><path class="cls-1" d="M335.38,24.18a11.22,11.22,0,0,1-3.26,8.89A39.24,39.24,0,0,1,328.44,22a15.84,15.84,0,0,1,1.63-9.59C330.09,12.33,335.06,18.27,335.38,24.18Z"/><path class="cls-1" d="M315.63,21.3a14.3,14.3,0,0,0,9.06-.42c.07,0-4.22-5.36-9.64-6.63A10.52,10.52,0,0,0,306.21,16C306.29,16,310.79,19.9,315.63,21.3Z"/><path class="cls-1" d="M325.87,11.44A11.25,11.25,0,0,1,324.55,21a44.91,44.91,0,0,1-6.06-10.59,16.48,16.48,0,0,1-.57-10C317.93.32,324.28,5.52,325.87,11.44Z"/><path class="cls-1" d="M262.57,144.29l.1-1.07a66.25,66.25,0,0,0,26.38-2.95,69.72,69.72,0,0,0,23.07-12.63A73.37,73.37,0,0,0,338.21,80.2c2-15.39,1-29.1-3.07-40.75a54.29,54.29,0,0,0-23-29.1l.57-.92A55.4,55.4,0,0,1,336.16,39.1c4.11,11.81,5.16,25.69,3.12,41.24a74.43,74.43,0,0,1-26.47,48.13,71,71,0,0,1-23.43,12.83A67.29,67.29,0,0,1,262.57,144.29Z"/><path class="cls-1" d="M146.86,33.79a10.94,10.94,0,0,1,4.32,1.73A4.65,4.65,0,0,1,153,39.29a5,5,0,0,1-2,4q-2.4,1.93-7,1.93H133v-.59a4.88,4.88,0,0,0,2-.28,1.59,1.59,0,0,0,.75-.72,6.77,6.77,0,0,0,.21-2.2v-14a6.77,6.77,0,0,0-.21-2.2,1.55,1.55,0,0,0-.76-.73,5.08,5.08,0,0,0-2-.27v-.59h10.36a14.72,14.72,0,0,1,5.26.66,5.43,5.43,0,0,1,2.44,2,4.88,4.88,0,0,1,.9,2.8,4,4,0,0,1-1.14,2.78A8.13,8.13,0,0,1,146.86,33.79Zm-5.81.81v7.73a1.72,1.72,0,0,0,.44,1.3,1.76,1.76,0,0,0,1.3.44,5,5,0,0,0,2.35-.57,3.79,3.79,0,0,0,1.65-1.64,5,5,0,0,0,.57-2.4,5.3,5.3,0,0,0-.7-2.72,3.8,3.8,0,0,0-1.93-1.68A10.48,10.48,0,0,0,141.05,34.6Zm0-1.24a8.2,8.2,0,0,0,3.34-.51A3.76,3.76,0,0,0,146,31.41a4.35,4.35,0,0,0,.58-2.36,4.37,4.37,0,0,0-.57-2.35,3.59,3.59,0,0,0-1.62-1.4,8.57,8.57,0,0,0-3.38-.46Z"/><path class="cls-1" d="M163.32,24.87v8.8h.43a3.42,3.42,0,0,0,3-1.29,7.9,7.9,0,0,0,1.18-3.81h.61V39.89h-.61a8.55,8.55,0,0,0-.81-3,3.43,3.43,0,0,0-1.42-1.58,5.46,5.46,0,0,0-2.36-.41V41a9,9,0,0,0,.15,2.19,1.34,1.34,0,0,0,.56.65,2.68,2.68,0,0,0,1.34.26h1.3a7,7,0,0,0,7.47-5.68h.59l-1,6.87H155.07v-.59h.72a3.06,3.06,0,0,0,1.52-.33,1.5,1.5,0,0,0,.63-.77,6.37,6.37,0,0,0,.18-2V27.33a11.66,11.66,0,0,0-.08-1.8,1.49,1.49,0,0,0-.59-.86,2.73,2.73,0,0,0-1.66-.45h-.72v-.59h18.1V30h-.6a7.91,7.91,0,0,0-1.3-3.36,4.86,4.86,0,0,0-2.37-1.5,12.87,12.87,0,0,0-3.35-.29Z"/><path class="cls-1" d="M192.34,23.13l.17,7.21h-.65A7.41,7.41,0,0,0,189.59,26a5.72,5.72,0,0,0-3.92-1.65,3.65,3.65,0,0,0-2.57.87,2.66,2.66,0,0,0-.95,2,2.49,2.49,0,0,0,.33,1.28A5.49,5.49,0,0,0,184,30a34.43,34.43,0,0,0,3.46,1.87,15.18,15.18,0,0,1,5.11,3.52,5.9,5.9,0,0,1,1.31,3.79,6.13,6.13,0,0,1-2.11,4.67,7.61,7.61,0,0,1-5.37,1.95,8.58,8.58,0,0,1-1.93-.21,13.42,13.42,0,0,1-2.28-.78,3.51,3.51,0,0,0-1.25-.32,1.59,1.59,0,0,0-.88.32,2.25,2.25,0,0,0-.75,1h-.59V37.58h.59a9.42,9.42,0,0,0,2.7,5.26,6.36,6.36,0,0,0,4.31,1.81,4.06,4.06,0,0,0,2.85-1,3,3,0,0,0,1.06-2.26,2.85,2.85,0,0,0-.41-1.48,4.7,4.7,0,0,0-1.23-1.37,18.35,18.35,0,0,0-2.94-1.68,25.8,25.8,0,0,1-4.24-2.47,7.54,7.54,0,0,1-2-2.28,5.71,5.71,0,0,1-.7-2.78,5.89,5.89,0,0,1,1.9-4.4,6.66,6.66,0,0,1,4.79-1.82,8.15,8.15,0,0,1,2,.26,10.08,10.08,0,0,1,1.82.71,4.45,4.45,0,0,0,1.51.52.84.84,0,0,0,.65-.26,3,3,0,0,0,.45-1.23Z"/><path class="cls-1" d="M215.77,23.63v5.85h-.57a9.35,9.35,0,0,0-1.13-2.91,4.42,4.42,0,0,0-1.71-1.41,5.49,5.49,0,0,0-2.12-.29h-1.61V41.55a6.86,6.86,0,0,0,.18,2.07,1.62,1.62,0,0,0,.72.73,2.86,2.86,0,0,0,1.46.31h.72v.59H200.38v-.59h.72a3.06,3.06,0,0,0,1.52-.33,1.58,1.58,0,0,0,.65-.77,6.37,6.37,0,0,0,.18-2V24.87h-1.57a4.53,4.53,0,0,0-3.17.93A6.12,6.12,0,0,0,197,29.48h-.61V23.63Z"/><path class="cls-1" d="M71.76,77.91v-.59h.72a2.81,2.81,0,0,0,1.44-.3,1.74,1.74,0,0,0,.74-.8,7.38,7.38,0,0,0,.15-2V60a7,7,0,0,0-.18-2.07,1.53,1.53,0,0,0-.71-.72,2.79,2.79,0,0,0-1.44-.32h-.72v-.59h9.68a15.57,15.57,0,0,1,6.24,1.06,9.2,9.2,0,0,1,4.37,3.9,12.48,12.48,0,0,1,.76,10.12,9.55,9.55,0,0,1-1.9,3.17,9.07,9.07,0,0,1-2.68,2,14.37,14.37,0,0,1-3.73,1.18,18.35,18.35,0,0,1-3.06.19ZM80,57.51V74.38A6.38,6.38,0,0,0,80.13,76a1,1,0,0,0,.43.46,2.64,2.64,0,0,0,1.25.24,4.82,4.82,0,0,0,4.06-1.82q1.92-2.46,1.92-7.62a14.36,14.36,0,0,0-1.31-6.65A5.59,5.59,0,0,0,83.82,58,10.36,10.36,0,0,0,80,57.51Z"/><path class="cls-1" d="M103.9,57.53v8.8h.43a3.41,3.41,0,0,0,3-1.29,7.9,7.9,0,0,0,1.18-3.81h.61V72.55h-.61a8.56,8.56,0,0,0-.8-3,3.48,3.48,0,0,0-1.43-1.59,5.45,5.45,0,0,0-2.36-.4v6.09a8.79,8.79,0,0,0,.15,2.18,1.29,1.29,0,0,0,.57.66,2.64,2.64,0,0,0,1.34.25h1.29A7,7,0,0,0,114.73,71h.59l-1,6.88H95.66v-.59h.71A2.93,2.93,0,0,0,97.89,77a1.44,1.44,0,0,0,.64-.76,6.94,6.94,0,0,0,.17-2V60a10.59,10.59,0,0,0-.08-1.8,1.48,1.48,0,0,0-.59-.86,2.71,2.71,0,0,0-1.66-.45h-.71v-.59h18.09v6.4h-.6a7.83,7.83,0,0,0-1.3-3.37,4.77,4.77,0,0,0-2.37-1.49,12.38,12.38,0,0,0-3.35-.29Z"/><path class="cls-1" d="M140.34,56.28v.59a3.52,3.52,0,0,0-2.1,1.26,19.69,19.69,0,0,0-2,3.75L128.8,78.4h-.53l-7.41-17.19a21.7,21.7,0,0,0-1.8-3.65,2.58,2.58,0,0,0-1.71-.69v-.59h10.36v.59h-.35a3.56,3.56,0,0,0-1.91.36.79.79,0,0,0-.37.7,2.5,2.5,0,0,0,.13.68c.09.26.37,1,.86,2.09l4.61,10.76L135,61.88a22.73,22.73,0,0,0,.94-2.33,3.48,3.48,0,0,0,.18-1,1.47,1.47,0,0,0-.26-.85,1.54,1.54,0,0,0-.75-.55,5,5,0,0,0-1.81-.28v-.59Z"/><path class="cls-1" d="M151,57.53v8.8h.44a3.42,3.42,0,0,0,3-1.29,8,8,0,0,0,1.18-3.81h.6V72.55h-.6a8.55,8.55,0,0,0-.81-3,3.42,3.42,0,0,0-1.43-1.59,5.42,5.42,0,0,0-2.36-.4v6.09a8.58,8.58,0,0,0,.16,2.18,1.32,1.32,0,0,0,.56.66,2.67,2.67,0,0,0,1.34.25h1.29A7,7,0,0,0,161.85,71h.59l-1,6.88H142.78v-.59h.72A2.89,2.89,0,0,0,145,77a1.44,1.44,0,0,0,.64-.76,6.46,6.46,0,0,0,.18-2V60a11.86,11.86,0,0,0-.08-1.8,1.58,1.58,0,0,0-.59-.86,2.75,2.75,0,0,0-1.66-.45h-.72v-.59h18.1v6.4h-.61a7.83,7.83,0,0,0-1.3-3.37,4.7,4.7,0,0,0-2.36-1.49,12.48,12.48,0,0,0-3.35-.29Z"/><path class="cls-1" d="M185,70.32l-.81,7.59H165v-.59h.72a2.91,2.91,0,0,0,1.51-.34,1.44,1.44,0,0,0,.64-.76,6.94,6.94,0,0,0,.17-2V60a7.48,7.48,0,0,0-.17-2.07,1.63,1.63,0,0,0-.71-.72,2.84,2.84,0,0,0-1.44-.32H165v-.59h11.53v.59h-.94a3,3,0,0,0-1.52.34,1.5,1.5,0,0,0-.65.76,6.46,6.46,0,0,0-.18,2V73.76a7.21,7.21,0,0,0,.19,2.11,1.27,1.27,0,0,0,.75.68,7.3,7.3,0,0,0,1.93.15h1.8a6.13,6.13,0,0,0,2.87-.61,5.31,5.31,0,0,0,2-1.91,15.59,15.59,0,0,0,1.59-3.86Z"/><path class="cls-1" d="M199.39,56A10.74,10.74,0,0,1,211,67a11.52,11.52,0,0,1-2.41,7.24,10.7,10.7,0,0,1-9,4.14q-5.84,0-9-4A11.48,11.48,0,0,1,188.05,67a10.78,10.78,0,0,1,3.28-8A10.42,10.42,0,0,1,199.39,56Zm.19,1a4.87,4.87,0,0,0-4.51,3,16.21,16.21,0,0,0-1.26,7.15c0,3.68.64,6.41,1.94,8.18a4.46,4.46,0,0,0,3.8,1.85,4.56,4.56,0,0,0,2.74-.8,6.58,6.58,0,0,0,2.18-3.26,18.18,18.18,0,0,0,.78-5.85,19.4,19.4,0,0,0-.79-6.41,6.19,6.19,0,0,0-2-3A4.81,4.81,0,0,0,199.58,57Z"/><path class="cls-1" d="M221.1,68.12v6a6.46,6.46,0,0,0,.22,2.21,1.59,1.59,0,0,0,.76.73,5.15,5.15,0,0,0,2,.27v.59h-11v-.59a5.12,5.12,0,0,0,2-.28,1.63,1.63,0,0,0,.74-.73,6.39,6.39,0,0,0,.22-2.2v-14a6.46,6.46,0,0,0-.22-2.21,1.55,1.55,0,0,0-.75-.72,5.09,5.09,0,0,0-2-.28v-.59h9.43c3.1,0,5.33.56,6.68,1.66a5.15,5.15,0,0,1,2,4.15,5.26,5.26,0,0,1-1.31,3.6,6.62,6.62,0,0,1-3.6,2A24.14,24.14,0,0,1,221.1,68.12Zm0-10.59v9.34l.8,0a3.86,3.86,0,0,0,3-1.15,5.19,5.19,0,0,0,1-3.58,5,5,0,0,0-1-3.52,4.12,4.12,0,0,0-3.15-1.12Z"/><path class="cls-1" d="M241,57.53v8.8h.43a3.41,3.41,0,0,0,3-1.29,7.9,7.9,0,0,0,1.18-3.81h.61V72.55h-.61a8.35,8.35,0,0,0-.8-3,3.48,3.48,0,0,0-1.43-1.59,5.45,5.45,0,0,0-2.36-.4v6.09a8.79,8.79,0,0,0,.15,2.18,1.29,1.29,0,0,0,.57.66,2.64,2.64,0,0,0,1.34.25h1.29A7,7,0,0,0,251.82,71h.59l-1,6.88H232.75v-.59h.71A2.93,2.93,0,0,0,235,77a1.44,1.44,0,0,0,.64-.76,6.94,6.94,0,0,0,.17-2V60a10.59,10.59,0,0,0-.08-1.8,1.48,1.48,0,0,0-.59-.86,2.71,2.71,0,0,0-1.66-.45h-.71v-.59h18.1v6.4h-.61a7.83,7.83,0,0,0-1.3-3.37,4.77,4.77,0,0,0-2.37-1.49,12.38,12.38,0,0,0-3.35-.29Z"/><path class="cls-1" d="M263,68.05v6.06a6.46,6.46,0,0,0,.22,2.21,1.57,1.57,0,0,0,.75.73,5.18,5.18,0,0,0,2,.27v.59H255v-.59a5.12,5.12,0,0,0,2-.28,1.71,1.71,0,0,0,.75-.73,6.77,6.77,0,0,0,.21-2.2v-14a6.84,6.84,0,0,0-.21-2.21,1.62,1.62,0,0,0-.76-.72,5.09,5.09,0,0,0-2-.28v-.59h10a21.93,21.93,0,0,1,5.74.55,5.83,5.83,0,0,1,3,2,5.38,5.38,0,0,1,1.14,3.42,5.1,5.1,0,0,1-1.72,4,7.1,7.1,0,0,1-3.08,1.49l5.2,7.32a11.33,11.33,0,0,0,1.45,1.76,2.78,2.78,0,0,0,1.52.55v.59h-6.81l-7-9.86Zm0-10.6v9.47H264a10.21,10.21,0,0,0,3.32-.41A3.33,3.33,0,0,0,269,65.05a5.38,5.38,0,0,0,.63-2.77,4.2,4.2,0,0,0-4.88-4.83Z"/><path class="cls-1" d="M76,97.84v10.65H74.2V97.84Z"/><path class="cls-1" d="M85.15,100.32a3,3,0,0,1,1.23,1.23,4,4,0,0,1,.44,2v5H85.09v-4.72a2.43,2.43,0,0,0-.56-1.74,2.3,2.3,0,0,0-3.1,0,2.39,2.39,0,0,0-.58,1.74v4.72H79.11v-8.44h1.74v1a3,3,0,0,1,1.1-.81,3.52,3.52,0,0,1,1.41-.29A3.87,3.87,0,0,1,85.15,100.32Z"/><path class="cls-1" d="M89.82,102a3.83,3.83,0,0,1,3.47-2.07,4,4,0,0,1,1.63.36,3.33,3.33,0,0,1,1.28,1V97.15H98v11.34H96.2v-1.27a3.4,3.4,0,0,1-1.19,1,3.72,3.72,0,0,1-1.74.39,3.8,3.8,0,0,1-2-.55,4,4,0,0,1-1.44-1.57,4.78,4.78,0,0,1-.53-2.27A4.67,4.67,0,0,1,89.82,102Zm6,.76a2.45,2.45,0,0,0-2.2-1.31,2.46,2.46,0,0,0-1.25.33,2.5,2.5,0,0,0-1,1,3,3,0,0,0-.36,1.51,3.14,3.14,0,0,0,.36,1.53,2.55,2.55,0,0,0,1,1,2.46,2.46,0,0,0,1.25.35,2.47,2.47,0,0,0,2.2-1.33,3.39,3.39,0,0,0,0-3Z"/><path class="cls-1" d="M102.6,108.08a3.86,3.86,0,0,1-1.52-1.53,4.59,4.59,0,0,1-.55-2.29,4.49,4.49,0,0,1,.57-2.28,3.78,3.78,0,0,1,1.54-1.53,4.5,4.5,0,0,1,2.19-.54,4.44,4.44,0,0,1,2.19.54,3.8,3.8,0,0,1,1.55,1.53,4.49,4.49,0,0,1,.57,2.28,4.4,4.4,0,0,1-.59,2.28,3.9,3.9,0,0,1-1.58,1.54,4.6,4.6,0,0,1-2.21.54A4.33,4.33,0,0,1,102.6,108.08Zm3.42-1.29a2.56,2.56,0,0,0,1-1,3.16,3.16,0,0,0,.36-1.56,3.09,3.09,0,0,0-.35-1.55,2.27,2.27,0,0,0-.93-1,2.51,2.51,0,0,0-1.26-.32,2.48,2.48,0,0,0-1.25.32,2.29,2.29,0,0,0-.91,1,3.32,3.32,0,0,0-.33,1.55,3,3,0,0,0,.69,2.11,2.33,2.33,0,0,0,1.76.74A2.62,2.62,0,0,0,106,106.79Z"/><path class="cls-1" d="M117.75,100.32a3,3,0,0,1,1.23,1.23,4,4,0,0,1,.44,2v5h-1.73v-4.72a2.43,2.43,0,0,0-.56-1.74,2.3,2.3,0,0,0-3.1,0,2.39,2.39,0,0,0-.58,1.74v4.72h-1.74v-8.44h1.74v1a3,3,0,0,1,1.1-.81,3.52,3.52,0,0,1,1.41-.29A3.87,3.87,0,0,1,117.75,100.32Z"/><path class="cls-1" d="M130.15,104.92H123.7a2.32,2.32,0,0,0,2.4,2.23,2,2,0,0,0,2-1.18H130a3.8,3.8,0,0,1-1.39,1.91,4,4,0,0,1-2.49.74,4.3,4.3,0,0,1-2.16-.54,3.81,3.81,0,0,1-1.5-1.53,4.59,4.59,0,0,1-.55-2.29,4.81,4.81,0,0,1,.53-2.29,3.64,3.64,0,0,1,1.49-1.52,4.36,4.36,0,0,1,2.19-.54,4.25,4.25,0,0,1,2.13.52,3.73,3.73,0,0,1,1.46,1.46,4.49,4.49,0,0,1,.52,2.17A5.61,5.61,0,0,1,130.15,104.92Zm-1.76-1.41a2,2,0,0,0-.69-1.55,2.46,2.46,0,0,0-1.67-.58,2.27,2.27,0,0,0-1.55.57,2.48,2.48,0,0,0-.77,1.56Z"/><path class="cls-1" d="M134,108.27a3.26,3.26,0,0,1-1.25-1,2.46,2.46,0,0,1-.49-1.38h1.81a1.22,1.22,0,0,0,.51.89,1.9,1.9,0,0,0,1.18.36,2,2,0,0,0,1.14-.28.85.85,0,0,0,.4-.73.74.74,0,0,0-.45-.7,9.36,9.36,0,0,0-1.43-.51,14.33,14.33,0,0,1-1.55-.5,2.71,2.71,0,0,1-1-.75,2,2,0,0,1-.44-1.33,2.06,2.06,0,0,1,.4-1.24,2.71,2.71,0,0,1,1.14-.88,4.38,4.38,0,0,1,1.71-.32,3.5,3.5,0,0,1,2.32.73,2.58,2.58,0,0,1,.94,2h-1.75a1.23,1.23,0,0,0-.45-.9,1.7,1.7,0,0,0-1.12-.34,1.86,1.86,0,0,0-1.06.26.81.81,0,0,0-.37.69.75.75,0,0,0,.25.57,1.78,1.78,0,0,0,.6.36l1,.33a12.86,12.86,0,0,1,1.51.49,2.76,2.76,0,0,1,1,.75,1.93,1.93,0,0,1,.45,1.3,2.12,2.12,0,0,1-.4,1.28,2.6,2.6,0,0,1-1.13.89,4.06,4.06,0,0,1-1.7.32A4.43,4.43,0,0,1,134,108.27Z"/><path class="cls-1" d="M141.74,98.61a1.16,1.16,0,0,1,0-1.6,1.14,1.14,0,0,1,1.58,0,1.16,1.16,0,0,1,0,1.6,1.14,1.14,0,0,1-1.58,0Zm1.65,1.44v8.44h-1.74v-8.44Z"/><path class="cls-1" d="M146.46,102a3.83,3.83,0,0,1,3.45-2.07,3.72,3.72,0,0,1,1.74.39,3.46,3.46,0,0,1,1.18,1v-1.22h1.77v8.44h-1.77v-1.26a3.37,3.37,0,0,1-1.21,1,3.78,3.78,0,0,1-1.74.39,3.7,3.7,0,0,1-2-.55,4,4,0,0,1-1.43-1.57,4.67,4.67,0,0,1-.53-2.27A4.56,4.56,0,0,1,146.46,102Zm6,.76a2.56,2.56,0,0,0-.95-1,2.49,2.49,0,0,0-1.25-.33,2.52,2.52,0,0,0-1.26.33,2.48,2.48,0,0,0-.94,1,3,3,0,0,0-.36,1.51,3.14,3.14,0,0,0,.36,1.53,2.55,2.55,0,0,0,.95,1,2.43,2.43,0,0,0,1.25.35,2.4,2.4,0,0,0,1.25-.34,2.46,2.46,0,0,0,.95-1,3.48,3.48,0,0,0,0-3Z"/><path class="cls-1" d="M169.47,102.54a3,3,0,0,1-1.23,1.18,4.56,4.56,0,0,1-2.16.45h-1.93v4.32h-1.74V97.84h3.67a4.67,4.67,0,0,1,2.08.42,2.89,2.89,0,0,1,1.27,1.14,3.14,3.14,0,0,1,.42,1.61A3.27,3.27,0,0,1,169.47,102.54Zm-1.9-.25a1.64,1.64,0,0,0,.49-1.28q0-1.74-2-1.74h-1.93v3.47h1.93A2.14,2.14,0,0,0,167.57,102.29Z"/><path class="cls-1" d="M174.93,100.27a3,3,0,0,1,1.51-.36v1.81H176a2.11,2.11,0,0,0-1.55.52,2.45,2.45,0,0,0-.53,1.81v4.44h-1.75v-8.44h1.75v1.22A2.65,2.65,0,0,1,174.93,100.27Z"/><path class="cls-1" d="M180.21,108.08a3.86,3.86,0,0,1-1.52-1.53,5,5,0,0,1,0-4.57,3.87,3.87,0,0,1,1.55-1.53,4.5,4.5,0,0,1,2.19-.54,4.44,4.44,0,0,1,2.19.54,3.8,3.8,0,0,1,1.55,1.53,4.49,4.49,0,0,1,.57,2.28,4.4,4.4,0,0,1-.59,2.28,3.9,3.9,0,0,1-1.58,1.54,4.6,4.6,0,0,1-2.21.54A4.33,4.33,0,0,1,180.21,108.08Zm3.42-1.29a2.56,2.56,0,0,0,1-1,3.16,3.16,0,0,0,.36-1.56,3.09,3.09,0,0,0-.35-1.55,2.27,2.27,0,0,0-.93-1,2.51,2.51,0,0,0-1.26-.32,2.48,2.48,0,0,0-1.25.32,2.29,2.29,0,0,0-.91,1,3.32,3.32,0,0,0-.34,1.55,3,3,0,0,0,.7,2.11,2.33,2.33,0,0,0,1.76.74A2.65,2.65,0,0,0,183.63,106.79Z"/><path class="cls-1" d="M192.26,100.31a3.65,3.65,0,0,1,1.73-.4,3.8,3.8,0,0,1,3.45,2.07,4.67,4.67,0,0,1,.52,2.25,4.78,4.78,0,0,1-.52,2.27,4,4,0,0,1-1.43,1.57,3.81,3.81,0,0,1-2,.55,3.65,3.65,0,0,1-1.71-.39,3.87,3.87,0,0,1-1.23-1v5.24h-1.74V100.05h1.74v1.24A3.5,3.5,0,0,1,192.26,100.31Zm3.56,2.41a2.44,2.44,0,0,0-.95-1,2.55,2.55,0,0,0-2.51,0,2.56,2.56,0,0,0-1,1,3.39,3.39,0,0,0,0,3,2.46,2.46,0,0,0,1,1,2.46,2.46,0,0,0,2.51,0,2.48,2.48,0,0,0,.95-1,3.14,3.14,0,0,0,.36-1.53A3,3,0,0,0,195.82,102.72Z"/><path class="cls-1" d="M208.27,104.92h-6.45a2.34,2.34,0,0,0,.75,1.62,2.36,2.36,0,0,0,1.66.61,2,2,0,0,0,2-1.18h1.88a3.72,3.72,0,0,1-1.38,1.91,4,4,0,0,1-2.49.74,4.34,4.34,0,0,1-2.17-.54,3.81,3.81,0,0,1-1.5-1.53,4.7,4.7,0,0,1-.54-2.29,4.8,4.8,0,0,1,.52-2.29,3.7,3.7,0,0,1,1.49-1.52,4.4,4.4,0,0,1,2.2-.54,4.31,4.31,0,0,1,2.13.52,3.77,3.77,0,0,1,1.45,1.46,4.38,4.38,0,0,1,.52,2.17A5.61,5.61,0,0,1,208.27,104.92Zm-1.76-1.41a2,2,0,0,0-.69-1.55,2.46,2.46,0,0,0-1.67-.58,2.27,2.27,0,0,0-1.55.57,2.47,2.47,0,0,0-.76,1.56Z"/><path class="cls-1" d="M213.66,100.27a3,3,0,0,1,1.51-.36v1.81h-.45a2.11,2.11,0,0,0-1.55.52,2.45,2.45,0,0,0-.53,1.81v4.44h-1.75v-8.44h1.75v1.22A2.65,2.65,0,0,1,213.66,100.27Z"/><path class="cls-1" d="M219.84,101.47v4.67a.91.91,0,0,0,.22.69,1.15,1.15,0,0,0,.76.2h1.07v1.46h-1.38a2.7,2.7,0,0,1-1.81-.55,2.29,2.29,0,0,1-.63-1.8v-4.67h-1v-1.42h1V98h1.77v2.1h2v1.42Z"/><path class="cls-1" d="M232.25,100.05l-5.18,12.4h-1.8l1.71-4.1-3.32-8.3h1.94l2.38,6.43,2.46-6.43Z"/><path class="cls-1" d="M240.83,99.25v3.13h3.67v1.42h-3.67v3.26H245v1.43h-5.88V97.83H245v1.42Z"/><path class="cls-1" d="M251.62,104.21l2.72,4.28h-2l-1.83-2.87-1.71,2.87H247l2.72-4.15L247,100.05h2l1.82,2.86,1.72-2.86h1.82Z"/><path class="cls-1" d="M259.43,100.31a3.65,3.65,0,0,1,1.73-.4,3.8,3.8,0,0,1,3.45,2.07,4.67,4.67,0,0,1,.52,2.25,4.78,4.78,0,0,1-.52,2.27,4,4,0,0,1-1.43,1.57,3.81,3.81,0,0,1-2,.55,3.65,3.65,0,0,1-1.71-.39,3.87,3.87,0,0,1-1.23-1v5.24h-1.74V100.05h1.74v1.24A3.5,3.5,0,0,1,259.43,100.31Zm3.56,2.41a2.44,2.44,0,0,0-.95-1,2.55,2.55,0,0,0-2.51,0,2.56,2.56,0,0,0-.95,1,3.39,3.39,0,0,0,0,3,2.46,2.46,0,0,0,.95,1,2.46,2.46,0,0,0,2.51,0,2.48,2.48,0,0,0,.95-1,3.14,3.14,0,0,0,.36-1.53A3,3,0,0,0,263,102.72Z"/><path class="cls-1" d="M269.26,108.08a3.92,3.92,0,0,1-1.52-1.53,4.7,4.7,0,0,1-.55-2.29,4.49,4.49,0,0,1,.57-2.28,3.8,3.8,0,0,1,1.55-1.53,4.44,4.44,0,0,1,2.19-.54,4.5,4.5,0,0,1,2.19.54,3.78,3.78,0,0,1,1.54,1.53,4.49,4.49,0,0,1,.57,2.28,4.39,4.39,0,0,1-.58,2.28,4,4,0,0,1-1.59,1.54,4.58,4.58,0,0,1-2.21.54A4.33,4.33,0,0,1,269.26,108.08Zm3.42-1.29a2.42,2.42,0,0,0,1-1,3.05,3.05,0,0,0,.37-1.56,3.2,3.2,0,0,0-.35-1.55,2.35,2.35,0,0,0-.94-1,2.48,2.48,0,0,0-1.25-.32,2.45,2.45,0,0,0-1.25.32,2.17,2.17,0,0,0-.91,1,3.2,3.2,0,0,0-.34,1.55,3,3,0,0,0,.7,2.11,2.31,2.31,0,0,0,1.75.74A2.62,2.62,0,0,0,272.68,106.79Z"/><path class="cls-1" d="M159.48,124.49c1-.85,1.75-1.54,2.32-2.09a9.2,9.2,0,0,0,1.41-1.71,3.25,3.25,0,0,0,.57-1.77,2.16,2.16,0,0,0-.44-1.44A1.67,1.67,0,0,0,162,117a1.76,1.76,0,0,0-1.4.57,2.4,2.4,0,0,0-.53,1.54h-1.68a3.75,3.75,0,0,1,6.21-2.68,3.25,3.25,0,0,1,.94,2.45A4.37,4.37,0,0,1,165,121a8.44,8.44,0,0,1-1.33,1.82c-.52.54-1.17,1.16-2,1.86l-.69.62h4.86v1.45h-7.45v-1.27Z"/><path class="cls-1" d="M169,117a3.94,3.94,0,0,1,6.17,0,8.07,8.07,0,0,1,.9,4.15,8.23,8.23,0,0,1-.9,4.19,3.91,3.91,0,0,1-6.17,0,8.23,8.23,0,0,1-.9-4.19A8.07,8.07,0,0,1,169,117ZM174.2,119a2.72,2.72,0,0,0-.65-1.4,2.2,2.2,0,0,0-2.91,0A2.81,2.81,0,0,0,170,119a11.36,11.36,0,0,0-.16,2.1,13,13,0,0,0,.15,2.16,2.8,2.8,0,0,0,.65,1.41,1.94,1.94,0,0,0,1.47.53,1.92,1.92,0,0,0,1.46-.53,2.72,2.72,0,0,0,.65-1.41,13,13,0,0,0,.15-2.16A11.36,11.36,0,0,0,174.2,119Z"/><path class="cls-1" d="M178.17,117.29V115.7h3.19v11.17h-1.77v-9.58Z"/><path class="cls-1" d="M191.26,117.05,187,126.87h-1.76l4.3-9.64h-5.66v-1.48h7.38Z"/></svg>