<svg id="Layer_1" data-name="Layer 1" xmlns="http://www.w3.org/2000/svg" viewBox="0 0 350 150"><defs><style>.cls-1{fill:#0d5235;}</style></defs><path class="cls-1" d="M37.32,4.16c-3.85,3.51-4.54,9-4.54,9s5.54-.18,9.39-3.69,4.54-9,4.54-9S41.16.65,37.32,4.16Z"/><path class="cls-1" d="M64.37,133.47a17,17,0,0,1,3.47,9.28c0,.07-7-1.88-10.07-6.57a12,12,0,0,1-1.65-9.41A28.39,28.39,0,0,1,64.37,133.47Z"/><path class="cls-1" d="M59.5,148.19a11.83,11.83,0,0,0,8.39-5.62c-.07,0-6.62-1.87-12.27-1.21a15.57,15.57,0,0,0-9,4.28C46.49,145.65,53.32,149.25,59.5,148.19Z"/><path class="cls-1" d="M52.29,128.16a16.82,16.82,0,0,1,1.42,9.54c0,.07-6.12-3-8.18-8a12.07,12.07,0,0,1,.24-9.38A26.14,26.14,0,0,1,52.29,128.16Z"/><path class="cls-1" d="M44.83,141.55a11.66,11.66,0,0,0,9-4c-.07,0-5.81-2.9-11.29-3.21a15.28,15.28,0,0,0-9.41,2.6C33,136.92,38.82,141.55,44.83,141.55Z"/><path class="cls-1" d="M41.86,121a16.68,16.68,0,0,1-.47,9.47c0,.07-5.24-3.91-6.29-9.17a12,12,0,0,1,2-9A24.66,24.66,0,0,1,41.86,121Z"/><path class="cls-1" d="M32.2,132.67a11.42,11.42,0,0,0,9.3-2.37c-.06,0-5-3.79-10.17-5a15.11,15.11,0,0,0-9.55.9C21.71,126.16,26.47,131.65,32.2,132.67Z"/><path class="cls-1" d="M33.15,112.23a16.37,16.37,0,0,1-2.18,9.1c0,.07-4.33-4.69-4.42-10a12,12,0,0,1,3.5-8.47A23.87,23.87,0,0,1,33.15,112.23Z"/><path class="cls-1" d="M21.69,121.9a11.24,11.24,0,0,0,9.42-.7c-.06,0-4.09-4.53-8.94-6.64a14.93,14.93,0,0,0-9.44-.79C12.66,113.75,16.33,119.92,21.69,121.9Z"/><path class="cls-1" d="M26.24,102.19a16.32,16.32,0,0,1-3.71,8.48c0,.06-3.4-5.32-2.58-10.5a11.74,11.74,0,0,1,4.87-7.64A23.75,23.75,0,0,1,26.24,102.19Z"/><path class="cls-1" d="M13.39,109.6a11.11,11.11,0,0,0,9.29,1c-.05,0-3.18-5.12-7.56-8A14.84,14.84,0,0,0,6,100.1C6,100.07,8.51,106.73,13.39,109.6Z"/><path class="cls-1" d="M21.21,91.18a15.88,15.88,0,0,1-5.08,7.62c0,.06-2.41-5.79-.75-10.72a11.55,11.55,0,0,1,6-6.63A23.59,23.59,0,0,1,21.21,91.18Z"/><path class="cls-1" d="M7.37,96.14a11.09,11.09,0,0,0,8.93,2.59c-.05,0-2.24-5.56-6-9.2a15,15,0,0,0-8.5-4C1.7,85.48,3.08,92.47,7.37,96.14Z"/><path class="cls-1" d="M18.11,79.48a15.59,15.59,0,0,1-6.24,6.58s-1.4-6.12,1.05-10.67a11.28,11.28,0,0,1,7-5.44A23.34,23.34,0,0,1,18.11,79.48Z"/><path class="cls-1" d="M3.73,81.87A11.08,11.08,0,0,0,12.05,86,31.49,31.49,0,0,0,7.66,75.9,15.14,15.14,0,0,0,0,70.42S.14,77.51,3.73,81.87Z"/><path class="cls-1" d="M17,67.4a15.23,15.23,0,0,1-7.21,5.37s-.35-6.28,2.82-10.35a11.15,11.15,0,0,1,7.81-4.13A23.74,23.74,0,0,1,17,67.4Z"/><path class="cls-1" d="M2.55,67.18A11.26,11.26,0,0,0,10,72.76,32.16,32.16,0,0,0,7.41,62a15.23,15.23,0,0,0-6.55-6.8S-.23,62.23,2.55,67.18Z"/><path class="cls-1" d="M18.05,55.24a15.07,15.07,0,0,1-8,4c-.05,0,.74-6.29,4.57-9.77A11,11,0,0,1,23,46.78,24.82,24.82,0,0,1,18.05,55.24Z"/><path class="cls-1" d="M3.92,52.42a11.21,11.21,0,0,0,6.32,6.87,33.9,33.9,0,0,0-.65-11.17,15.45,15.45,0,0,0-5.18-7.95C4.37,40.12,2.05,47,3.92,52.42Z"/><path class="cls-1" d="M21.23,43.3a14.7,14.7,0,0,1-8.56,2.6c-.06,0,1.86-6.14,6.29-8.95a10.84,10.84,0,0,1,8.75-1.25A25.85,25.85,0,0,1,21.23,43.3Z"/><path class="cls-1" d="M7.91,38a11.26,11.26,0,0,0,4.93,8,36.24,36.24,0,0,0,1.44-11.28,15.6,15.6,0,0,0-3.54-8.89C10.71,25.72,7.08,32.23,7.91,38Z"/><path class="cls-1" d="M26.64,31.89A14.56,14.56,0,0,1,17.73,33c-.07,0,3-5.83,8-7.9a10.72,10.72,0,0,1,8.91.26C34.55,25.36,31.06,29.75,26.64,31.89Z"/><path class="cls-1" d="M14.62,24.18a11.22,11.22,0,0,0,3.26,8.89A39.24,39.24,0,0,0,21.56,22a15.84,15.84,0,0,0-1.63-9.59C19.91,12.33,14.94,18.27,14.62,24.18Z"/><path class="cls-1" d="M34.37,21.3a14.3,14.3,0,0,1-9.06-.42c-.07,0,4.22-5.36,9.64-6.63A10.52,10.52,0,0,1,43.79,16C43.71,16,39.21,19.9,34.37,21.3Z"/><path class="cls-1" d="M24.13,11.44A11.25,11.25,0,0,0,25.45,21,44.91,44.91,0,0,0,31.51,10.4a16.48,16.48,0,0,0,.57-10C32.07.32,25.72,5.52,24.13,11.44Z"/><path class="cls-1" d="M87.43,144.29l-.1-1.07A66.25,66.25,0,0,1,61,140.27a69.72,69.72,0,0,1-23.07-12.63A73.37,73.37,0,0,1,11.79,80.2c-2-15.39-1-29.1,3.07-40.75a54.29,54.29,0,0,1,23-29.1l-.57-.92A55.4,55.4,0,0,0,13.84,39.1C9.73,50.91,8.68,64.79,10.72,80.34a74.43,74.43,0,0,0,26.47,48.13A71,71,0,0,0,60.62,141.3,67.29,67.29,0,0,0,87.43,144.29Z"/><path class="cls-1" d="M312.68,4.16c3.85,3.51,4.54,9,4.54,9s-5.54-.18-9.39-3.69-4.54-9-4.54-9S308.84.65,312.68,4.16Z"/><path class="cls-1" d="M285.63,133.47a17,17,0,0,0-3.47,9.28c0,.07,6.95-1.88,10.07-6.57a12,12,0,0,0,1.65-9.41A28.39,28.39,0,0,0,285.63,133.47Z"/><path class="cls-1" d="M290.5,148.19a11.83,11.83,0,0,1-8.39-5.62c.07,0,6.62-1.87,12.27-1.21a15.57,15.57,0,0,1,9,4.28C303.51,145.65,296.68,149.25,290.5,148.19Z"/><path class="cls-1" d="M297.71,128.16a16.82,16.82,0,0,0-1.42,9.54c0,.07,6.12-3,8.18-8a12.07,12.07,0,0,0-.24-9.38A26.14,26.14,0,0,0,297.71,128.16Z"/><path class="cls-1" d="M305.17,141.55a11.66,11.66,0,0,1-9-4c.07,0,5.81-2.9,11.29-3.21a15.28,15.28,0,0,1,9.41,2.6C317,136.92,311.18,141.55,305.17,141.55Z"/><path class="cls-1" d="M308.14,121a16.68,16.68,0,0,0,.47,9.47c0,.07,5.24-3.91,6.29-9.17a12,12,0,0,0-2-9A24.66,24.66,0,0,0,308.14,121Z"/><path class="cls-1" d="M317.8,132.67a11.42,11.42,0,0,1-9.3-2.37c.06,0,5-3.79,10.17-5a15.11,15.11,0,0,1,9.55.9C328.29,126.16,323.53,131.65,317.8,132.67Z"/><path class="cls-1" d="M316.85,112.23a16.37,16.37,0,0,0,2.18,9.1c0,.07,4.33-4.69,4.42-10a12,12,0,0,0-3.5-8.47A23.87,23.87,0,0,0,316.85,112.23Z"/><path class="cls-1" d="M328.31,121.9a11.24,11.24,0,0,1-9.42-.7c.06,0,4.09-4.53,8.94-6.64a14.93,14.93,0,0,1,9.44-.79C337.34,113.75,333.67,119.92,328.31,121.9Z"/><path class="cls-1" d="M323.76,102.19a16.32,16.32,0,0,0,3.71,8.48c0,.06,3.4-5.32,2.58-10.5a11.74,11.74,0,0,0-4.87-7.64A23.75,23.75,0,0,0,323.76,102.19Z"/><path class="cls-1" d="M336.61,109.6a11.11,11.11,0,0,1-9.29,1c.05,0,3.18-5.12,7.56-8A14.84,14.84,0,0,1,344,100.1C344,100.07,341.49,106.73,336.61,109.6Z"/><path class="cls-1" d="M328.79,91.18a15.88,15.88,0,0,0,5.08,7.62c0,.06,2.41-5.79.75-10.72a11.55,11.55,0,0,0-6-6.63A23.59,23.59,0,0,0,328.79,91.18Z"/><path class="cls-1" d="M342.63,96.14a11.09,11.09,0,0,1-8.93,2.59c.05,0,2.24-5.56,6-9.2a15,15,0,0,1,8.5-4C348.3,85.48,346.92,92.47,342.63,96.14Z"/><path class="cls-1" d="M331.89,79.48a15.59,15.59,0,0,0,6.24,6.58s1.4-6.12-1.05-10.67a11.28,11.28,0,0,0-7-5.44A23.34,23.34,0,0,0,331.89,79.48Z"/><path class="cls-1" d="M346.27,81.87A11.08,11.08,0,0,1,338,86a31.49,31.49,0,0,1,4.39-10.11A15.14,15.14,0,0,1,350,70.42C350,70.38,349.86,77.51,346.27,81.87Z"/><path class="cls-1" d="M333,67.4a15.23,15.23,0,0,0,7.21,5.37s.35-6.28-2.82-10.35a11.15,11.15,0,0,0-7.81-4.13A23.74,23.74,0,0,0,333,67.4Z"/><path class="cls-1" d="M347.45,67.18A11.26,11.26,0,0,1,340,72.76,32.16,32.16,0,0,1,342.59,62a15.23,15.23,0,0,1,6.55-6.8S350.23,62.23,347.45,67.18Z"/><path class="cls-1" d="M332,55.24a15.07,15.07,0,0,0,8,4c.05,0-.74-6.29-4.57-9.77A11,11,0,0,0,327,46.78,24.82,24.82,0,0,0,332,55.24Z"/><path class="cls-1" d="M346.08,52.42a11.21,11.21,0,0,1-6.32,6.87,33.9,33.9,0,0,1,.65-11.17,15.45,15.45,0,0,1,5.18-7.95C345.63,40.12,348,47,346.08,52.42Z"/><path class="cls-1" d="M328.77,43.3a14.7,14.7,0,0,0,8.56,2.6c.06,0-1.86-6.14-6.29-8.95a10.84,10.84,0,0,0-8.75-1.25A25.85,25.85,0,0,0,328.77,43.3Z"/><path class="cls-1" d="M342.09,38a11.26,11.26,0,0,1-4.93,8,36.24,36.24,0,0,1-1.44-11.28,15.6,15.6,0,0,1,3.54-8.89C339.29,25.72,342.92,32.23,342.09,38Z"/><path class="cls-1" d="M323.36,31.89a14.56,14.56,0,0,0,8.91,1.1c.07,0-3-5.83-8-7.9a10.72,10.72,0,0,0-8.91.26C315.45,25.36,318.94,29.75,323.36,31.89Z"/><path class="cls-1" d="M335.38,24.18a11.22,11.22,0,0,1-3.26,8.89A39.24,39.24,0,0,1,328.44,22a15.84,15.84,0,0,1,1.63-9.59C330.09,12.33,335.06,18.27,335.38,24.18Z"/><path class="cls-1" d="M315.63,21.3a14.3,14.3,0,0,0,9.06-.42c.07,0-4.22-5.36-9.64-6.63A10.52,10.52,0,0,0,306.21,16C306.29,16,310.79,19.9,315.63,21.3Z"/><path class="cls-1" d="M325.87,11.44A11.25,11.25,0,0,1,324.55,21a44.91,44.91,0,0,1-6.06-10.59,16.48,16.48,0,0,1-.57-10C317.93.32,324.28,5.52,325.87,11.44Z"/><path class="cls-1" d="M262.57,144.29l.1-1.07a66.25,66.25,0,0,0,26.38-2.95,69.72,69.72,0,0,0,23.07-12.63A73.37,73.37,0,0,0,338.21,80.2c2-15.39,1-29.1-3.07-40.75a54.29,54.29,0,0,0-23-29.1l.57-.92A55.4,55.4,0,0,1,336.16,39.1c4.11,11.81,5.16,25.69,3.12,41.24a74.43,74.43,0,0,1-26.47,48.13,71,71,0,0,1-23.43,12.83A67.29,67.29,0,0,1,262.57,144.29Z"/><path class="cls-1" d="M146.86,31.7a11.07,11.07,0,0,1,4.32,1.74A4.63,4.63,0,0,1,153,37.2a5,5,0,0,1-2,4c-1.6,1.28-3.94,1.93-7,1.93H133v-.59a4.88,4.88,0,0,0,2-.28,1.61,1.61,0,0,0,.75-.73,6.72,6.72,0,0,0,.21-2.2v-14a6.89,6.89,0,0,0-.21-2.21,1.57,1.57,0,0,0-.76-.72,5.08,5.08,0,0,0-2-.27v-.59h10.36a14.72,14.72,0,0,1,5.26.66,5.43,5.43,0,0,1,2.44,2A4.83,4.83,0,0,1,152,27a4,4,0,0,1-1.14,2.79A8.14,8.14,0,0,1,146.86,31.7Zm-5.81.82v7.73A1.55,1.55,0,0,0,142.77,42a5,5,0,0,0,2.36-.57,3.9,3.9,0,0,0,1.65-1.64,5.06,5.06,0,0,0,.57-2.4,5.27,5.27,0,0,0-.7-2.72A3.8,3.8,0,0,0,144.72,33,10.48,10.48,0,0,0,141.05,32.52Zm0-1.25a8.2,8.2,0,0,0,3.34-.51A3.8,3.8,0,0,0,146,29.33a4.37,4.37,0,0,0,.58-2.36,4.37,4.37,0,0,0-.57-2.35,3.58,3.58,0,0,0-1.62-1.4,8.57,8.57,0,0,0-3.38-.46Z"/><path class="cls-1" d="M163.32,22.79v8.8h.43a3.42,3.42,0,0,0,3-1.29,8,8,0,0,0,1.18-3.81h.6V37.81h-.6a8.55,8.55,0,0,0-.81-3,3.52,3.52,0,0,0-1.42-1.59,5.48,5.48,0,0,0-2.36-.4v6.09a8.79,8.79,0,0,0,.15,2.18,1.32,1.32,0,0,0,.56.66,2.69,2.69,0,0,0,1.34.25h1.3a7.78,7.78,0,0,0,4.85-1.4,7.81,7.81,0,0,0,2.62-4.27h.59l-1,6.87H155.07v-.59h.72a3,3,0,0,0,1.52-.34,1.47,1.47,0,0,0,.63-.76,6.46,6.46,0,0,0,.18-2V25.25a11.93,11.93,0,0,0-.08-1.81,1.53,1.53,0,0,0-.59-.86,2.73,2.73,0,0,0-1.66-.44h-.72v-.59h18.1v6.39h-.61a7.79,7.79,0,0,0-1.29-3.36,4.86,4.86,0,0,0-2.37-1.5,12.87,12.87,0,0,0-3.35-.29Z"/><path class="cls-1" d="M192.34,21.05l.17,7.21h-.65a7.41,7.41,0,0,0-2.27-4.36,5.74,5.74,0,0,0-3.92-1.65,3.65,3.65,0,0,0-2.57.87,2.65,2.65,0,0,0-.95,2,2.43,2.43,0,0,0,.33,1.27A5.51,5.51,0,0,0,184,27.88a31.94,31.94,0,0,0,3.46,1.86,15.32,15.32,0,0,1,5.11,3.53,5.9,5.9,0,0,1,1.31,3.79,6.11,6.11,0,0,1-2.11,4.66,7.58,7.58,0,0,1-5.37,2,8.58,8.58,0,0,1-1.93-.21,15.48,15.48,0,0,1-2.28-.78,3.51,3.51,0,0,0-1.25-.32,1.59,1.59,0,0,0-.88.32,2.22,2.22,0,0,0-.75,1h-.59V35.5h.59a9.39,9.39,0,0,0,2.7,5.25,6.3,6.3,0,0,0,4.31,1.81,4.05,4.05,0,0,0,2.85-1,2.93,2.93,0,0,0,.65-3.75,4.67,4.67,0,0,0-1.23-1.36,18.35,18.35,0,0,0-2.94-1.68,25.8,25.8,0,0,1-4.24-2.47,7.54,7.54,0,0,1-2-2.28,5.71,5.71,0,0,1-.7-2.78,5.89,5.89,0,0,1,1.9-4.4,6.65,6.65,0,0,1,4.78-1.82,8.17,8.17,0,0,1,2.05.26,9.38,9.38,0,0,1,1.82.71,4.36,4.36,0,0,0,1.51.51.84.84,0,0,0,.65-.25,3,3,0,0,0,.45-1.23Z"/><path class="cls-1" d="M215.77,21.55V27.4h-.57a9.35,9.35,0,0,0-1.13-2.91,4.42,4.42,0,0,0-1.71-1.41,5.49,5.49,0,0,0-2.12-.29h-1.61V39.47a6.91,6.91,0,0,0,.18,2.07,1.62,1.62,0,0,0,.72.73,3,3,0,0,0,1.46.31h.72v.59H200.38v-.59h.72a3,3,0,0,0,1.52-.34,1.55,1.55,0,0,0,.65-.76,6.46,6.46,0,0,0,.18-2V22.79h-1.57a4.58,4.58,0,0,0-3.17.92A6.09,6.09,0,0,0,197,27.4h-.61V21.55Z"/><path class="cls-1" d="M71.76,75.82v-.59h.72a2.82,2.82,0,0,0,1.44-.29,1.81,1.81,0,0,0,.74-.81,7.27,7.27,0,0,0,.15-2V57.9a7,7,0,0,0-.18-2.07,1.6,1.6,0,0,0-.71-.73,2.93,2.93,0,0,0-1.44-.31h-.72V54.2h9.68a15.59,15.59,0,0,1,6.24,1,9.27,9.27,0,0,1,4.37,3.91,12.48,12.48,0,0,1,.76,10.12,9.55,9.55,0,0,1-1.9,3.17,9.07,9.07,0,0,1-2.68,2,14,14,0,0,1-3.73,1.17,17.31,17.31,0,0,1-3.06.19ZM80,55.43V72.3a6.28,6.28,0,0,0,.12,1.64.92.92,0,0,0,.43.46,2.61,2.61,0,0,0,1.25.24,4.81,4.81,0,0,0,4.06-1.81q1.92-2.46,1.92-7.63a14.32,14.32,0,0,0-1.31-6.64,5.59,5.59,0,0,0-2.66-2.65A10.36,10.36,0,0,0,80,55.43Z"/><path class="cls-1" d="M103.9,55.45v8.8h.43a3.42,3.42,0,0,0,3-1.29,7.93,7.93,0,0,0,1.18-3.81h.61V70.47h-.61a8.44,8.44,0,0,0-.8-3,3.48,3.48,0,0,0-1.43-1.59,5.43,5.43,0,0,0-2.36-.41v6.1a8.85,8.85,0,0,0,.15,2.18,1.27,1.27,0,0,0,.57.65,2.63,2.63,0,0,0,1.34.26h1.29a7.76,7.76,0,0,0,4.85-1.4A7.87,7.87,0,0,0,114.73,69h.59l-1,6.87H95.66v-.59h.71a3,3,0,0,0,1.52-.33,1.47,1.47,0,0,0,.64-.77,6.85,6.85,0,0,0,.17-2V57.9a11.66,11.66,0,0,0-.08-1.8,1.48,1.48,0,0,0-.59-.86,2.71,2.71,0,0,0-1.66-.45h-.71V54.2h18.09v6.4h-.6a7.78,7.78,0,0,0-1.3-3.37,4.86,4.86,0,0,0-2.37-1.5,13,13,0,0,0-3.35-.28Z"/><path class="cls-1" d="M140.34,54.2v.59a3.52,3.52,0,0,0-2.1,1.26,19.45,19.45,0,0,0-2,3.75L128.8,76.32h-.53l-7.41-17.19a21.7,21.7,0,0,0-1.8-3.65,2.58,2.58,0,0,0-1.71-.69V54.2h10.36v.59h-.35a3.68,3.68,0,0,0-1.91.35.78.78,0,0,0-.37.7,2.37,2.37,0,0,0,.13.68c.09.26.37,1,.86,2.1l4.61,10.76L135,59.8a23.72,23.72,0,0,0,.94-2.33,3.53,3.53,0,0,0,.18-1,1.47,1.47,0,0,0-.26-.85,1.62,1.62,0,0,0-.75-.56,5,5,0,0,0-1.81-.27V54.2Z"/><path class="cls-1" d="M151,55.45v8.8h.43a3.43,3.43,0,0,0,3-1.29,8,8,0,0,0,1.18-3.81h.6V70.47h-.6a8.43,8.43,0,0,0-.81-3,3.42,3.42,0,0,0-1.43-1.59,5.4,5.4,0,0,0-2.36-.41v6.1a8.16,8.16,0,0,0,.16,2.18,1.25,1.25,0,0,0,.56.65,2.65,2.65,0,0,0,1.34.26h1.29A7,7,0,0,0,161.85,69h.59l-1,6.87H142.78v-.59h.72A3,3,0,0,0,145,74.9a1.43,1.43,0,0,0,.64-.77,6.37,6.37,0,0,0,.18-2V57.9a11.66,11.66,0,0,0-.08-1.8,1.58,1.58,0,0,0-.59-.86,2.75,2.75,0,0,0-1.66-.45h-.72V54.2h18.1v6.4h-.61a7.78,7.78,0,0,0-1.3-3.37,4.78,4.78,0,0,0-2.36-1.5,13.05,13.05,0,0,0-3.35-.28Z"/><path class="cls-1" d="M185,68.23l-.81,7.59H165v-.59h.72a3,3,0,0,0,1.51-.33,1.43,1.43,0,0,0,.64-.77,6.85,6.85,0,0,0,.17-2V57.9a7.48,7.48,0,0,0-.17-2.07,1.65,1.65,0,0,0-.71-.73,3,3,0,0,0-1.44-.31H165V54.2h11.53v.59h-.94a2.93,2.93,0,0,0-1.52.34,1.5,1.5,0,0,0-.65.76,6.46,6.46,0,0,0-.18,2V71.68a7.26,7.26,0,0,0,.19,2.11,1.3,1.3,0,0,0,.75.68,8,8,0,0,0,1.93.14h1.8a6.13,6.13,0,0,0,2.87-.6,5.34,5.34,0,0,0,2-1.92,15.09,15.09,0,0,0,1.58-3.86Z"/><path class="cls-1" d="M199.39,53.9a10.72,10.72,0,0,1,11.62,11,11.48,11.48,0,0,1-2.41,7.24,10.69,10.69,0,0,1-9,4.15q-5.84,0-9-4A11.43,11.43,0,0,1,188.05,65a10.77,10.77,0,0,1,3.28-8A10.42,10.42,0,0,1,199.39,53.9Zm.19,1a4.87,4.87,0,0,0-4.51,3,16.19,16.19,0,0,0-1.26,7.14c0,3.69.64,6.42,1.94,8.18a4.43,4.43,0,0,0,3.8,1.85,4.55,4.55,0,0,0,2.74-.79,6.62,6.62,0,0,0,2.18-3.27,18.11,18.11,0,0,0,.78-5.84,19.51,19.51,0,0,0-.79-6.42,6.16,6.16,0,0,0-2-3A4.74,4.74,0,0,0,199.58,54.92Z"/><path class="cls-1" d="M221.1,66v6a6.5,6.5,0,0,0,.22,2.21,1.53,1.53,0,0,0,.76.72,5.15,5.15,0,0,0,2,.27v.59h-11v-.59a5.17,5.17,0,0,0,2-.27,1.63,1.63,0,0,0,.74-.73,6.39,6.39,0,0,0,.22-2.2V58a6.46,6.46,0,0,0-.22-2.21,1.57,1.57,0,0,0-.75-.73,5.14,5.14,0,0,0-2-.27V54.2h9.43c3.1,0,5.33.56,6.68,1.66a5.15,5.15,0,0,1,2,4.15,5.26,5.26,0,0,1-1.31,3.6,6.62,6.62,0,0,1-3.6,2A24.3,24.3,0,0,1,221.1,66Zm0-10.58v9.34l.8,0a3.86,3.86,0,0,0,3-1.15,5.21,5.21,0,0,0,1-3.58,5,5,0,0,0-1-3.53,4.15,4.15,0,0,0-3.15-1.11Z"/><path class="cls-1" d="M241,55.45v8.8h.43a3.41,3.41,0,0,0,3-1.29,7.93,7.93,0,0,0,1.18-3.81h.61V70.47h-.61a8.44,8.44,0,0,0-.8-3,3.48,3.48,0,0,0-1.43-1.59,5.43,5.43,0,0,0-2.36-.41v6.1a8.85,8.85,0,0,0,.15,2.18,1.27,1.27,0,0,0,.57.65,2.63,2.63,0,0,0,1.34.26h1.29a7.76,7.76,0,0,0,4.85-1.4A7.87,7.87,0,0,0,251.82,69h.59l-1,6.87H232.75v-.59h.71A3,3,0,0,0,235,74.9a1.43,1.43,0,0,0,.64-.77,6.85,6.85,0,0,0,.17-2V57.9a10.43,10.43,0,0,0-.08-1.8,1.48,1.48,0,0,0-.59-.86,2.71,2.71,0,0,0-1.66-.45h-.71V54.2h18.1v6.4h-.61a7.78,7.78,0,0,0-1.3-3.37,4.86,4.86,0,0,0-2.37-1.5,13,13,0,0,0-3.35-.28Z"/><path class="cls-1" d="M263,66V72a6.5,6.5,0,0,0,.22,2.21A1.55,1.55,0,0,0,264,75a5.18,5.18,0,0,0,2,.27v.59H255v-.59a5.17,5.17,0,0,0,2-.27,1.71,1.71,0,0,0,.75-.73A6.77,6.77,0,0,0,258,72V58a6.84,6.84,0,0,0-.21-2.21,1.64,1.64,0,0,0-.76-.73,5.14,5.14,0,0,0-2-.27V54.2h10a22,22,0,0,1,5.74.54,5.84,5.84,0,0,1,3,2,5.38,5.38,0,0,1,1.14,3.42,5.1,5.1,0,0,1-1.72,4,7.09,7.09,0,0,1-3.08,1.48l5.2,7.32a11.08,11.08,0,0,0,1.45,1.77,2.69,2.69,0,0,0,1.52.54v.59h-6.81l-7-9.85Zm0-10.6v9.47H264a10.21,10.21,0,0,0,3.32-.41A3.3,3.3,0,0,0,269,63a5.32,5.32,0,0,0,.63-2.76,4.2,4.2,0,0,0-4.88-4.83Z"/><path class="cls-1" d="M63.72,98.82a2.84,2.84,0,0,0-1.15-1.2,3.48,3.48,0,0,0-1.7-.41,3.69,3.69,0,0,0-1.89.48A3.36,3.36,0,0,0,57.69,99a4.21,4.21,0,0,0-.47,2,4.31,4.31,0,0,0,.47,2A3.24,3.24,0,0,0,59,104.44a3.69,3.69,0,0,0,1.89.48,3.33,3.33,0,0,0,2.31-.8A3.46,3.46,0,0,0,64.27,102h-4v-1.39h5.87v1.36a5.3,5.3,0,0,1-2.74,3.95,5.24,5.24,0,0,1-2.53.62,5.53,5.53,0,0,1-2.74-.7,5.17,5.17,0,0,1-2-1.94,5.73,5.73,0,0,1,0-5.6,5.1,5.1,0,0,1,2-1.94,5.78,5.78,0,0,1,5.76.14,4.7,4.7,0,0,1,1.93,2.36Z"/><path class="cls-1" d="M71.55,98.19a3,3,0,0,1,1.51-.36v1.8h-.45a2.11,2.11,0,0,0-1.55.53,2.42,2.42,0,0,0-.53,1.8v4.44H68.78V98h1.75v1.22A2.65,2.65,0,0,1,71.55,98.19Z"/><path class="cls-1" d="M83,102.84H76.58a2.34,2.34,0,0,0,.75,1.62,2.36,2.36,0,0,0,1.66.61,2,2,0,0,0,2-1.18h1.88a3.84,3.84,0,0,1-1.39,1.91,4.06,4.06,0,0,1-2.48.74,4.34,4.34,0,0,1-2.17-.54,3.81,3.81,0,0,1-1.5-1.53,4.62,4.62,0,0,1-.55-2.29,4.81,4.81,0,0,1,.53-2.29,3.72,3.72,0,0,1,1.49-1.53,4.5,4.5,0,0,1,2.2-.53,4.24,4.24,0,0,1,2.12.52,3.66,3.66,0,0,1,1.46,1.46,4.38,4.38,0,0,1,.52,2.17A5.71,5.71,0,0,1,83,102.84Zm-1.76-1.41a2,2,0,0,0-.69-1.55,2.46,2.46,0,0,0-1.67-.58,2.27,2.27,0,0,0-1.55.57,2.37,2.37,0,0,0-.76,1.56Z"/><path class="cls-1" d="M93.39,102.84H86.94a2.34,2.34,0,0,0,.75,1.62,2.36,2.36,0,0,0,1.66.61,2,2,0,0,0,2-1.18h1.88a3.82,3.82,0,0,1-1.38,1.91,4.11,4.11,0,0,1-2.49.74,4.34,4.34,0,0,1-2.17-.54,3.81,3.81,0,0,1-1.5-1.53,4.72,4.72,0,0,1-.54-2.29,4.8,4.8,0,0,1,.52-2.29,3.79,3.79,0,0,1,1.49-1.53,4.5,4.5,0,0,1,2.2-.53,4.31,4.31,0,0,1,2.13.52,3.7,3.7,0,0,1,1.45,1.46,4.38,4.38,0,0,1,.52,2.17A5.71,5.71,0,0,1,93.39,102.84Zm-1.76-1.41a2,2,0,0,0-.69-1.55,2.44,2.44,0,0,0-1.67-.58,2.27,2.27,0,0,0-1.55.57,2.42,2.42,0,0,0-.76,1.56Z"/><path class="cls-1" d="M102.06,98.24a3,3,0,0,1,1.23,1.23,4,4,0,0,1,.44,2v5H102v-4.71a2.47,2.47,0,0,0-.56-1.74,2,2,0,0,0-1.55-.61,2,2,0,0,0-1.56.61,2.43,2.43,0,0,0-.57,1.74v4.71H96V98h1.75v1a2.86,2.86,0,0,1,1.09-.81,3.44,3.44,0,0,1,1.42-.29A3.9,3.9,0,0,1,102.06,98.24Z"/><path class="cls-1" d="M125.33,95.76l-3.16,10.64h-2L118,98.35l-2.37,8.05-2,0-3-10.66h1.85l2.21,8.67,2.39-8.67h2l2.22,8.62,2.22-8.62Z"/><path class="cls-1" d="M127.08,99.89a3.84,3.84,0,0,1,1.44-1.52,3.89,3.89,0,0,1,2-.54,3.65,3.65,0,0,1,1.73.39,3.5,3.5,0,0,1,1.19,1V98h1.76v8.43h-1.76v-1.25a3.42,3.42,0,0,1-1.21,1,3.91,3.91,0,0,1-3.74-.16,3.93,3.93,0,0,1-1.43-1.56,4.84,4.84,0,0,1-.53-2.27A4.74,4.74,0,0,1,127.08,99.89Zm6,.77a2.48,2.48,0,0,0-2.2-1.32,2.49,2.49,0,0,0-2.2,1.3,3,3,0,0,0-.36,1.51,3.14,3.14,0,0,0,.36,1.53,2.55,2.55,0,0,0,1,1,2.46,2.46,0,0,0,1.25.35,2.53,2.53,0,0,0,1.26-.34,2.5,2.5,0,0,0,.94-1,3.39,3.39,0,0,0,0-3Z"/><path class="cls-1" d="M140.35,99.39v4.67a.88.88,0,0,0,.23.68,1.07,1.07,0,0,0,.75.21h1.08v1.45H141a2.65,2.65,0,0,1-1.81-.55,2.25,2.25,0,0,1-.63-1.79V99.39h-1V98h1v-2.1h1.76V98h2.06v1.42Z"/><path class="cls-1" d="M152.33,102.84h-6.44a2.32,2.32,0,0,0,2.4,2.23,2,2,0,0,0,2-1.18h1.88a3.76,3.76,0,0,1-1.38,1.91,4.11,4.11,0,0,1-2.49.74,4.34,4.34,0,0,1-2.17-.54,3.81,3.81,0,0,1-1.5-1.53,5.17,5.17,0,0,1,0-4.58,3.7,3.7,0,0,1,1.48-1.53,4.5,4.5,0,0,1,2.2-.53,4.25,4.25,0,0,1,2.13.52,3.64,3.64,0,0,1,1.45,1.46,4.39,4.39,0,0,1,.53,2.17A5.65,5.65,0,0,1,152.33,102.84Zm-1.76-1.41a2,2,0,0,0-.69-1.55,2.44,2.44,0,0,0-1.67-.58,2.24,2.24,0,0,0-1.54.57,2.38,2.38,0,0,0-.77,1.56Z"/><path class="cls-1" d="M157.72,98.19a3,3,0,0,1,1.51-.36v1.8h-.45a2.11,2.11,0,0,0-1.55.53,2.46,2.46,0,0,0-.53,1.8v4.44H155V98h1.74v1.22A2.79,2.79,0,0,1,157.72,98.19Z"/><path class="cls-1" d="M177.56,95.76V106.4h-1.74V99.11l-3.25,7.29h-1.21l-3.26-7.29v7.29h-1.75V95.76h1.88l3.74,8.35,3.72-8.35Z"/><path class="cls-1" d="M185.93,98.22a3.4,3.4,0,0,1,1.19,1V98h1.76v8.57a4.4,4.4,0,0,1-.49,2.08,3.62,3.62,0,0,1-1.42,1.43,4.41,4.41,0,0,1-2.21.52,4.82,4.82,0,0,1-2.85-.8,3,3,0,0,1-1.29-2.19h1.73a1.89,1.89,0,0,0,.85,1.07,2.92,2.92,0,0,0,1.56.4,2.3,2.3,0,0,0,1.7-.64,2.49,2.49,0,0,0,.66-1.87v-1.41a3.61,3.61,0,0,1-2.93,1.41,3.69,3.69,0,0,1-2-.56,3.88,3.88,0,0,1-1.44-1.56,4.72,4.72,0,0,1-.53-2.27,4.63,4.63,0,0,1,.53-2.26,3.84,3.84,0,0,1,3.45-2.06A3.78,3.78,0,0,1,185.93,98.22Zm.83,2.44a2.56,2.56,0,0,0-.95-1,2.47,2.47,0,0,0-1.25-.34,2.52,2.52,0,0,0-1.26.33,2.44,2.44,0,0,0-.94,1,3,3,0,0,0-.36,1.51,3.14,3.14,0,0,0,.36,1.53,2.55,2.55,0,0,0,.95,1,2.43,2.43,0,0,0,1.25.35,2.47,2.47,0,0,0,1.25-.34,2.52,2.52,0,0,0,.95-1,3.39,3.39,0,0,0,0-3Z"/><path class="cls-1" d="M194,99.39v4.67a.88.88,0,0,0,.22.68,1.1,1.1,0,0,0,.76.21h1.07v1.45h-1.38a2.62,2.62,0,0,1-1.8-.55,2.25,2.25,0,0,1-.63-1.79V99.39h-1V98h1v-2.1H194V98h2.05v1.42Z"/><path class="cls-1" d="M209.66,100.12v1.47h-6.29v-1.47Z"/><path class="cls-1" d="M217.8,98.26a5.19,5.19,0,0,1,2-1.94,5.44,5.44,0,0,1,2.73-.7,5.55,5.55,0,0,1,3,.84,4.74,4.74,0,0,1,1.92,2.36h-2.1a2.75,2.75,0,0,0-1.15-1.25,3.35,3.35,0,0,0-1.7-.42,3.68,3.68,0,0,0-1.88.48,3.35,3.35,0,0,0-1.3,1.36,4.89,4.89,0,0,0,0,4.14,3.44,3.44,0,0,0,1.3,1.37,3.68,3.68,0,0,0,1.88.48,3.45,3.45,0,0,0,1.7-.41,2.83,2.83,0,0,0,1.15-1.26h2.1a4.74,4.74,0,0,1-1.92,2.36,5.62,5.62,0,0,1-3,.83,5.56,5.56,0,0,1-2.74-.7,5.24,5.24,0,0,1-2-1.94,5.8,5.8,0,0,1,0-5.6Z"/><path class="cls-1" d="M230.16,99.89a3.84,3.84,0,0,1,1.44-1.52,3.88,3.88,0,0,1,2-.54,3.66,3.66,0,0,1,1.74.39,3.5,3.5,0,0,1,1.19,1V98h1.76v8.43h-1.76v-1.25a3.42,3.42,0,0,1-1.21,1,3.91,3.91,0,0,1-3.74-.16,3.93,3.93,0,0,1-1.43-1.56,4.84,4.84,0,0,1-.53-2.27A4.74,4.74,0,0,1,230.16,99.89Zm6,.77a2.61,2.61,0,0,0-.94-1,2.53,2.53,0,0,0-1.26-.34,2.49,2.49,0,0,0-2.2,1.3,3,3,0,0,0-.36,1.51,3.14,3.14,0,0,0,.36,1.53,2.55,2.55,0,0,0,.95,1A2.46,2.46,0,0,0,234,105a2.53,2.53,0,0,0,1.26-.34,2.57,2.57,0,0,0,.94-1,3.39,3.39,0,0,0,0-3Z"/><path class="cls-1" d="M243.43,99.39v4.67a.88.88,0,0,0,.23.68,1.07,1.07,0,0,0,.75.21h1.08v1.45h-1.38a2.65,2.65,0,0,1-1.81-.55,2.25,2.25,0,0,1-.63-1.79V99.39h-1V98h1v-2.1h1.76V98h2.06v1.42Z"/><path class="cls-1" d="M255.41,102.84H249a2.39,2.39,0,0,0,.76,1.62,2.34,2.34,0,0,0,1.65.61,2,2,0,0,0,2-1.18h1.88a3.76,3.76,0,0,1-1.38,1.91,4.11,4.11,0,0,1-2.49.74,4.34,4.34,0,0,1-2.17-.54,3.81,3.81,0,0,1-1.5-1.53,5.17,5.17,0,0,1,0-4.58,3.7,3.7,0,0,1,1.48-1.53,4.5,4.5,0,0,1,2.2-.53,4.25,4.25,0,0,1,2.13.52A3.64,3.64,0,0,1,255,99.81a4.38,4.38,0,0,1,.52,2.17A5.71,5.71,0,0,1,255.41,102.84Zm-1.76-1.41a2,2,0,0,0-.69-1.55,2.44,2.44,0,0,0-1.67-.58,2.22,2.22,0,0,0-1.54.57,2.38,2.38,0,0,0-.77,1.56Z"/><path class="cls-1" d="M263.24,98.22a3.32,3.32,0,0,1,1.19,1V98h1.76v8.57a4.29,4.29,0,0,1-.49,2.08,3.62,3.62,0,0,1-1.42,1.43,4.41,4.41,0,0,1-2.21.52,4.87,4.87,0,0,1-2.85-.8,3,3,0,0,1-1.29-2.19h1.74a1.87,1.87,0,0,0,.84,1.07,2.92,2.92,0,0,0,1.56.4,2.34,2.34,0,0,0,1.71-.64,2.53,2.53,0,0,0,.65-1.87v-1.41a3.57,3.57,0,0,1-2.93,1.41,3.72,3.72,0,0,1-2-.56,3.88,3.88,0,0,1-1.44-1.56,4.84,4.84,0,0,1-.53-2.27,4.74,4.74,0,0,1,.53-2.26,3.84,3.84,0,0,1,1.44-1.52,3.88,3.88,0,0,1,2-.54A3.72,3.72,0,0,1,263.24,98.22Zm.83,2.44a2.61,2.61,0,0,0-.94-1,2.53,2.53,0,0,0-1.26-.34,2.49,2.49,0,0,0-2.2,1.3,3,3,0,0,0-.36,1.51,3.14,3.14,0,0,0,.36,1.53,2.55,2.55,0,0,0,.95,1,2.43,2.43,0,0,0,1.25.35,2.53,2.53,0,0,0,1.26-.34,2.57,2.57,0,0,0,.94-1,3.39,3.39,0,0,0,0-3Z"/><path class="cls-1" d="M270.82,106a3.9,3.9,0,0,1-1.51-1.53,5,5,0,0,1,0-4.58,4,4,0,0,1,1.55-1.53,4.79,4.79,0,0,1,4.38,0,4,4,0,0,1,1.55,1.53,4.55,4.55,0,0,1,.57,2.29,4.43,4.43,0,0,1-.59,2.28A4,4,0,0,1,275.2,106a4.61,4.61,0,0,1-2.22.54A4.38,4.38,0,0,1,270.82,106Zm3.43-1.29a2.56,2.56,0,0,0,1-1,3.61,3.61,0,0,0,0-3.12,2.36,2.36,0,0,0-.93-1,2.52,2.52,0,0,0-1.26-.33,2.49,2.49,0,0,0-1.25.33,2.32,2.32,0,0,0-.91,1,3.36,3.36,0,0,0-.34,1.56,3,3,0,0,0,.7,2.1A2.3,2.3,0,0,0,273,105,2.66,2.66,0,0,0,274.25,104.71Z"/><path class="cls-1" d="M282.7,98.19a3,3,0,0,1,1.51-.36v1.8h-.45a2.11,2.11,0,0,0-1.55.53,2.46,2.46,0,0,0-.53,1.8v4.44h-1.75V98h1.75v1.22A2.72,2.72,0,0,1,282.7,98.19Z"/><path class="cls-1" d="M294.57,98l-5.18,12.4h-1.8l1.71-4.1L286,98h1.94l2.38,6.43L292.76,98Z"/><path class="cls-1" d="M104.08,123.37h3.6v1.41h-5.35V114.14h1.75Z"/><path class="cls-1" d="M111.32,124.38a4.06,4.06,0,0,1-1.52-1.53,4.73,4.73,0,0,1-.55-2.29,4.55,4.55,0,0,1,.57-2.29,4,4,0,0,1,1.54-1.53,4.81,4.81,0,0,1,4.39,0,3.91,3.91,0,0,1,1.54,1.53,4.83,4.83,0,0,1,0,4.57,4.13,4.13,0,0,1-1.59,1.54,4.58,4.58,0,0,1-2.21.54A4.33,4.33,0,0,1,111.32,124.38Zm3.42-1.3a2.34,2.34,0,0,0,1-1,3.16,3.16,0,0,0,.37-1.56,3.24,3.24,0,0,0-.35-1.56,2.48,2.48,0,0,0-.94-1,2.62,2.62,0,0,0-1.26-.32,2.54,2.54,0,0,0-1.24.32,2.37,2.37,0,0,0-.92,1,3.36,3.36,0,0,0-.33,1.56,3,3,0,0,0,.69,2.1,2.3,2.3,0,0,0,1.76.74A2.51,2.51,0,0,0,114.74,123.08Z"/><path class="cls-1" d="M131.56,116.34l-2.62,8.44H127.1l-1.7-6.23-1.7,6.23h-1.84l-2.63-8.44H121l1.76,6.79,1.8-6.79h1.82l1.71,6.76,1.75-6.76Z"/><path class="cls-1" d="M138.52,116.63a5.14,5.14,0,0,1,2-1.93,5.48,5.48,0,0,1,2.74-.7,5.59,5.59,0,0,1,3,.83,4.8,4.8,0,0,1,1.92,2.37h-2.1a2.73,2.73,0,0,0-1.14-1.25,3.37,3.37,0,0,0-1.7-.42,3.69,3.69,0,0,0-1.89.48,3.26,3.26,0,0,0-1.29,1.36,4.39,4.39,0,0,0-.47,2.07,4.45,4.45,0,0,0,.47,2.07,3.41,3.41,0,0,0,1.29,1.37,3.69,3.69,0,0,0,1.89.48,3.37,3.37,0,0,0,1.7-.42,2.73,2.73,0,0,0,1.14-1.25h2.1a4.74,4.74,0,0,1-1.92,2.36,5.9,5.9,0,0,1-5.77.13,5.21,5.21,0,0,1-2-1.94,5.75,5.75,0,0,1,0-5.61Z"/><path class="cls-1" d="M152.42,124.38a4.06,4.06,0,0,1-1.52-1.53,4.73,4.73,0,0,1-.55-2.29,4.55,4.55,0,0,1,.57-2.29,3.93,3.93,0,0,1,1.55-1.53,4.44,4.44,0,0,1,2.19-.53,4.49,4.49,0,0,1,2.19.53,3.91,3.91,0,0,1,1.54,1.53,4.55,4.55,0,0,1,.57,2.29,4.44,4.44,0,0,1-.58,2.28,4.13,4.13,0,0,1-1.59,1.54,4.58,4.58,0,0,1-2.21.54A4.33,4.33,0,0,1,152.42,124.38Zm3.42-1.3a2.34,2.34,0,0,0,1-1,3.05,3.05,0,0,0,.37-1.56,3.24,3.24,0,0,0-.35-1.56,2.48,2.48,0,0,0-.94-1,2.58,2.58,0,0,0-1.25-.32,2.55,2.55,0,0,0-1.25.32,2.28,2.28,0,0,0-.91,1,3.24,3.24,0,0,0-.34,1.56,2.93,2.93,0,0,0,.7,2.1,2.28,2.28,0,0,0,1.75.74A2.51,2.51,0,0,0,155.84,123.08Z"/><path class="cls-1" d="M162.74,124.56a3.1,3.1,0,0,1-1.25-1,2.39,2.39,0,0,1-.49-1.39h1.8a1.28,1.28,0,0,0,.52.9,1.85,1.85,0,0,0,1.17.36,2,2,0,0,0,1.14-.28.86.86,0,0,0,.41-.73.75.75,0,0,0-.46-.71,8.22,8.22,0,0,0-1.43-.5,12.24,12.24,0,0,1-1.55-.51,2.69,2.69,0,0,1-1-.75,2,2,0,0,1-.44-1.33,2.1,2.1,0,0,1,.4-1.23,2.69,2.69,0,0,1,1.14-.88,4.21,4.21,0,0,1,1.71-.32,3.54,3.54,0,0,1,2.32.72,2.62,2.62,0,0,1,.94,2H165.9a1.28,1.28,0,0,0-.46-.91,1.76,1.76,0,0,0-1.12-.33,1.79,1.79,0,0,0-1.06.26.8.8,0,0,0-.36.69.74.74,0,0,0,.24.56,1.51,1.51,0,0,0,.6.36c.23.09.58.2,1,.33a10.64,10.64,0,0,1,1.51.5,3,3,0,0,1,1,.74,2,2,0,0,1,.44,1.3,2.17,2.17,0,0,1-.4,1.29,2.57,2.57,0,0,1-1.12.89,4.31,4.31,0,0,1-1.71.32A4.22,4.22,0,0,1,162.74,124.56Z"/><path class="cls-1" d="M172.44,117.77v4.67a.88.88,0,0,0,.22.68,1.1,1.1,0,0,0,.76.21h1.07v1.45h-1.38a2.67,2.67,0,0,1-1.81-.55,2.3,2.3,0,0,1-.62-1.79v-4.67h-1v-1.43h1v-2.09h1.76v2.09h2.05v1.43Z"/><path class="cls-1" d="M190.11,114.14v10.64h-1.74v-4.65h-5v4.65h-1.75V114.14h1.75v4.56h5v-4.56Z"/><path class="cls-1" d="M194.83,124.38a4,4,0,0,1-1.51-1.53,5,5,0,0,1,0-4.58,4,4,0,0,1,1.55-1.53,4.79,4.79,0,0,1,4.38,0,4,4,0,0,1,1.55,1.53,4.55,4.55,0,0,1,.56,2.29,4.44,4.44,0,0,1-.58,2.28,4.1,4.1,0,0,1-1.58,1.54,4.61,4.61,0,0,1-2.22.54A4.38,4.38,0,0,1,194.83,124.38Zm3.43-1.3a2.37,2.37,0,0,0,1-1,3.05,3.05,0,0,0,.37-1.56,3.13,3.13,0,0,0-.35-1.56,2.46,2.46,0,0,0-.93-1,2.62,2.62,0,0,0-1.26-.32,2.55,2.55,0,0,0-1.25.32,2.41,2.41,0,0,0-.91,1,3.36,3.36,0,0,0-.34,1.56,2.93,2.93,0,0,0,.7,2.1,2.29,2.29,0,0,0,1.75.74A2.55,2.55,0,0,0,198.26,123.08Z"/><path class="cls-1" d="M211.56,116.34v8.44h-1.74v-1a2.87,2.87,0,0,1-1.08.82,3.45,3.45,0,0,1-1.42.3,3.71,3.71,0,0,1-1.78-.42,2.94,2.94,0,0,1-1.25-1.22,4,4,0,0,1-.45-2v-5h1.73v4.71a2.42,2.42,0,0,0,.57,1.73,2.27,2.27,0,0,0,3.1,0,2.43,2.43,0,0,0,.58-1.73v-4.71Z"/><path class="cls-1" d="M215.92,124.56a3.1,3.1,0,0,1-1.25-1,2.39,2.39,0,0,1-.49-1.39H216a1.25,1.25,0,0,0,.52.9,1.85,1.85,0,0,0,1.17.36,2,2,0,0,0,1.14-.28.86.86,0,0,0,.41-.73.75.75,0,0,0-.46-.71,8.22,8.22,0,0,0-1.43-.5,11.51,11.51,0,0,1-1.54-.51,2.64,2.64,0,0,1-1-.75,2,2,0,0,1-.43-1.33,2.09,2.09,0,0,1,.39-1.23,2.69,2.69,0,0,1,1.14-.88,4.21,4.21,0,0,1,1.71-.32,3.56,3.56,0,0,1,2.32.72,2.62,2.62,0,0,1,.94,2h-1.74a1.28,1.28,0,0,0-.46-.91,1.76,1.76,0,0,0-1.12-.33,1.79,1.79,0,0,0-1.06.26.8.8,0,0,0-.36.69.74.74,0,0,0,.24.56,1.51,1.51,0,0,0,.6.36c.23.09.58.2,1,.33a10.64,10.64,0,0,1,1.51.5,3,3,0,0,1,1,.74,2,2,0,0,1,.44,1.3,2.17,2.17,0,0,1-.4,1.29,2.57,2.57,0,0,1-1.12.89,4.31,4.31,0,0,1-1.71.32A4.22,4.22,0,0,1,215.92,124.56Z"/><path class="cls-1" d="M223.67,114.9a1.09,1.09,0,0,1-.32-.79,1.09,1.09,0,0,1,1.12-1.12,1.09,1.09,0,0,1,1.1,1.12,1,1,0,0,1-.32.79,1,1,0,0,1-.78.33A1.08,1.08,0,0,1,223.67,114.9Zm1.66,1.44v8.44h-1.75v-8.44Z"/><path class="cls-1" d="M234.45,116.62a2.92,2.92,0,0,1,1.24,1.22,4,4,0,0,1,.44,2v5H234.4v-4.71a2.47,2.47,0,0,0-.56-1.74,2,2,0,0,0-1.55-.61,2,2,0,0,0-1.56.61,2.43,2.43,0,0,0-.57,1.74v4.71h-1.75v-8.44h1.75v1a2.79,2.79,0,0,1,1.09-.81,3.44,3.44,0,0,1,1.42-.29A3.71,3.71,0,0,1,234.45,116.62Z"/><path class="cls-1" d="M244.32,116.6a3.32,3.32,0,0,1,1.19,1v-1.23h1.76v8.58a4.29,4.29,0,0,1-.49,2.08,3.62,3.62,0,0,1-1.42,1.43,4.51,4.51,0,0,1-2.21.52,4.87,4.87,0,0,1-2.85-.8A3,3,0,0,1,239,126h1.73a1.93,1.93,0,0,0,.85,1.07,2.92,2.92,0,0,0,1.56.4,2.34,2.34,0,0,0,1.71-.64,2.53,2.53,0,0,0,.65-1.87v-1.41a3.75,3.75,0,0,1-1.2,1,3.62,3.62,0,0,1-1.73.4,3.81,3.81,0,0,1-2-.56,3.88,3.88,0,0,1-1.44-1.56,4.85,4.85,0,0,1-.53-2.28,4.73,4.73,0,0,1,.53-2.25,3.84,3.84,0,0,1,1.44-1.52,3.88,3.88,0,0,1,2-.54A3.75,3.75,0,0,1,244.32,116.6Zm.83,2.44a2.52,2.52,0,0,0-3.46-1,2.51,2.51,0,0,0-.94,1,3,3,0,0,0-.36,1.5,3.16,3.16,0,0,0,.36,1.54,2.55,2.55,0,0,0,.95,1,2.42,2.42,0,0,0,1.25.34,2.52,2.52,0,0,0,1.26-.33,2.64,2.64,0,0,0,.94-1,3.39,3.39,0,0,0,0-3Z"/></svg>