<svg id="Layer_1" data-name="Layer 1" xmlns="http://www.w3.org/2000/svg" viewBox="0 0 222.37 96.22"><defs><style>.cls-1{fill:#fff;}</style></defs><path class="cls-1" d="M18.69,74.59C.38,52.75,6.65,21,27.57,6.56l-.22-.32C6.18,20.59-.54,52.78,18,75.19,27,86.07,38.66,89.25,46,93.29h2.53C41.29,88.66,28.64,86.42,18.69,74.59Z"/><path class="cls-1" d="M39.48,79.78c-1.68,2.68-2.13,6.21.44,8.12l.09-.12a3.08,3.08,0,0,0,1-3C41.19,83.26,40.27,81.1,39.48,79.78Z"/><path class="cls-1" d="M35.36,86.09c2.15-1.6,1.48-5.54.27-8C33.75,80.56,33,84.08,35.36,86.09Z"/><path class="cls-1" d="M31,83.79C33.24,82.42,33,78.48,32,76,29.91,78.24,28.87,81.65,31,83.79Z"/><path class="cls-1" d="M26.93,81c2.15-1.08,2.46-4.56,1.63-7.55C26.28,75.53,25,78.81,26.93,81Z"/><path class="cls-1" d="M25.43,70.6c-2.33,1.73-3.94,4.88-2.25,7.26C25.55,76.92,25.91,73.18,25.43,70.6Z"/><path class="cls-1" d="M22.62,67.36c-2.71,1.65-4.21,4.78-2.84,6.93C22.19,73.55,22.9,69.89,22.62,67.36Z"/><path class="cls-1" d="M20.16,63.82c-2.54,1.25-4.52,3.95-3.37,6.55C19.18,69.88,20.23,66.36,20.16,63.82Z"/><path class="cls-1" d="M18.1,60c-2.73,1-4.77,3.6-3.86,6.16C16.71,65.86,17.85,62.51,18.1,60Z"/><path class="cls-1" d="M16.46,56c-2.63.76-5,3.1-4.3,5.73C14.56,61.59,16,58.42,16.46,56Z"/><path class="cls-1" d="M15.26,51.75c-2.92.58-5.15,2.85-4.7,5.27C12.91,57.11,14.74,54.06,15.26,51.75Z"/><path class="cls-1" d="M14.53,47.42c-2.66.29-5.23,2.1-5,4.79C11.84,52.51,13.68,49.67,14.53,47.42Z"/><path class="cls-1" d="M14.3,43c-3.2.07-5.33,2.11-5.36,4.29C11.17,47.77,13.37,45.14,14.3,43Z"/><path class="cls-1" d="M14.55,38.58c-2.8-.18-5.48,1.44-5.63,3.79C11.08,43,13.48,40.58,14.55,38.58Z"/><path class="cls-1" d="M15.28,34.17c-2.51-.37-5.39.79-5.84,3.28C11.51,38.24,14.11,36.05,15.28,34.17Z"/><path class="cls-1" d="M10.49,32.62c2,.94,4.75-1.06,6-2.78C14.06,29.27,11,30.29,10.49,32.62Z"/><path class="cls-1" d="M12.05,27.92c1.89,1.06,4.73-.64,6.16-2.27C15.24,24.71,12.59,26.15,12.05,27.92Z"/><path class="cls-1" d="M14.12,23.41c1.75,1.18,4.69-.24,6.25-1.75C17.54,20.51,14.8,21.69,14.12,23.41Z"/><path class="cls-1" d="M16.66,19.16c1.64,1.3,4.68.1,6.31-1.24C20.31,16.57,17.49,17.49,16.66,19.16Z"/><path class="cls-1" d="M26,14.47c-2.49-1.52-5.36-.85-6.33.73C21.14,16.57,24.18,15.73,26,14.47Z"/><path class="cls-1" d="M23.06,11.59c1.42,1.51,4.55.82,6.33-.24C27,9.65,24.13,10.12,23.06,11.59Z"/><path class="cls-1" d="M33.13,8.62c-1.89-1.59-4.85-1.85-6.3-.25C28.12,10,31.29,9.53,33.13,8.62Z"/><path class="cls-1" d="M30.92,96.22a10.69,10.69,0,0,0,2.9-.4,6.08,6.08,0,0,0,1.31-.56,6.21,6.21,0,0,0,1.13-.83,3.33,3.33,0,0,0,1-3.78A5.55,5.55,0,0,0,30.92,96.22Z"/><path class="cls-1" d="M32.49,88.52a5.52,5.52,0,0,0-6.86,4.7,8.75,8.75,0,0,0,1.45.07,9.5,9.5,0,0,0,1.43-.13,6,6,0,0,0,2.56-1.08A3.27,3.27,0,0,0,32.49,88.52Z"/><path class="cls-1" d="M28,85.89a5,5,0,0,0-4.28.17,5.61,5.61,0,0,0-3,3.6,8.93,8.93,0,0,0,2.82.27,6.66,6.66,0,0,0,1.36-.22,5.39,5.39,0,0,0,1.27-.52A3.21,3.21,0,0,0,28,85.89Z"/><path class="cls-1" d="M23.77,82.8a4.72,4.72,0,0,0-1.92-.62,5.62,5.62,0,0,0-5.66,3.43C19.62,86.87,23.63,86.14,23.77,82.8Z"/><path class="cls-1" d="M19.94,79.26a5.46,5.46,0,0,0-7.77,1.86C15.42,82.72,19.39,82.5,19.94,79.26Z"/><path class="cls-1" d="M16.52,75.35a5.48,5.48,0,0,0-7.86.89C11.68,78.17,15.59,78.4,16.52,75.35Z"/><path class="cls-1" d="M13.52,71.1A5.45,5.45,0,0,0,5.73,71C8.42,73.31,12.28,73.91,13.52,71.1Z"/><path class="cls-1" d="M11,66.56a5.41,5.41,0,0,0-7.61-1C5.79,68.09,9.46,69.13,11,66.56Z"/><path class="cls-1" d="M9,61.78a5.42,5.42,0,0,0-7.35-1.9C3.64,62.51,7.07,64.15,9,61.78Z"/><path class="cls-1" d="M7.47,56.82a5.44,5.44,0,0,0-7-2.75C2.81,57.88,5.93,58.32,7.47,56.82Z"/><path class="cls-1" d="M6.5,51.73A5.43,5.43,0,0,0,0,48.18C1.57,51.86,4.67,53.12,6.5,51.73Z"/><path class="cls-1" d="M6.08,46.58A5.43,5.43,0,0,0,.15,42.29a11.25,11.25,0,0,0,.42,1.15C1.67,45.78,3.92,47.81,6.08,46.58Z"/><path class="cls-1" d="M6.21,41.41A5.42,5.42,0,0,0,.94,36.48a9.93,9.93,0,0,0,.28,1.17C1.93,40,4,42.34,6.21,41.41Z"/><path class="cls-1" d="M6.9,36.29a5.41,5.41,0,0,0-4.57-5.47C2.66,35.14,5.11,36.75,6.9,36.29Z"/><path class="cls-1" d="M8.14,31.29a5.44,5.44,0,0,0-3.82-5.93C4.15,29.54,6.31,31.5,8.14,31.29Z"/><path class="cls-1" d="M9.88,26.44c.77-2.3-.65-5.14-3-6.28C6.36,23.38,7.55,26.41,9.88,26.44Z"/><path class="cls-1" d="M12.12,21.81c1-2.07.06-5-2.16-6.53C8.84,19.12,10.38,21.56,12.12,21.81Z"/><path class="cls-1" d="M14.85,17.45a5.53,5.53,0,0,0-1.3-6.68C12.36,13.55,12.66,16.83,14.85,17.45Z"/><path class="cls-1" d="M18,13.42a5.59,5.59,0,0,0-.44-6.72C15.68,10,16.45,12.72,18,13.42Z"/><path class="cls-1" d="M21.61,9.74A5.6,5.6,0,0,0,22,3.1C20.25,5.46,19.78,8.6,21.61,9.74Z"/><path class="cls-1" d="M25.57,6.47A5.67,5.67,0,0,0,26.8,0C24.81,2.12,24,5.11,25.57,6.47Z"/><path class="cls-1" d="M37.33,1.26C34,.82,30,2.27,29.26,5.17,32,5.87,35.5,3.44,37.33,1.26Z"/><path class="cls-1" d="M204.41,75.19c18.5-22.41,11.78-54.6-9.39-68.95l-.22.32c20.92,14.39,27.19,46.19,8.89,68-10,11.83-22.6,14.07-29.86,18.7h2.53C183.71,89.25,195.39,86.07,204.41,75.19Z"/><path class="cls-1" d="M182.36,87.78l.1.12c2.57-1.91,2.11-5.44.44-8.12-.8,1.32-1.71,3.48-1.51,5A3.1,3.1,0,0,0,182.36,87.78Z"/><path class="cls-1" d="M187,86.09c2.36-2,1.6-5.53-.27-8C185.53,80.55,184.87,84.49,187,86.09Z"/><path class="cls-1" d="M191.36,83.79c2.14-2.14,1.11-5.55-1-7.78C189.41,78.48,189.13,82.42,191.36,83.79Z"/><path class="cls-1" d="M193.81,73.49c-.83,3-.52,6.47,1.63,7.55C197.33,78.81,196.1,75.53,193.81,73.49Z"/><path class="cls-1" d="M199.2,77.86c1.68-2.38.07-5.53-2.26-7.26C196.46,73.18,196.83,76.92,199.2,77.86Z"/><path class="cls-1" d="M202.59,74.29c1.37-2.15-.13-5.28-2.84-6.93C199.48,69.89,200.18,73.55,202.59,74.29Z"/><path class="cls-1" d="M205.58,70.37c1.15-2.6-.82-5.3-3.36-6.55C202.14,66.36,203.19,69.88,205.58,70.37Z"/><path class="cls-1" d="M208.13,66.16C209,63.6,207,61.05,204.28,60,204.53,62.51,205.67,65.86,208.13,66.16Z"/><path class="cls-1" d="M205.92,56c.42,2.46,1.9,5.63,4.3,5.73C210.93,59.06,208.54,56.72,205.92,56Z"/><path class="cls-1" d="M207.12,51.75c.52,2.31,2.34,5.36,4.69,5.27C212.26,54.6,210,52.33,207.12,51.75Z"/><path class="cls-1" d="M212.89,52.21c.18-2.69-2.39-4.5-5-4.79C208.7,49.67,210.53,52.51,212.89,52.21Z"/><path class="cls-1" d="M213.44,47.3c0-2.18-2.17-4.22-5.36-4.29C209,45.14,211.21,47.77,213.44,47.3Z"/><path class="cls-1" d="M207.83,38.58c1.06,2,3.47,4.42,5.62,3.79C213.31,40,210.63,38.4,207.83,38.58Z"/><path class="cls-1" d="M207.09,34.17c1.17,1.88,3.77,4.07,5.84,3.28C212.48,35,209.6,33.8,207.09,34.17Z"/><path class="cls-1" d="M205.86,29.84c1.28,1.72,4,3.72,6,2.78C211.38,30.29,208.31,29.27,205.86,29.84Z"/><path class="cls-1" d="M204.16,25.65c1.43,1.63,4.28,3.33,6.16,2.27C209.78,26.15,207.14,24.71,204.16,25.65Z"/><path class="cls-1" d="M202,21.66c1.56,1.51,4.51,2.93,6.26,1.75C207.57,21.69,204.83,20.51,202,21.66Z"/><path class="cls-1" d="M199.41,17.92c1.63,1.34,4.66,2.54,6.31,1.24C204.88,17.49,202.06,16.57,199.41,17.92Z"/><path class="cls-1" d="M196.39,14.47c1.8,1.26,4.85,2.1,6.34.73C201.76,13.62,198.89,13,196.39,14.47Z"/><path class="cls-1" d="M193,11.35c1.78,1.06,4.92,1.75,6.33.24C198.24,10.12,195.35,9.65,193,11.35Z"/><path class="cls-1" d="M189.25,8.62c1.84.91,5,1.34,6.29-.25C194.09,6.77,191.13,7,189.25,8.62Z"/><path class="cls-1" d="M185.12,90.65a3.35,3.35,0,0,0,1,3.78,6.21,6.21,0,0,0,1.13.83,6.3,6.3,0,0,0,1.31.56,10.8,10.8,0,0,0,2.9.4A5.55,5.55,0,0,0,185.12,90.65Z"/><path class="cls-1" d="M189.88,88.52a3.26,3.26,0,0,0,1.43,3.56,6,6,0,0,0,2.55,1.08,9.62,9.62,0,0,0,1.43.13,8.7,8.7,0,0,0,1.45-.07A5.52,5.52,0,0,0,189.88,88.52Z"/><path class="cls-1" d="M198.69,86.06a5,5,0,0,0-4.29-.17,3.21,3.21,0,0,0,1.83,3.3,5.15,5.15,0,0,0,1.26.52,6.77,6.77,0,0,0,1.36.22,9,9,0,0,0,2.83-.27A5.64,5.64,0,0,0,198.69,86.06Z"/><path class="cls-1" d="M200.52,82.18a4.77,4.77,0,0,0-1.92.62c.14,3.34,4.15,4.07,7.58,2.81A5.62,5.62,0,0,0,200.52,82.18Z"/><path class="cls-1" d="M202.43,79.26c.56,3.24,4.52,3.46,7.77,1.86A5.46,5.46,0,0,0,202.43,79.26Z"/><path class="cls-1" d="M205.86,75.35c.93,3.05,4.83,2.82,7.85.89A5.47,5.47,0,0,0,205.86,75.35Z"/><path class="cls-1" d="M208.85,71.1c1.24,2.81,5.11,2.21,7.79-.07A5.45,5.45,0,0,0,208.85,71.1Z"/><path class="cls-1" d="M211.38,66.56c1.53,2.57,5.2,1.53,7.62-1A5.42,5.42,0,0,0,211.38,66.56Z"/><path class="cls-1" d="M213.4,61.78c1.9,2.37,5.33.73,7.35-1.9A5.42,5.42,0,0,0,213.4,61.78Z"/><path class="cls-1" d="M214.9,56.82c1.54,1.5,4.66,1.06,7-2.75A5.44,5.44,0,0,0,214.9,56.82Z"/><path class="cls-1" d="M215.87,51.73c1.83,1.39,4.94.13,6.5-3.55A5.43,5.43,0,0,0,215.87,51.73Z"/><path class="cls-1" d="M216.29,46.58c2.17,1.23,4.41-.8,5.52-3.14a11.2,11.2,0,0,0,.41-1.15A5.43,5.43,0,0,0,216.29,46.58Z"/><path class="cls-1" d="M216.16,41.41c2.25.93,4.28-1.43,5-3.76.11-.39.21-.78.28-1.17A5.44,5.44,0,0,0,216.16,41.41Z"/><path class="cls-1" d="M215.47,36.29c1.79.46,4.24-1.15,4.57-5.47A5.42,5.42,0,0,0,215.47,36.29Z"/><path class="cls-1" d="M214.24,31.29c1.82.21,4-1.75,3.81-5.93A5.44,5.44,0,0,0,214.24,31.29Z"/><path class="cls-1" d="M212.49,26.44c2.34,0,3.53-3.06,3-6.28C213.14,21.3,211.72,24.14,212.49,26.44Z"/><path class="cls-1" d="M212.41,15.28c-2.22,1.49-3.15,4.46-2.16,6.53C212,21.56,213.53,19.12,212.41,15.28Z"/><path class="cls-1" d="M208.83,10.77a5.53,5.53,0,0,0-1.31,6.68C209.71,16.83,210,13.55,208.83,10.77Z"/><path class="cls-1" d="M204.8,6.7a5.57,5.57,0,0,0-.45,6.72C205.93,12.72,206.7,10,204.8,6.7Z"/><path class="cls-1" d="M200.36,3.1a5.6,5.6,0,0,0,.4,6.64C202.6,8.6,202.12,5.46,200.36,3.1Z"/><path class="cls-1" d="M195.57,0a5.66,5.66,0,0,0,1.24,6.47C198.43,5.11,197.57,2.12,195.57,0Z"/><path class="cls-1" d="M193.12,5.17c-.73-2.9-4.75-4.35-8.07-3.91C186.88,3.44,190.38,5.87,193.12,5.17Z"/><path class="cls-1" d="M73.8,26.17a7.08,7.08,0,0,0,2,1.22,7.54,7.54,0,0,0,2.81.46,12.73,12.73,0,0,0,2.57-.26,12.16,12.16,0,0,0,2.37-.77V24.34a2.59,2.59,0,0,1,.08-.82.94.94,0,0,1,.4-.45,2.61,2.61,0,0,1,.92-.18v-.33H79.14v.33h.31a1.51,1.51,0,0,1,.73.17.86.86,0,0,1,.4.37,2.74,2.74,0,0,1,.1.91v2.48a7.37,7.37,0,0,1-.93.27,4.53,4.53,0,0,1-.88.09,3.69,3.69,0,0,1-2.14-.61,3.42,3.42,0,0,1-1.31-1.9,10,10,0,0,1-.4-3,10.15,10.15,0,0,1,.37-2.76,4,4,0,0,1,1.25-2.1,3.34,3.34,0,0,1,2.23-.75,4.13,4.13,0,0,1,2.57.9,5.27,5.27,0,0,1,1.77,2.62h.32V15.37h-.32a1.64,1.64,0,0,1-.39.69.69.69,0,0,1-.46.18,5.4,5.4,0,0,1-1-.33,7.46,7.46,0,0,0-1.25-.4,7.88,7.88,0,0,0-1.6-.14,6.51,6.51,0,0,0-4.76,1.85,6.12,6.12,0,0,0-1.89,4.54,5.92,5.92,0,0,0,.62,2.72A5.65,5.65,0,0,0,73.8,26.17Z"/><path class="cls-1" d="M92.81,27.84a5.87,5.87,0,0,0,5-2.29,6.33,6.33,0,0,0,1.33-4,5.91,5.91,0,0,0-6.41-6.08,5.74,5.74,0,0,0-4.44,1.67,5.91,5.91,0,0,0-1.81,4.42,6.35,6.35,0,0,0,1.39,4.09A6,6,0,0,0,92.81,27.84Zm-2.5-10.13A2.7,2.7,0,0,1,92.8,16a2.61,2.61,0,0,1,1.57.49,3.5,3.5,0,0,1,1.12,1.65,10.81,10.81,0,0,1,.44,3.54,10.19,10.19,0,0,1-.43,3.22,3.65,3.65,0,0,1-1.21,1.8,2.52,2.52,0,0,1-1.51.44,2.44,2.44,0,0,1-2.09-1,7.61,7.61,0,0,1-1.07-4.51A9,9,0,0,1,90.31,17.71Z"/><path class="cls-1" d="M111.24,23.38h-.36a8.26,8.26,0,0,1-.87,2.13,2.89,2.89,0,0,1-1.1,1,3.24,3.24,0,0,1-1.58.34h-1a4.25,4.25,0,0,1-1.06-.08.69.69,0,0,1-.42-.38,3.85,3.85,0,0,1-.1-1.16V17.69a3.89,3.89,0,0,1,.09-1.11.84.84,0,0,1,.36-.42,1.61,1.61,0,0,1,.84-.19h.52v-.32h-6.36V16h.4a1.6,1.6,0,0,1,.79.17,1,1,0,0,1,.4.4,4.3,4.3,0,0,1,.09,1.15v7.84a3.85,3.85,0,0,1-.09,1.1.86.86,0,0,1-.36.43,1.67,1.67,0,0,1-.83.18h-.4v.33H110.8Z"/><path class="cls-1" d="M119.6,27.46a7.85,7.85,0,0,0,2.05-.65,5,5,0,0,0,1.48-1.1,5.18,5.18,0,0,0,1-1.75,6.46,6.46,0,0,0,.41-2.32,6.55,6.55,0,0,0-.82-3.26,5,5,0,0,0-2.42-2.15,8.44,8.44,0,0,0-3.43-.58h-5.34V16h.4a1.6,1.6,0,0,1,.79.17,1,1,0,0,1,.4.4,4.3,4.3,0,0,1,.09,1.15v7.84a3.81,3.81,0,0,1-.08,1.1,1,1,0,0,1-.41.45,1.55,1.55,0,0,1-.79.16h-.4v.33h5.34A9.61,9.61,0,0,0,119.6,27.46Zm-2.41-.93a3.15,3.15,0,0,1-.07-.91v-9.3a5.82,5.82,0,0,1,2.1.27,3.09,3.09,0,0,1,1.47,1.46,7.88,7.88,0,0,1,.72,3.66,6.82,6.82,0,0,1-1.06,4.2,2.64,2.64,0,0,1-2.24,1,1.44,1.44,0,0,1-.69-.13A.47.47,0,0,1,117.19,26.53Z"/><path class="cls-1" d="M136.59,23.78h-.32a4.28,4.28,0,0,1-1.45,2.35,4.24,4.24,0,0,1-2.67.78h-.71a1.51,1.51,0,0,1-.74-.14.71.71,0,0,1-.31-.36,4.56,4.56,0,0,1-.09-1.21V21.84a3,3,0,0,1,1.3.23,1.94,1.94,0,0,1,.79.87,4.83,4.83,0,0,1,.44,1.67h.34V18.37h-.34a4.3,4.3,0,0,1-.65,2.1,1.87,1.87,0,0,1-1.64.71h-.24V16.33h1.23a7.36,7.36,0,0,1,1.85.16,2.62,2.62,0,0,1,1.3.83,4.22,4.22,0,0,1,.72,1.85h.33V15.65h-10V16h.39a1.5,1.5,0,0,1,.92.25.83.83,0,0,1,.32.47,6,6,0,0,1,0,1v7.84a3.7,3.7,0,0,1-.1,1.1.85.85,0,0,1-.35.43,1.69,1.69,0,0,1-.84.18h-.39v.33h10.3Z"/><path class="cls-1" d="M142.21,27.24h-.28a1.71,1.71,0,0,1-1.08-.36,1.68,1.68,0,0,1-.47-1.39V17.91l8.06,9.93h.3V17.91a3.66,3.66,0,0,1,.14-1.19,1.09,1.09,0,0,1,.41-.5,3.18,3.18,0,0,1,1-.25v-.32h-3.93V16a1.69,1.69,0,0,1,1.41.49,2.41,2.41,0,0,1,.31,1.45V23l-5.88-7.39H138V16a2,2,0,0,1,.84.17,2.56,2.56,0,0,1,.67.62l.25.32v8.41a1.91,1.91,0,0,1-.39,1.35,1.93,1.93,0,0,1-1.37.4v.33h4.23Z"/><path class="cls-1" d="M28,34.56a5.82,5.82,0,0,0-3.68-.91H19.13V34a2.79,2.79,0,0,1,1.11.15.86.86,0,0,1,.42.4,3.66,3.66,0,0,1,.12,1.22v7.73a3.66,3.66,0,0,1-.12,1.22,1,1,0,0,1-.41.4,2.81,2.81,0,0,1-1.12.15v.33h6.05v-.33a2.79,2.79,0,0,1-1.11-.15.86.86,0,0,1-.42-.4,3.66,3.66,0,0,1-.12-1.22v-3.3A13.63,13.63,0,0,0,26.41,40a3.67,3.67,0,0,0,2-1.13,2.91,2.91,0,0,0,.72-2A2.83,2.83,0,0,0,28,34.56Zm-2.38,4.3A2.11,2.11,0,0,1,24,39.5l-.44,0V34.33h.36a2.27,2.27,0,0,1,1.73.62,2.74,2.74,0,0,1,.58,1.94A2.83,2.83,0,0,1,25.62,38.86Z"/><path class="cls-1" d="M30,33.65V34a2.79,2.79,0,0,1,1.11.15.86.86,0,0,1,.42.4,3.66,3.66,0,0,1,.12,1.22v7.73a3.66,3.66,0,0,1-.12,1.22.93.93,0,0,1-.41.4,2.81,2.81,0,0,1-1.12.15v.33h6.1v-.33a2.81,2.81,0,0,1-1.12-.15.86.86,0,0,1-.42-.4,4.09,4.09,0,0,1-.11-1.22V40.13h.78L39,45.57h3.75v-.33a1.49,1.49,0,0,1-.83-.3,5.73,5.73,0,0,1-.8-1l-2.87-4a3.86,3.86,0,0,0,1.7-.82,2.82,2.82,0,0,0,1-2.18,2.91,2.91,0,0,0-.64-1.88A3.14,3.14,0,0,0,38.66,34a12.06,12.06,0,0,0-3.17-.3ZM38,37a3,3,0,0,1-.34,1.53,1.81,1.81,0,0,1-1,.81,5.84,5.84,0,0,1-1.82.22h-.5V34.29h.94A2.3,2.3,0,0,1,38,37Z"/><path class="cls-1" d="M49.5,33.48a5.78,5.78,0,0,0-4.45,1.67,5.94,5.94,0,0,0-1.8,4.42,6.29,6.29,0,0,0,1.39,4.09,6,6,0,0,0,5,2.18,5.9,5.9,0,0,0,5-2.29,6.38,6.38,0,0,0,1.32-4,5.91,5.91,0,0,0-6.4-6.08Zm2.8,9.46a3.71,3.71,0,0,1-1.2,1.8,2.55,2.55,0,0,1-1.52.44,2.45,2.45,0,0,1-2.09-1,7.69,7.69,0,0,1-1.07-4.51,9,9,0,0,1,.69-3.94A2.7,2.7,0,0,1,49.6,34a2.59,2.59,0,0,1,1.57.49,3.43,3.43,0,0,1,1.12,1.65,10.81,10.81,0,0,1,.44,3.54A9.9,9.9,0,0,1,52.3,42.94Z"/><path class="cls-1" d="M66,34.56a5.82,5.82,0,0,0-3.68-.91H57.08V34a2.79,2.79,0,0,1,1.11.15.86.86,0,0,1,.42.4,3.66,3.66,0,0,1,.12,1.22v7.73a3.66,3.66,0,0,1-.12,1.22,1,1,0,0,1-.41.4,2.81,2.81,0,0,1-1.12.15v.33h6.05v-.33A2.79,2.79,0,0,1,62,45.09a.86.86,0,0,1-.42-.4,3.66,3.66,0,0,1-.12-1.22v-3.3A13.57,13.57,0,0,0,64.36,40a3.67,3.67,0,0,0,2-1.13,2.91,2.91,0,0,0,.72-2A2.83,2.83,0,0,0,66,34.56Zm-2.38,4.3a2.08,2.08,0,0,1-1.65.64l-.44,0V34.33h.36a2.25,2.25,0,0,1,1.73.62,2.74,2.74,0,0,1,.58,1.94A2.83,2.83,0,0,1,63.57,38.86Z"/><path class="cls-1" d="M77,44.13a4.24,4.24,0,0,1-2.67.78H73.6a1.51,1.51,0,0,1-.74-.14.76.76,0,0,1-.31-.36,4.56,4.56,0,0,1-.09-1.21V39.84a3,3,0,0,1,1.3.23,1.94,1.94,0,0,1,.79.87A4.61,4.61,0,0,1,75,42.61h.34V36.37H75a4.3,4.3,0,0,1-.65,2.1,1.86,1.86,0,0,1-1.64.71h-.24V34.33h1.23a7.31,7.31,0,0,1,1.85.16,2.62,2.62,0,0,1,1.3.83,4.22,4.22,0,0,1,.72,1.85h.33V33.65h-10V34h.39a1.48,1.48,0,0,1,.92.25.83.83,0,0,1,.32.47,6,6,0,0,1,0,1v7.84a3.38,3.38,0,0,1-.1,1.1.85.85,0,0,1-.35.43,1.69,1.69,0,0,1-.84.18h-.39v.33h10.3l.54-3.79h-.33A4.23,4.23,0,0,1,77,44.13Z"/><path class="cls-1" d="M91.37,44l-2.86-4a3.82,3.82,0,0,0,1.69-.82,2.79,2.79,0,0,0,1-2.18,3,3,0,0,0-.63-1.88A3.18,3.18,0,0,0,88.89,34a12.11,12.11,0,0,0-3.17-.3H80.18V34a2.81,2.81,0,0,1,1.12.15.86.86,0,0,1,.42.4,3.66,3.66,0,0,1,.12,1.22v7.73a3.66,3.66,0,0,1-.12,1.22,1,1,0,0,1-.42.4,2.74,2.74,0,0,1-1.12.15v.33h6.1v-.33a2.79,2.79,0,0,1-1.11-.15.86.86,0,0,1-.42-.4,3.66,3.66,0,0,1-.12-1.22V40.13h.78l3.84,5.44H93v-.33a1.53,1.53,0,0,1-.84-.3A6.27,6.27,0,0,1,91.37,44Zm-3.46-5.49a1.83,1.83,0,0,1-1,.81,5.87,5.87,0,0,1-1.83.22h-.5V34.29h.94A2.32,2.32,0,0,1,88.26,37,2.89,2.89,0,0,1,87.91,38.48Z"/><path class="cls-1" d="M94.7,34.84a2.52,2.52,0,0,1,1.75-.51h.86v9.2a3.85,3.85,0,0,1-.09,1.1.92.92,0,0,1-.36.43,1.69,1.69,0,0,1-.84.18h-.39v.33h6.24v-.33h-.4a1.61,1.61,0,0,1-.8-.17,1,1,0,0,1-.4-.4,3.65,3.65,0,0,1-.1-1.14v-9.2h.89a3.17,3.17,0,0,1,1.17.16,2.41,2.41,0,0,1,.94.78,5.09,5.09,0,0,1,.62,1.6h.32V33.65H93.4v3.22h.34A3.35,3.35,0,0,1,94.7,34.84Z"/><path class="cls-1" d="M116,36.33a8.9,8.9,0,0,1,1.38-2,1.85,1.85,0,0,1,.91-.35v-.32H114.6V34a2.15,2.15,0,0,1,1.1.27.46.46,0,0,1,.23.39,4.81,4.81,0,0,1-.8,1.75L113,40,110.83,36a5.23,5.23,0,0,1-.7-1.59.43.43,0,0,1,.2-.32,1.3,1.3,0,0,1,.73-.15h.25v-.32H105.6V34a1.53,1.53,0,0,1,.92.28A7.64,7.64,0,0,1,107.69,36l2.81,5.11v2.39a3.7,3.7,0,0,1-.1,1.1.92.92,0,0,1-.36.43,1.66,1.66,0,0,1-.84.18h-.62v.33h6.69v-.33h-.67a1.5,1.5,0,0,1-.76-.17.9.9,0,0,1-.38-.4,3.65,3.65,0,0,1-.1-1.14V40.64Z"/><path class="cls-1" d="M131.11,45.24h-.24v.33h5.77v-.33a1.31,1.31,0,0,1-.84-.32,5.94,5.94,0,0,1-1-1.75l-4.29-9.77h-.17l-4.26,9.51a7.42,7.42,0,0,1-1,1.8,1.77,1.77,0,0,1-1.06.53v.33h4v-.33a3.62,3.62,0,0,1-1.17-.21.81.81,0,0,1-.41-.74,2.72,2.72,0,0,1,.25-1l.5-1.16h4.21l.63,1.49a5.42,5.42,0,0,1,.27.66,1.25,1.25,0,0,1,.05.32.48.48,0,0,1-.19.41A1.83,1.83,0,0,1,131.11,45.24Zm-3.68-3.72,1.83-4.1,1.77,4.1Z"/><path class="cls-1" d="M152.58,34.16a1.1,1.1,0,0,1,.56-.19v-.32h-3.09V34a1.58,1.58,0,0,1,.94.23.69.69,0,0,1,.25.56,2.14,2.14,0,0,1-.08.54,9.93,9.93,0,0,1-.37,1.08l-1.95,5.11-2.17-5.65a6.19,6.19,0,0,1-.39-1.23.52.52,0,0,1,.1-.33.56.56,0,0,1,.29-.21,3.32,3.32,0,0,1,.87-.1v-.32h-5.77V34a1.85,1.85,0,0,1,.84.15,1.33,1.33,0,0,1,.5.5,8.88,8.88,0,0,1,.63,1.38l.49,1.27-1.87,4.52L140,36a5.08,5.08,0,0,1-.43-1.41.54.54,0,0,1,.21-.43,1.45,1.45,0,0,1,.83-.19v-.32h-5.17V34a1.14,1.14,0,0,1,.8.36,10,10,0,0,1,.83,1.78L141,45.84h.33l3.25-7.68,2.95,7.68h.35L151.62,36c.34-.84.52-1.29.56-1.36A1.22,1.22,0,0,1,152.58,34.16Z"/><path class="cls-1" d="M162.85,43.17l-4.3-9.77h-.17l-4.26,9.51a7.42,7.42,0,0,1-1,1.8,1.77,1.77,0,0,1-1.06.53v.33h4v-.33a3.62,3.62,0,0,1-1.17-.21.8.8,0,0,1-.4-.74,2.67,2.67,0,0,1,.24-1l.5-1.16h4.21l.64,1.49a6.49,6.49,0,0,1,.26.66,1.25,1.25,0,0,1,.05.32.48.48,0,0,1-.19.41,1.81,1.81,0,0,1-1,.19h-.23v.33h5.76v-.33a1.34,1.34,0,0,1-.84-.32A5.76,5.76,0,0,1,162.85,43.17Zm-7.36-1.65,1.83-4.1,1.77,4.1Z"/><path class="cls-1" d="M170.62,44.69a3.66,3.66,0,0,1-.12-1.22V40.13h.79l3.84,5.44h3.75v-.33a1.49,1.49,0,0,1-.83-.3,5.73,5.73,0,0,1-.8-1l-2.87-4a3.86,3.86,0,0,0,1.7-.82,2.82,2.82,0,0,0,.95-2.18,2.91,2.91,0,0,0-.64-1.88,3.14,3.14,0,0,0-1.63-1.1,12.06,12.06,0,0,0-3.17-.3h-5.53V34a2.79,2.79,0,0,1,1.11.15.86.86,0,0,1,.42.4,3.66,3.66,0,0,1,.12,1.22v7.73a3.66,3.66,0,0,1-.12,1.22,1,1,0,0,1-.41.4,2.81,2.81,0,0,1-1.12.15v.33h6.1v-.33a2.81,2.81,0,0,1-1.12-.15A.86.86,0,0,1,170.62,44.69Zm-.12-10.4h.95A2.3,2.3,0,0,1,174.13,37a3,3,0,0,1-.34,1.53,1.81,1.81,0,0,1-1,.81,5.84,5.84,0,0,1-1.82.22h-.51Z"/><path class="cls-1" d="M187,45.46a7.73,7.73,0,0,0,2.05-.65,4.85,4.85,0,0,0,1.48-1.1A5.36,5.36,0,0,0,191.61,42a6.91,6.91,0,0,0-.42-5.58,5.06,5.06,0,0,0-2.41-2.15,8.49,8.49,0,0,0-3.44-.58H180V34h.39a1.64,1.64,0,0,1,.8.17.87.87,0,0,1,.39.4,4.15,4.15,0,0,1,.1,1.15v7.84a4.25,4.25,0,0,1-.08,1.1,1,1,0,0,1-.41.45,1.6,1.6,0,0,1-.8.16H180v.33h5.33A9.61,9.61,0,0,0,187,45.46Zm-2.41-.93a3.15,3.15,0,0,1-.07-.91v-9.3a5.82,5.82,0,0,1,2.1.27,3.05,3.05,0,0,1,1.47,1.46,7.88,7.88,0,0,1,.72,3.66,6.83,6.83,0,0,1-1.05,4.2,2.67,2.67,0,0,1-2.25,1,1.42,1.42,0,0,1-.68-.13A.53.53,0,0,1,184.62,44.53Z"/><path class="cls-1" d="M198.33,45.85a4.18,4.18,0,0,0,3-1.08,3.4,3.4,0,0,0,1.16-2.57,3.27,3.27,0,0,0-.72-2.09,8.61,8.61,0,0,0-2.82-2,19.47,19.47,0,0,1-1.91-1,3.11,3.11,0,0,1-.81-.82,1.29,1.29,0,0,1-.19-.7,1.46,1.46,0,0,1,.52-1.11,2,2,0,0,1,1.42-.48,3.16,3.16,0,0,1,2.16.91,4.05,4.05,0,0,1,1.25,2.41h.36l-.09-4h-.27a1.51,1.51,0,0,1-.24.68.45.45,0,0,1-.36.14,2.29,2.29,0,0,1-.83-.28,5.63,5.63,0,0,0-1-.39,4.22,4.22,0,0,0-1.13-.15,3.65,3.65,0,0,0-2.63,1,3.2,3.2,0,0,0-1.05,2.42,3.15,3.15,0,0,0,.38,1.53,4.31,4.31,0,0,0,1.1,1.26A13.72,13.72,0,0,0,197.92,41a9.77,9.77,0,0,1,1.61.93,2.46,2.46,0,0,1,.68.75,1.64,1.64,0,0,1,.23.82,1.67,1.67,0,0,1-.59,1.25,2.25,2.25,0,0,1-1.56.53,3.46,3.46,0,0,1-2.38-1,5.13,5.13,0,0,1-1.49-2.89h-.33v4.5h.33a1.21,1.21,0,0,1,.41-.54.83.83,0,0,1,.49-.17,1.8,1.8,0,0,1,.69.17,7.24,7.24,0,0,0,1.26.43A4.47,4.47,0,0,0,198.33,45.85Z"/><rect class="cls-1" x="84.36" y="61.9" width="1.14" height="6.95"/><path class="cls-1" d="M91.37,62.18A2.93,2.93,0,0,0,90,61.9h-2.4v6.95h1.14V66H90a3.07,3.07,0,0,0,1.41-.29,1.92,1.92,0,0,0,.8-.77,2.15,2.15,0,0,0,.25-1,2.11,2.11,0,0,0-.28-1A1.88,1.88,0,0,0,91.37,62.18ZM91,64.81a1.44,1.44,0,0,1-1,.29H88.76V62.83H90q1.29,0,1.29,1.14A1.11,1.11,0,0,1,91,64.81Z"/><polygon class="cls-1" points="101.03 68.85 103.08 61.9 101.86 61.9 100.42 67.53 98.97 61.9 97.69 61.9 96.13 67.56 94.69 61.9 93.48 61.9 95.45 68.86 96.73 68.85 98.28 63.59 99.74 68.85 101.03 68.85"/><path class="cls-1" d="M114.49,68.85l-1.69-1.68.25-.41.9-1.54h-1.23L112,66.39l-1.84-1.83a4.51,4.51,0,0,1-.55-.68,1.1,1.1,0,0,1-.15-.54.61.61,0,0,1,.2-.47.77.77,0,0,1,.54-.2.67.67,0,0,1,.52.21.83.83,0,0,1,.18.57h1.14a1.58,1.58,0,0,0-.17-.87,1.46,1.46,0,0,0-.62-.61,2.08,2.08,0,0,0-1-.23,2.32,2.32,0,0,0-1,.21,1.6,1.6,0,0,0-.68.57,1.45,1.45,0,0,0-.23.82,1.87,1.87,0,0,0,.12.68,2.3,2.3,0,0,0,.41.65,2.78,2.78,0,0,0-1.23.9,2.12,2.12,0,0,0-.4,1.28,2,2,0,0,0,.31,1.13,2,2,0,0,0,.88.74,3,3,0,0,0,1.31.26,3.52,3.52,0,0,0,1.32-.24,3.34,3.34,0,0,0,1.08-.75l.87.86ZM109.73,68a1.39,1.39,0,0,1-1-.34,1.1,1.1,0,0,1-.38-.86c0-.63.39-1.1,1.18-1.42l1.83,1.85A2.17,2.17,0,0,1,109.73,68Z"/><path class="cls-1" d="M122.56,65.28a1.82,1.82,0,0,0,.86-.59,1.56,1.56,0,0,0,.32-1,1.66,1.66,0,0,0-.26-.9,1.84,1.84,0,0,0-.77-.65,2.85,2.85,0,0,0-1.22-.24h-2.65v6.95h2.78a2.87,2.87,0,0,0,1.21-.24,1.94,1.94,0,0,0,.79-.67,1.77,1.77,0,0,0,.28-1,1.75,1.75,0,0,0-.39-1.11A1.59,1.59,0,0,0,122.56,65.28ZM120,62.83h1.4a1.3,1.3,0,0,1,.88.27,1,1,0,0,1,0,1.47,1.36,1.36,0,0,1-.88.25H120Zm2.45,4.81a1.36,1.36,0,0,1-.91.28H120V65.75h1.5a1.4,1.4,0,0,1,.93.3,1,1,0,0,1,.35.81A1,1,0,0,1,122.43,67.64Z"/><polygon class="cls-1" points="125.13 62.83 126.99 62.83 126.99 68.85 128.13 68.85 128.13 62.83 129.98 62.83 129.98 61.9 125.13 61.9 125.13 62.83"/><polygon class="cls-1" points="136.08 67.07 132.65 61.89 131.51 61.89 131.51 68.85 132.65 68.85 132.65 63.66 136.08 68.85 137.22 68.85 137.22 61.89 136.08 61.89 136.08 67.07"/><path class="cls-1" d="M101.84,79.4c.52-.46,1-.86,1.28-1.21A5.44,5.44,0,0,0,104,77a2.81,2.81,0,0,0,.37-1.39,2.15,2.15,0,0,0-.62-1.6,2.32,2.32,0,0,0-1.7-.6,2.22,2.22,0,0,0-2.35,2.35h1.1a1.56,1.56,0,0,1,.34-1,1.17,1.17,0,0,1,.92-.38,1.11,1.11,0,0,1,.89.34,1.43,1.43,0,0,1,.29.94,2.12,2.12,0,0,1-.37,1.16,6.35,6.35,0,0,1-.93,1.12c-.37.35-.87.81-1.51,1.36l-.72.62v.83h4.86v-1h-3.17Z"/><path class="cls-1" d="M108.66,73.43a2.17,2.17,0,0,0-2,1,5.26,5.26,0,0,0-.58,2.7,5.39,5.39,0,0,0,.58,2.74,2.56,2.56,0,0,0,4,0,5.39,5.39,0,0,0,.59-2.74,5.25,5.25,0,0,0-.59-2.7A2.16,2.16,0,0,0,108.66,73.43ZM110,78.52a1.76,1.76,0,0,1-.43.92,1.2,1.2,0,0,1-1,.35,1.23,1.23,0,0,1-1-.35,1.83,1.83,0,0,1-.42-.92,8,8,0,0,1-.1-1.41,7.68,7.68,0,0,1,.1-1.37,1.84,1.84,0,0,1,.43-.91,1.43,1.43,0,0,1,1.9,0,1.83,1.83,0,0,1,.42.91,7.59,7.59,0,0,1,.11,1.37A8,8,0,0,1,110,78.52Z"/><polygon class="cls-1" points="112.63 74.6 113.56 74.6 113.56 80.85 114.7 80.85 114.7 73.56 112.63 73.56 112.63 74.6"/><path class="cls-1" d="M119.23,73.39a2.24,2.24,0,0,0-2.42,2.41,2.55,2.55,0,0,0,.3,1.28,2,2,0,0,0,.84.79,2.69,2.69,0,0,0,1.18.26,2.42,2.42,0,0,0,.94-.18,1.59,1.59,0,0,0,.68-.53,4,4,0,0,1-.33,1.91,1.11,1.11,0,0,1-1,.56,1.43,1.43,0,0,1-.89-.26,1.22,1.22,0,0,1-.43-.76h-1a2.08,2.08,0,0,0,.65,1.41,2.25,2.25,0,0,0,1.65.56,2.32,2.32,0,0,0,1.47-.42,2.23,2.23,0,0,0,.74-1.24,8.17,8.17,0,0,0,.22-2.11,5.2,5.2,0,0,0-.58-2.77A2.1,2.1,0,0,0,119.23,73.39Zm1,3.41a1.21,1.21,0,0,1-.94.37,1.4,1.4,0,0,1-1.08-.39,1.49,1.49,0,0,1-.35-1,1.45,1.45,0,0,1,.36-1,1.45,1.45,0,0,1,2,0,1.45,1.45,0,0,1,.37,1.07A1.42,1.42,0,0,1,120.27,76.8Z"/></svg>