<svg id="Layer_1" data-name="Layer 1" xmlns="http://www.w3.org/2000/svg" viewBox="0 0 266.41 75"><defs><style>.cls-1{fill:#fff;}</style></defs><g id="Call_Center-01" data-name="Call Center-01"><path id="Path_31" data-name="Path 31" class="cls-1" d="M82.57,8.53A7.59,7.59,0,0,1,90,.75a2.54,2.54,0,0,1,.39,0,7.5,7.5,0,0,1,6.41,3.46L93.82,5.92a3.88,3.88,0,0,0-3.47-1.84A4.17,4.17,0,0,0,86,8a4,4,0,0,0,0,.49A4.17,4.17,0,0,0,89.85,13h.5a3.85,3.85,0,0,0,3.47-1.84l2.94,1.71a7.39,7.39,0,0,1-6.41,3.46,7.59,7.59,0,0,1-7.78-7.39Z"/><path id="Path_32" data-name="Path 32" class="cls-1" d="M110.35,5.32V16h-3.21V15A4,4,0,0,1,104,16.3a5.37,5.37,0,0,1-5.11-5.62v0A5.39,5.39,0,0,1,104,5h0a4,4,0,0,1,3.18,1.31v-1Zm-3.21,5.35a2.55,2.55,0,0,0-5.09-.29v.29a2.55,2.55,0,0,0,5.09.28A1.31,1.31,0,0,0,107.14,10.67Z"/><path id="Path_33" data-name="Path 33" class="cls-1" d="M113.78.41H117V16h-3.2Z"/><path id="Path_34" data-name="Path 34" class="cls-1" d="M120.38.41h3.21V16h-3.21Z"/><path id="Path_35" data-name="Path 35" class="cls-1" d="M132.88,8.53A7.59,7.59,0,0,1,140.27.75a2.54,2.54,0,0,1,.39,0,7.41,7.41,0,0,1,6.41,3.46l-2.95,1.71a3.85,3.85,0,0,0-3.46-1.84,4.16,4.16,0,0,0-4.36,4,3.84,3.84,0,0,0,0,.48A4.17,4.17,0,0,0,140.17,13h.49a3.83,3.83,0,0,0,3.46-1.84l2.95,1.71a7.4,7.4,0,0,1-6.41,3.46,7.59,7.59,0,0,1-7.78-7.39V8.52Z"/><path id="Path_36" data-name="Path 36" class="cls-1" d="M155.13,13.44a2.86,2.86,0,0,0,2.05-.83l2.56,1.47a5.43,5.43,0,0,1-4.65,2.2c-3.66,0-5.93-2.46-5.93-5.64A5.48,5.48,0,0,1,154.48,5h.36a5.41,5.41,0,0,1,5.44,5.37,2.62,2.62,0,0,1,0,.28,6.85,6.85,0,0,1-.12,1.28h-7.59a2.44,2.44,0,0,0,2.57,1.51Zm2-3.89a2.41,2.41,0,0,0-4.6,0Z"/><path id="Path_37" data-name="Path 37" class="cls-1" d="M173.41,9.44V16h-3.2V9.92A1.78,1.78,0,0,0,168.64,8h-.29c-1.18,0-2,.68-2,2.2V16h-3.2V5.32h3.2v1A3.68,3.68,0,0,1,169.42,5C171.56,5,173.41,6.56,173.41,9.44Z"/><path id="Path_38" data-name="Path 38" class="cls-1" d="M180.63,8.39v3.79c0,.92.83,1,2.2.92V16c-4.16.44-5.41-.83-5.41-3.82V8.39h-1.67V5.32h1.67v-2l3.21-1v3h2.2V8.39Z"/><path id="Path_39" data-name="Path 39" class="cls-1" d="M191.15,13.44a2.87,2.87,0,0,0,2.06-.83l2.57,1.47a5.44,5.44,0,0,1-4.67,2.2c-3.65,0-5.92-2.46-5.92-5.64A5.48,5.48,0,0,1,190.51,5h.37a5.4,5.4,0,0,1,5.43,5.37,2.62,2.62,0,0,1,0,.28,6.11,6.11,0,0,1-.13,1.28h-7.59a2.43,2.43,0,0,0,2.56,1.51Zm2-3.89a2.4,2.4,0,0,0-4.59,0Z"/><path id="Path_40" data-name="Path 40" class="cls-1" d="M205.59,5.1V8.74c-1.32-.21-3.2.32-3.2,2.43V16h-3.21V5.32h3.19v1.9A3.22,3.22,0,0,1,205.59,5.1Z"/><path id="Path_52" data-name="Path 52" class="cls-1" d="M233.18,75h-200a33.22,33.22,0,0,1,0-66.44h7.59a1.25,1.25,0,0,1,0,2.5H33.22a30.72,30.72,0,1,0,0,61.44h200a30.72,30.72,0,1,0,0-61.44h-7.58a1.25,1.25,0,0,1,0-2.5h7.57A33.22,33.22,0,1,1,233.55,75Z"/><path id="Path_53" data-name="Path 53" class="cls-1" d="M68.29,13.1a7.53,7.53,0,0,1-.83-.08A2.14,2.14,0,0,1,65.79,11V8.67A2.16,2.16,0,0,1,68,6.56h.09a3.86,3.86,0,0,1,.49.09h.2a7.4,7.4,0,0,0-2.06-3.46A7.4,7.4,0,0,0,61.6,1.07a7.57,7.57,0,0,0-7.5,5.57l.28-.07a2.2,2.2,0,0,1,2.7,2.07v2.23a2.18,2.18,0,0,1-4.33.34V8.36a8.5,8.5,0,0,1,3-6.29,8.86,8.86,0,0,1,6-2.06,8.73,8.73,0,0,1,8.26,7.81v3.07a2.06,2.06,0,0,1-.12.78c-.11.32-.21.65-.33,1a8.67,8.67,0,0,1-6.56,5.7,3.54,3.54,0,0,1-.45.08.27.27,0,0,0-.26.18,1.52,1.52,0,0,1-1.16.95,1.67,1.67,0,1,1,1.06-2.44c.15.25.15.25.43.19a7.5,7.5,0,0,0,5.57-4.16v-.06S68.29,13.08,68.29,13.1ZM66.86,9.77h0v1.09A1.09,1.09,0,0,0,67.92,12a1.07,1.07,0,0,0,1.11-1V8.65a1.08,1.08,0,0,0-2.16,0c0,.4,0,.78,0,1.16ZM56,9.77h0V8.62a1.08,1.08,0,1,0-2.16,0v2.19a.33.33,0,0,0,0,.14,1,1,0,0,0,.73.91,1.07,1.07,0,0,0,1.37-.66,1.7,1.7,0,0,0,.06-.31V9.77Z"/></g><path class="cls-1" d="M38.19,33.43q1.94-2.89,6.27-2.89t6.26,2.89a14,14,0,0,1,2,7.92q0,5.09-2,8t-6.26,2.89q-4.34,0-6.27-2.89t-1.95-8A14,14,0,0,1,38.19,33.43Zm8.93,3.38a2.57,2.57,0,0,0-2.66-1.6,2.56,2.56,0,0,0-2.66,1.6,12.51,12.51,0,0,0-.65,4.54,18.63,18.63,0,0,0,.24,3.29,4.13,4.13,0,0,0,1,2.1,3.17,3.17,0,0,0,4.23,0,4.13,4.13,0,0,0,1-2.1,18.63,18.63,0,0,0,.24-3.29A12.77,12.77,0,0,0,47.12,36.81Z"/><path class="cls-1" d="M56,47.57c1.91-1.57,3.41-2.87,4.51-3.88a18.65,18.65,0,0,0,2.79-3.19,5.75,5.75,0,0,0,1.14-3.24,2.86,2.86,0,0,0-.55-1.87,2.32,2.32,0,0,0-3.41.16,3.82,3.82,0,0,0-.62,2.35H55.06a8.33,8.33,0,0,1,1.07-4.15,6.14,6.14,0,0,1,2.66-2.45,8.33,8.33,0,0,1,3.67-.79,7.06,7.06,0,0,1,5.24,1.78,6.32,6.32,0,0,1,1.77,4.65,9.12,9.12,0,0,1-2.13,5.8A31.68,31.68,0,0,1,61.9,48h7.89V52H55.12V48.31C55.78,47.78,56.09,47.54,56,47.57Z"/><path class="cls-1" d="M71.46,35.62V31h8.09V52.31h-5.2V35.62Z"/><path class="cls-1" d="M89.9,47.57c1.91-1.57,3.41-2.87,4.51-3.88A18.65,18.65,0,0,0,97.2,40.5a5.75,5.75,0,0,0,1.14-3.24,2.86,2.86,0,0,0-.55-1.87,2.32,2.32,0,0,0-3.41.16,3.82,3.82,0,0,0-.63,2.35H88.93A8.33,8.33,0,0,1,90,33.75a6.14,6.14,0,0,1,2.66-2.45,8.32,8.32,0,0,1,3.66-.79,7.08,7.08,0,0,1,5.25,1.78,6.32,6.32,0,0,1,1.77,4.65,9.12,9.12,0,0,1-2.13,5.8A31.68,31.68,0,0,1,95.77,48h7.89V52H89V48.31C89.65,47.78,90,47.54,89.9,47.57Z"/><path class="cls-1" d="M106.58,47.57c1.91-1.57,3.42-2.87,4.52-3.88a18.65,18.65,0,0,0,2.79-3.19A5.75,5.75,0,0,0,115,37.26a2.86,2.86,0,0,0-.56-1.87,2,2,0,0,0-1.66-.67,2,2,0,0,0-1.74.83,3.82,3.82,0,0,0-.63,2.35h-4.82a8.33,8.33,0,0,1,1.06-4.15,6.2,6.2,0,0,1,2.66-2.45,8.36,8.36,0,0,1,3.67-.79,7.08,7.08,0,0,1,5.25,1.78A6.35,6.35,0,0,1,120,36.94a9.12,9.12,0,0,1-2.13,5.8A31.24,31.24,0,0,1,112.46,48h7.89V52H105.68V48.31C106.34,47.78,106.64,47.54,106.58,47.57Z"/><path class="cls-1" d="M122,35.62V31h8.1V52.31H124.9V35.62Z"/><path class="cls-1" d="M135.47,33.43q1.93-2.89,6.27-2.89T148,33.43A14,14,0,0,1,150,41.35q0,5.09-1.95,8t-6.26,2.89q-4.34,0-6.27-2.89t-1.95-8A14,14,0,0,1,135.47,33.43Zm8.93,3.38a3,3,0,0,0-5.32,0,12.51,12.51,0,0,0-.65,4.54,18.63,18.63,0,0,0,.24,3.29,4.13,4.13,0,0,0,1,2.1,3.17,3.17,0,0,0,4.23,0,4.13,4.13,0,0,0,1-2.1,18.63,18.63,0,0,0,.24-3.29A12.77,12.77,0,0,0,144.4,36.81Z"/><path class="cls-1" d="M159.53,36.27a5.23,5.23,0,0,1,.82-2.88,5.67,5.67,0,0,1,2.48-2.08,9.8,9.8,0,0,1,4.1-.77,9.66,9.66,0,0,1,4.07.77,5.64,5.64,0,0,1,2.47,2.08,5.23,5.23,0,0,1,.82,2.88,5,5,0,0,1-.75,2.74,5.14,5.14,0,0,1-2,1.84A5.88,5.88,0,0,1,174,42.94a5.74,5.74,0,0,1,.85,3.12,6.07,6.07,0,0,1-1.06,3.57,6.63,6.63,0,0,1-2.85,2.3,10.45,10.45,0,0,1-8,0,6.63,6.63,0,0,1-2.85-2.3A6.07,6.07,0,0,1,159,46.06a5.79,5.79,0,0,1,.84-3.15,5.71,5.71,0,0,1,2.4-2.06A4.85,4.85,0,0,1,159.53,36.27Zm5.17,7.49a2.61,2.61,0,0,0-.84,2.06,2.65,2.65,0,0,0,.83,2,3.15,3.15,0,0,0,2.24.79,3,3,0,0,0,2.2-.79,2.7,2.7,0,0,0,.81-2,2.6,2.6,0,0,0-.84-2,3.07,3.07,0,0,0-2.17-.76A3.25,3.25,0,0,0,164.7,43.76Zm4.05-8.59a2.52,2.52,0,0,0-4.34,1.88,2.38,2.38,0,0,0,.7,1.8,2.55,2.55,0,0,0,1.82.66,2.5,2.5,0,0,0,1.81-.67,2.42,2.42,0,0,0,.7-1.81A2.45,2.45,0,0,0,168.75,35.17Z"/><path class="cls-1" d="M179.93,32.17a7.63,7.63,0,0,1,5.23-1.69,8.45,8.45,0,0,1,3.75.76,5.38,5.38,0,0,1,3.18,5,4.92,4.92,0,0,1-1,3.14,4.82,4.82,0,0,1-2.25,1.65v.11a5,5,0,0,1,3.6,5.15,6.06,6.06,0,0,1-.84,3.2,5.63,5.63,0,0,1-2.42,2.17,9.76,9.76,0,0,1-9.38-.93,6.64,6.64,0,0,1-2.21-5.2h4.85a2.94,2.94,0,0,0,.73,2,2.67,2.67,0,0,0,2.05.74,2.36,2.36,0,0,0,1.77-.65,2.45,2.45,0,0,0,.62-1.74,2.29,2.29,0,0,0-.89-2,5,5,0,0,0-2.85-.63H183V39.22h.93a4.93,4.93,0,0,0,2.41-.51,1.91,1.91,0,0,0,.92-1.83,2.22,2.22,0,0,0-.58-1.64,2.18,2.18,0,0,0-1.61-.58,2,2,0,0,0-1.65.67,3,3,0,0,0-.63,1.67h-4.88A6.42,6.42,0,0,1,179.93,32.17Z"/><path class="cls-1" d="M210.41,35.33h-9.12v4a4.34,4.34,0,0,1,1.64-1,6.28,6.28,0,0,1,2.28-.41,6.19,6.19,0,0,1,3.63,1A5.77,5.77,0,0,1,211,41.47a8.59,8.59,0,0,1,.67,3.42,7.51,7.51,0,0,1-1.92,5.42,7.22,7.22,0,0,1-5.44,2,9.61,9.61,0,0,1-4.06-.8,6.27,6.27,0,0,1-2.66-2.24,6.55,6.55,0,0,1-1-3.3h4.88a2.63,2.63,0,0,0,.84,1.5,2.69,2.69,0,0,0,1.85.6,2.4,2.4,0,0,0,2-.88,3.71,3.71,0,0,0,.67-2.33,3.08,3.08,0,0,0-.7-2.19,3.08,3.08,0,0,0-3.68-.28,2.24,2.24,0,0,0-.85,1.27h-4.82V31h13.65Z"/><path class="cls-1" d="M224.11,35.11a2.35,2.35,0,0,0-1.66-.54,2.49,2.49,0,0,0-2.4,1.45,10.87,10.87,0,0,0-.76,4.57A4.39,4.39,0,0,1,221.15,39a6.64,6.64,0,0,1,7.27,1.23,7,7,0,0,1,1.74,5.06A7.85,7.85,0,0,1,229.3,49a6.13,6.13,0,0,1-2.51,2.51,8.07,8.07,0,0,1-3.91.91q-4.5,0-6.25-2.82c-1.17-1.88-1.75-4.59-1.75-8.11,0-3.7.62-6.46,1.85-8.26s3.22-2.7,6-2.7a7.42,7.42,0,0,1,3.7.86,5.9,5.9,0,0,1,2.28,2.26,7.84,7.84,0,0,1,.92,3.07h-4.65A3,3,0,0,0,224.11,35.11Zm-3.58,8a2.71,2.71,0,0,0-.83,2.12,3,3,0,0,0,.77,2.19,3,3,0,0,0,2.21.79,2.67,2.67,0,0,0,2-.78,2.9,2.9,0,0,0,.75-2.11,3.11,3.11,0,0,0-.73-2.17,2.76,2.76,0,0,0-2.11-.79A3,3,0,0,0,220.53,43.09Z"/></svg>