<svg id="Layer_1" data-name="Layer 1" xmlns="http://www.w3.org/2000/svg" viewBox="0 0 660.5 200"><defs><style>.cls-1{fill:#0d5235;}.cls-2{fill:#25d266;}.cls-3{fill:#fcfefd;}</style></defs><rect class="cls-1" width="660.5" height="200" rx="100"/><path class="cls-2" d="M199.82,92.27v15.62c-.73,1.82-.61,3.77-.88,5.66a98.13,98.13,0,0,1-23.71,52.08,98.41,98.41,0,0,1-60.7,33.3c-2.4.37-4.88.27-7.21,1.07H92.09c-.27-.53-.78-.36-1.2-.39a96.49,96.49,0,0,1-11.37-1.69A99.85,99.85,0,0,1,.71,88.45C3.87,61.86,15.91,39.9,36.52,22.92a98.76,98.76,0,0,1,113.24-9.33c27.56,16.09,43.81,40.31,49,71.88C199.12,87.74,199,90.09,199.82,92.27ZM100,161.76a58.27,58.27,0,0,0,13-1.34c32.56-7.21,53.4-37.26,48.69-70.17C156.45,54,120,29.9,84.46,39.33a62.26,62.26,0,0,0-39,89.78,4,4,0,0,1,.31,3.31c-2.63,9.44-5.19,18.9-7.77,28.36-.54,2-.51,2,1.49,1.51,9.79-2.56,19.6-5.1,29.38-7.71a3.86,3.86,0,0,1,3,.32A61.94,61.94,0,0,0,100,161.76Z"/><path class="cls-3" d="M100,161.76a61.94,61.94,0,0,1-28.12-6.86,3.86,3.86,0,0,0-3-.32c-9.78,2.61-19.59,5.15-29.38,7.71-2,.52-2,.48-1.49-1.51,2.58-9.46,5.14-18.92,7.77-28.36a4,4,0,0,0-.31-3.31,62.26,62.26,0,0,1,39-89.78c35.5-9.43,72,14.65,77.17,50.92,4.71,32.91-16.13,63-48.69,70.17A58.27,58.27,0,0,1,100,161.76Zm51.86-62.58a48.12,48.12,0,0,0-.73-8.37c-5.52-33.85-43-53-73.75-37.64a51.6,51.6,0,0,0-21.21,73.34,5.89,5.89,0,0,1,.78,5.25c-1.45,4.78-2.64,9.64-4,14.44-.47,1.61,0,1.77,1.4,1.39,5.2-1.41,10.43-2.72,15.62-4.17a4.42,4.42,0,0,1,3.82.51,50.79,50.79,0,0,0,23,7.21C126.45,153.18,151.81,129.4,151.82,99.18Z"/><path class="cls-2" d="M151.82,99.18c0,30.22-25.37,54-55.09,52a50.79,50.79,0,0,1-23-7.21,4.42,4.42,0,0,0-3.82-.51c-5.19,1.45-10.42,2.76-15.62,4.17-1.41.38-1.87.22-1.4-1.39,1.4-4.8,2.59-9.66,4-14.44a5.89,5.89,0,0,0-.78-5.25A51.6,51.6,0,0,1,77.34,53.17c30.77-15.34,68.23,3.79,73.75,37.64A48.12,48.12,0,0,1,151.82,99.18Zm-35.36,30.14a17,17,0,0,0,2.14,0c5.65-.71,13.12-4.39,13.1-12.94,0-1.13,0-2.23-1.2-2.84-4.25-2.08-8.45-4.28-12.83-6.11a2.51,2.51,0,0,0-3.37,1c-1.45,1.92-3,3.74-4.52,5.62a2.6,2.6,0,0,1-3.41.89A42.82,42.82,0,0,1,85.2,96.65a2.57,2.57,0,0,1,.37-3.5,19.89,19.89,0,0,0,3.76-4.93,3.21,3.21,0,0,0,.22-2.81L84.37,73a3.44,3.44,0,0,0-1.78-2c-2.39-1-6.86-.08-8.71,1.83-5.66,5.86-7.14,13.47-3.31,21.23,6.51,13.23,16.16,23.69,29.42,30.4C105.12,127.1,110.51,129.32,116.46,129.32Z"/><path class="cls-3" d="M116.46,129.32c-5.95,0-11.34-2.22-16.47-4.82-13.26-6.71-22.91-17.17-29.42-30.4-3.83-7.76-2.35-15.37,3.31-21.23C75.73,71,80.2,70,82.59,71a3.44,3.44,0,0,1,1.78,2l5.18,12.39a3.21,3.21,0,0,1-.22,2.81,19.89,19.89,0,0,1-3.76,4.93,2.57,2.57,0,0,0-.37,3.5,42.82,42.82,0,0,0,21.17,18.23,2.6,2.6,0,0,0,3.41-.89c1.49-1.88,3.07-3.7,4.52-5.62a2.51,2.51,0,0,1,3.37-1c4.38,1.83,8.58,4,12.83,6.11,1.23.61,1.2,1.71,1.2,2.84,0,8.55-7.45,12.23-13.1,12.94A17,17,0,0,1,116.46,129.32Z"/><path class="cls-3" d="M264.57,40V84.72H254.34V66.94H240.27V84.72H230V40h10.23V57.09h14.07V40Z"/><path class="cls-3" d="M302.17,52.74v32h-9.59v-3c-1.73,2.36-4.92,3.9-9.15,3.9-6.45,0-12-4.61-12-13.24V52.74h9.6V71c0,4,2.49,5.82,5.56,5.82,3.52,0,5.95-2.05,5.95-6.59V52.74Z"/><path class="cls-3" d="M343.61,68.73c0,9.53-6.91,16.89-15.28,16.89-4.29,0-7.42-1.47-9.53-3.9v3h-9.6V40h9.6v15.8c2.11-2.43,5.24-3.9,9.53-3.9C336.7,51.85,343.61,59.2,343.61,68.73Zm-9.59,0c0-4.79-3.2-7.8-7.61-7.8s-7.61,3-7.61,7.8,3.2,7.81,7.61,7.81S334,73.53,334,68.73Z"/><path class="cls-3" d="M379.29,52.74v32H369.7v-3c-1.73,2.36-4.92,3.9-9.14,3.9-6.46,0-12-4.61-12-13.24V52.74h9.59V71c0,4,2.49,5.82,5.56,5.82,3.52,0,5.95-2.05,5.95-6.59V52.74Z"/><path class="cls-3" d="M417,65.09V84.72h-9.59V66.49c0-4-2.49-5.82-5.56-5.82-3.52,0-5.95,2-5.95,6.59V84.72h-9.59v-32h9.59v3c1.73-2.37,4.92-3.9,9.14-3.9C411.52,51.85,417,56.45,417,65.09Z"/><path class="cls-3" d="M456.42,52.74V83.12c0,10.75-8.38,15.29-16.89,15.29-6.65,0-12.21-2.5-15.16-7.74l8.19-4.73c1.22,2.24,3.07,4,7.29,4,4.48,0,7.23-2.31,7.23-6.85V80.18a11.37,11.37,0,0,1-9.34,4.16c-9.08,0-15.73-7.42-15.73-16.25s6.65-16.24,15.73-16.24A11.34,11.34,0,0,1,447.08,56V52.74Zm-9.34,15.35c0-4.41-3.2-7.42-7.74-7.42s-7.74,3-7.74,7.42,3.2,7.42,7.74,7.42S447.08,72.51,447.08,68.09Z"/><path class="cls-3" d="M462.49,44.17a5.76,5.76,0,1,1,5.75,5.76A5.81,5.81,0,0,1,462.49,44.17Zm1,8.57H473v32h-9.59Z"/><path class="cls-3" d="M527.08,52.74l-11.83,32H504.37l-11.83-32h10.62L509.81,73l6.65-20.28Z"/><path class="cls-3" d="M529.63,44.17a5.76,5.76,0,1,1,5.76,5.76A5.81,5.81,0,0,1,529.63,44.17Zm1,8.57h9.59v32h-9.59Z"/><path class="cls-3" d="M580,52.74v32h-9.6v-3c-2.11,2.43-5.24,3.9-9.53,3.9-8.37,0-15.28-7.36-15.28-16.89s6.91-16.88,15.28-16.88c4.29,0,7.42,1.47,9.53,3.9v-3Zm-9.6,16c0-4.79-3.19-7.8-7.61-7.8s-7.61,3-7.61,7.8,3.2,7.81,7.61,7.81S570.43,73.53,570.43,68.73Z"/><path class="cls-3" d="M226.84,104h10.74l7.74,31.34L254,104h8.31l8.63,31.34L278.64,104h10.75L277,148.79H265.4l-7.29-26.41-7.29,26.41H239.18Z"/><path class="cls-3" d="M323,129.16v19.63h-9.6V130.56c0-4-2.49-5.82-5.56-5.82-3.52,0-5.95,2.05-5.95,6.59v17.46h-9.59V104h9.59v15.8c1.73-2.37,4.93-3.9,9.15-3.9C317.46,115.92,323,120.52,323,129.16Z"/><path class="cls-3" d="M362.35,116.81v32h-9.59v-3c-2.11,2.43-5.25,3.91-9.53,3.91-8.38,0-15.29-7.36-15.29-16.89s6.91-16.88,15.29-16.88c4.28,0,7.42,1.47,9.53,3.9v-3Zm-9.59,16c0-4.79-3.2-7.8-7.61-7.8s-7.62,3-7.62,7.8,3.2,7.8,7.62,7.8S352.76,137.6,352.76,132.8Z"/><path class="cls-3" d="M381.53,126v11.32c0,2.75,2.37,3,6.59,2.75v8.7c-12.54,1.28-16.18-2.49-16.18-11.45V126h-5.12v-9.21h5.12v-6.07l9.59-2.88v9h6.59V126Z"/><path class="cls-3" d="M418.05,139.2c0,7.35-6.4,10.49-13.31,10.49-6.39,0-11.25-2.43-13.75-7.61l8.32-4.74a5.25,5.25,0,0,0,5.43,3.78c2.31,0,3.46-.71,3.46-2,0-3.51-15.74-1.66-15.74-12.72,0-7,5.89-10.49,12.54-10.49a14,14,0,0,1,12.47,6.84l-8.19,4.41a4.63,4.63,0,0,0-4.28-2.81c-1.66,0-2.69.64-2.69,1.79C402.31,129.8,418.05,127.37,418.05,139.2Z"/><path class="cls-3" d="M455.33,116.81v32h-9.59v-3c-2.12,2.43-5.25,3.91-9.53,3.91-8.38,0-15.29-7.36-15.29-16.89s6.91-16.88,15.29-16.88c4.28,0,7.41,1.47,9.53,3.9v-3Zm-9.59,16c0-4.79-3.2-7.8-7.62-7.8s-7.61,3-7.61,7.8,3.2,7.8,7.61,7.8S445.74,137.6,445.74,132.8Z"/><path class="cls-3" d="M496.77,132.8c0,9.53-6.91,16.89-15.29,16.89-4.28,0-7.42-1.48-9.53-3.91v15.8h-9.59V116.81H472v3c2.11-2.43,5.25-3.9,9.53-3.9C489.86,115.92,496.77,123.27,496.77,132.8Zm-9.6,0c0-4.79-3.19-7.8-7.61-7.8s-7.61,3-7.61,7.8,3.2,7.8,7.61,7.8S487.17,137.6,487.17,132.8Z"/><path class="cls-3" d="M536.61,132.8c0,9.53-6.91,16.89-15.29,16.89-4.28,0-7.42-1.48-9.53-3.91v15.8H502.2V116.81h9.59v3c2.11-2.43,5.25-3.9,9.53-3.9C529.7,115.92,536.61,123.27,536.61,132.8Zm-9.6,0c0-4.79-3.2-7.8-7.61-7.8s-7.61,3-7.61,7.8,3.2,7.8,7.61,7.8S527,137.6,527,132.8Z"/></svg>